<?xml version="1.0" encoding="UTF-8"?>
<svg width="11.8in" height="8.0622in" version="1.2" viewBox="0 0 283.2 193.5" xmlns="http://www.w3.org/2000/svg">
 <g partID="57900">
  <g transform="translate(237.55 150.42)">
   <g transform="rotate(90)">
    <g id="schematic">
     <g stroke="#000" stroke-linecap="round" stroke-width=".432">
      <line x1="7.55" x2="8.63" y1="3.096" y2=".216"/>
      <line x1="8.63" x2="10.43" y1=".216" y2="5.976"/>
      <line x1="10.43" x2="12.23" y1="5.976" y2=".216"/>
      <line x1="12.23" x2="14.03" y1=".216" y2="5.976"/>
      <line x1="14.03" x2="15.83" y1="5.976" y2=".216"/>
      <line x1="15.83" x2="17.63" y1=".216" y2="5.976"/>
      <line x1="17.63" x2="19.43" y1="5.976" y2=".216"/>
      <line x1="19.43" x2="21.23" y1=".216" y2="5.976"/>
      <line x1="21.23" x2="21.95" y1="5.976" y2="3.096"/>
     </g>
     <line id="connector1pin" x1="29.15" x2="21.95" y1="3.096" y2="3.096" stroke="#787878" stroke-linecap="round" stroke-width=".7" connectorname="2"/>
     <text x="25.5501" y="2.046" fill="#8c8c8c" font-family="'Droid Sans'" font-size="2.5" stroke-width="0" text-anchor="middle">2</text>
     <line id="connector0pin" x1=".35" x2="7.55" y1="3.096" y2="3.096" stroke="#787878" stroke-linecap="round" stroke-width=".7" connectorname="1"/>
     <text x="3.95001" y="2.046" fill="#8c8c8c" font-family="'Droid Sans'" font-size="2.5" stroke-width="0" text-anchor="middle">1</text>
    </g>
   </g>
  </g>
 </g>
 <g partID="57720">
  <g transform="translate(61.65 13.973)">
   <rect class="interior rect" x="14.85" y="14.85" width="78.3" height="135.9" fill="#fff" stroke="#000" stroke-linecap="round" stroke-width=".9"/>
   <line id="connector61pin" x1="93.25" x2="107.65" y1="28.8" y2="28.8" fill="none" stroke="#787878" stroke-linecap="round" stroke-width=".7"/>
   <text x="91.8499" y="29.4999" fill="#8c8c8c" font-family="'Droid Sans'" font-size="3.5" stroke-width="0" text-anchor="end">D0/RX</text>
   <line id="connector62pin" x1="93.25" x2="107.65" y1="36" y2="36" fill="none" stroke="#787878" stroke-linecap="round" stroke-width=".7"/>
   <text x="91.8499" y="36.6999" fill="#8c8c8c" font-family="'Droid Sans'" font-size="3.5" stroke-width="0" text-anchor="end">D1/TX</text>
   <line id="connector63pin" x1="93.25" x2="107.65" y1="43.2" y2="43.2" fill="none" stroke="#787878" stroke-linecap="round" stroke-width=".7"/>
   <text x="91.8499" y="43.8999" fill="#8c8c8c" font-family="'Droid Sans'" font-size="3.5" stroke-width="0" text-anchor="end">D2</text>
   <line id="connector64pin" x1="93.25" x2="107.65" y1="50.4" y2="50.4" fill="none" stroke="#787878" stroke-linecap="round" stroke-width=".7"/>
   <text x="91.8499" y="51.0999" fill="#8c8c8c" font-family="'Droid Sans'" font-size="3.5" stroke-width="0" text-anchor="end">D3 PWM</text>
   <line id="connector65pin" x1="93.25" x2="107.65" y1="57.6" y2="57.6" fill="none" stroke="#787878" stroke-linecap="round" stroke-width=".7"/>
   <text x="91.8499" y="58.2999" fill="#8c8c8c" font-family="'Droid Sans'" font-size="3.5" stroke-width="0" text-anchor="end">D4</text>
   <line id="connector66pin" x1="93.25" x2="107.65" y1="64.8" y2="64.8" fill="none" stroke="#787878" stroke-linecap="round" stroke-width=".7"/>
   <text x="91.8499" y="65.4999" fill="#8c8c8c" font-family="'Droid Sans'" font-size="3.5" stroke-width="0" text-anchor="end">D5 PWM</text>
   <line id="connector67pin" x1="93.25" x2="107.65" y1="72" y2="72" fill="none" stroke="#787878" stroke-linecap="round" stroke-width=".7"/>
   <text x="91.8499" y="72.6999" fill="#8c8c8c" font-family="'Droid Sans'" font-size="3.5" stroke-width="0" text-anchor="end">D6 PWM</text>
   <line id="connector68pin" x1="93.25" x2="107.65" y1="79.2" y2="79.2" fill="none" stroke="#787878" stroke-linecap="round" stroke-width=".7"/>
   <text x="91.8499" y="79.8999" fill="#8c8c8c" font-family="'Droid Sans'" font-size="3.5" stroke-width="0" text-anchor="end">D7</text>
   <line id="connector51pin" x1="93.25" x2="107.65" y1="86.4" y2="86.4" fill="none" stroke="#787878" stroke-linecap="round" stroke-width=".7"/>
   <text x="91.8499" y="87.0999" fill="#8c8c8c" font-family="'Droid Sans'" font-size="3.5" stroke-width="0" text-anchor="end">D8</text>
   <line id="connector52pin" x1="93.25" x2="107.65" y1="93.6" y2="93.6" fill="none" stroke="#787878" stroke-linecap="round" stroke-width=".7"/>
   <text x="91.8499" y="94.2999" fill="#8c8c8c" font-family="'Droid Sans'" font-size="3.5" stroke-width="0" text-anchor="end">D9 PWM</text>
   <line id="connector53pin" x1="93.25" x2="107.65" y1="100.8" y2="100.8" fill="none" stroke="#787878" stroke-linecap="round" stroke-width=".7"/>
   <text x="91.8499" y="101.5" fill="#8c8c8c" font-family="'Droid Sans'" font-size="3.5" stroke-width="0" text-anchor="end">D10 PWM/SS</text>
   <line id="connector54pin" x1="93.25" x2="107.65" y1="108" y2="108" fill="none" stroke="#787878" stroke-linecap="round" stroke-width=".7"/>
   <text x="91.8499" y="108.7" fill="#8c8c8c" font-family="'Droid Sans'" font-size="3.5" stroke-width="0" text-anchor="end">D11 PWM/MOSI</text>
   <line id="connector55pin" x1="93.25" x2="107.65" y1="115.2" y2="115.2" fill="none" stroke="#787878" stroke-linecap="round" stroke-width=".7"/>
   <text x="91.8499" y="115.9" fill="#8c8c8c" font-family="'Droid Sans'" font-size="3.5" stroke-width="0" text-anchor="end">D12/MISO</text>
   <g fill="none">
    <line id="connector41pin" x1="93.25" x2="107.65" y1="122.4" y2="122.4" stroke-linecap="round" stroke-width="0"/>
    <rect id="connector41terminal" x="107.65" y="122.05" width=".7" height=".7" stroke-width="0"/>
    <line id="connector56pin" x1="93.25" x2="107.65" y1="122.4" y2="122.4" stroke="#787878" stroke-linecap="round" stroke-width=".7"/>
   </g>
   <text x="91.8499" y="123.1" fill="#8c8c8c" font-family="'Droid Sans'" font-size="3.5" stroke-width="0" text-anchor="end">D13/SCK</text>
   <g fill="none">
    <line id="connector43pin" x1=".35" x2="14.75" y1="28.8" y2="28.8" stroke-linecap="round" stroke-width="0"/>
    <rect id="connector43terminal" x="-.35" y="28.45" width=".7" height=".7" stroke-width="0"/>
    <line id="connector85pin" x1=".35" x2="14.75" y1="28.8" y2="28.8" stroke="#787878" stroke-linecap="round" stroke-width=".7"/>
   </g>
   <text x="16.15" y="29.4999" fill="#8c8c8c" font-family="'Droid Sans'" font-size="3.5" stroke-width="0">RESET</text>
   <line id="connector49pin" x1=".35" x2="14.75" y1="36" y2="36" fill="none" stroke="#787878" stroke-linecap="round" stroke-width=".7"/>
   <text x="16.15" y="36.6999" fill="#8c8c8c" font-family="'Droid Sans'" font-size="3.5" stroke-width="0">RESET2</text>
   <rect id="connector49terminal" x="-.35" y="35.65" width=".7" height=".7" fill="none" stroke-width="0"/>
   <line id="connector58pin" x1=".35" x2="14.75" y1="43.2" y2="43.2" fill="none" stroke="#787878" stroke-linecap="round" stroke-width=".7"/>
   <text x="16.15" y="43.8999" fill="#8c8c8c" font-family="'Droid Sans'" font-size="3.5" stroke-width="0">AREF</text>
   <line id="connector84pin" x1=".35" x2="14.75" y1="50.4" y2="50.4" fill="none" stroke="#787878" stroke-linecap="round" stroke-width=".7"/>
   <text x="16.15" y="51.0999" fill="#8c8c8c" font-family="'Droid Sans'" font-size="3.5" stroke-width="0">ioref</text>
   <line x1=".35" x2="14.75" y1="64.8" y2="64.8" fill="none" stroke="#787878" stroke-linecap="round" stroke-width=".7"/>
   <text x="16.15" y="65.4999" fill="#8c8c8c" font-family="'Droid Sans'" font-size="3.5" stroke-width="0">A0</text>
   <line x1=".35" x2="14.75" y1="72" y2="72" fill="none" stroke="#787878" stroke-linecap="round" stroke-width=".7"/>
   <text x="16.15" y="72.6999" fill="#8c8c8c" font-family="'Droid Sans'" font-size="3.5" stroke-width="0">A1</text>
   <line id="connector2pin" x1=".35" x2="14.75" y1="79.2" y2="79.2" fill="none" stroke="#787878" stroke-linecap="round" stroke-width=".7"/>
   <text x="16.15" y="79.8999" fill="#8c8c8c" font-family="'Droid Sans'" font-size="3.5" stroke-width="0">A2</text>
   <line id="connector3pin" x1=".35" x2="14.75" y1="86.4" y2="86.4" fill="none" stroke="#787878" stroke-linecap="round" stroke-width=".7"/>
   <text x="16.15" y="87.0999" fill="#8c8c8c" font-family="'Droid Sans'" font-size="3.5" stroke-width="0">A3</text>
   <g fill="none">
    <g stroke-width="0">
     <line id="connector48pin" x1=".35" x2="14.75" y1="93.6" y2="93.6" stroke-linecap="round"/>
     <rect id="connector48terminal" x="-.35" y="93.25" width=".7" height=".7"/>
     <line id="connector45pin" x1=".35" x2="14.75" y1="93.6" y2="93.6" stroke-linecap="round"/>
     <rect id="connector45terminal" x="-.35" y="93.25" width=".7" height=".7"/>
     <line id="connector4pin" x1=".35" x2="14.75" y1="93.6" y2="93.6" stroke-linecap="round"/>
     <line id="connector39pin" x1=".35" x2="14.75" y1="93.6" y2="93.6" stroke-linecap="round"/>
     <rect id="connector39terminal" x="-.35" y="93.25" width=".7" height=".7"/>
     <line id="connector47pin" x1=".35" x2="14.75" y1="93.6" y2="93.6" stroke-linecap="round"/>
     <rect id="connector47terminal" x="-.35" y="93.25" width=".7" height=".7"/>
     <line id="connector42pin" x1=".35" x2="14.75" y1="93.6" y2="93.6" stroke-linecap="round"/>
     <rect id="connector42terminal" x="-.35" y="93.25" width=".7" height=".7"/>
    </g>
    <line id="connector59pin" x1=".35" x2="14.75" y1="93.6" y2="93.6" stroke="#787878" stroke-linecap="round" stroke-width=".7"/>
   </g>
   <text x="16.15" y="94.2999" fill="#8c8c8c" font-family="'Droid Sans'" font-size="3.5" stroke-width="0">A4/SDA</text>
   <line id="connector5pin" x1=".35" x2="14.75" y1="100.8" y2="100.8" fill="none" stroke-linecap="round" stroke-width="0"/>
   <line id="connector60pin" x1=".35" x2="14.75" y1="100.8" y2="100.8" fill="none" stroke="#787878" stroke-linecap="round" stroke-width=".7"/>
   <text x="16.15" y="101.5" fill="#8c8c8c" font-family="'Droid Sans'" font-size="3.5" stroke-width="0">A5/SCL</text>
   <line id="connector91pin" x1=".35" x2="14.75" y1="136.8" y2="136.8" fill="none" stroke="#787878" stroke-linecap="round" stroke-width=".7"/>
   <text x="16.15" y="137.5" fill="#8c8c8c" font-family="'Droid Sans'" font-size="3.5" stroke-width="0">N/C</text>
   <g fill="none">
    <g stroke-width="0">
     <g stroke-linecap="round">
      <line id="connector88pin" x1="57.6" x2="57.6" y1="150.85" y2="165.25"/>
      <line id="connector57pin" x1="57.6" x2="57.6" y1="150.85" y2="165.25"/>
      <line id="connector44pin" x1="57.6" x2="57.6" y1="150.85" y2="165.25"/>
     </g>
     <rect id="connector44terminal" x="57.25" y="165.25" width=".7" height=".7"/>
     <line id="connector50pin" x1="57.6" x2="57.6" y1="150.85" y2="165.25" stroke-linecap="round"/>
     <rect id="connector50terminal" x="57.25" y="165.25" width=".7" height=".7"/>
    </g>
    <line id="connector89pin" x1="57.6" x2="57.6" y1="150.85" y2="165.25" stroke="#787878" stroke-linecap="round" stroke-width=".7"/>
   </g>
   <g transform="translate(58.3 149.45)">
    <g transform="rotate(270)">
     <text fill="#8c8c8c" font-family="'Droid Sans'" font-size="3.5" stroke-width="0">GND</text>
    </g>
   </g>
   <line id="connector86pin" x1="36" x2="36" y1=".35" y2="14.75" fill="none" stroke="#787878" stroke-linecap="round" stroke-width=".7"/>
   <g transform="translate(36.7 16.15)">
    <g transform="rotate(270)">
     <text fill="#8c8c8c" font-family="'Droid Sans'" font-size="3.5" stroke-width="0" text-anchor="end">3V3</text>
    </g>
   </g>
   <g fill="none">
    <g stroke-width="0">
     <line id="connector40pin" x1="50.4" x2="50.4" y1=".35" y2="14.75" stroke-linecap="round"/>
     <rect id="connector40terminal" x="50.05" y="-.35" width=".7" height=".7"/>
     <line id="connector46pin" x1="50.4" x2="50.4" y1=".35" y2="14.75" stroke-linecap="round"/>
     <rect id="connector46terminal" x="50.05" y="-.35" width=".7" height=".7"/>
    </g>
    <line id="connector87pin" x1="50.4" x2="50.4" y1=".35" y2="14.75" stroke="#787878" stroke-linecap="round" stroke-width=".7"/>
   </g>
   <g transform="translate(51.1 16.15)">
    <g transform="rotate(270)">
     <text fill="#8c8c8c" font-family="'Droid Sans'" font-size="3.5" stroke-width="0" text-anchor="end">5V</text>
    </g>
   </g>
   <line id="connector90pin" x1="64.8" x2="64.8" y1=".35" y2="14.75" fill="none" stroke="#787878" stroke-linecap="round" stroke-width=".7"/>
   <g transform="translate(65.5 16.15)">
    <g transform="rotate(270)">
     <text fill="#8c8c8c" font-family="'Droid Sans'" font-size="3.5" stroke-width="0" text-anchor="end">VIN</text>
    </g>
   </g>
   <g font-family="'Droid Sans'" font-size="4.25" stroke-width="0" text-anchor="middle">
    <text id="label" x="54.4501" y="76.4498">Arduino</text>
    <text x="54.4501" y="80.9833">Uno</text>
    <text x="54.4501" y="85.5167">(Rev3)</text>
   </g>
  </g>
 </g>
 <g partID="64980">
  <g transform="translate(4.0685)">
   <line x1="7.2" x2="7.2" y1="6.78" y2="13.98" fill="none" stroke="#787878" stroke-linecap="round" stroke-miterlimit="10" stroke-width=".75"/>
   <path d="m0.45 6.564h13.5" fill="none" stroke="#000" stroke-linecap="round" stroke-width=".9"/>
   <g transform="translate(1.4985 4.9878)">
    <text font-family="'DroidSans'" font-size="4.4991">5V</text>
   </g>
  </g>
 </g>
 <g partID="64620">
  <g transform="translate(244.6 128.82)">
   <g transform="scale(-1 1)">
    <g stroke="#000" stroke-linecap="round">
     <line x1="13.752" x2="10.152" y1="14.75" y2="14.75" fill="none" stroke-width=".5"/>
     <line x1="10.152" x2="6.552" y1="14.75" y2="14.75" fill="none" stroke-width=".5"/>
     <polygon points="13.752 7.55 10.152 14.75 6.552 7.55 10.152 7.55" fill="#fff" stroke-linejoin="round" stroke-width=".9"/>
    </g>
    <g fill="none" stroke-linecap="round">
     <line x1="4.392" x2="1.543" y1="9.71" y2="12.558" stroke="#000" stroke-width=".5"/>
     <line x1="4.752" x2="1.859" y1="12.951" y2="15.843" stroke="#000" stroke-width=".5"/>
     <line x1="10.152" x2="10.152" y1="21.951" y2="14.75" stroke="#787878" stroke-width=".75"/>
    </g>
    <g transform="translate(3.211 6.4735)">
     <g transform="rotate(270)">
      <g transform="translate(-12.564 5.8908)">
       <text fill="#8C8C8C" font-family="'DroidSans'" font-size="2.5">2</text>
      </g>
     </g>
    </g>
    <line x1="10.152" x2="10.152" y1=".35" y2="7.55" fill="none" stroke="#787878" stroke-linecap="round" stroke-width=".75"/>
    <g transform="translate(3.211 1.3935)">
     <g transform="rotate(270)">
      <g transform="translate(-3.2457 5.8908)">
       <text fill="#8C8C8C" font-family="'DroidSans'" font-size="2.5">1</text>
      </g>
     </g>
    </g>
    <path d="m0.432 13.669 1.08-2.52 1.44 1.439-2.52 1.081z" stroke="#000" stroke-linecap="round" stroke-linejoin="round" stroke-width=".2"/>
    <path d="m0.792 16.91 1.08-2.52 1.439 1.439-2.519 1.081z" stroke="#000" stroke-linecap="round" stroke-linejoin="round" stroke-width=".2"/>
   </g>
  </g>
 </g>
 <g partID="57750">
  <g transform="translate(104.87 8e-5)">
   <line x1="7.2" x2="7.2" y1="6.78" y2="13.98" fill="none" stroke="#787878" stroke-linecap="round" stroke-miterlimit="10" stroke-width=".75"/>
   <path d="m0.45 6.564h13.5" fill="none" stroke="#000" stroke-linecap="round" stroke-width=".9"/>
   <g transform="translate(1.4985 4.9878)">
    <text font-family="'DroidSans'" font-size="4.4991">5V</text>
   </g>
  </g>
 </g>
 <g partID="64960">
  <g transform="translate(4.0495 179.1)">
   <g fill="none" stroke-linecap="round">
    <path d="m7.201 7.575v-7.2" stroke="#787878" stroke-width=".75"/>
    <g stroke="#000" stroke-width=".9">
     <path d="m0.5 7.711h13.4"/>
     <path d="m2.732 10.456h8.935"/>
     <path d="m9.431 13.175h-4.464"/>
    </g>
   </g>
  </g>
 </g>
 <g partID="64650">
  <g transform="translate(227.25 179.1)">
   <g fill="none" stroke-linecap="round">
    <path d="m7.201 7.575v-7.2" stroke="#787878" stroke-width=".75"/>
    <g stroke="#000" stroke-width=".9">
     <path d="m0.5 7.711h13.4"/>
     <path d="m2.732 10.456h8.935"/>
     <path d="m9.431 13.175h-4.464"/>
    </g>
   </g>
  </g>
 </g>
 <g partID="57810">
  <g transform="translate(112.05 179.1)">
   <g fill="none" stroke-linecap="round">
    <path d="m7.201 7.575v-7.2" stroke="#787878" stroke-width=".75"/>
    <g stroke="#000" stroke-width=".9">
     <path d="m0.5 7.711h13.4"/>
     <path d="m2.732 10.456h8.935"/>
     <path d="m9.431 13.175h-4.464"/>
    </g>
   </g>
  </g>
 </g>
 <g partID="64840">
  <g transform="translate(194.82 132.77)">
   <g transform="scale(-1 1)">
    <rect x="14.363" width="3.6" height="7.2" fill="none" stroke-width="0"/>
    <polygon points="17.851 3.6 14.371 0.12 0.12 0.12 0.12 7.08 14.371 7.08" fill="#fff" stroke="#000" stroke-width=".24"/>
   </g>
  </g>
 </g>
 <g partID="64810">
  <g transform="translate(252.42 118.37)">
   <g transform="scale(-1 1)">
    <rect x="14.363" width="3.6" height="7.2" fill="none" stroke-width="0"/>
    <polygon points="17.851 3.6 14.371 0.12 0.12 0.12 0.12 7.08 14.371 7.08" fill="#fff" stroke="#000" stroke-width=".24"/>
   </g>
  </g>
 </g>
 <g partID="65000">
  <g transform="translate(0,74.785)">
   <g fill="none" stroke-linecap="round">
    <g stroke="#000">
     <g stroke-width=".9">
      <line x1="22.05" x2=".45" y1="11.188" y2="11.188"/>
      <line x1="14.851" x2="7.65" y1="14.788" y2="14.788"/>
      <line x1="22.05" x2=".45" y1="18.388" y2="18.388"/>
      <line x1="14.851" x2="7.65" y1="21.988" y2="21.988"/>
     </g>
     <line x1="11.25" x2="11.25" y1="7.588" y2="11.188" stroke-width=".75"/>
    </g>
    <line x1="11.25" x2="11.25" y1="29.188" y2="21.988" stroke="#787878" stroke-width=".75"/>
   </g>
   <g transform="translate(12.381 26.357)">
    <text fill="#8C8C8C" font-family="'DroidSans'" font-size="2.5">1</text>
   </g>
   <line x1="11.25" x2="11.25" y1=".388" y2="7.588" fill="none" stroke="#787878" stroke-linecap="round" stroke-width=".75"/>
   <g transform="translate(12.381 4.7578)">
    <text fill="#8C8C8C" font-family="'DroidSans'" font-size="2.5">2</text>
   </g>
   <g transform="translate(7.8984 4.7578)">
    <text fill="#F8141F" font-family="'DroidSans'" font-size="2.5">+</text>
   </g>
   <g transform="translate(8.792 26.072)">
    <text font-family="'DroidSans'" font-size="2.5">-</text>
   </g>
  </g>
 </g>
 <g partID="64841">
  <g transform="translate(176.85 132.77)">
   <g id="schematicText">
    <text x="3.5" y="5.28" fill="#000000" font-family="Droid Sans" font-size="4.8">Pin 13</text>
   </g>
  </g>
 </g>
 <g partID="64811">
  <g transform="translate(234.45 118.37)">
   <text x="3.5" y="5.28" fill="#000000" font-family="Droid Sans" font-size="4.8">Pin 13</text>
  </g>
 </g>
 <g partID="57780">
  <line x1="112.05" x2="112.05" y1="13.973" y2="13.973" stroke="#404040" stroke-linecap="round" stroke-width=".7"/>
 </g>
 <g partID="57840">
  <line x1="119.25" x2="119.25" y1="179.57" y2="179.57" stroke="#404040" stroke-linecap="round" stroke-width=".7"/>
 </g>
 <g partID="64670">
  <line x1="234.45" x2="234.45" y1="179.57" y2="179.57" stroke="#404040" stroke-linecap="round" stroke-width=".7"/>
 </g>
 <g partID="64740">
  <line x1="234.45" x2="234.45" y1="150.77" y2="150.77" stroke="#404040" stroke-linecap="round" stroke-width=".7"/>
 </g>
 <g partID="64860">
  <line x1="234.45" x2="234.45" y1="129.17" y2="121.97" stroke="#404040" stroke-linecap="round" stroke-width=".7"/>
 </g>
 <g partID="64890">
  <line x1="169.65" x2="176.85" y1="136.37" y2="136.37" stroke="#404040" stroke-linecap="round" stroke-width=".7"/>
 </g>
 <g partID="65030">
  <line x1="11.25" x2="11.25" y1="13.973" y2="78.773" stroke="#404040" stroke-linecap="round" stroke-width=".7"/>
 </g>
 <g partID="65060">
  <line x1="11.25" x2="11.25" y1="179.57" y2="100.37" stroke="#404040" stroke-linecap="round" stroke-width=".7"/>
 </g>
 <g id="partLabel" partID="57900">
  <g transform="translate(243.7 158.91)">
   <g id="schematicLabel" font-family="'DroidSans'" font-size="5">
    <text y="3.75">resistor</text>
    <text y="8.75">560Ω</text>
    <text
     font-size="3.2"
     x="0"
     y="11.95">(green-blue-brown)</text>
    <text
     font-size="3.2"
     x="0"
     y="15.7">(green-blue-black-black)</text>
    <text
     x="-1"
     y="27"
     id="text635">gnd</text>
    <text
     font-size="3.2"
     x="-1"
     y="31.5">(ground) (-)</text>
   </g>
  </g>
 </g>
 <g partID="64620">
  <g transform="translate(248.07 137.44)">
   <g font-family="'DroidSans'" font-size="5">
    <text y="3.75">LED</text>
    <text
     font-size="3.2"
     x="0"
     y="7.2">(light emitting diode)</text>
    <text
     font-size="3.2"
     x="5"
     y="-8">longer lead</text>
    <g transform="translate(-13,-6) rotate(80,0,0)">
     <path d="m0,0 -1.8,-4 1.8,0.9 1.9,-0.9 z" stroke="none" fill="black"/>
     <path d="m0,-3.1 v -14" stroke="black" stroke-width="1" fill="none"/>
    </g>
   </g>
  </g>
 </g>
 <g partID="65000">
  <g transform="translate(23.469 86.195)">
   <g font-family="'DroidSans'" font-size="5">
    <text y="3.75">power</text>
    <text y="8.75">5</text>
   </g>
  </g>
 </g>
</svg>
