<svg xmlns="http://www.w3.org/2000/svg" version="1.2" width="314.124" height="257.995" viewBox="0 0 235.593 193.496"><path fill="#FFF" d="M202.284 118.373a7.2 7.2 0 0 1-14.4.002V103.973a7.2 7.2 0 1 1 14.4-.002V118.373z" stroke="#000" stroke-width=".9"/><path fill="none" stroke="#000" stroke-linecap="round" stroke-width=".5" d="M202.284 106.853h-1.44"/><path fill="none" d="M200.844 106.853c-.795 0-1.44.646-1.44 1.44" stroke="#000" stroke-width=".5"/><path fill="none" stroke="#000" stroke-linecap="round" stroke-width=".5" d="M199.404 108.293v6.48"/><path fill="none" d="M199.404 114.773a1.08 1.08 0 1 1-2.16 0" stroke="#000" stroke-width=".5"/><path fill="none" stroke="#000" stroke-linecap="round" stroke-width=".5" d="M197.244 107.573v7.2"/><path fill="none" d="M195.084 107.573a1.08 1.08 0 1 1 2.16 0" stroke="#000" stroke-width=".5"/><path fill="none" stroke="#000" stroke-linecap="round" stroke-width=".5" d="M195.084 107.573v7.2"/><path fill="none" d="M195.084 114.773a1.08 1.08 0 1 1-2.16.002v-.002" stroke="#000" stroke-width=".5"/><path fill="none" stroke="#000" stroke-linecap="round" stroke-width=".5" d="M192.924 107.573v7.2"/><path fill="none" d="M190.764 107.573a1.08 1.08 0 1 1 2.16 0" stroke="#000" stroke-width=".5"/><path fill="none" stroke="#000" stroke-linecap="round" stroke-width=".5" d="M190.764 107.573v6.48"/><path fill="none" d="M189.324 115.493a1.44 1.44 0 0 0 1.439-1.44" stroke="#000" stroke-width=".5"/><path fill="none" stroke="#000" stroke-linecap="round" stroke-width=".5" d="M189.324 115.493h-1.44"/><path fill="none" stroke="#787878" stroke-linecap="round" stroke-width=".75" d="M195.084 89.573v7.2"/><text font-family="'DroidSans'" fill="#8C8C8C" font-size="2.5" transform="rotate(90 51.825 144.309)">1</text><path fill="none" stroke="#787878" stroke-linecap="round" stroke-width=".75" d="M195.084 132.774v-7.201"/><text font-family="'DroidSans'" fill="#8C8C8C" font-size="2.5" transform="rotate(90 33.825 162.309)">2</text><path class="interior rect" fill="#FFF" stroke="#000" stroke-linecap="round" stroke-width=".9" d="M29.934 28.823h78.3v135.9h-78.3z"/><path class="pin" fill="none" stroke="#787878" stroke-linecap="round" stroke-width=".7" d="M108.334 42.773h14.4"/><text class="text" font-family="'Droid Sans'" fill="#8c8c8c" x="91.85" text-anchor="end" font-size="3.5" y="29.5" stroke-width="0" transform="translate(15.084 13.973)">D0/RX</text><path class="pin" fill="none" stroke="#787878" stroke-linecap="round" stroke-width=".7" d="M108.334 49.973h14.4"/><text class="text" font-family="'Droid Sans'" fill="#8c8c8c" x="91.85" text-anchor="end" font-size="3.5" y="36.7" stroke-width="0" transform="translate(15.084 13.973)">D1/TX</text><path class="pin" fill="none" stroke="#787878" stroke-linecap="round" stroke-width=".7" d="M108.334 57.173h14.4"/><text class="text" font-family="'Droid Sans'" fill="#8c8c8c" x="91.85" text-anchor="end" font-size="3.5" y="43.9" stroke-width="0" transform="translate(15.084 13.973)">D2</text><path class="pin" fill="none" stroke="#787878" stroke-linecap="round" stroke-width=".7" d="M108.334 64.373h14.4"/><text class="text" font-family="'Droid Sans'" fill="#8c8c8c" x="91.85" text-anchor="end" font-size="3.5" y="51.1" stroke-width="0" transform="translate(15.084 13.973)">D3 PWM</text><path class="pin" fill="none" stroke="#787878" stroke-linecap="round" stroke-width=".7" d="M108.334 71.573h14.4"/><text class="text" font-family="'Droid Sans'" fill="#8c8c8c" x="91.85" text-anchor="end" font-size="3.5" y="58.3" stroke-width="0" transform="translate(15.084 13.973)">D4</text><path class="pin" fill="none" stroke="#787878" stroke-linecap="round" stroke-width=".7" d="M108.334 78.773h14.4"/><text class="text" font-family="'Droid Sans'" fill="#8c8c8c" x="91.85" text-anchor="end" font-size="3.5" y="65.5" stroke-width="0" transform="translate(15.084 13.973)">D5 PWM</text><path class="pin" fill="none" stroke="#787878" stroke-linecap="round" stroke-width=".7" d="M108.334 85.973h14.4"/><text class="text" font-family="'Droid Sans'" fill="#8c8c8c" x="91.85" text-anchor="end" font-size="3.5" y="72.7" stroke-width="0" transform="translate(15.084 13.973)">D6 PWM</text><path class="pin" fill="none" stroke="#787878" stroke-linecap="round" stroke-width=".7" d="M108.334 93.173h14.4"/><text class="text" font-family="'Droid Sans'" fill="#8c8c8c" x="91.85" text-anchor="end" font-size="3.5" y="79.9" stroke-width="0" transform="translate(15.084 13.973)">D7</text><path class="pin" fill="none" stroke="#787878" stroke-linecap="round" stroke-width=".7" d="M108.334 100.373h14.4"/><text class="text" font-family="'Droid Sans'" fill="#8c8c8c" x="91.85" text-anchor="end" font-size="3.5" y="87.1" stroke-width="0" transform="translate(15.084 13.973)">D8</text><path class="pin" fill="none" stroke="#787878" stroke-linecap="round" stroke-width=".7" d="M108.334 107.573h14.4"/><text class="text" font-family="'Droid Sans'" fill="#8c8c8c" x="91.85" text-anchor="end" font-size="3.5" y="94.3" stroke-width="0" transform="translate(15.084 13.973)">D9 PWM</text><path class="pin" fill="none" stroke="#787878" stroke-linecap="round" stroke-width=".7" d="M108.334 114.773h14.4"/><text class="text" font-family="'Droid Sans'" fill="#8c8c8c" x="91.85" text-anchor="end" font-size="3.5" y="101.5" stroke-width="0" transform="translate(15.084 13.973)">D10 PWM/SS</text><path class="pin" fill="none" stroke="#787878" stroke-linecap="round" stroke-width=".7" d="M108.334 121.973h14.4"/><text class="text" font-family="'Droid Sans'" fill="#8c8c8c" x="91.85" text-anchor="end" font-size="3.5" y="108.7" stroke-width="0" transform="translate(15.084 13.973)">D11 PWM/MOSI</text><path class="pin" fill="none" stroke="#787878" stroke-linecap="round" stroke-width=".7" d="M108.334 129.173h14.4"/><text class="text" font-family="'Droid Sans'" fill="#8c8c8c" x="91.85" text-anchor="end" font-size="3.5" y="115.9" stroke-width="0" transform="translate(15.084 13.973)">D12/MISO</text><path class="pin" fill="none" d="M108.334 136.373h14.4"/><path class="terminal" fill="none" d="M122.734 136.023h.7v.7h-.7z"/><path class="pin" fill="none" stroke="#787878" stroke-linecap="round" stroke-width=".7" d="M108.334 136.373h14.4"/><text class="text" font-family="'Droid Sans'" fill="#8c8c8c" x="91.85" text-anchor="end" font-size="3.5" y="123.1" stroke-width="0" transform="translate(15.084 13.973)">D13/SCK</text><path class="pin" fill="none" d="M15.434 42.773h14.4"/><path class="terminal" fill="none" d="M14.734 42.423h.7v.7h-.7z"/><path class="pin" fill="none" stroke="#787878" stroke-linecap="round" stroke-width=".7" d="M15.434 42.773h14.4"/><text class="text" font-family="'Droid Sans'" fill="#8c8c8c" x="16.15" font-size="3.5" y="29.5" stroke-width="0" transform="translate(15.084 13.973)">RESET</text><path class="pin" fill="none" stroke="#787878" stroke-linecap="round" stroke-width=".7" d="M15.434 49.973h14.4"/><text class="text" font-family="'Droid Sans'" fill="#8c8c8c" x="16.15" font-size="3.5" y="36.7" stroke-width="0" transform="translate(15.084 13.973)">RESET2</text><path class="terminal" fill="none" d="M14.734 49.623h.7v.7h-.7z"/><path class="pin" fill="none" stroke="#787878" stroke-linecap="round" stroke-width=".7" d="M15.434 57.173h14.4"/><text class="text" font-family="'Droid Sans'" fill="#8c8c8c" x="16.15" font-size="3.5" y="43.9" stroke-width="0" transform="translate(15.084 13.973)">AREF</text><path class="pin" fill="none" stroke="#787878" stroke-linecap="round" stroke-width=".7" d="M15.434 64.373h14.4"/><text class="text" font-family="'Droid Sans'" fill="#8c8c8c" x="16.15" font-size="3.5" y="51.1" stroke-width="0" transform="translate(15.084 13.973)">ioref</text><path class="pin" fill="none" stroke="#787878" stroke-linecap="round" stroke-width=".7" d="M15.434 78.773h14.4"/><text class="text" font-family="'Droid Sans'" fill="#8c8c8c" x="16.15" font-size="3.5" y="65.5" stroke-width="0" transform="translate(15.084 13.973)">A0</text><path class="pin" fill="none" stroke="#787878" stroke-linecap="round" stroke-width=".7" d="M15.434 85.973h14.4"/><text class="text" font-family="'Droid Sans'" fill="#8c8c8c" x="16.15" font-size="3.5" y="72.7" stroke-width="0" transform="translate(15.084 13.973)">A1</text><path class="pin" fill="none" stroke="#787878" stroke-linecap="round" stroke-width=".7" d="M15.434 93.173h14.4"/><text class="text" font-family="'Droid Sans'" fill="#8c8c8c" x="16.15" font-size="3.5" y="79.9" stroke-width="0" transform="translate(15.084 13.973)">A2</text><path class="pin" fill="none" stroke="#787878" stroke-linecap="round" stroke-width=".7" d="M15.434 100.373h14.4"/><text class="text" font-family="'Droid Sans'" fill="#8c8c8c" x="16.15" font-size="3.5" y="87.1" stroke-width="0" transform="translate(15.084 13.973)">A3</text><path class="pin" fill="none" d="M15.434 107.573h14.4"/><path class="terminal" fill="none" d="M14.734 107.223h.7v.7h-.7z"/><path class="pin" fill="none" d="M15.434 107.573h14.4"/><path class="terminal" fill="none" d="M14.734 107.223h.7v.7h-.7z"/><path class="pin" fill="none" d="M15.434 107.573h14.4M15.434 107.573h14.4"/><path class="terminal" fill="none" d="M14.734 107.223h.7v.7h-.7z"/><path class="pin" fill="none" d="M15.434 107.573h14.4"/><path class="terminal" fill="none" d="M14.734 107.223h.7v.7h-.7z"/><path class="pin" fill="none" d="M15.434 107.573h14.4"/><path class="terminal" fill="none" d="M14.734 107.223h.7v.7h-.7z"/><path class="pin" fill="none" stroke="#787878" stroke-linecap="round" stroke-width=".7" d="M15.434 107.573h14.4"/><text class="text" font-family="'Droid Sans'" fill="#8c8c8c" x="16.15" font-size="3.5" y="94.3" stroke-width="0" transform="translate(15.084 13.973)">A4/SDA</text><path class="pin" fill="none" d="M15.434 114.773h14.4"/><path class="pin" fill="none" stroke="#787878" stroke-linecap="round" stroke-width=".7" d="M15.434 114.773h14.4"/><text class="text" font-family="'Droid Sans'" fill="#8c8c8c" x="16.15" font-size="3.5" y="101.5" stroke-width="0" transform="translate(15.084 13.973)">A5/SCL</text><path class="pin" fill="none" stroke="#787878" stroke-linecap="round" stroke-width=".7" d="M15.434 150.773h14.4"/><text class="text" font-family="'Droid Sans'" fill="#8c8c8c" x="16.15" font-size="3.5" y="137.5" stroke-width="0" transform="translate(15.084 13.973)">N/C</text><path class="pin" fill="none" d="M72.684 164.823v14.4M72.684 164.823v14.4M72.684 164.823v14.4"/><path class="terminal" fill="none" d="M72.334 179.223h.7v.7h-.7z"/><path class="pin" fill="none" d="M72.684 164.823v14.4"/><path class="terminal" fill="none" d="M72.334 179.223h.7v.7h-.7z"/><path class="pin" fill="none" stroke="#787878" stroke-linecap="round" stroke-width=".7" d="M72.684 164.823v14.4"/><text class="text" font-family="'Droid Sans'" fill="#8c8c8c" font-size="3.5" stroke-width="0" transform="rotate(-90 118.403 45.02)">GND</text><path class="pin" fill="none" stroke="#787878" stroke-linecap="round" stroke-width=".7" d="M51.084 14.323v14.4"/><text class="text" font-family="'Droid Sans'" fill="#8c8c8c" text-anchor="end" font-size="3.5" stroke-width="0" transform="rotate(-90 40.953 -10.83)">3V3</text><path class="pin" fill="none" d="M65.483 14.323v14.4"/><path class="terminal" fill="none" d="M65.133 13.623h.7v.7h-.7z"/><path class="pin" fill="none" d="M65.483 14.323v14.4"/><path class="terminal" fill="none" d="M65.133 13.623h.7v.7h-.7z"/><path class="pin" fill="none" stroke="#787878" stroke-linecap="round" stroke-width=".7" d="M65.483 14.323v14.4"/><text class="text" font-family="'Droid Sans'" fill="#8c8c8c" text-anchor="end" font-size="3.5" stroke-width="0" transform="rotate(-90 48.153 -18.03)">5V</text><path class="pin" fill="none" stroke="#787878" stroke-linecap="round" stroke-width=".7" d="M79.883 14.323v14.4"/><text class="text" font-family="'Droid Sans'" fill="#8c8c8c" text-anchor="end" font-size="3.5" stroke-width="0" transform="rotate(-90 55.353 -25.23)">VIN</text><text class="text" font-family="'Droid Sans'" x="54.45" text-anchor="middle" font-size="4.25" y="76.45" stroke-width="0" transform="translate(15.084 13.973)">Arduino</text><text class="text" font-family="'Droid Sans'" x="54.45" text-anchor="middle" font-size="4.25" y="80.983" stroke-width="0" transform="translate(15.084 13.973)">Uno</text><text class="text" font-family="'Droid Sans'" x="54.45" text-anchor="middle" font-size="4.25" y="85.517" stroke-width="0" transform="translate(15.084 13.973)">(Rev3)</text><g><path class="other" stroke="#000" stroke-linecap="round" stroke-width=".432" d="M195.083 157.973l-2.88-1.08M192.203 156.893l5.76-1.8M197.963 155.093l-5.76-1.8M192.203 153.293l5.76-1.8M197.963 151.493l-5.76-1.8M192.203 149.693l5.76-1.8M197.963 147.893l-5.76-1.8M192.203 146.093l5.76-1.8M197.963 144.293l-2.88-.72"/><path class="pin" stroke="#787878" stroke-linecap="round" stroke-width=".7" d="M195.083 136.373v7.2"/><text class="text" font-family="'Droid Sans'" fill="#8c8c8c" x="25.55" text-anchor="middle" font-size="2.5" y="2.046" stroke-width="0" transform="rotate(-90 178.755 -13.232)">2</text><path class="pin" stroke="#787878" stroke-linecap="round" stroke-width=".7" d="M195.083 165.173v-7.2"/><text class="text" font-family="'Droid Sans'" fill="#8c8c8c" x="3.95" text-anchor="middle" font-size="2.5" y="2.046" stroke-width="0" transform="rotate(-90 178.755 -13.232)">1</text></g><g><path class="other" stroke="#000" stroke-linecap="round" stroke-width=".432" d="M159.084 143.573l2.88 1.08M161.964 144.653l-5.76 1.8M156.204 146.453l5.76 1.8M161.964 148.253l-5.76 1.8M156.204 150.053l5.76 1.8M161.964 151.853l-5.76 1.8M156.204 153.653l5.76 1.8M161.964 155.453l-5.76 1.8M156.204 157.253l2.88.72"/><path class="pin" stroke="#787878" stroke-linecap="round" stroke-width=".7" d="M159.084 165.173v-7.2"/><text class="text" font-family="'Droid Sans'" fill="#8c8c8c" x="25.55" text-anchor="middle" font-size="2.5" y="2.046" stroke-width="0" transform="rotate(90 13.079 149.101)">2</text><path class="pin" stroke="#787878" stroke-linecap="round" stroke-width=".7" d="M159.084 136.373v7.2"/><text class="text" font-family="'Droid Sans'" fill="#8c8c8c" x="3.95" text-anchor="middle" font-size="2.5" y="2.046" stroke-width="0" transform="rotate(90 13.079 149.101)">1</text></g><g><path d="M155.484 115.122h3.6a.35.35 0 1 0 0-.7h-3.6a.35.35 0 1 0 0 .7z"/><path d="M159.084 115.122h3.6a.35.35 0 1 0 0-.7h-3.6a.35.35 0 1 0 0 .7z"/><path fill="#FFF" d="M159.084 114.772l3.6-7.2h-7.2z"/><path d="M159.084 115.554l4.166-8.332h-8.333l4.167 8.332zm3.034-7.632l-3.034 6.068-3.034-6.068h6.068z"/><path d="M159.084 114.997a.225.225 0 0 0 .225-.225v-7.2a.225.225 0 0 0-.45 0v7.2a.226.226 0 0 0 .225.225zM167.184 112.297a.225.225 0 0 0 .159-.383l-2.34-2.341a.225.225 0 1 0-.318.318l2.34 2.341a.222.222 0 0 0 .159.065zM166.824 115.537a.225.225 0 0 0 .159-.383l-2.34-2.34a.225.225 0 1 0-.318.318l2.34 2.34a.225.225 0 0 0 .159.065z"/><path fill="#787878" d="M159.084 122.322a.35.35 0 0 0 .35-.35v-7.2a.35.35 0 1 0-.7 0v7.2a.35.35 0 0 0 .35.35z"/><path fill="none" d="M159.084 121.972h-.001v.001h.001z"/><path fill="#787878" d="M160.015 118.23v.89h.152l.372-.342c.053-.049.101-.093.145-.13s.086-.072.128-.1a.69.69 0 0 1 .125-.062.412.412 0 0 1 .24-.004c.03.012.054.027.075.047.02.021.035.045.046.073s.016.06.016.094a.363.363 0 0 1-.038.167.629.629 0 0 1-.096.143l.116.1a.671.671 0 0 0 .155-.29.59.59 0 0 0-.013-.29.359.359 0 0 0-.076-.129.325.325 0 0 0-.119-.082.485.485 0 0 0-.318-.002.765.765 0 0 0-.148.07 1.227 1.227 0 0 0-.146.11c-.049.04-.1.086-.152.135l-.294.274h-.008v-.673h-.162zM159.084 107.922a.35.35 0 0 0 .35-.35v-7.2a.35.35 0 1 0-.7 0v7.2c.001.193.157.35.35.35z"/><path fill="none" d="M159.084 100.372h-.001z"/><path fill="#787878" d="M160.015 104.118v.172h.982c.032 0 .063 0 .095-.002.032 0 .063-.002.092-.003l.076-.002-.03.03c-.009.008-.017.016-.024.025l-.025.028-.03.035-.118.145.12.094.292-.374v-.146h-1.43z"/><path d="M168.804 113.692l-1.08-2.521-1.44 1.438 2.52 1.083z"/><g><path d="M168.444 116.932l-1.08-2.521-1.438 1.438 2.518 1.083z"/></g></g><g><g fill="none"><path d="M159.084 172.271v-7.2" stroke="#787878" stroke-linecap="round" stroke-width=".75"/><path d="M152.383 172.407h13.4M154.615 175.152h8.935M161.314 177.871h-4.464" stroke="#000" stroke-linecap="round" stroke-width=".9"/></g></g><g><g fill="none"><path d="M72.684 186.671v-7.2" stroke="#787878" stroke-linecap="round" stroke-width=".75"/><path d="M65.983 186.807h13.4M68.215 189.552h8.935M74.914 192.271H70.45" stroke="#000" stroke-linecap="round" stroke-width=".9"/></g></g><g><path stroke-miterlimit="10" fill="none" stroke="#787878" stroke-linecap="round" stroke-width=".75" d="M65.502 6.78v7.2"/><path fill="none" d="M58.752 6.564h13.5" stroke="#000" stroke-linecap="round" stroke-width=".9"/><text font-family="'DroidSans'" font-size="4.499" transform="translate(59.8 4.988)">5V</text></g><g><path stroke-miterlimit="10" fill="none" stroke="#787878" stroke-linecap="round" stroke-width=".75" d="M195.102 85.98v7.2"/><path fill="none" d="M188.352 85.764h13.5" stroke="#000" stroke-linecap="round" stroke-width=".9"/><text font-family="'DroidSans'" font-size="4.499" transform="translate(189.4 84.188)">5V</text></g><g><path fill="none" d="M162.694 82.37h-3.6v7.2h3.6z"/><path fill="#fff" stroke="#000" stroke-width=".24" d="M159.207 85.97l3.48-3.48h11.36v6.96h-11.36z"/></g><g><path fill="none" d="M126.694 103.969h-3.6v7.2h3.6z"/><path fill="#fff" stroke="#000" stroke-width=".24" d="M123.207 107.569l3.48-3.48h11.36v6.96h-11.36z"/></g><g><path fill="none" d="M11.473 75.17h3.6v7.2h-3.6z"/><path fill="#fff" stroke="#000" stroke-width=".24" d="M14.96 78.77l-3.48-3.48H.12v6.96h11.36z"/></g><g><path fill="none" d="M205.895 132.77h-3.6v7.2h3.6z"/><path fill="#fff" stroke="#000" stroke-width=".24" d="M202.408 136.37l3.48-3.48h11.36v6.96h-11.36z"/></g><g><text x=".48" y="5.28" font-size="4.8" font-family="Droid Sans" transform="translate(162.076 82.388)">pin 9</text></g><g><text x=".48" y="5.28" font-size="4.8" font-family="Droid Sans" transform="translate(126.076 103.987)">pin 9</text></g><g><text font-family="Droid Sans" x=".48" y="5.28" font-size="4.8" transform="translate(0 75.17)">pin 0</text></g><g><text x=".48" y="5.28" font-size="4.8" font-family="Droid Sans" transform="translate(205.277 132.788)">pin 0</text></g><g><path stroke-linecap="round" stroke="#404040" stroke-width=".7" d="M159.084 85.973v14.4"/></g><g><path stroke-linecap="round" stroke="#404040" stroke-width=".7" d="M159.084 121.973v14.4"/></g><g><path stroke-linecap="round" stroke="#404040" stroke-width=".7" d="M195.084 93.173h-.001"/></g><circle cx="195.083" cy="93.173" r="1.44"/><g><path stroke-linecap="round" stroke="#404040" stroke-width=".7" d="M195.097 136.527l-.013-.154"/></g><circle cx="195.097" cy="136.527" r="1.44"/><g><path stroke-linecap="round" stroke="#404040" stroke-width=".7" d="M195.084 129.174l.013 7.354"/></g><g><path stroke-linecap="round" stroke="#404040" stroke-width=".7" d="M195.097 136.527l7.187-.154"/></g><g><path stroke-linecap="round" stroke="#404040" stroke-width=".7" d="M65.484 13.973"/></g><g><path stroke-linecap="round" stroke="#404040" stroke-width=".7" d="M72.684 179.573h-.001"/></g><g><path stroke-linecap="round" stroke="#404040" stroke-width=".7" d="M159.084 165.173"/></g><circle cx="159.084" cy="165.173" r="1.44"/><g><path stroke-linecap="round" stroke="#404040" stroke-width=".7" d="M123.084 107.573h-.001"/></g><g><path stroke-linecap="round" stroke="#404040" stroke-width=".7" d="M159.084 165.173h35.999"/></g><circle cx="159.084" cy="165.173" r="1.44"/><g><path stroke-linecap="round" stroke="#404040" stroke-width=".7" d="M195.084 93.173h-.001"/></g><circle cx="195.083" cy="93.173" r="1.44"/><g><path stroke-linecap="round" stroke="#404040" stroke-width=".7" d="M15.084 78.773"/></g><g><text y="3.75" transform="translate(206.388 106.256)" font-size="5" font-family="'DroidSans'">photo<tspan font-size="5.3" x="0" y="9.1">resistor</tspan> <tspan font-size="4.5" x="-45.4" y="-25">Arduino</tspan> <tspan font-size="4" x="-2.4" y="20.5">Arduino</tspan> <tspan font-size="4" x="-1.4" y="25.1">analog</tspan></text></g><g><g font-size="5" font-family="'DroidSans'"><text y="3.75" transform="translate(163.921 145.479)">R1</text><text y="8.75" transform="translate(163.921 145.479)">560Ω</text></g></g><g><g font-size="5" font-family="'DroidSans'"><text y="3.75" transform="translate(199.708 145.502)">R2</text><text y="8.75" transform="translate(199.708 145.502)">10kΩ</text></g></g><g><text y="3.75" transform="translate(169.552 112.672)" font-size="5" font-family="'DroidSans'">LED</text></g><g><text y="3.75" transform="translate(165.832 174.435)" font-size="5" font-family="'DroidSans'">gnd<tspan font-size="4" x="0" y="8.9">(ground) (-)</tspan></text></g></svg>