<svg xmlns="http://www.w3.org/2000/svg" version="1.2" width="315.108" height="258.684" viewBox="0 0 236.331 194.013"><path fill="none" d="M165.769 164.835h-4.063v.677h4.063zM165.769 150.436h-4.063v.677h4.063zM165.769 157.636h-4.063v.677h4.063z"/><g stroke-linecap="round" stroke-linejoin="round"><path fill="none" stroke="#000" stroke-width=".9" d="M158.569 143.574h-28.8v28.8h28.8z"/><path fill="none" stroke="#787878" stroke-width=".7" d="M158.569 165.174h7.2M165.769 150.774h-7.2M165.769 157.974h-7.2"/><g stroke="#000" stroke-width=".9" transform="matrix(-1 0 0 1 165.769 136.374)"><path fill="#FFF" d="M46.091 15.05a2.458 2.458 0 0 0-2.701-1.424l-12.355 1.986.002.004a5.74 5.74 0 0 0-1.521.427 5.757 5.757 0 0 0 4.629 10.541 5.766 5.766 0 0 0 1.344-.832l.002.004 9.823-7.753-.001-.001a2.458 2.458 0 0 0 .778-2.952z"/><circle cx="31.83" cy="21.313" r="3.301" fill="none"/><circle cx="43.843" cy="16.037" r="1.051" fill="#FFF"/></g></g><path class="interior rect" fill="#FFF" stroke="#000" stroke-linecap="round" stroke-width=".9" d="M14.85 28.823h78.3v135.9h-78.3z"/><path class="pin" fill="none" stroke="#787878" stroke-linecap="round" stroke-width=".7" d="M93.25 42.773h14.4"/><text class="text" font-family="'Droid Sans'" fill="#8c8c8c" x="91.85" text-anchor="end" font-size="3.5" y="29.5" stroke-width="0" transform="translate(0 13.973)">D0/RX</text><path class="pin" fill="none" stroke="#787878" stroke-linecap="round" stroke-width=".7" d="M93.25 49.973h14.4"/><text class="text" font-family="'Droid Sans'" fill="#8c8c8c" x="91.85" text-anchor="end" font-size="3.5" y="36.7" stroke-width="0" transform="translate(0 13.973)">D1/TX</text><path class="pin" fill="none" stroke="#787878" stroke-linecap="round" stroke-width=".7" d="M93.25 57.173h14.4"/><text class="text" font-family="'Droid Sans'" fill="#8c8c8c" x="91.85" text-anchor="end" font-size="3.5" y="43.9" stroke-width="0" transform="translate(0 13.973)">D2</text><path class="pin" fill="none" stroke="#787878" stroke-linecap="round" stroke-width=".7" d="M93.25 64.373h14.4"/><text class="text" font-family="'Droid Sans'" fill="#8c8c8c" x="91.85" text-anchor="end" font-size="3.5" y="51.1" stroke-width="0" transform="translate(0 13.973)">D3 PWM</text><path class="pin" fill="none" stroke="#787878" stroke-linecap="round" stroke-width=".7" d="M93.25 71.573h14.4"/><text class="text" font-family="'Droid Sans'" fill="#8c8c8c" x="91.85" text-anchor="end" font-size="3.5" y="58.3" stroke-width="0" transform="translate(0 13.973)">D4</text><path class="pin" fill="none" stroke="#787878" stroke-linecap="round" stroke-width=".7" d="M93.25 78.773h14.4"/><text class="text" font-family="'Droid Sans'" fill="#8c8c8c" x="91.85" text-anchor="end" font-size="3.5" y="65.5" stroke-width="0" transform="translate(0 13.973)">D5 PWM</text><path class="pin" fill="none" stroke="#787878" stroke-linecap="round" stroke-width=".7" d="M93.25 85.973h14.4"/><text class="text" font-family="'Droid Sans'" fill="#8c8c8c" x="91.85" text-anchor="end" font-size="3.5" y="72.7" stroke-width="0" transform="translate(0 13.973)">D6 PWM</text><path class="pin" fill="none" stroke="#787878" stroke-linecap="round" stroke-width=".7" d="M93.25 93.173h14.4"/><text class="text" font-family="'Droid Sans'" fill="#8c8c8c" x="91.85" text-anchor="end" font-size="3.5" y="79.9" stroke-width="0" transform="translate(0 13.973)">D7</text><path class="pin" fill="none" stroke="#787878" stroke-linecap="round" stroke-width=".7" d="M93.25 100.373h14.4"/><text class="text" font-family="'Droid Sans'" fill="#8c8c8c" x="91.85" text-anchor="end" font-size="3.5" y="87.1" stroke-width="0" transform="translate(0 13.973)">D8</text><path class="pin" fill="none" stroke="#787878" stroke-linecap="round" stroke-width=".7" d="M93.25 107.573h14.4"/><text class="text" font-family="'Droid Sans'" fill="#8c8c8c" x="91.85" text-anchor="end" font-size="3.5" y="94.3" stroke-width="0" transform="translate(0 13.973)">D9 PWM</text><path class="pin" fill="none" stroke="#787878" stroke-linecap="round" stroke-width=".7" d="M93.25 114.773h14.4"/><text class="text" font-family="'Droid Sans'" fill="#8c8c8c" x="91.85" text-anchor="end" font-size="3.5" y="101.5" stroke-width="0" transform="translate(0 13.973)">D10 PWM/SS</text><path class="pin" fill="none" stroke="#787878" stroke-linecap="round" stroke-width=".7" d="M93.25 121.973h14.4"/><text class="text" font-family="'Droid Sans'" fill="#8c8c8c" x="91.85" text-anchor="end" font-size="3.5" y="108.7" stroke-width="0" transform="translate(0 13.973)">D11 PWM/MOSI</text><path class="pin" fill="none" stroke="#787878" stroke-linecap="round" stroke-width=".7" d="M93.25 129.173h14.4"/><text class="text" font-family="'Droid Sans'" fill="#8c8c8c" x="91.85" text-anchor="end" font-size="3.5" y="115.9" stroke-width="0" transform="translate(0 13.973)">D12/MISO</text><path class="pin" fill="none" d="M93.25 136.373h14.4"/><path class="terminal" fill="none" d="M107.65 136.023h.7v.7h-.7z"/><path class="pin" fill="none" stroke="#787878" stroke-linecap="round" stroke-width=".7" d="M93.25 136.373h14.4"/><text class="text" font-family="'Droid Sans'" fill="#8c8c8c" x="91.85" text-anchor="end" font-size="3.5" y="123.1" stroke-width="0" transform="translate(0 13.973)">D13/SCK</text><path class="pin" fill="none" d="M.35 42.773h14.4"/><path class="terminal" fill="none" d="M-.35 42.423h.7v.7h-.7z"/><path class="pin" fill="none" stroke="#787878" stroke-linecap="round" stroke-width=".7" d="M.35 42.773h14.4"/><text class="text" font-family="'Droid Sans'" fill="#8c8c8c" x="16.15" font-size="3.5" y="29.5" stroke-width="0" transform="translate(0 13.973)">RESET</text><path class="pin" fill="none" stroke="#787878" stroke-linecap="round" stroke-width=".7" d="M.35 49.973h14.4"/><text class="text" font-family="'Droid Sans'" fill="#8c8c8c" x="16.15" font-size="3.5" y="36.7" stroke-width="0" transform="translate(0 13.973)">RESET2</text><path class="terminal" fill="none" d="M-.35 49.623h.7v.7h-.7z"/><path class="pin" fill="none" stroke="#787878" stroke-linecap="round" stroke-width=".7" d="M.35 57.173h14.4"/><text class="text" font-family="'Droid Sans'" fill="#8c8c8c" x="16.15" font-size="3.5" y="43.9" stroke-width="0" transform="translate(0 13.973)">AREF</text><path class="pin" fill="none" stroke="#787878" stroke-linecap="round" stroke-width=".7" d="M.35 64.373h14.4"/><text class="text" font-family="'Droid Sans'" fill="#8c8c8c" x="16.15" font-size="3.5" y="51.1" stroke-width="0" transform="translate(0 13.973)">ioref</text><path class="pin" fill="none" stroke="#787878" stroke-linecap="round" stroke-width=".7" d="M.35 78.773h14.4"/><text class="text" font-family="'Droid Sans'" fill="#8c8c8c" x="16.15" font-size="3.5" y="65.5" stroke-width="0" transform="translate(0 13.973)">A0</text><path class="pin" fill="none" stroke="#787878" stroke-linecap="round" stroke-width=".7" d="M.35 85.973h14.4"/><text class="text" font-family="'Droid Sans'" fill="#8c8c8c" x="16.15" font-size="3.5" y="72.7" stroke-width="0" transform="translate(0 13.973)">A1</text><path class="pin" fill="none" stroke="#787878" stroke-linecap="round" stroke-width=".7" d="M.35 93.173h14.4"/><text class="text" font-family="'Droid Sans'" fill="#8c8c8c" x="16.15" font-size="3.5" y="79.9" stroke-width="0" transform="translate(0 13.973)">A2</text><path class="pin" fill="none" stroke="#787878" stroke-linecap="round" stroke-width=".7" d="M.35 100.373h14.4"/><text class="text" font-family="'Droid Sans'" fill="#8c8c8c" x="16.15" font-size="3.5" y="87.1" stroke-width="0" transform="translate(0 13.973)">A3</text><path class="pin" fill="none" d="M.35 107.573h14.4"/><path class="terminal" fill="none" d="M-.35 107.223h.7v.7h-.7z"/><path class="pin" fill="none" d="M.35 107.573h14.4"/><path class="terminal" fill="none" d="M-.35 107.223h.7v.7h-.7z"/><path class="pin" fill="none" d="M.35 107.573h14.4M.35 107.573h14.4"/><path class="terminal" fill="none" d="M-.35 107.223h.7v.7h-.7z"/><path class="pin" fill="none" d="M.35 107.573h14.4"/><path class="terminal" fill="none" d="M-.35 107.223h.7v.7h-.7z"/><path class="pin" fill="none" d="M.35 107.573h14.4"/><path class="terminal" fill="none" d="M-.35 107.223h.7v.7h-.7z"/><path class="pin" fill="none" stroke="#787878" stroke-linecap="round" stroke-width=".7" d="M.35 107.573h14.4"/><text class="text" font-family="'Droid Sans'" fill="#8c8c8c" x="16.15" font-size="3.5" y="94.3" stroke-width="0" transform="translate(0 13.973)">A4/SDA</text><path class="pin" fill="none" d="M.35 114.773h14.4"/><path class="pin" fill="none" stroke="#787878" stroke-linecap="round" stroke-width=".7" d="M.35 114.773h14.4"/><text class="text" font-family="'Droid Sans'" fill="#8c8c8c" x="16.15" font-size="3.5" y="101.5" stroke-width="0" transform="translate(0 13.973)">A5/SCL</text><path class="pin" fill="none" stroke="#787878" stroke-linecap="round" stroke-width=".7" d="M.35 150.773h14.4"/><text class="text" font-family="'Droid Sans'" fill="#8c8c8c" x="16.15" font-size="3.5" y="137.5" stroke-width="0" transform="translate(0 13.973)">N/C</text><path class="pin" fill="none" d="M57.6 164.823v14.4M57.6 164.823v14.4M57.6 164.823v14.4"/><path class="terminal" fill="none" d="M57.25 179.223h.7v.7h-.7z"/><path class="pin" fill="none" d="M57.6 164.823v14.4"/><path class="terminal" fill="none" d="M57.25 179.223h.7v.7h-.7z"/><path class="pin" fill="none" stroke="#787878" stroke-linecap="round" stroke-width=".7" d="M57.6 164.823v14.4"/><text class="text" font-family="'Droid Sans'" fill="#8c8c8c" font-size="3.5" stroke-width="0" transform="rotate(-90 110.861 52.562)">GND</text><path class="pin" fill="none" stroke="#787878" stroke-linecap="round" stroke-width=".7" d="M36 14.323v14.4"/><text class="text" font-family="'Droid Sans'" fill="#8c8c8c" text-anchor="end" font-size="3.5" stroke-width="0" transform="rotate(-90 33.411 -3.288)">3V3</text><path class="pin" fill="none" d="M50.4 14.323v14.4"/><path class="terminal" fill="none" d="M50.05 13.623h.7v.7h-.7z"/><path class="pin" fill="none" d="M50.4 14.323v14.4"/><path class="terminal" fill="none" d="M50.05 13.623h.7v.7h-.7z"/><path class="pin" fill="none" stroke="#787878" stroke-linecap="round" stroke-width=".7" d="M50.4 14.323v14.4"/><text class="text" font-family="'Droid Sans'" fill="#8c8c8c" text-anchor="end" font-size="3.5" stroke-width="0" transform="rotate(-90 40.611 -10.488)">5V</text><path class="pin" fill="none" stroke="#787878" stroke-linecap="round" stroke-width=".7" d="M64.8 14.323v14.4"/><text class="text" font-family="'Droid Sans'" fill="#8c8c8c" text-anchor="end" font-size="3.5" stroke-width="0" transform="rotate(-90 47.812 -17.688)">VIN</text><text class="text" font-family="'Droid Sans'" x="54.45" text-anchor="middle" font-size="4.25" y="76.45" stroke-width="0" transform="translate(0 13.973)">Arduino</text><text class="text" font-family="'Droid Sans'" x="54.45" text-anchor="middle" font-size="4.25" y="80.983" stroke-width="0" transform="translate(0 13.973)">Uno</text><text class="text" font-family="'Droid Sans'" x="54.45" text-anchor="middle" font-size="4.25" y="85.517" stroke-width="0" transform="translate(0 13.973)">(Rev3)</text><g><g fill="none"><path d="M57.6 186.671v-7.2" stroke="#787878" stroke-linecap="round" stroke-width=".75"/><path d="M50.9 186.807h13.4M53.131 189.552h8.935M59.83 192.271h-4.464" stroke="#000" stroke-linecap="round" stroke-width=".9"/></g></g><g><g fill="none"><path d="M194.4 186.671v-7.2" stroke="#787878" stroke-linecap="round" stroke-width=".75"/><path d="M187.699 186.807h13.4M189.931 189.552h8.935M196.63 192.271h-4.464" stroke="#000" stroke-linecap="round" stroke-width=".9"/></g></g><g><path stroke-miterlimit="10" fill="none" stroke="#787878" stroke-linecap="round" stroke-width=".75" d="M50.418 6.78v7.2"/><path fill="none" d="M43.668 6.564h13.5" stroke="#000" stroke-linecap="round" stroke-width=".9"/><text font-family="'DroidSans'" font-size="4.499" transform="translate(44.717 4.988)">5V</text></g><g><path stroke-miterlimit="10" fill="none" stroke="#787878" stroke-linecap="round" stroke-width=".75" d="M172.818 129.18v7.2"/><path fill="none" d="M166.068 128.964h13.5" stroke="#000" stroke-linecap="round" stroke-width=".9"/><text font-family="'DroidSans'" font-size="4.499" transform="translate(167.117 127.388)">5V</text></g><g><path fill="none" d="M111.61 103.969h-3.6v7.2h3.6z"/><path fill="#fff" stroke="#000" stroke-width=".24" d="M108.123 107.569l3.48-3.48h11.36v6.96h-11.36z"/></g><g><path fill="none" d="M190.811 139.969h-3.6v7.2h3.6z"/><path fill="#fff" stroke="#000" stroke-width=".24" d="M187.324 143.569l3.48-3.48h11.36v6.96h-11.36z"/></g><g><text x="3.434" y="5.331" font-size="4.8" font-family="Droid Sans" transform="translate(108.003 103.969)">pin 9</text></g><g><text x=".48" y="5.28" font-size="4.8" font-family="Droid Sans" transform="translate(190.158 140.02)">pin 9</text></g><g><path stroke-linecap="round" stroke="#404040" stroke-width=".7" d="M194.355 165.117l-28.756.056"/></g><g><path stroke-linecap="round" stroke="#404040" stroke-width=".7" d="M194.4 179.573l-.044-14.456"/></g><g><path stroke-linecap="round" stroke="#404040" stroke-width=".7" d="M57.6 179.573"/></g><g><path stroke-linecap="round" stroke="#404040" stroke-width=".7" d="M50.4 13.973"/></g><g><path stroke-linecap="round" stroke="#404040" stroke-width=".7" d="M172.851 150.752l-7.252.022"/></g><g><path stroke-linecap="round" stroke="#404040" stroke-width=".7" d="M172.8 136.373l.052 14.379"/></g><g><path stroke-linecap="round" stroke="#404040" stroke-width=".7" d="M108 107.573"/></g><g><path stroke-linecap="round" stroke="#404040" stroke-width=".7" d="M187.231 157.995l-21.631-.021"/></g><g><path stroke-linecap="round" stroke="#404040" stroke-width=".7" d="M187.2 143.573l.031 14.422"/></g><g><text y="3.75" transform="translate(124.615 137.711)" font-size="5" font-family="'DroidSans'">Mini Servo<tspan font-size="3.5" x="36" y="8">+5v</tspan> <tspan font-size="3.5" x="36" y="11.8">(red)</tspan> <tspan font-size="3.5" x="64" y="19.4">signal</tspan> <tspan font-size="3.5" x="36" y="24.3">(white, yellow or orange)</tspan> <tspan font-size="3.5" x="36" y="31.6">gnd</tspan> <tspan font-size="3.5" x="36" y="35.9">(black or brown)</tspan> <tspan font-size="5.5" x="62" y="1">Arduino</tspan></text></g><g><text y="3.75" transform="translate(174.663 184.129)" font-size="5" font-family="'DroidSans'">gnd<tspan font-size="4" x="-14" y="9.25">(ground) (-)</tspan></text></g></svg>