<?xml version="1.0" encoding="UTF-8"?>
<svg width="9.75in" height="8in" version="1.2" viewBox="0 0 234 192" xmlns="http://www.w3.org/2000/svg">
 <g transform="translate(.35 -1.2774)" partID="854980540">
  <g transform="translate(144.35,110.67)">
   <g transform="scale(-1)">
    <g id="schematic">
     <g stroke="#000" stroke-linecap="round" stroke-width=".432">
      <line x1="7.55" x2="8.63" y1="3.096" y2=".216"/>
      <line x1="8.63" x2="10.43" y1=".216" y2="5.976"/>
      <line x1="10.43" x2="12.23" y1="5.976" y2=".216"/>
      <line x1="12.23" x2="14.03" y1=".216" y2="5.976"/>
      <line x1="14.03" x2="15.83" y1="5.976" y2=".216"/>
      <line x1="15.83" x2="17.63" y1=".216" y2="5.976"/>
      <line x1="17.63" x2="19.43" y1="5.976" y2=".216"/>
      <line x1="19.43" x2="21.23" y1=".216" y2="5.976"/>
      <line x1="21.23" x2="21.95" y1="5.976" y2="3.096"/>
     </g>
     <line id="connector1pin" x1="29.15" x2="21.95" y1="3.096" y2="3.096" stroke="#787878" stroke-linecap="round" stroke-width=".7" connectorname="2"/>
     <text x="25.5501" y="2.046" fill="#8c8c8c" font-family="'Droid Sans'" font-size="2.5px" stroke-width="0" text-anchor="middle">2</text>
     <line id="connector0pin" x1=".35" x2="7.55" y1="3.096" y2="3.096" stroke="#787878" stroke-linecap="round" stroke-width=".7" connectorname="1"/>
     <text x="3.9500101" y="2.046" fill="#8c8c8c" font-family="'Droid Sans'" font-size="2.5px" stroke-width="0" text-anchor="middle">1</text>
    </g>
   </g>
  </g>
 </g>
 <g transform="translate(.35 -1.2774)" partID="854954980">
  <g transform="translate(0,13.973)">
   <rect x="14.85" y="14.85" width="78.3" height="135.9" fill="#fff" stroke="#000" stroke-linecap="round" stroke-width=".9"/>
   <line id="connector61pin" x1="93.25" x2="107.65" y1="28.8" y2="28.8" fill="none" stroke="#787878" stroke-linecap="round" stroke-width=".7"/>
   <text x="91.849899" y="29.499901" fill="#8c8c8c" font-family="'Droid Sans'" font-size="3.5px" stroke-width="0" text-anchor="end">D0/RX</text>
   <line id="connector62pin" x1="93.25" x2="107.65" y1="36" y2="36" fill="none" stroke="#787878" stroke-linecap="round" stroke-width=".7"/>
   <text x="91.849899" y="36.699902" fill="#8c8c8c" font-family="'Droid Sans'" font-size="3.5px" stroke-width="0" text-anchor="end">D1/TX</text>
   <line id="connector63pin" x1="93.25" x2="107.65" y1="43.2" y2="43.2" fill="none" stroke="#787878" stroke-linecap="round" stroke-width=".7"/>
   <text x="91.849899" y="43.899899" fill="#8c8c8c" font-family="'Droid Sans'" font-size="3.5px" stroke-width="0" text-anchor="end">D2</text>
   <line id="connector64pin" x1="93.25" x2="107.65" y1="50.4" y2="50.4" fill="none" stroke="#787878" stroke-linecap="round" stroke-width=".7"/>
   <text x="91.849899" y="51.099899" fill="#8c8c8c" font-family="'Droid Sans'" font-size="3.5px" stroke-width="0" text-anchor="end">D3 PWM</text>
   <line id="connector65pin" x1="93.25" x2="107.65" y1="57.6" y2="57.6" fill="none" stroke="#787878" stroke-linecap="round" stroke-width=".7"/>
   <text x="91.849899" y="58.2999" fill="#8c8c8c" font-family="'Droid Sans'" font-size="3.5px" stroke-width="0" text-anchor="end">D4</text>
   <line id="connector66pin" x1="93.25" x2="107.65" y1="64.8" y2="64.8" fill="none" stroke="#787878" stroke-linecap="round" stroke-width=".7"/>
   <text x="91.849899" y="65.499901" fill="#8c8c8c" font-family="'Droid Sans'" font-size="3.5px" stroke-width="0" text-anchor="end">D5 PWM</text>
   <line id="connector67pin" x1="93.25" x2="107.65" y1="72" y2="72" fill="none" stroke="#787878" stroke-linecap="round" stroke-width=".7"/>
   <text x="91.849899" y="72.699898" fill="#8c8c8c" font-family="'Droid Sans'" font-size="3.5px" stroke-width="0" text-anchor="end">D6 PWM</text>
   <line id="connector68pin" x1="93.25" x2="107.65" y1="79.2" y2="79.2" fill="none" stroke="#787878" stroke-linecap="round" stroke-width=".7"/>
   <text x="91.849899" y="79.899902" fill="#8c8c8c" font-family="'Droid Sans'" font-size="3.5px" stroke-width="0" text-anchor="end">D7</text>
   <line id="connector51pin" x1="93.25" x2="107.65" y1="86.4" y2="86.4" fill="none" stroke="#787878" stroke-linecap="round" stroke-width=".7"/>
   <text x="91.849899" y="87.099899" fill="#8c8c8c" font-family="'Droid Sans'" font-size="3.5px" stroke-width="0" text-anchor="end">D8</text>
   <line id="connector52pin" x1="93.25" x2="107.65" y1="93.6" y2="93.6" fill="none" stroke="#787878" stroke-linecap="round" stroke-width=".7"/>
   <text x="91.849899" y="94.299896" fill="#8c8c8c" font-family="'Droid Sans'" font-size="3.5px" stroke-width="0" text-anchor="end">D9 PWM</text>
   <line id="connector53pin" x1="93.25" x2="107.65" y1="100.8" y2="100.8" fill="none" stroke="#787878" stroke-linecap="round" stroke-width=".7"/>
   <text x="91.849899" y="101.5" fill="#8c8c8c" font-family="'Droid Sans'" font-size="3.5px" stroke-width="0" text-anchor="end">D10 PWM/SS</text>
   <line id="connector54pin" x1="93.25" x2="107.65" y1="108" y2="108" fill="none" stroke="#787878" stroke-linecap="round" stroke-width=".7"/>
   <text x="91.849899" y="108.7" fill="#8c8c8c" font-family="'Droid Sans'" font-size="3.5px" stroke-width="0" text-anchor="end">D11 PWM/MOSI</text>
   <line id="connector55pin" x1="93.25" x2="107.65" y1="115.2" y2="115.2" fill="none" stroke="#787878" stroke-linecap="round" stroke-width=".7"/>
   <text x="91.849899" y="115.9" fill="#8c8c8c" font-family="'Droid Sans'" font-size="3.5px" stroke-width="0" text-anchor="end">D12/MISO</text>
   <g fill="none">
    <line id="connector41pin" x1="93.25" x2="107.65" y1="122.4" y2="122.4" stroke-linecap="round" stroke-width="0"/>
    <rect id="connector41terminal" x="107.65" y="122.05" width=".7" height=".7" stroke-width="0"/>
    <line id="connector56pin" x1="93.25" x2="107.65" y1="122.4" y2="122.4" stroke="#787878" stroke-linecap="round" stroke-width=".7"/>
   </g>
   <text x="91.849899" y="123.1" fill="#8c8c8c" font-family="'Droid Sans'" font-size="3.5px" stroke-width="0" text-anchor="end">D13/SCK</text>
   <g fill="none">
    <line id="connector43pin" x1=".35" x2="14.75" y1="28.8" y2="28.8" stroke-linecap="round" stroke-width="0"/>
    <rect id="connector43terminal" x="-.35" y="28.45" width=".7" height=".7" stroke-width="0"/>
    <line id="connector85pin" x1=".35" x2="14.75" y1="28.8" y2="28.8" stroke="#787878" stroke-linecap="round" stroke-width=".7"/>
   </g>
   <text x="16.15" y="29.499901" fill="#8c8c8c" font-family="'Droid Sans'" font-size="3.5px" stroke-width="0">RESET</text>
   <line id="connector49pin" x1=".35" x2="14.75" y1="36" y2="36" fill="none" stroke="#787878" stroke-linecap="round" stroke-width=".7"/>
   <text x="16.15" y="36.699902" fill="#8c8c8c" font-family="'Droid Sans'" font-size="3.5px" stroke-width="0">RESET2</text>
   <rect id="connector49terminal" x="-.35" y="35.65" width=".7" height=".7" fill="none" stroke-width="0"/>
   <line id="connector58pin" x1=".35" x2="14.75" y1="43.2" y2="43.2" fill="none" stroke="#787878" stroke-linecap="round" stroke-width=".7"/>
   <text x="16.15" y="43.899899" fill="#8c8c8c" font-family="'Droid Sans'" font-size="3.5px" stroke-width="0">AREF</text>
   <line id="connector84pin" x1=".35" x2="14.75" y1="50.4" y2="50.4" fill="none" stroke="#787878" stroke-linecap="round" stroke-width=".7"/>
   <text x="16.15" y="51.099899" fill="#8c8c8c" font-family="'Droid Sans'" font-size="3.5px" stroke-width="0">ioref</text>
   <line x1=".35" x2="14.75" y1="64.8" y2="64.8" fill="none" stroke="#787878" stroke-linecap="round" stroke-width=".7"/>
   <text x="16.15" y="65.499901" fill="#8c8c8c" font-family="'Droid Sans'" font-size="3.5px" stroke-width="0">A0</text>
   <line x1=".35" x2="14.75" y1="72" y2="72" fill="none" stroke="#787878" stroke-linecap="round" stroke-width=".7"/>
   <text x="16.15" y="72.699898" fill="#8c8c8c" font-family="'Droid Sans'" font-size="3.5px" stroke-width="0">A1</text>
   <line id="connector2pin" x1=".35" x2="14.75" y1="79.2" y2="79.2" fill="none" stroke="#787878" stroke-linecap="round" stroke-width=".7"/>
   <text x="16.15" y="79.899902" fill="#8c8c8c" font-family="'Droid Sans'" font-size="3.5px" stroke-width="0">A2</text>
   <line id="connector3pin" x1=".35" x2="14.75" y1="86.4" y2="86.4" fill="none" stroke="#787878" stroke-linecap="round" stroke-width=".7"/>
   <text x="16.15" y="87.099899" fill="#8c8c8c" font-family="'Droid Sans'" font-size="3.5px" stroke-width="0">A3</text>
   <g fill="none">
    <g stroke-width="0">
     <line id="connector48pin" x1=".35" x2="14.75" y1="93.6" y2="93.6" stroke-linecap="round"/>
     <rect id="connector48terminal" x="-.35" y="93.25" width=".7" height=".7"/>
     <line id="connector45pin" x1=".35" x2="14.75" y1="93.6" y2="93.6" stroke-linecap="round"/>
     <rect id="connector45terminal" x="-.35" y="93.25" width=".7" height=".7"/>
     <line id="connector4pin" x1=".35" x2="14.75" y1="93.6" y2="93.6" stroke-linecap="round"/>
     <line id="connector39pin" x1=".35" x2="14.75" y1="93.6" y2="93.6" stroke-linecap="round"/>
     <rect id="connector39terminal" x="-.35" y="93.25" width=".7" height=".7"/>
     <line id="connector47pin" x1=".35" x2="14.75" y1="93.6" y2="93.6" stroke-linecap="round"/>
     <rect id="connector47terminal" x="-.35" y="93.25" width=".7" height=".7"/>
     <line id="connector42pin" x1=".35" x2="14.75" y1="93.6" y2="93.6" stroke-linecap="round"/>
     <rect id="connector42terminal" x="-.35" y="93.25" width=".7" height=".7"/>
    </g>
    <line id="connector59pin" x1=".35" x2="14.75" y1="93.6" y2="93.6" stroke="#787878" stroke-linecap="round" stroke-width=".7"/>
   </g>
   <text x="16.15" y="94.299896" fill="#8c8c8c" font-family="'Droid Sans'" font-size="3.5px" stroke-width="0">A4/SDA</text>
   <line id="connector5pin" x1=".35" x2="14.75" y1="100.8" y2="100.8" fill="none" stroke-linecap="round" stroke-width="0"/>
   <line id="connector60pin" x1=".35" x2="14.75" y1="100.8" y2="100.8" fill="none" stroke="#787878" stroke-linecap="round" stroke-width=".7"/>
   <text x="16.15" y="101.5" fill="#8c8c8c" font-family="'Droid Sans'" font-size="3.5px" stroke-width="0">A5/SCL</text>
   <line id="connector91pin" x1=".35" x2="14.75" y1="136.8" y2="136.8" fill="none" stroke="#787878" stroke-linecap="round" stroke-width=".7"/>
   <text x="16.15" y="137.5" fill="#8c8c8c" font-family="'Droid Sans'" font-size="3.5px" stroke-width="0">N/C</text>
   <g fill="none">
    <g stroke-width="0">
     <g stroke-linecap="round">
      <line id="connector88pin" x1="57.6" x2="57.6" y1="150.85" y2="165.25"/>
      <line id="connector57pin" x1="57.6" x2="57.6" y1="150.85" y2="165.25"/>
      <line id="connector44pin" x1="57.6" x2="57.6" y1="150.85" y2="165.25"/>
     </g>
     <rect id="connector44terminal" x="57.25" y="165.25" width=".7" height=".7"/>
     <line id="connector50pin" x1="57.6" x2="57.6" y1="150.85" y2="165.25" stroke-linecap="round"/>
     <rect id="connector50terminal" x="57.25" y="165.25" width=".7" height=".7"/>
    </g>
    <line id="connector89pin" x1="57.6" x2="57.6" y1="150.85" y2="165.25" stroke="#787878" stroke-linecap="round" stroke-width=".7"/>
   </g>
   <g transform="translate(58.3,149.45)">
    <g transform="rotate(-90)">
     <text fill="#8c8c8c" font-family="'Droid Sans'" font-size="3.5px" stroke-width="0">GND</text>
    </g>
   </g>
   <line id="connector86pin" x1="36" x2="36" y1=".35" y2="14.75" fill="none" stroke="#787878" stroke-linecap="round" stroke-width=".7"/>
   <g transform="translate(36.7,16.15)">
    <g transform="rotate(-90)">
     <text fill="#8c8c8c" font-family="'Droid Sans'" font-size="3.5px" stroke-width="0" text-anchor="end">3V3</text>
    </g>
   </g>
   <g fill="none">
    <g stroke-width="0">
     <line id="connector40pin" x1="50.4" x2="50.4" y1=".35" y2="14.75" stroke-linecap="round"/>
     <rect id="connector40terminal" x="50.05" y="-.35" width=".7" height=".7"/>
     <line id="connector46pin" x1="50.4" x2="50.4" y1=".35" y2="14.75" stroke-linecap="round"/>
     <rect id="connector46terminal" x="50.05" y="-.35" width=".7" height=".7"/>
    </g>
    <line id="connector87pin" x1="50.4" x2="50.4" y1=".35" y2="14.75" stroke="#787878" stroke-linecap="round" stroke-width=".7"/>
   </g>
   <g transform="translate(51.1,16.15)">
    <g transform="rotate(-90)">
     <text fill="#8c8c8c" font-family="'Droid Sans'" font-size="3.5px" stroke-width="0" text-anchor="end">5V</text>
    </g>
   </g>
   <line id="connector90pin" x1="64.8" x2="64.8" y1=".35" y2="14.75" fill="none" stroke="#787878" stroke-linecap="round" stroke-width=".7"/>
   <g transform="translate(65.5,16.15)">
    <g transform="rotate(-90)">
     <text fill="#8c8c8c" font-family="'Droid Sans'" font-size="3.5px" stroke-width="0" text-anchor="end">VIN</text>
    </g>
   </g>
   <g font-family="'Droid Sans'" font-size="4.25px" stroke-width="0" text-anchor="middle">
    <text id="label" x="54.4501" y="76.449799">Arduino</text>
    <text x="54.4501" y="80.983299">Uno</text>
    <text x="54.4501" y="85.516701">(Rev3)</text>
   </g>
  </g>
 </g>
 <g transform="translate(.35 -1.2774)" partID="854955070">
  <g transform="translate(143.65,92.823)">
   <g stroke-linecap="round">
    <g stroke="#000">
     <g stroke-width=".432">
      <line x1="14.75" x2="8.99" y1="7.55" y2="10.43"/>
      <line x1="12.59" x2="14.75" y1="19.07" y2="21.95"/>
      <line x1="14.75" x2="11.15" y1="21.95" y2="21.95"/>
      <line x1="11.15" x2="12.59" y1="21.95" y2="19.07"/>
      <line x1="11.915" x2="8.4231" y1="20.533" y2="18.787"/>
     </g>
     <g stroke-width=".72">
      <line x1="11.87" x2="14.03" y1="21.59" y2="21.59"/>
      <line x1="14.03" x2="12.59" y1="21.59" y2="19.79"/>
      <line x1="12.59" x2="11.87" y1="19.79" y2="21.23"/>
      <line x1="11.87" x2="12.95" y1="21.23" y2="21.23"/>
      <line x1="12.95" x2="12.59" y1="21.23" y2="20.51"/>
     </g>
    </g>
    <rect x="6.83" y="7.55" width="2.16" height="14.4" stroke-width="0"/>
    <line x1=".35" x2="7.55" y1="14.75" y2="14.75" stroke="#787878" stroke-width=".7" connectorname="B"/>
   </g>
   <text x="3.94999" y="13.7001" fill="#8c8c8c" font-family="'Droid Sans'" font-size="2.5px" stroke-width="0" text-anchor="middle">1</text>
   <line x1="14.75" x2="14.75" y1="29.15" y2="21.95" stroke="#787878" stroke-linecap="round" stroke-width=".7" connectorname="E"/>
   <g transform="translate(13.7,25.55)">
    <g transform="rotate(-90)">
     <text fill="#8c8c8c" font-family="'Droid Sans'" font-size="2.5px" stroke-width="0" text-anchor="middle">2</text>
    </g>
   </g>
   <line x1="14.75" x2="14.75" y1=".35" y2="7.55" stroke="#787878" stroke-linecap="round" stroke-width=".7" connectorname="C"/>
   <g transform="translate(13.7,3.95)">
    <g transform="rotate(-90)">
     <text fill="#8c8c8c" font-family="'Droid Sans'" font-size="2.5px" stroke-width="0" text-anchor="middle">3</text>
    </g>
   </g>
  </g>
 </g>
 <g transform="translate(.35 -1.2774)" partID="854955040">
  <g transform="translate(201.24,78.423)">
   <g stroke="#000">
    <line x1=".36" x2="14.76" y1="7.55" y2="7.55" stroke-linecap="round" stroke-width=".72"/>
    <line x1="7.56" x2="7.56" y1="10.43" y2="14.75" stroke-linecap="round" stroke-width=".432"/>
    <path d="m7.56 10.385a11.492 11.492 0 0 1 7.056 2.4214" fill="none" stroke-width=".72"/>
    <path d="m0.56721 12.795a11.519 11.519 0 0 1 6.9928-2.3649" fill="none" stroke-width=".72"/>
   </g>
   <g stroke-linecap="round">
    <rect x="1.1735" y="5.2965" width="2.52" height=".36" stroke-width="0"/>
    <rect x="2.2535" y="4.2165" width=".36" height="2.52" stroke-width="0"/>
    <line x1="7.56" x2="7.56" y1=".35" y2="7.55" stroke="#787878" stroke-width=".7" connectorname="+"/>
   </g>
   <g transform="translate(6.51,3.95)">
    <g transform="rotate(-90)">
     <text fill="#8c8c8c" font-family="'Droid Sans'" font-size="2.5px" stroke-width="0" text-anchor="middle">2</text>
    </g>
   </g>
   <line x1="7.56" x2="7.56" y1="21.95" y2="14.75" stroke="#787878" stroke-linecap="round" stroke-width=".7" connectorname="-"/>
   <g transform="translate(6.51,18.35)">
    <g transform="rotate(-90)">
     <text fill="#8c8c8c" font-family="'Droid Sans'" font-size="2.5px" stroke-width="0" text-anchor="middle">1</text>
    </g>
   </g>
  </g>
 </g>
 <g transform="translate(.35 -1.2774)" partID="854955100">
  <g transform="translate(148.19,93.449)">
   <g transform="scale(-1)">
    <g stroke="#000" stroke-linecap="round">
     <g stroke-width=".7">
      <line x1="7.787" x2="4.188" y1="14.677" y2="14.677" fill="none"/>
      <line x1="4.188" x2=".587" y1="14.677" y2="14.677" fill="none"/>
      <polygon points="7.787 7.477 4.188 14.677 0.587 7.477 4.188 7.477" fill="#fff"/>
     </g>
     <line x1="4.188" x2="4.188" y1="7.477" y2="14.677" fill="none" stroke-width=".45"/>
    </g>
    <line x1="4.188" x2="4.188" y1="21.876" y2="14.677" fill="none" stroke="#787878" stroke-linecap="round" stroke-width=".7"/>
    <g transform="translate(3.429,6.4262)">
     <g transform="rotate(-90)">
      <g transform="translate(-12.691 -.1726)">
       <text fill="#787878" font-family="'Droid Sans'" font-size="2px">2</text>
      </g>
     </g>
    </g>
    <line x1="4.188" x2="4.188" y1=".276" y2="7.477" fill="none" stroke="#787878" stroke-linecap="round" stroke-width=".7"/>
    <g transform="translate(3.429,1.3462)">
     <g transform="rotate(-90)">
      <g transform="translate(-3.3708 -.1726)">
       <text fill="#787878" font-family="'Droid Sans'" font-size="2px">1</text>
      </g>
     </g>
    </g>
   </g>
  </g>
 </g>
 <g transform="translate(.35 -1.2774)" partID="854959880">
  <g transform="translate(152.3,63.826)">
   <path d="m11.88 14.75c0-2.17-1.199-4.058-2.973-5.04h0.813v-5.76h-7.2v5.76h0.813c-1.772 0.982-2.974 2.87-2.974 5.04s1.201 4.059 2.974 5.04h-0.813v5.761h7.2v-5.761h-0.814c1.773-0.981 2.974-2.87 2.974-5.04z" fill="#fff" stroke="#000" stroke-width=".9"/>
   <g transform="translate(4.3203,16.275)">
    <text font-family="DroidSans" font-size="4.25px">M</text>
   </g>
   <g fill="none">
    <g stroke-linecap="round">
     <g stroke="#000" stroke-width=".9">
      <line x1="2.52" x2="2.52" y1="3.95" y2="9.71"/>
      <line x1="2.52" x2="6.12" y1="3.95" y2="3.95"/>
      <line x1="6.12" x2="9.72" y1="3.95" y2="3.95"/>
      <line x1="9.72" x2="9.72" y1="3.95" y2="9.71"/>
      <line x1="9.72" x2="9.72" y1="25.551" y2="19.79"/>
      <line x1="9.72" x2="6.12" y1="25.551" y2="25.551"/>
      <line x1="6.12" x2="2.52" y1="25.551" y2="25.551"/>
      <line x1="2.52" x2="2.52" y1="25.551" y2="19.79"/>
     </g>
     <line x1="6.12" x2="6.12" y1=".35" y2="3.95" stroke="#8c8c8c" stroke-miterlimit="10" stroke-width=".75"/>
     <line x1="6.12" x2="6.12" y1="29.15" y2="25.551" stroke="#8c8c8c" stroke-miterlimit="10" stroke-width=".75"/>
    </g>
    <circle cx="6.12" cy="14.75" r="5.76" stroke="#000" stroke-width=".9"/>
   </g>
   <g transform="translate(7.2441,2.6348)">
    <text fill="#8c8c8c" font-family="DroidSans" font-size="2.5px">1</text>
   </g>
   <g transform="translate(2.4059 .8643)">
    <g transform="rotate(-90)">
     <g transform="rotate(90,-4.6364,-1.89)">
      <text fill="#787878" font-family="DroidSans" font-size="3.5px">+</text>
     </g>
    </g>
   </g>
   <g transform="translate(7.2441,28.516)">
    <text fill="#8c8c8c" font-family="DroidSans" font-size="2.5px">2</text>
   </g>
   <g transform="translate(2.4059,11.024)">
    <g transform="rotate(-90)">
     <g transform="rotate(90,-8.0632,-5.0375)">
      <text fill="#787878" font-family="DroidSans" font-size="3.5px">-</text>
     </g>
    </g>
   </g>
  </g>
 </g>
 <g transform="translate(.35 -1.2774)" partID="854959980">
  <g transform="translate(151.2,121.5)">
   <g fill="none" stroke-linecap="round">
    <path d="m7.201 7.575v-7.2" stroke="#787878" stroke-width=".75"/>
    <g stroke="#000" stroke-width=".9">
     <path d="m0.5 7.711h13.4"/>
     <path d="m2.732 10.456h8.935"/>
     <path d="m9.431 13.175h-4.464"/>
    </g>
   </g>
  </g>
 </g>
 <g transform="translate(.35 -1.2774)" partID="854960310">
  <g transform="translate(151.22,50.4)">
   <line x1="7.2" x2="7.2" y1="6.78" y2="13.98" fill="none" stroke="#787878" stroke-linecap="round" stroke-miterlimit="10" stroke-width=".75"/>
   <path d="m0.45 6.564h13.5" fill="none" stroke="#000" stroke-linecap="round" stroke-width=".9"/>
   <g transform="translate(1.4985,4.9878)">
    <text font-family="DroidSans" font-size="4.4991px">5V</text>
   </g>
  </g>
 </g>
 <g transform="translate(.35 -1.2774)" partID="854960340">
  <g transform="translate(201.62,50.4)">
   <line x1="7.2" x2="7.2" y1="6.78" y2="13.98" fill="none" stroke="#787878" stroke-linecap="round" stroke-miterlimit="10" stroke-width=".75"/>
   <path d="m0.45 6.564h13.5" fill="none" stroke="#000" stroke-linecap="round" stroke-width=".9"/>
   <g transform="translate(1.4985,4.9878)">
    <text font-family="DroidSans" font-size="4.4991px">5V</text>
   </g>
  </g>
 </g>
 <g transform="translate(.35 -1.2774)" partID="854960400">
  <g transform="translate(201.6,121.5)">
   <g fill="none" stroke-linecap="round">
    <path d="m7.201 7.575v-7.2" stroke="#787878" stroke-width=".75"/>
    <g stroke="#000" stroke-width=".9">
     <path d="m0.5 7.711h13.4"/>
     <path d="m2.732 10.456h8.935"/>
     <path d="m9.431 13.175h-4.464"/>
    </g>
   </g>
  </g>
 </g>
 <g transform="translate(.35 -1.2774)" partID="854960500">
  <g transform="translate(43.218)">
   <line x1="7.2" x2="7.2" y1="6.78" y2="13.98" fill="none" stroke="#787878" stroke-linecap="round" stroke-miterlimit="10" stroke-width=".75"/>
   <path d="m0.45 6.564h13.5" fill="none" stroke="#000" stroke-linecap="round" stroke-width=".9"/>
   <g transform="translate(1.4985,4.9878)">
    <text font-family="DroidSans" font-size="4.4991px">5V</text>
   </g>
  </g>
 </g>
 <g transform="translate(.35 -1.2774)" partID="854960600">
  <g transform="translate(50.399,179.1)">
   <g fill="none" stroke-linecap="round">
    <path d="m7.201 7.575v-7.2" stroke="#787878" stroke-width=".75"/>
    <g stroke="#000" stroke-width=".9">
     <path d="m0.5 7.711h13.4"/>
     <path d="m2.732 10.456h8.935"/>
     <path d="m9.431 13.175h-4.464"/>
    </g>
   </g>
  </g>
 </g>
 <g transform="translate(.35 -1.2774)" partID="854979010">
  <g transform="translate(118.8,85.102)">
   <g transform="rotate(90)">
    <rect x="11.66" width="3.6" height="7.2" fill="none" stroke-width="0"/>
    <polygon points="15.148 3.6 11.668 0.12 0.12 0.12 0.12 7.08 11.668 7.08" fill="#fff" stroke="#000" stroke-width=".24"/>
   </g>
  </g>
 </g>
 <g transform="translate(.35 -1.2774)" partID="854979011">
  <g transform="translate(118.8,85.102)">
   <g transform="rotate(90)">
    <g id="schematicText">
     <text x="0.47999999" y="5.2800002" fill="#000000" font-family="'Droid Sans'" font-size="4.8px">pin 9</text>
    </g>
   </g>
  </g>
 </g>
 <g transform="translate(.35 -1.2774)" partID="854971310">
  <line x1="208.8" x2="208.8" y1="100.37" y2="121.97" stroke="#404040" stroke-linecap="round" stroke-width=".7"/>
 </g>
 <g transform="translate(.35 -1.2774)" partID="854971420">
  <line x1="208.8" x2="208.8" y1="78.773" y2="64.373" stroke="#404040" stroke-linecap="round" stroke-width=".7"/>
 </g>
 <g transform="translate(.35 -1.2774)" partID="854971570">
  <line x1="158.4" x2="158.4" y1="121.97" y2="121.97" stroke="#404040" stroke-linecap="round" stroke-width=".7"/>
 </g>
 <g transform="translate(.35 -1.2774)" partID="854971650">
  <line x1="144" x2="144" y1="107.57" y2="107.57" stroke="#404040" stroke-linecap="round" stroke-width=".7"/>
 </g>
 <g transform="translate(.35 -1.2774)" partID="854971710">
  <line x1="57.6" x2="57.6" y1="179.57" y2="179.57" stroke="#404040" stroke-linecap="round" stroke-width=".7"/>
 </g>
 <g transform="translate(.35 -1.2774)" partID="854971840">
  <line x1="50.4" x2="50.4" y1="13.973" y2="13.973" stroke="#404040" stroke-linecap="round" stroke-width=".7"/>
 </g>
 <g transform="translate(.35 -1.2774)" partID="854972000">
  <line x1="108" x2="115.2" y1="107.57" y2="107.57" stroke="#404040" stroke-linecap="round" stroke-width=".7"/>
 </g>
 <ellipse cx="115.55" cy="106.3" rx="1.44" ry="1.44" stroke-width="0"/>
 <g transform="translate(.35 -1.2774)" partID="854972100">
  <line x1="144" x2="158.41" y1="93.173" y2="92.834" stroke="#404040" stroke-linecap="round" stroke-width=".7"/>
 </g>
 <ellipse cx="158.76" cy="91.557" rx="1.44" ry="1.44" stroke-width="0"/>
 <g transform="translate(.35 -1.2774)" partID="854972150">
  <line x1="158.41" x2="158.4" y1="92.834" y2="93.173" stroke="#404040" stroke-linecap="round" stroke-width=".7"/>
 </g>
 <ellipse cx="158.76" cy="91.557" rx="1.44" ry="1.44" stroke-width="0"/>
 <g transform="translate(.35 -1.2774)" partID="854972440">
  <line x1="144.14" x2="144" y1="64.384" y2="71.573" stroke="#404040" stroke-linecap="round" stroke-width=".7"/>
 </g>
 <g transform="translate(.35 -1.2774)" partID="854972240">
  <line x1="158.4" x2="144.14" y1="64.373" y2="64.384" stroke="#404040" stroke-linecap="round" stroke-width=".7"/>
 </g>
 <ellipse cx="158.75" cy="63.096" rx="1.44" ry="1.44" stroke-width="0"/>
 <g transform="translate(.35 -1.2774)" partID="854972350">
  <line x1="158.4" x2="158.4" y1="64.373" y2="64.373" stroke="#404040" stroke-linecap="round" stroke-width=".7"/>
 </g>
 <ellipse cx="158.75" cy="63.096" rx="1.44" ry="1.44" stroke-width="0"/>
 <g transform="translate(.35 -1.2774)" partID="854979030">
  <line x1="115.2" x2="115.2" y1="107.57" y2="100.37" stroke="#404040" stroke-linecap="round" stroke-width=".7"/>
 </g>
 <ellipse cx="115.55" cy="106.3" rx="1.44" ry="1.44" stroke-width="0"/>
 <g id="partLabel" transform="translate(.35 -1.2774)" partID="854955040">
  <g transform="translate(217.24,79.518)">
   <g id="schematicLabel" font-family="DroidSans" font-size="5px">
    <text y="3.75">C1</text>
    <text y="8.75">220µF</text>
    <text y="13.75">16V</text>
   </g>
  </g>
 </g>
 <g transform="translate(.35 -1.2774)" partID="854955070">
  <g transform="translate(157.18,103.18)">
   <g font-family="DroidSans" font-size="5px">
    <text y="3.75">Transistor</text>
    <text y="8.75">P2N2222AG</text>
   </g>
  </g>
 </g>
 <g transform="translate(.35 -1.2774)" partID="854955100">
  <g transform="translate(125.24,80.421)">
   <g font-family="DroidSans" font-size="5px">
    <text y="3.75">diode</text>
   </g>
  </g>
 </g>
 <g transform="translate(.35 -1.2774)" partID="854959880">
  <g transform="translate(165.97,76.757)">
   <g font-family="DroidSans" font-size="5px">
    <text y="3.75">Motor</text>
   </g>
  </g>
 </g>
 <g transform="translate(.35 -1.2774)" partID="854980540">
  <g transform="translate(120.6,111.45)">
   <g font-family="DroidSans" font-size="5px">
    <text y="3.75">resistor</text>
    <text y="8.75">2.2kΩ</text>
   </g>
  </g>
 </g>
 <g transform="translate(.35 -1.2774)" partID="854959980">
  <g transform="translate(166.42,128.7)">
   <g font-family="DroidSans" font-size="5px">
    <text y="3.75">gnd</text>
   </g>
  </g>
 </g>
</svg>
