<svg xmlns="http://www.w3.org/2000/svg" version="1.2" baseProfile="tiny" width="3.74in" height="257.995" viewBox="0 0 269.28 193.496"><g stroke-linecap="round" stroke-linejoin="round" stroke-width=".56" font-size="2.5" fill="none" font-family="'Droid Sans'"><g stroke="#000" fill="#000"><path stroke-linejoin="miter" d="M262.4 125.981v1.28l-1.04-.64zM256 125.981v1.28l1.04-.64z"/><path d="M256 125.981v-3.202h-4v-.8M262.4 125.981v-3.202h4v-.8M260.8 127.182l-1.6-3.202v-2.002" fill="none"/><g text-anchor="end"><text stroke="#787878" stroke-width=".08" fill="#787878" transform="rotate(-90 195.59 -72.01)">N.C.</text><text stroke="#787878" stroke-width=".08" fill="#787878" transform="rotate(-90 188.39 -64.81)">N.O.</text><text stroke="#787878" stroke-width=".08" fill="#787878" transform="rotate(-90 191.35 -67.77)">C</text><path fill="none" stroke="none" d="M253.92 128.062v.801h-.8v-.8z"/></g></g><g text-anchor="middle" fill="#787878"><text transform="rotate(-90 192.238 -73.462)">11</text><text transform="rotate(-90 188.638 -69.862)">13</text><text x=".24" transform="rotate(-90 185.038 -66.262)">9</text><path fill="none" d="M267.78 118.776v.8h-.8v-.8z"/></g><g stroke="#787878"><path d="M266.4 114.773v7.205M259.2 114.773v7.205M252 114.773v7.205"/></g></g><g stroke-linecap="round" stroke-linejoin="round" stroke-width=".56" font-size="2.5" fill="none" font-family="'Droid Sans'"><g stroke="#000" fill="#000"><path stroke-linejoin="miter" d="M219.2 125.98v1.281l-1.04-.64zM212.8 125.98v1.281l1.04-.64z"/><path d="M212.8 125.98v-3.202h-4v-.8M219.2 125.98v-3.202h4v-.8M217.6 127.181l-1.6-3.202v-2.001" fill="none"/><g text-anchor="end"><text stroke="#787878" stroke-width=".08" fill="#787878" transform="rotate(-90 172.99 -49.41)">N.C.</text><text stroke="#787878" stroke-width=".08" fill="#787878" transform="rotate(-90 166.79 -43.21)">N.O.</text><text stroke="#787878" stroke-width=".08" fill="#787878" transform="rotate(-90 169.75 -46.17)">C</text><path fill="none" stroke="none" d="M208.72 128.142v.8h-.8v-.8z"/></g></g><g text-anchor="middle" fill="#787878"><text transform="rotate(-90 170.638 -51.862)">6</text><text transform="rotate(-90 167.038 -48.262)">4</text><text transform="rotate(-90 163.438 -44.662)">8</text><path fill="none" d="M224.58 118.775v.801h-.8v-.8z"/></g><g stroke="#787878"><path d="M223.2 114.773v7.205M216 114.773v7.205M208.8 114.773v7.205"/></g></g><g stroke-linecap="round" stroke-linejoin="round" stroke-width=".56" font-size="2.5" fill="none" font-family="'Droid Sans'"><g stroke="#000"><path d="M158.395 143.593h-5.604v-4.4c-2.802 0-2.802-4 0-4-2.802 0-2.802-4 0-4-2.802 0-2.802-4 0-4-2.802 0-2.802-4 0-4-2.802 0-2.802-4 0-4v-4.4h5.604"/><text transform="rotate(-90 143.194 -14)" text-anchor="middle" stroke-width=".08" font-size="4.251" fill="#000">relay coil</text></g><g fill="#787878"><text transform="rotate(-90 152.596 -9.802)">1</text><text text-anchor="end" x="-1.601" transform="rotate(-90 138.196 -24.202)">16</text></g><g stroke="#787878"><path d="M165.6 143.593h-7.205M165.6 114.793h-7.205"/></g></g><path stroke-linecap="round" stroke="#000" class="other" stroke-width=".432" d="M165.6 150.773l-5.76 2.88M163.44 162.293l2.16 2.88M165.6 165.173H162M162 165.173l1.44-2.88M162.765 163.756l-3.492-1.746"/><path stroke-linecap="round" stroke="#000" class="other" stroke-width=".72" d="M162.72 164.813h2.16M164.88 164.813l-1.44-1.8M163.44 163.013l-.72 1.44M162.72 164.453h1.08M163.8 164.453l-.36-.72"/><path class="other" d="M157.68 150.773h2.16v14.4h-2.16z"/><path stroke-linecap="round" stroke="#787878" class="pin" stroke-width=".7" d="M151.2 157.973h7.2"/><text y="13.7" text-anchor="middle" class="text" stroke-width="0" font-size="2.5" font-family="'Droid Sans'" fill="#8c8c8c" x="3.95" transform="translate(150.85 143.223)">1</text><path stroke-linecap="round" stroke="#787878" class="pin" stroke-width=".7" d="M165.6 172.373v-7.2"/><text text-anchor="middle" class="text" stroke-width="0" font-size="2.5" font-family="'Droid Sans'" fill="#8c8c8c" transform="rotate(-90 166.662 2.112)">2</text><path stroke-linecap="round" stroke="#787878" class="pin" stroke-width=".7" d="M165.6 143.573v7.2"/><text text-anchor="middle" class="text" stroke-width="0" font-size="2.5" font-family="'Droid Sans'" fill="#8c8c8c" transform="rotate(-90 155.862 -8.688)">3</text><g xmlns="http://www.w3.org/2000/svg" fill="none"><path stroke-linecap="round" stroke="#787878" stroke-width=".75" xmlns="http://www.w3.org/2000/svg" d="M165.6 179.471v-7.2"/><path stroke-linecap="round" stroke="#000" stroke-width=".9" xmlns="http://www.w3.org/2000/svg" d="M158.899 179.607h13.4M161.131 182.352h8.935M167.83 185.071h-4.464"/></g><g xmlns="http://www.w3.org/2000/svg"><path stroke-linecap="round" stroke="#000" class="other" stroke-width=".432" xmlns="http://www.w3.org/2000/svg" d="M201.599 165.172l-2.88-1.08M198.719 164.092l5.76-1.8M204.479 162.292l-5.76-1.8M198.719 160.492l5.76-1.8M204.479 158.692l-5.76-1.8M198.719 156.892l5.76-1.8M204.479 155.092l-5.76-1.8M198.719 153.292l5.76-1.8M204.479 151.492l-2.88-.72"/><path stroke-linecap="round" stroke="#787878" class="pin" stroke-width=".7" xmlns="http://www.w3.org/2000/svg" d="M201.599 143.572v7.2"/><text y="2.046" text-anchor="middle" class="text" stroke-width="0" font-size="2.5" xmlns="http://www.w3.org/2000/svg" font-family="'Droid Sans'" fill="#8c8c8c" x="25.55" transform="rotate(-90 185.613 -12.89)">2</text><path stroke-linecap="round" stroke="#787878" class="pin" stroke-width=".7" xmlns="http://www.w3.org/2000/svg" d="M201.599 172.372v-7.2"/><text y="2.046" text-anchor="middle" class="text" stroke-width="0" font-size="2.5" xmlns="http://www.w3.org/2000/svg" font-family="'Droid Sans'" fill="#8c8c8c" x="3.95" transform="rotate(-90 185.613 -12.89)">1</text></g><g xmlns="http://www.w3.org/2000/svg"><path stroke-linecap="round" stroke="#000" class="other" stroke-width=".432" xmlns="http://www.w3.org/2000/svg" d="M230.399 165.172l-2.88-1.08M227.519 164.092l5.76-1.8M233.279 162.292l-5.76-1.8M227.519 160.492l5.76-1.8M233.279 158.692l-5.76-1.8M227.519 156.892l5.76-1.8M233.279 155.092l-5.76-1.8M227.519 153.292l5.76-1.8M233.279 151.492l-2.88-.72"/><path stroke-linecap="round" stroke="#787878" class="pin" stroke-width=".7" xmlns="http://www.w3.org/2000/svg" d="M230.399 143.572v7.2"/><text y="2.046" text-anchor="middle" class="text" stroke-width="0" font-size="2.5" xmlns="http://www.w3.org/2000/svg" font-family="'Droid Sans'" fill="#8c8c8c" x="25.55" transform="rotate(-90 200.012 -27.29)">2</text><path stroke-linecap="round" stroke="#787878" class="pin" stroke-width=".7" xmlns="http://www.w3.org/2000/svg" d="M230.399 172.372v-7.2"/><text y="2.046" text-anchor="middle" class="text" stroke-width="0" font-size="2.5" xmlns="http://www.w3.org/2000/svg" font-family="'Droid Sans'" fill="#8c8c8c" x="3.95" transform="rotate(-90 200.012 -27.29)">1</text></g><g xmlns="http://www.w3.org/2000/svg"><path stroke-linecap="round" stroke="#000" class="other" stroke-width=".432" xmlns="http://www.w3.org/2000/svg" d="M144 143.573l-2.88-1.08M141.12 142.493l5.76-1.8M146.88 140.693l-5.76-1.8M141.12 138.893l5.76-1.8M146.88 137.093l-5.76-1.8M141.12 135.293l5.76-1.8M146.88 133.493l-5.76-1.8M141.12 131.693l5.76-1.8M146.88 129.893l-2.88-.72"/><path stroke-linecap="round" stroke="#787878" class="pin" stroke-width=".7" xmlns="http://www.w3.org/2000/svg" d="M144 121.973v7.2"/><text y="2.046" text-anchor="middle" class="text" stroke-width="0" font-size="2.5" xmlns="http://www.w3.org/2000/svg" font-family="'Droid Sans'" fill="#8c8c8c" x="25.55" transform="rotate(-90 146.013 5.11)">2</text><path stroke-linecap="round" stroke="#787878" class="pin" stroke-width=".7" xmlns="http://www.w3.org/2000/svg" d="M144 150.773v-7.2"/><text y="2.046" text-anchor="middle" class="text" stroke-width="0" font-size="2.5" xmlns="http://www.w3.org/2000/svg" font-family="'Droid Sans'" fill="#8c8c8c" x="3.95" transform="rotate(-90 146.013 5.11)">1</text></g><path stroke-linecap="round" stroke="#000" class="interior rect" stroke-width=".9" fill="#FFF" d="M14.85 28.823h78.3v135.9h-78.3z"/><path stroke-linecap="round" stroke="#787878" class="pin" stroke-width=".7" fill="none" d="M93.25 42.773h14.4"/><text y="29.5" text-anchor="end" class="text" stroke-width="0" font-size="3.5" font-family="'Droid Sans'" fill="#8c8c8c" x="91.85" transform="translate(0 13.973)">D0/RX</text><path stroke-linecap="round" stroke="#787878" class="pin" stroke-width=".7" fill="none" d="M93.25 49.973h14.4"/><text y="36.7" text-anchor="end" class="text" stroke-width="0" font-size="3.5" font-family="'Droid Sans'" fill="#8c8c8c" x="91.85" transform="translate(0 13.973)">D1/TX</text><path stroke-linecap="round" stroke="#787878" class="pin" stroke-width=".7" fill="none" d="M93.25 57.173h14.4"/><text y="43.9" text-anchor="end" class="text" stroke-width="0" font-size="3.5" font-family="'Droid Sans'" fill="#8c8c8c" x="91.85" transform="translate(0 13.973)">D2</text><path stroke-linecap="round" stroke="#787878" class="pin" stroke-width=".7" fill="none" d="M93.25 64.373h14.4"/><text y="51.1" text-anchor="end" class="text" stroke-width="0" font-size="3.5" font-family="'Droid Sans'" fill="#8c8c8c" x="91.85" transform="translate(0 13.973)">D3 PWM</text><path stroke-linecap="round" stroke="#787878" class="pin" stroke-width=".7" fill="none" d="M93.25 71.573h14.4"/><text y="58.3" text-anchor="end" class="text" stroke-width="0" font-size="3.5" font-family="'Droid Sans'" fill="#8c8c8c" x="91.85" transform="translate(0 13.973)">D4</text><path stroke-linecap="round" stroke="#787878" class="pin" stroke-width=".7" fill="none" d="M93.25 78.773h14.4"/><text y="65.5" text-anchor="end" class="text" stroke-width="0" font-size="3.5" font-family="'Droid Sans'" fill="#8c8c8c" x="91.85" transform="translate(0 13.973)">D5 PWM</text><path stroke-linecap="round" stroke="#787878" class="pin" stroke-width=".7" fill="none" d="M93.25 85.973h14.4"/><text y="72.7" text-anchor="end" class="text" stroke-width="0" font-size="3.5" font-family="'Droid Sans'" fill="#8c8c8c" x="91.85" transform="translate(0 13.973)">D6 PWM</text><path stroke-linecap="round" stroke="#787878" class="pin" stroke-width=".7" fill="none" d="M93.25 93.173h14.4"/><text y="79.9" text-anchor="end" class="text" stroke-width="0" font-size="3.5" font-family="'Droid Sans'" fill="#8c8c8c" x="91.85" transform="translate(0 13.973)">D7</text><path stroke-linecap="round" stroke="#787878" class="pin" stroke-width=".7" fill="none" d="M93.25 100.373h14.4"/><text y="87.1" text-anchor="end" class="text" stroke-width="0" font-size="3.5" font-family="'Droid Sans'" fill="#8c8c8c" x="91.85" transform="translate(0 13.973)">D8</text><path stroke-linecap="round" stroke="#787878" class="pin" stroke-width=".7" fill="none" d="M93.25 107.573h14.4"/><text y="94.3" text-anchor="end" class="text" stroke-width="0" font-size="3.5" font-family="'Droid Sans'" fill="#8c8c8c" x="91.85" transform="translate(0 13.973)">D9 PWM</text><path stroke-linecap="round" stroke="#787878" class="pin" stroke-width=".7" fill="none" d="M93.25 114.773h14.4"/><text y="101.5" text-anchor="end" class="text" stroke-width="0" font-size="3.5" font-family="'Droid Sans'" fill="#8c8c8c" x="91.85" transform="translate(0 13.973)">D10 PWM/SS</text><path stroke-linecap="round" stroke="#787878" class="pin" stroke-width=".7" fill="none" d="M93.25 121.973h14.4"/><text y="108.7" text-anchor="end" class="text" stroke-width="0" font-size="3.5" font-family="'Droid Sans'" fill="#8c8c8c" x="91.85" transform="translate(0 13.973)">D11 PWM/MOSI</text><path stroke-linecap="round" stroke="#787878" class="pin" stroke-width=".7" fill="none" d="M93.25 129.173h14.4"/><text y="115.9" text-anchor="end" class="text" stroke-width="0" font-size="3.5" font-family="'Droid Sans'" fill="#8c8c8c" x="91.85" transform="translate(0 13.973)">D12/MISO</text><path class="pin" fill="none" d="M93.25 136.373h14.4"/><path class="terminal" fill="none" d="M107.65 136.023h.7v.7h-.7z"/><path stroke-linecap="round" stroke="#787878" class="pin" stroke-width=".7" fill="none" d="M93.25 136.373h14.4"/><text y="123.1" text-anchor="end" class="text" stroke-width="0" font-size="3.5" font-family="'Droid Sans'" fill="#8c8c8c" x="91.85" transform="translate(0 13.973)">D13/SCK</text><path class="pin" fill="none" d="M.35 42.773h14.4"/><path class="terminal" fill="none" d="M-.35 42.423h.7v.7h-.7z"/><path stroke-linecap="round" stroke="#787878" class="pin" stroke-width=".7" fill="none" d="M.35 42.773h14.4"/><text y="29.5" class="text" stroke-width="0" font-size="3.5" font-family="'Droid Sans'" fill="#8c8c8c" x="16.15" transform="translate(0 13.973)">RESET</text><path stroke-linecap="round" stroke="#787878" class="pin" stroke-width=".7" fill="none" d="M.35 49.973h14.4"/><text y="36.7" class="text" stroke-width="0" font-size="3.5" font-family="'Droid Sans'" fill="#8c8c8c" x="16.15" transform="translate(0 13.973)">RESET2</text><path class="terminal" fill="none" d="M-.35 49.623h.7v.7h-.7z"/><path stroke-linecap="round" stroke="#787878" class="pin" stroke-width=".7" fill="none" d="M.35 57.173h14.4"/><text y="43.9" class="text" stroke-width="0" font-size="3.5" font-family="'Droid Sans'" fill="#8c8c8c" x="16.15" transform="translate(0 13.973)">AREF</text><path stroke-linecap="round" stroke="#787878" class="pin" stroke-width=".7" fill="none" d="M.35 64.373h14.4"/><text y="51.1" class="text" stroke-width="0" font-size="3.5" font-family="'Droid Sans'" fill="#8c8c8c" x="16.15" transform="translate(0 13.973)">ioref</text><path stroke-linecap="round" stroke="#787878" class="pin" stroke-width=".7" fill="none" d="M.35 78.773h14.4"/><text y="65.5" class="text" stroke-width="0" font-size="3.5" font-family="'Droid Sans'" fill="#8c8c8c" x="16.15" transform="translate(0 13.973)">A0</text><path stroke-linecap="round" stroke="#787878" class="pin" stroke-width=".7" fill="none" d="M.35 85.973h14.4"/><text y="72.7" class="text" stroke-width="0" font-size="3.5" font-family="'Droid Sans'" fill="#8c8c8c" x="16.15" transform="translate(0 13.973)">A1</text><path stroke-linecap="round" stroke="#787878" class="pin" stroke-width=".7" fill="none" d="M.35 93.173h14.4"/><text y="79.9" class="text" stroke-width="0" font-size="3.5" font-family="'Droid Sans'" fill="#8c8c8c" x="16.15" transform="translate(0 13.973)">A2</text><path stroke-linecap="round" stroke="#787878" class="pin" stroke-width=".7" fill="none" d="M.35 100.373h14.4"/><text y="87.1" class="text" stroke-width="0" font-size="3.5" font-family="'Droid Sans'" fill="#8c8c8c" x="16.15" transform="translate(0 13.973)">A3</text><path class="pin" fill="none" d="M.35 107.573h14.4"/><path class="terminal" fill="none" d="M-.35 107.223h.7v.7h-.7z"/><path class="pin" fill="none" d="M.35 107.573h14.4"/><path class="terminal" fill="none" d="M-.35 107.223h.7v.7h-.7z"/><path class="pin" fill="none" d="M.35 107.573h14.4M.35 107.573h14.4"/><path class="terminal" fill="none" d="M-.35 107.223h.7v.7h-.7z"/><path class="pin" fill="none" d="M.35 107.573h14.4"/><path class="terminal" fill="none" d="M-.35 107.223h.7v.7h-.7z"/><path class="pin" fill="none" d="M.35 107.573h14.4"/><path class="terminal" fill="none" d="M-.35 107.223h.7v.7h-.7z"/><path stroke-linecap="round" stroke="#787878" class="pin" stroke-width=".7" fill="none" d="M.35 107.573h14.4"/><text y="94.3" class="text" stroke-width="0" font-size="3.5" font-family="'Droid Sans'" fill="#8c8c8c" x="16.15" transform="translate(0 13.973)">A4/SDA</text><path class="pin" fill="none" d="M.35 114.773h14.4"/><path stroke-linecap="round" stroke="#787878" class="pin" stroke-width=".7" fill="none" d="M.35 114.773h14.4"/><text y="101.5" class="text" stroke-width="0" font-size="3.5" font-family="'Droid Sans'" fill="#8c8c8c" x="16.15" transform="translate(0 13.973)">A5/SCL</text><path stroke-linecap="round" stroke="#787878" class="pin" stroke-width=".7" fill="none" d="M.35 150.773h14.4"/><text y="137.5" class="text" stroke-width="0" font-size="3.5" font-family="'Droid Sans'" fill="#8c8c8c" x="16.15" transform="translate(0 13.973)">N/C</text><path class="pin" fill="none" d="M57.6 164.823v14.4M57.6 164.823v14.4M57.6 164.823v14.4"/><path class="terminal" fill="none" d="M57.25 179.223h.7v.7h-.7z"/><path class="pin" fill="none" d="M57.6 164.823v14.4"/><path class="terminal" fill="none" d="M57.25 179.223h.7v.7h-.7z"/><path stroke-linecap="round" stroke="#787878" class="pin" stroke-width=".7" fill="none" d="M57.6 164.823v14.4"/><text class="text" stroke-width="0" font-size="3.5" font-family="'Droid Sans'" fill="#8c8c8c" transform="rotate(-90 110.861 52.562)">GND</text><path stroke-linecap="round" stroke="#787878" class="pin" stroke-width=".7" fill="none" d="M36 14.323v14.4"/><text text-anchor="end" class="text" stroke-width="0" font-size="3.5" font-family="'Droid Sans'" fill="#8c8c8c" transform="rotate(-90 33.411 -3.288)">3V3</text><path class="pin" fill="none" d="M50.4 14.323v14.4"/><path class="terminal" fill="none" d="M50.05 13.623h.7v.7h-.7z"/><path class="pin" fill="none" d="M50.4 14.323v14.4"/><path class="terminal" fill="none" d="M50.05 13.623h.7v.7h-.7z"/><path stroke-linecap="round" stroke="#787878" class="pin" stroke-width=".7" fill="none" d="M50.4 14.323v14.4"/><text text-anchor="end" class="text" stroke-width="0" font-size="3.5" font-family="'Droid Sans'" fill="#8c8c8c" transform="rotate(-90 40.611 -10.488)">5V</text><path stroke-linecap="round" stroke="#787878" class="pin" stroke-width=".7" fill="none" d="M64.8 14.323v14.4"/><text text-anchor="end" class="text" stroke-width="0" font-size="3.5" font-family="'Droid Sans'" fill="#8c8c8c" transform="rotate(-90 47.812 -17.688)">VIN</text><text y="76.45" text-anchor="middle" class="text" stroke-width="0" font-size="4.25" font-family="'Droid Sans'" x="54.45" transform="translate(0 13.973)">Arduino</text><text y="80.983" text-anchor="middle" class="text" stroke-width="0" font-size="4.25" font-family="'Droid Sans'" x="54.45" transform="translate(0 13.973)">Uno</text><text y="85.517" text-anchor="middle" class="text" stroke-width="0" font-size="4.25" font-family="'Droid Sans'" x="54.45" transform="translate(0 13.973)">(Rev3)</text><g><path stroke-linecap="round" stroke="#000" stroke-width=".7" fill="none" d="M162.002 121.972h3.599M165.601 121.972h3.601"/><path stroke-linecap="round" stroke="#000" stroke-width=".7" fill="#FFF" d="M165.601 121.972l3.601 7.2h-7.2z"/><path stroke-linecap="round" stroke="#000" stroke-width=".45" fill="none" d="M165.601 129.172v-7.2"/><path stroke-linecap="round" stroke="#787878" stroke-width=".7" fill="none" d="M165.601 114.773v7.199"/><text font-size="2" fill="#787878" font-family="'Droid Sans'" transform="rotate(90 24.5 142.032)">2</text><path stroke-linecap="round" stroke="#787878" stroke-width=".7" fill="none" d="M165.601 136.373v-7.201"/><text font-size="2" fill="#787878" font-family="'Droid Sans'" transform="rotate(90 17.3 149.232)">1</text></g><g><path d="M233.999 136.722h-3.6a.35.35 0 1 1 0-.7h3.6a.35.35 0 1 1 0 .7z"/><path d="M230.399 136.722h-3.6a.35.35 0 1 1 0-.7h3.6a.35.35 0 1 1 0 .7z"/><path fill="#FFF" d="M230.399 136.372l-3.6-7.2h7.2z"/><path d="M230.399 137.154l-4.166-8.332h8.333l-4.167 8.332zm-3.034-7.632l3.034 6.068 3.034-6.068h-6.068z"/><path d="M230.399 136.597a.225.225 0 0 1-.225-.225v-7.2a.225.225 0 0 1 .45 0v7.2a.226.226 0 0 1-.225.225zM222.299 133.897a.225.225 0 0 1-.159-.383l2.34-2.341a.225.225 0 1 1 .318.318l-2.34 2.341a.222.222 0 0 1-.159.065zM222.659 137.137a.225.225 0 0 1-.159-.383l2.34-2.34a.225.225 0 1 1 .318.318l-2.34 2.34a.225.225 0 0 1-.159.065z"/><path d="M230.399 143.922a.35.35 0 0 1-.35-.35v-7.2a.35.35 0 1 1 .7 0v7.2a.35.35 0 0 1-.35.35z" fill="#787878"/><path fill="none" d="M230.399 143.572h.001v.001h-.001z"/><path d="M229.468 139.83v.89h-.152l-.372-.342c-.053-.049-.101-.093-.145-.13s-.086-.072-.128-.1a.69.69 0 0 0-.125-.062.412.412 0 0 0-.24-.004.228.228 0 0 0-.075.047c-.02.021-.035.045-.046.073s-.016.06-.016.094c0 .062.013.118.038.167a.629.629 0 0 0 .096.143l-.116.1a.671.671 0 0 1-.155-.29.59.59 0 0 1 .013-.29.359.359 0 0 1 .076-.129.325.325 0 0 1 .119-.082.485.485 0 0 1 .318-.002c.05.017.1.041.148.07.048.031.097.066.146.11.049.04.1.086.152.135l.294.274h.008v-.673h.162zM230.399 129.522a.35.35 0 0 1-.35-.35v-7.2a.35.35 0 1 1 .7 0v7.2a.351.351 0 0 1-.35.35z" fill="#787878"/><path fill="none" d="M230.399 121.972h.001z"/><path d="M229.468 125.718v.172h-.982c-.032 0-.063 0-.095-.002a28.87 28.87 0 0 1-.092-.003l-.076-.002.03.03c.009.008.017.016.024.025l.025.028.03.035.118.145-.12.094-.292-.374v-.146h1.43z" fill="#787878"/><path d="M220.679 135.292l1.08-2.521 1.44 1.438-2.52 1.083z"/><g><path d="M221.039 138.532l1.08-2.521 1.438 1.438-2.518 1.083z"/></g></g><g><path d="M205.199 136.722h-3.6a.35.35 0 1 1 0-.7h3.6a.35.35 0 1 1 0 .7z"/><path d="M201.599 136.722h-3.6a.35.35 0 1 1 0-.7h3.6a.35.35 0 1 1 0 .7z"/><path fill="#FFF" d="M201.599 136.372l-3.6-7.2h7.2z"/><path d="M201.599 137.154l-4.166-8.332h8.333l-4.167 8.332zm-3.034-7.632l3.034 6.068 3.034-6.068h-6.068z"/><path d="M201.599 136.597a.225.225 0 0 1-.225-.225v-7.2a.225.225 0 0 1 .45 0v7.2a.226.226 0 0 1-.225.225zM193.499 133.897a.225.225 0 0 1-.159-.383l2.34-2.341a.225.225 0 1 1 .318.318l-2.34 2.341a.222.222 0 0 1-.159.065zM193.859 137.137a.225.225 0 0 1-.159-.383l2.34-2.34a.225.225 0 1 1 .318.318l-2.34 2.34a.225.225 0 0 1-.159.065z"/><path d="M201.599 143.922a.35.35 0 0 1-.35-.35v-7.2a.35.35 0 1 1 .7 0v7.2a.35.35 0 0 1-.35.35z" fill="#787878"/><path fill="none" d="M201.599 143.572h.001v.001h-.001z"/><path d="M200.668 139.83v.89h-.152l-.372-.342c-.053-.049-.101-.093-.145-.13s-.086-.072-.128-.1a.69.69 0 0 0-.125-.062.412.412 0 0 0-.24-.004.228.228 0 0 0-.075.047c-.02.021-.035.045-.046.073s-.016.06-.016.094c0 .062.013.118.038.167a.629.629 0 0 0 .096.143l-.116.1a.671.671 0 0 1-.155-.29.59.59 0 0 1 .013-.29.359.359 0 0 1 .076-.129.325.325 0 0 1 .119-.082.485.485 0 0 1 .318-.002c.05.017.1.041.148.07.048.031.097.066.146.11.049.04.1.086.152.135l.294.274h.008v-.673h.162zM201.599 129.522a.35.35 0 0 1-.35-.35v-7.2a.35.35 0 1 1 .7 0v7.2a.351.351 0 0 1-.35.35z" fill="#787878"/><path fill="none" d="M201.599 121.972h.001z"/><path d="M200.668 125.718v.172h-.982c-.032 0-.063 0-.095-.002a28.87 28.87 0 0 1-.092-.003l-.076-.002.03.03c.009.008.017.016.024.025l.025.028.03.035.118.145-.12.094-.292-.374v-.146h1.43z" fill="#787878"/><path d="M191.879 135.292l1.08-2.521 1.44 1.438-2.52 1.083z"/><g><path d="M192.239 138.532l1.08-2.521 1.438 1.438-2.518 1.083z"/></g></g><g><g xmlns="http://www.w3.org/2000/svg" fill="none"><path stroke-linecap="round" stroke="#787878" stroke-width=".75" xmlns="http://www.w3.org/2000/svg" d="M57.6 186.671v-7.2"/><path stroke-linecap="round" stroke="#000" stroke-width=".9" xmlns="http://www.w3.org/2000/svg" d="M50.9 186.807h13.4M53.132 189.552h8.935M59.83 192.271h-4.463"/></g></g><g><path stroke-linecap="round" stroke="#787878" stroke-miterlimit="10" stroke-width=".75" fill="none" d="M50.419 6.78v7.2"/><path stroke-linecap="round" stroke="#000" stroke-width=".9" d="M43.669 6.564h13.5" fill="none"/><text font-size="4.499" font-family="'DroidSans'" transform="translate(44.717 4.988)">5V</text></g><g><path stroke-linecap="round" stroke="#787878" stroke-miterlimit="10" stroke-width=".75" fill="none" d="M216.018 107.58v7.2"/><path stroke-linecap="round" stroke="#000" stroke-width=".9" d="M209.268 107.364h13.5" fill="none"/><text font-size="4.499" font-family="'DroidSans'" transform="translate(210.317 105.788)">5V</text></g><g><path stroke-linecap="round" stroke="#787878" stroke-miterlimit="10" stroke-width=".75" fill="none" d="M165.618 107.58v7.2"/><path stroke-linecap="round" stroke="#000" stroke-width=".9" d="M158.868 107.364h13.5" fill="none"/><text font-size="4.499" font-family="'DroidSans'" transform="translate(159.917 105.788)">5V</text></g><g><g xmlns="http://www.w3.org/2000/svg" fill="none"><path stroke-linecap="round" stroke="#787878" stroke-width=".75" xmlns="http://www.w3.org/2000/svg" d="M201.599 179.47v-7.2"/><path stroke-linecap="round" stroke="#000" stroke-width=".9" xmlns="http://www.w3.org/2000/svg" d="M194.898 179.606h13.4M197.13 182.351h8.935M203.829 185.07h-4.464"/></g></g><g><g xmlns="http://www.w3.org/2000/svg" fill="none"><path stroke-linecap="round" stroke="#787878" stroke-width=".75" xmlns="http://www.w3.org/2000/svg" d="M230.399 179.47v-7.2"/><path stroke-linecap="round" stroke="#000" stroke-width=".9" xmlns="http://www.w3.org/2000/svg" d="M223.698 179.606h13.4M225.93 182.351h8.935M232.629 185.07h-4.464"/></g></g><g><g xmlns="http://www.w3.org/2000/svg"><path xmlns="http://www.w3.org/2000/svg" fill="none" d="M111.61 53.57h-3.6v7.2h3.6z"/><path stroke="#000" stroke-width=".24" xmlns="http://www.w3.org/2000/svg" fill="#fff" d="M108.123 57.17l3.48-3.48h11.36v6.96h-11.36z"/></g></g><g><g xmlns="http://www.w3.org/2000/svg"><path xmlns="http://www.w3.org/2000/svg" fill="none" d="M140.39 103.969h3.6v7.2h-3.6z"/><path stroke="#000" stroke-width=".24" xmlns="http://www.w3.org/2000/svg" fill="#fff" d="M143.877 107.569l-3.48-3.48h-11.36v6.96h11.36z"/></g></g><g><text xmlns="http://www.w3.org/2000/svg" y="5.28" font-size="4.8" font-family="Droid Sans" x="3.48" transform="translate(108.003 53.57)">pin 2</text></g><g><text xmlns="http://www.w3.org/2000/svg" y="5.28" font-size="4.8" font-family="Droid Sans" x=".48" transform="translate(128.917 103.969)">pin 2</text></g><g><path stroke-linecap="round" stroke="#404040" stroke-width=".7" d="M165.6 143.573v.021"/></g><circle cx="165.6" cy="143.573" r="1.44"/><g><path stroke-linecap="round" stroke="#404040" stroke-width=".7" d="M165.6 114.773"/></g><circle cx="165.6" cy="114.773" r="1.44"/><g><path stroke-linecap="round" stroke="#404040" stroke-width=".7" d="M165.6 114.773"/></g><circle cx="165.6" cy="114.773" r="1.44"/><g><path stroke-linecap="round" stroke="#404040" stroke-width=".7" d="M216 114.773"/></g><g><path stroke-linecap="round" stroke="#404040" stroke-width=".7" d="M201.628 114.753l-.028 7.22"/></g><g><path stroke-linecap="round" stroke="#404040" stroke-width=".7" d="M208.8 114.773l-7.172-.02"/></g><g><path stroke-linecap="round" stroke="#404040" stroke-width=".7" d="M230.488 114.753l-.088 7.22"/></g><g><path stroke-linecap="round" stroke="#404040" stroke-width=".7" d="M223.2 114.773l7.288-.02"/></g><g><path stroke-linecap="round" stroke="#404040" stroke-width=".7" d="M144.049 157.991l-.049-7.218"/></g><g><path stroke-linecap="round" stroke="#404040" stroke-width=".7" d="M151.2 157.973l-7.151.018"/></g><g><path stroke-linecap="round" stroke="#404040" stroke-width=".7" d="M165.6 172.373"/></g><g><path stroke-linecap="round" stroke="#404040" stroke-width=".7" d="M165.6 143.573v-7.2"/></g><circle cx="165.6" cy="143.573" r="1.44"/><g><path stroke-linecap="round" stroke="#404040" stroke-width=".7" d="M201.6 143.573l-.001-.001"/></g><g><path stroke-linecap="round" stroke="#404040" stroke-width=".7" d="M230.4 143.573l-.001-.001"/></g><g><path stroke-linecap="round" stroke="#404040" stroke-width=".7" d="M201.599 172.372"/></g><g><path stroke-linecap="round" stroke="#404040" stroke-width=".7" d="M50.4 13.973"/></g><g><path stroke-linecap="round" stroke="#404040" stroke-width=".7" d="M57.6 179.573"/></g><g><path stroke-linecap="round" stroke="#404040" stroke-width=".7" d="M144 107.573v14.4"/></g><g><path stroke-linecap="round" stroke="#404040" stroke-width=".7" d="M108 57.173"/></g><g><path stroke-linecap="round" stroke="#404040" stroke-width=".7" d="M230.399 172.372"/></g><g><g font-size="5" font-family="'DroidSans'"><text y="3.75" transform="rotate(-90 137.101 6.317)">R1</text><text y="8.75" transform="rotate(-90 137.101 6.317)">2.2kΩ</text></g></g><g><g font-size="5" font-family="'DroidSans'"><text y="3.75" transform="rotate(-90 184.803 -20.264)">560Ω</text><text y="8.75" transform="rotate(-90 184.803 -20.264)">R2</text></g></g><g><g font-size="5" font-family="'DroidSans'"><text y="3.75" transform="rotate(-90 191.34 -26.822)">560Ω</text><text y="8.75" transform="rotate(-90 191.34 -26.822)">R3</text></g></g><g><text y="3.75" transform="translate(208.158 183.338)" font-size="5" font-family="'DroidSans'">gnd (-)</text></g><g><text y="3.75" transform="translate(171.351 121.015)" font-size="5" font-family="'DroidSans'">Diode<tspan font-size="4" x="0" y="8.9">(flyback)</tspan></text></g><g><g font-size="5" font-family="'DroidSans'"><text y="3.75" transform="translate(165.094 153.118)">Transistor<tspan font-size="3.9" x="2" y="-3">Collector</tspan><tspan font-size="3.9" x="-22" y="9">Base</tspan><tspan font-size="3.9" x="2" y="16">Emitter</tspan></text><text y="8.75" transform="translate(165.094 153.118)">2N2222AG</text></g></g><g><text y="3.75" transform="translate(172.904 183.378)" font-size="5" font-family="'DroidSans'">(ground)</text></g></svg>