<svg xmlns="http://www.w3.org/2000/svg" version="1.2" width="3.2in" height="257.995" viewBox="0 0 230.4 193.496"><path d="M212.4 136.722h3.6a.35.35 0 1 0 0-.7h-3.6a.35.35 0 1 0 0 .7z"/><path d="M216 136.722h3.6a.35.35 0 1 0 0-.7H216a.35.35 0 1 0 0 .7z"/><path fill="#FFF" d="M216 136.372l3.6-7.2h-7.2z"/><path d="M216 137.154l4.166-8.332h-8.333l4.167 8.332zm3.034-7.632L216 135.59l-3.034-6.068h6.068z"/><path d="M216 136.597a.225.225 0 0 0 .225-.225v-7.2a.225.225 0 0 0-.45 0v7.2a.226.226 0 0 0 .225.225zM224.1 133.897a.225.225 0 0 0 .159-.383l-2.34-2.341a.225.225 0 1 0-.318.318l2.34 2.341a.222.222 0 0 0 .159.065zM223.74 137.137a.225.225 0 0 0 .159-.383l-2.34-2.34a.225.225 0 1 0-.318.318l2.34 2.34a.225.225 0 0 0 .159.065z"/><path d="M216 143.922a.35.35 0 0 0 .35-.35v-7.2a.35.35 0 1 0-.7 0v7.2a.35.35 0 0 0 .35.35z" fill="#787878"/><path fill="none" d="M216 143.572h-.001v.001H216z"/><path d="M216.931 139.83v.89h.152l.372-.342c.053-.049.101-.093.145-.13s.086-.072.128-.1a.69.69 0 0 1 .125-.062.412.412 0 0 1 .24-.004c.03.012.054.027.075.047.02.021.035.045.046.073s.016.06.016.094a.363.363 0 0 1-.038.167.629.629 0 0 1-.096.143l.116.1a.671.671 0 0 0 .155-.29.59.59 0 0 0-.013-.29.359.359 0 0 0-.076-.129.325.325 0 0 0-.119-.082.485.485 0 0 0-.318-.002.765.765 0 0 0-.148.07 1.227 1.227 0 0 0-.146.11c-.049.04-.1.086-.152.135l-.294.274h-.008v-.673h-.162zM216 129.522a.35.35 0 0 0 .35-.35v-7.2a.35.35 0 1 0-.7 0v7.2c.001.193.157.35.35.35z" fill="#787878"/><path fill="none" d="M216 121.972h-.001z"/><path d="M216.931 125.718v.172h.982c.032 0 .063 0 .095-.002.032 0 .063-.002.092-.003l.076-.002-.03.03c-.009.008-.017.016-.024.025l-.025.028-.03.035-.118.145.12.094.292-.374v-.146h-1.43z" fill="#787878"/><path d="M225.72 135.292l-1.08-2.521-1.44 1.438 2.52 1.083zM225.36 138.532l-1.08-2.521-1.438 1.438 2.518 1.083zM205.2 151.122h3.6a.35.35 0 1 0 0-.7h-3.6a.35.35 0 1 0 0 .7z"/><path d="M208.8 151.122h3.6a.35.35 0 1 0 0-.7h-3.6a.35.35 0 1 0 0 .7z"/><path fill="#FFF" d="M208.8 150.772l3.6-7.2h-7.2z"/><path d="M208.8 151.554l4.166-8.332h-8.333l4.167 8.332zm3.034-7.632l-3.034 6.068-3.034-6.068h6.068z"/><path d="M208.8 150.997a.225.225 0 0 0 .225-.225v-7.2a.225.225 0 0 0-.45 0v7.2a.226.226 0 0 0 .225.225zM216.9 148.297a.225.225 0 0 0 .159-.383l-2.34-2.341a.225.225 0 1 0-.318.318l2.34 2.341a.222.222 0 0 0 .159.065zM216.54 151.537a.225.225 0 0 0 .159-.383l-2.34-2.34a.225.225 0 1 0-.318.318l2.34 2.34a.225.225 0 0 0 .159.065z"/><path d="M208.8 158.322a.35.35 0 0 0 .35-.35v-7.2a.35.35 0 1 0-.7 0v7.2a.35.35 0 0 0 .35.35z" fill="#787878"/><path fill="none" d="M208.8 157.972h-.001v.001h.001z"/><path d="M209.731 154.23v.89h.152l.372-.342c.053-.049.101-.093.145-.13s.086-.072.128-.1a.69.69 0 0 1 .125-.062.412.412 0 0 1 .24-.004c.03.012.054.027.075.047.02.021.035.045.046.073s.016.06.016.094a.363.363 0 0 1-.038.167.629.629 0 0 1-.096.143l.116.1a.671.671 0 0 0 .155-.29.59.59 0 0 0-.013-.29.359.359 0 0 0-.076-.129.325.325 0 0 0-.119-.082.485.485 0 0 0-.318-.002.765.765 0 0 0-.148.07 1.227 1.227 0 0 0-.146.11c-.049.04-.1.086-.152.135l-.294.274h-.008v-.673h-.162zM208.8 143.922a.35.35 0 0 0 .35-.35v-7.2a.35.35 0 1 0-.7 0v7.2c.001.193.157.35.35.35z" fill="#787878"/><path fill="none" d="M208.8 136.372h-.001z"/><path d="M209.731 140.118v.172h.982c.032 0 .063 0 .095-.002.032 0 .063-.002.092-.003l.076-.002-.03.03c-.009.008-.017.016-.024.025l-.025.028-.03.035-.118.145.12.094.292-.374v-.146h-1.43z" fill="#787878"/><path d="M218.52 149.692l-1.08-2.521-1.44 1.438 2.52 1.083zM218.16 152.932l-1.08-2.521-1.438 1.438 2.518 1.083zM198 136.722h3.6a.35.35 0 1 0 0-.7H198a.35.35 0 1 0 0 .7z"/><path d="M201.6 136.722h3.6a.35.35 0 1 0 0-.7h-3.6a.35.35 0 1 0 0 .7z"/><path fill="#FFF" d="M201.6 136.372l3.6-7.2H198z"/><path d="M201.6 137.154l4.166-8.332h-8.333l4.167 8.332zm3.034-7.632l-3.034 6.068-3.034-6.068h6.068z"/><path d="M201.6 136.597a.225.225 0 0 0 .225-.225v-7.2a.225.225 0 0 0-.45 0v7.2a.226.226 0 0 0 .225.225zM209.7 133.897a.225.225 0 0 0 .159-.383l-2.34-2.341a.225.225 0 1 0-.318.318l2.34 2.341a.222.222 0 0 0 .159.065zM209.34 137.137a.225.225 0 0 0 .159-.383l-2.34-2.34a.225.225 0 1 0-.318.318l2.34 2.34a.225.225 0 0 0 .159.065z"/><path d="M201.6 143.922a.35.35 0 0 0 .35-.35v-7.2a.35.35 0 1 0-.7 0v7.2a.35.35 0 0 0 .35.35z" fill="#787878"/><path fill="none" d="M201.6 143.572h-.001v.001h.001z"/><path d="M202.531 139.83v.89h.152l.372-.342c.053-.049.101-.093.145-.13s.086-.072.128-.1a.69.69 0 0 1 .125-.062.412.412 0 0 1 .24-.004c.03.012.054.027.075.047.02.021.035.045.046.073s.016.06.016.094a.363.363 0 0 1-.038.167.629.629 0 0 1-.096.143l.116.1a.671.671 0 0 0 .155-.29.59.59 0 0 0-.013-.29.359.359 0 0 0-.076-.129.325.325 0 0 0-.119-.082.485.485 0 0 0-.318-.002.765.765 0 0 0-.148.07 1.227 1.227 0 0 0-.146.11c-.049.04-.1.086-.152.135l-.294.274h-.008v-.673h-.162zM201.6 129.522a.35.35 0 0 0 .35-.35v-7.2a.35.35 0 1 0-.7 0v7.2c.001.193.157.35.35.35z" fill="#787878"/><path fill="none" d="M201.6 121.972h-.001z"/><path d="M202.531 125.718v.172h.982c.032 0 .063 0 .095-.002.032 0 .063-.002.092-.003l.076-.002-.03.03c-.009.008-.017.016-.024.025l-.025.028-.03.035-.118.145.12.094.292-.374v-.146h-1.43z" fill="#787878"/><path d="M211.32 135.292l-1.08-2.521-1.44 1.438 2.52 1.083zM210.96 138.532l-1.08-2.521-1.438 1.438 2.518 1.083zM190.8 151.122h3.6a.35.35 0 1 0 0-.7h-3.6a.35.35 0 1 0 0 .7z"/><path d="M194.4 151.122h3.6a.35.35 0 1 0 0-.7h-3.6a.35.35 0 1 0 0 .7z"/><path fill="#FFF" d="M194.4 150.772l3.6-7.2h-7.2z"/><path d="M194.4 151.554l4.166-8.332h-8.333l4.167 8.332zm3.034-7.632l-3.034 6.068-3.034-6.068h6.068z"/><path d="M194.4 150.997a.225.225 0 0 0 .225-.225v-7.2a.225.225 0 0 0-.45 0v7.2a.226.226 0 0 0 .225.225zM202.5 148.297a.225.225 0 0 0 .159-.383l-2.34-2.341a.225.225 0 1 0-.318.318l2.34 2.341a.222.222 0 0 0 .159.065zM202.14 151.537a.225.225 0 0 0 .159-.383l-2.34-2.34a.225.225 0 1 0-.318.318l2.34 2.34a.225.225 0 0 0 .159.065z"/><path d="M194.4 158.322a.35.35 0 0 0 .35-.35v-7.2a.35.35 0 1 0-.7 0v7.2a.35.35 0 0 0 .35.35z" fill="#787878"/><path fill="none" d="M194.4 157.972h-.001v.001h.001z"/><path d="M195.331 154.23v.89h.152l.372-.342c.053-.049.101-.093.145-.13s.086-.072.128-.1a.69.69 0 0 1 .125-.062.412.412 0 0 1 .24-.004c.03.012.054.027.075.047.02.021.035.045.046.073s.016.06.016.094a.363.363 0 0 1-.038.167.629.629 0 0 1-.096.143l.116.1a.671.671 0 0 0 .155-.29.59.59 0 0 0-.013-.29.359.359 0 0 0-.076-.129.325.325 0 0 0-.119-.082.485.485 0 0 0-.318-.002.765.765 0 0 0-.148.07 1.227 1.227 0 0 0-.146.11c-.049.04-.1.086-.152.135l-.294.274h-.008v-.673h-.162zM194.4 143.922a.35.35 0 0 0 .35-.35v-7.2a.35.35 0 1 0-.7 0v7.2c.001.193.157.35.35.35z" fill="#787878"/><path fill="none" d="M194.4 136.372h-.001z"/><path d="M195.331 140.118v.172h.982c.032 0 .063 0 .095-.002.032 0 .063-.002.092-.003l.076-.002-.03.03c-.009.008-.017.016-.024.025l-.025.028-.03.035-.118.145.12.094.292-.374v-.146h-1.43z" fill="#787878"/><path d="M204.12 149.692l-1.08-2.521-1.44 1.438 2.52 1.083zM203.76 152.932l-1.08-2.521-1.438 1.438 2.518 1.083zM183.6 136.722h3.6a.35.35 0 1 0 0-.7h-3.6a.35.35 0 1 0 0 .7z"/><path d="M187.2 136.722h3.6a.35.35 0 1 0 0-.7h-3.6a.35.35 0 1 0 0 .7z"/><path fill="#FFF" d="M187.2 136.372l3.6-7.2h-7.2z"/><path d="M187.2 137.154l4.166-8.332h-8.333l4.167 8.332zm3.034-7.632l-3.034 6.068-3.034-6.068h6.068z"/><path d="M187.2 136.597a.225.225 0 0 0 .225-.225v-7.2a.225.225 0 0 0-.45 0v7.2a.226.226 0 0 0 .225.225zM195.3 133.897a.225.225 0 0 0 .159-.383l-2.34-2.341a.225.225 0 1 0-.318.318l2.34 2.341a.222.222 0 0 0 .159.065zM194.94 137.137a.225.225 0 0 0 .159-.383l-2.34-2.34a.225.225 0 1 0-.318.318l2.34 2.34a.225.225 0 0 0 .159.065z"/><path d="M187.2 143.922a.35.35 0 0 0 .35-.35v-7.2a.35.35 0 1 0-.7 0v7.2a.35.35 0 0 0 .35.35z" fill="#787878"/><path fill="none" d="M187.2 143.572h-.001v.001h.001z"/><path d="M188.131 139.83v.89h.152l.372-.342c.053-.049.101-.093.145-.13s.086-.072.128-.1a.69.69 0 0 1 .125-.062.412.412 0 0 1 .24-.004c.03.012.054.027.075.047.02.021.035.045.046.073s.016.06.016.094a.363.363 0 0 1-.038.167.629.629 0 0 1-.096.143l.116.1a.671.671 0 0 0 .155-.29.59.59 0 0 0-.013-.29.359.359 0 0 0-.076-.129.325.325 0 0 0-.119-.082.485.485 0 0 0-.318-.002.765.765 0 0 0-.148.07 1.227 1.227 0 0 0-.146.11c-.049.04-.1.086-.152.135l-.294.274h-.008v-.673h-.162zM187.2 129.522a.35.35 0 0 0 .35-.35v-7.2a.35.35 0 1 0-.7 0v7.2c.001.193.157.35.35.35z" fill="#787878"/><path fill="none" d="M187.2 121.972h-.001z"/><path d="M188.131 125.718v.172h.982c.032 0 .063 0 .095-.002.032 0 .063-.002.092-.003l.076-.002-.03.03c-.009.008-.017.016-.024.025l-.025.028-.03.035-.118.145.12.094.292-.374v-.146h-1.43z" fill="#787878"/><path d="M196.92 135.292l-1.08-2.521-1.44 1.438 2.52 1.083zM196.56 138.532l-1.08-2.521-1.438 1.438 2.518 1.083zM176.4 151.122h3.6a.35.35 0 1 0 0-.7h-3.6a.35.35 0 1 0 0 .7z"/><path d="M180 151.122h3.6a.35.35 0 1 0 0-.7H180a.35.35 0 1 0 0 .7z"/><path fill="#FFF" d="M180 150.772l3.6-7.2h-7.2z"/><path d="M180 151.554l4.166-8.332h-8.333l4.167 8.332zm3.034-7.632L180 149.99l-3.034-6.068h6.068z"/><path d="M180 150.997a.225.225 0 0 0 .225-.225v-7.2a.225.225 0 0 0-.45 0v7.2a.226.226 0 0 0 .225.225zM188.1 148.297a.225.225 0 0 0 .159-.383l-2.34-2.341a.225.225 0 1 0-.318.318l2.34 2.341a.222.222 0 0 0 .159.065zM187.74 151.537a.225.225 0 0 0 .159-.383l-2.34-2.34a.225.225 0 1 0-.318.318l2.34 2.34a.225.225 0 0 0 .159.065z"/><path d="M180 158.322a.35.35 0 0 0 .35-.35v-7.2a.35.35 0 1 0-.7 0v7.2a.35.35 0 0 0 .35.35z" fill="#787878"/><path fill="none" d="M180 157.972h-.001v.001H180z"/><path d="M180.931 154.23v.89h.152l.372-.342c.053-.049.101-.093.145-.13s.086-.072.128-.1a.69.69 0 0 1 .125-.062.412.412 0 0 1 .24-.004c.03.012.054.027.075.047.02.021.035.045.046.073s.016.06.016.094a.363.363 0 0 1-.038.167.629.629 0 0 1-.096.143l.116.1a.671.671 0 0 0 .155-.29.59.59 0 0 0-.013-.29.359.359 0 0 0-.076-.129.325.325 0 0 0-.119-.082.485.485 0 0 0-.318-.002.765.765 0 0 0-.148.07 1.227 1.227 0 0 0-.146.11c-.049.04-.1.086-.152.135l-.294.274h-.008v-.673h-.162zM180 143.922a.35.35 0 0 0 .35-.35v-7.2a.35.35 0 1 0-.7 0v7.2c.001.193.157.35.35.35z" fill="#787878"/><path fill="none" d="M180 136.372h-.001z"/><path d="M180.931 140.118v.172h.982c.032 0 .063 0 .095-.002.032 0 .063-.002.092-.003l.076-.002-.03.03c-.009.008-.017.016-.024.025l-.025.028-.03.035-.118.145.12.094.292-.374v-.146h-1.43z" fill="#787878"/><path d="M189.72 149.692l-1.08-2.521-1.44 1.438 2.52 1.083zM189.36 152.932l-1.08-2.521-1.438 1.438 2.518 1.083zM169.2 136.722h3.6a.35.35 0 1 0 0-.7h-3.6a.35.35 0 1 0 0 .7z"/><path d="M172.8 136.722h3.6a.35.35 0 1 0 0-.7h-3.6a.35.35 0 1 0 0 .7z"/><path fill="#FFF" d="M172.8 136.372l3.6-7.2h-7.2z"/><path d="M172.8 137.154l4.166-8.332h-8.333l4.167 8.332zm3.034-7.632l-3.034 6.068-3.034-6.068h6.068z"/><path d="M172.8 136.597a.225.225 0 0 0 .225-.225v-7.2a.225.225 0 0 0-.45 0v7.2a.226.226 0 0 0 .225.225zM180.9 133.897a.225.225 0 0 0 .159-.383l-2.34-2.341a.225.225 0 1 0-.318.318l2.34 2.341a.222.222 0 0 0 .159.065zM180.54 137.137a.225.225 0 0 0 .159-.383l-2.34-2.34a.225.225 0 1 0-.318.318l2.34 2.34a.225.225 0 0 0 .159.065z"/><path d="M172.8 143.922a.35.35 0 0 0 .35-.35v-7.2a.35.35 0 1 0-.7 0v7.2a.35.35 0 0 0 .35.35z" fill="#787878"/><path fill="none" d="M172.8 143.572h-.001v.001h.001z"/><path d="M173.731 139.83v.89h.152l.372-.342c.053-.049.101-.093.145-.13s.086-.072.128-.1a.69.69 0 0 1 .125-.062.412.412 0 0 1 .24-.004c.03.012.054.027.075.047.02.021.035.045.046.073s.016.06.016.094a.363.363 0 0 1-.038.167.629.629 0 0 1-.096.143l.116.1a.671.671 0 0 0 .155-.29.59.59 0 0 0-.013-.29.359.359 0 0 0-.076-.129.325.325 0 0 0-.119-.082.485.485 0 0 0-.318-.002.765.765 0 0 0-.148.07 1.227 1.227 0 0 0-.146.11c-.049.04-.1.086-.152.135l-.294.274h-.008v-.673h-.162zM172.8 129.522a.35.35 0 0 0 .35-.35v-7.2a.35.35 0 1 0-.7 0v7.2c.001.193.157.35.35.35z" fill="#787878"/><path fill="none" d="M172.8 121.972h-.001z"/><path d="M173.731 125.718v.172h.982c.032 0 .063 0 .095-.002.032 0 .063-.002.092-.003l.076-.002-.03.03c-.009.008-.017.016-.024.025l-.025.028-.03.035-.118.145.12.094.292-.374v-.146h-1.43z" fill="#787878"/><path d="M182.52 135.292l-1.08-2.521-1.44 1.438 2.52 1.083z"/><g><path d="M182.16 138.532l-1.08-2.521-1.438 1.438 2.518 1.083z"/></g><g><path d="M162 151.122h3.6a.35.35 0 1 0 0-.7H162a.35.35 0 1 0 0 .7z"/><path d="M165.6 151.122h3.6a.35.35 0 1 0 0-.7h-3.6a.35.35 0 1 0 0 .7z"/><path fill="#FFF" d="M165.6 150.772l3.6-7.2H162z"/><path d="M165.6 151.554l4.166-8.332h-8.333l4.167 8.332zm3.034-7.632l-3.034 6.068-3.034-6.068h6.068z"/><path d="M165.6 150.997a.225.225 0 0 0 .225-.225v-7.2a.225.225 0 0 0-.45 0v7.2a.226.226 0 0 0 .225.225zM173.7 148.297a.225.225 0 0 0 .159-.383l-2.34-2.341a.225.225 0 1 0-.318.318l2.34 2.341a.222.222 0 0 0 .159.065zM173.34 151.537a.225.225 0 0 0 .159-.383l-2.34-2.34a.225.225 0 1 0-.318.318l2.34 2.34a.225.225 0 0 0 .159.065z"/><path d="M165.6 158.322a.35.35 0 0 0 .35-.35v-7.2a.35.35 0 1 0-.7 0v7.2a.35.35 0 0 0 .35.35z" fill="#787878"/><path fill="none" d="M165.6 157.972h-.001v.001h.001z"/><path d="M166.531 154.23v.89h.152l.372-.342c.053-.049.101-.093.145-.13s.086-.072.128-.1a.69.69 0 0 1 .125-.062.412.412 0 0 1 .24-.004c.03.012.054.027.075.047.02.021.035.045.046.073s.016.06.016.094a.363.363 0 0 1-.038.167.629.629 0 0 1-.096.143l.116.1a.671.671 0 0 0 .155-.29.59.59 0 0 0-.013-.29.359.359 0 0 0-.076-.129.325.325 0 0 0-.119-.082.485.485 0 0 0-.318-.002.765.765 0 0 0-.148.07 1.227 1.227 0 0 0-.146.11c-.049.04-.1.086-.152.135l-.294.274h-.008v-.673h-.162zM165.6 143.922a.35.35 0 0 0 .35-.35v-7.2a.35.35 0 1 0-.7 0v7.2c.001.193.157.35.35.35z" fill="#787878"/><path fill="none" d="M165.6 136.372h-.001z"/><path d="M166.531 140.118v.172h.982c.032 0 .063 0 .095-.002.032 0 .063-.002.092-.003l.076-.002-.03.03c-.009.008-.017.016-.024.025l-.025.028-.03.035-.118.145.12.094.292-.374v-.146h-1.43z" fill="#787878"/><path d="M175.32 149.692l-1.08-2.521-1.44 1.438 2.52 1.083z"/><g><path d="M174.96 152.932l-1.08-2.521-1.438 1.438 2.518 1.083z"/></g></g><g><path stroke-linecap="round" stroke-width=".9" class="interior rect" stroke="#000" fill="#FFF" d="M14.85 28.823h78.3v135.9h-78.3z"/><path stroke-linecap="round" stroke-width=".7" class="pin" stroke="#787878" fill="none" d="M93.25 42.773h14.4"/><text x="91.85" text-anchor="end" y="29.5" stroke-width="0" class="text" font-family="'Droid Sans'" font-size="3.5" fill="#8c8c8c" transform="translate(0 13.973)">D0/RX</text><path stroke-linecap="round" stroke-width=".7" class="pin" stroke="#787878" fill="none" d="M93.25 49.973h14.4"/><text x="91.85" text-anchor="end" y="36.7" stroke-width="0" class="text" font-family="'Droid Sans'" font-size="3.5" fill="#8c8c8c" transform="translate(0 13.973)">D1/TX</text><path stroke-linecap="round" stroke-width=".7" class="pin" stroke="#787878" fill="none" d="M93.25 57.173h14.4"/><text x="91.85" text-anchor="end" y="43.9" stroke-width="0" class="text" font-family="'Droid Sans'" font-size="3.5" fill="#8c8c8c" transform="translate(0 13.973)">D2</text><path stroke-linecap="round" stroke-width=".7" class="pin" stroke="#787878" fill="none" d="M93.25 64.373h14.4"/><text x="91.85" text-anchor="end" y="51.1" stroke-width="0" class="text" font-family="'Droid Sans'" font-size="3.5" fill="#8c8c8c" transform="translate(0 13.973)">D3 PWM</text><path stroke-linecap="round" stroke-width=".7" class="pin" stroke="#787878" fill="none" d="M93.25 71.573h14.4"/><text x="91.85" text-anchor="end" y="58.3" stroke-width="0" class="text" font-family="'Droid Sans'" font-size="3.5" fill="#8c8c8c" transform="translate(0 13.973)">D4</text><path stroke-linecap="round" stroke-width=".7" class="pin" stroke="#787878" fill="none" d="M93.25 78.773h14.4"/><text x="91.85" text-anchor="end" y="65.5" stroke-width="0" class="text" font-family="'Droid Sans'" font-size="3.5" fill="#8c8c8c" transform="translate(0 13.973)">D5 PWM</text><path stroke-linecap="round" stroke-width=".7" class="pin" stroke="#787878" fill="none" d="M93.25 85.973h14.4"/><text x="91.85" text-anchor="end" y="72.7" stroke-width="0" class="text" font-family="'Droid Sans'" font-size="3.5" fill="#8c8c8c" transform="translate(0 13.973)">D6 PWM</text><path stroke-linecap="round" stroke-width=".7" class="pin" stroke="#787878" fill="none" d="M93.25 93.173h14.4"/><text x="91.85" text-anchor="end" y="79.9" stroke-width="0" class="text" font-family="'Droid Sans'" font-size="3.5" fill="#8c8c8c" transform="translate(0 13.973)">D7</text><path stroke-linecap="round" stroke-width=".7" class="pin" stroke="#787878" fill="none" d="M93.25 100.373h14.4"/><text x="91.85" text-anchor="end" y="87.1" stroke-width="0" class="text" font-family="'Droid Sans'" font-size="3.5" fill="#8c8c8c" transform="translate(0 13.973)">D8</text><path stroke-linecap="round" stroke-width=".7" class="pin" stroke="#787878" fill="none" d="M93.25 107.573h14.4"/><text x="91.85" text-anchor="end" y="94.3" stroke-width="0" class="text" font-family="'Droid Sans'" font-size="3.5" fill="#8c8c8c" transform="translate(0 13.973)">D9 PWM</text><path stroke-linecap="round" stroke-width=".7" class="pin" stroke="#787878" fill="none" d="M93.25 114.773h14.4"/><text x="91.85" text-anchor="end" y="101.5" stroke-width="0" class="text" font-family="'Droid Sans'" font-size="3.5" fill="#8c8c8c" transform="translate(0 13.973)">D10 PWM/SS</text><path stroke-linecap="round" stroke-width=".7" class="pin" stroke="#787878" fill="none" d="M93.25 121.973h14.4"/><text x="91.85" text-anchor="end" y="108.7" stroke-width="0" class="text" font-family="'Droid Sans'" font-size="3.5" fill="#8c8c8c" transform="translate(0 13.973)">D11 PWM/MOSI</text><path stroke-linecap="round" stroke-width=".7" class="pin" stroke="#787878" fill="none" d="M93.25 129.173h14.4"/><text x="91.85" text-anchor="end" y="115.9" stroke-width="0" class="text" font-family="'Droid Sans'" font-size="3.5" fill="#8c8c8c" transform="translate(0 13.973)">D12/MISO</text><path class="pin" fill="none" d="M93.25 136.373h14.4"/><path class="terminal" fill="none" d="M107.65 136.023h.7v.7h-.7z"/><path stroke-linecap="round" stroke-width=".7" class="pin" stroke="#787878" fill="none" d="M93.25 136.373h14.4"/><text x="91.85" text-anchor="end" y="123.1" stroke-width="0" class="text" font-family="'Droid Sans'" font-size="3.5" fill="#8c8c8c" transform="translate(0 13.973)">D13/SCK</text><path class="pin" fill="none" d="M.35 42.773h14.4"/><path class="terminal" fill="none" d="M-.35 42.423h.7v.7h-.7z"/><path stroke-linecap="round" stroke-width=".7" class="pin" stroke="#787878" fill="none" d="M.35 42.773h14.4"/><text x="16.15" y="29.5" stroke-width="0" class="text" font-family="'Droid Sans'" font-size="3.5" fill="#8c8c8c" transform="translate(0 13.973)">RESET</text><path stroke-linecap="round" stroke-width=".7" class="pin" stroke="#787878" fill="none" d="M.35 49.973h14.4"/><text x="16.15" y="36.7" stroke-width="0" class="text" font-family="'Droid Sans'" font-size="3.5" fill="#8c8c8c" transform="translate(0 13.973)">RESET2</text><path class="terminal" fill="none" d="M-.35 49.623h.7v.7h-.7z"/><path stroke-linecap="round" stroke-width=".7" class="pin" stroke="#787878" fill="none" d="M.35 57.173h14.4"/><text x="16.15" y="43.9" stroke-width="0" class="text" font-family="'Droid Sans'" font-size="3.5" fill="#8c8c8c" transform="translate(0 13.973)">AREF</text><path stroke-linecap="round" stroke-width=".7" class="pin" stroke="#787878" fill="none" d="M.35 64.373h14.4"/><text x="16.15" y="51.1" stroke-width="0" class="text" font-family="'Droid Sans'" font-size="3.5" fill="#8c8c8c" transform="translate(0 13.973)">ioref</text><path stroke-linecap="round" stroke-width=".7" class="pin" stroke="#787878" fill="none" d="M.35 78.773h14.4"/><text x="16.15" y="65.5" stroke-width="0" class="text" font-family="'Droid Sans'" font-size="3.5" fill="#8c8c8c" transform="translate(0 13.973)">A0</text><path stroke-linecap="round" stroke-width=".7" class="pin" stroke="#787878" fill="none" d="M.35 85.973h14.4"/><text x="16.15" y="72.7" stroke-width="0" class="text" font-family="'Droid Sans'" font-size="3.5" fill="#8c8c8c" transform="translate(0 13.973)">A1</text><path stroke-linecap="round" stroke-width=".7" class="pin" stroke="#787878" fill="none" d="M.35 93.173h14.4"/><text x="16.15" y="79.9" stroke-width="0" class="text" font-family="'Droid Sans'" font-size="3.5" fill="#8c8c8c" transform="translate(0 13.973)">A2</text><path stroke-linecap="round" stroke-width=".7" class="pin" stroke="#787878" fill="none" d="M.35 100.373h14.4"/><text x="16.15" y="87.1" stroke-width="0" class="text" font-family="'Droid Sans'" font-size="3.5" fill="#8c8c8c" transform="translate(0 13.973)">A3</text><path class="pin" fill="none" d="M.35 107.573h14.4"/><path class="terminal" fill="none" d="M-.35 107.223h.7v.7h-.7z"/><path class="pin" fill="none" d="M.35 107.573h14.4"/><path class="terminal" fill="none" d="M-.35 107.223h.7v.7h-.7z"/><path class="pin" fill="none" d="M.35 107.573h14.4M.35 107.573h14.4"/><path class="terminal" fill="none" d="M-.35 107.223h.7v.7h-.7z"/><path class="pin" fill="none" d="M.35 107.573h14.4"/><path class="terminal" fill="none" d="M-.35 107.223h.7v.7h-.7z"/><path class="pin" fill="none" d="M.35 107.573h14.4"/><path class="terminal" fill="none" d="M-.35 107.223h.7v.7h-.7z"/><path stroke-linecap="round" stroke-width=".7" class="pin" stroke="#787878" fill="none" d="M.35 107.573h14.4"/><text x="16.15" y="94.3" stroke-width="0" class="text" font-family="'Droid Sans'" font-size="3.5" fill="#8c8c8c" transform="translate(0 13.973)">A4/SDA</text><path class="pin" fill="none" d="M.35 114.773h14.4"/><path stroke-linecap="round" stroke-width=".7" class="pin" stroke="#787878" fill="none" d="M.35 114.773h14.4"/><text x="16.15" y="101.5" stroke-width="0" class="text" font-family="'Droid Sans'" font-size="3.5" fill="#8c8c8c" transform="translate(0 13.973)">A5/SCL</text><path stroke-linecap="round" stroke-width=".7" class="pin" stroke="#787878" fill="none" d="M.35 150.773h14.4"/><text x="16.15" y="137.5" stroke-width="0" class="text" font-family="'Droid Sans'" font-size="3.5" fill="#8c8c8c" transform="translate(0 13.973)">N/C</text><path class="pin" fill="none" d="M57.6 164.823v14.4M57.6 164.823v14.4M57.6 164.823v14.4"/><path class="terminal" fill="none" d="M57.25 179.223h.7v.7h-.7z"/><path class="pin" fill="none" d="M57.6 164.823v14.4"/><path class="terminal" fill="none" d="M57.25 179.223h.7v.7h-.7z"/><path stroke-linecap="round" stroke-width=".7" class="pin" stroke="#787878" fill="none" d="M57.6 164.823v14.4"/><text stroke-width="0" class="text" font-family="'Droid Sans'" font-size="3.5" fill="#8c8c8c" transform="rotate(-90 110.861 52.562)">GND</text><path stroke-linecap="round" stroke-width=".7" class="pin" stroke="#787878" fill="none" d="M36 14.323v14.4"/><text text-anchor="end" stroke-width="0" class="text" font-family="'Droid Sans'" font-size="3.5" fill="#8c8c8c" transform="rotate(-90 33.411 -3.288)">3V3</text><path class="pin" fill="none" d="M50.4 14.323v14.4"/><path class="terminal" fill="none" d="M50.05 13.623h.7v.7h-.7z"/><path class="pin" fill="none" d="M50.4 14.323v14.4"/><path class="terminal" fill="none" d="M50.05 13.623h.7v.7h-.7z"/><path stroke-linecap="round" stroke-width=".7" class="pin" stroke="#787878" fill="none" d="M50.4 14.323v14.4"/><text text-anchor="end" stroke-width="0" class="text" font-family="'Droid Sans'" font-size="3.5" fill="#8c8c8c" transform="rotate(-90 40.611 -10.488)">5V</text><path stroke-linecap="round" stroke-width=".7" class="pin" stroke="#787878" fill="none" d="M64.8 14.323v14.4"/><text text-anchor="end" stroke-width="0" class="text" font-family="'Droid Sans'" font-size="3.5" fill="#8c8c8c" transform="rotate(-90 47.811 -17.688)">VIN</text><text x="54.45" text-anchor="middle" y="76.45" stroke-width="0" class="text" font-family="'Droid Sans'" font-size="4.25" transform="translate(0 13.973)">Arduino</text><text x="54.45" text-anchor="middle" y="80.983" stroke-width="0" class="text" font-family="'Droid Sans'" font-size="4.25" transform="translate(0 13.973)">Uno</text><text x="54.45" text-anchor="middle" y="85.517" stroke-width="0" class="text" font-family="'Droid Sans'" font-size="4.25" transform="translate(0 13.973)">(Rev3)</text></g><g><path stroke-linecap="round" stroke-width=".432" class="other" stroke="#000" d="M172.8 172.373l-2.88-1.08M169.92 171.293l5.76-1.8M175.68 169.493l-5.76-1.8M169.92 167.693l5.76-1.8M175.68 165.893l-5.76-1.8M169.92 164.093l5.76-1.8M175.68 162.293l-5.76-1.8M169.92 160.493l5.76-1.8M175.68 158.693l-2.88-.72"/><path stroke-linecap="round" stroke-width=".7" class="pin" stroke="#787878" d="M172.8 150.773v7.2"/><text x="25.55" text-anchor="middle" y="2.046" stroke-width="0" class="text" font-family="'Droid Sans'" font-size="2.5" fill="#8c8c8c" transform="rotate(-90 174.814 5.11)">2</text><path stroke-linecap="round" stroke-width=".7" class="pin" stroke="#787878" d="M172.8 179.573v-7.2"/><text x="3.95" text-anchor="middle" y="2.046" stroke-width="0" class="text" font-family="'Droid Sans'" font-size="2.5" fill="#8c8c8c" transform="rotate(-90 174.814 5.11)">1</text></g><g><path stroke-linecap="round" stroke-width=".432" class="other" stroke="#000" d="M165.6 172.373l-2.88-1.08M162.72 171.293l5.76-1.8M168.48 169.493l-5.76-1.8M162.72 167.693l5.76-1.8M168.48 165.893l-5.76-1.8M162.72 164.093l5.76-1.8M168.48 162.293l-5.76-1.8M162.72 160.493l5.76-1.8M168.48 158.693l-2.88-.72"/><path stroke-linecap="round" stroke-width=".7" class="pin" stroke="#787878" d="M165.6 150.773v7.2"/><text x="25.55" text-anchor="middle" y="2.046" stroke-width="0" class="text" font-family="'Droid Sans'" font-size="2.5" fill="#8c8c8c" transform="rotate(-90 171.214 8.71)">2</text><path stroke-linecap="round" stroke-width=".7" class="pin" stroke="#787878" d="M165.6 179.573v-7.2"/><text x="3.95" text-anchor="middle" y="2.046" stroke-width="0" class="text" font-family="'Droid Sans'" font-size="2.5" fill="#8c8c8c" transform="rotate(-90 171.214 8.71)">1</text></g><g><path stroke-linecap="round" stroke-width=".75" stroke="#787878" stroke-miterlimit="10" fill="none" d="M50.419 6.78v7.2"/><path stroke-linecap="round" stroke-width=".9" stroke="#000" d="M43.669 6.564h13.5" fill="none"/><text font-family="'DroidSans'" font-size="4.499" transform="translate(44.717 4.988)">5V</text></g><g><path stroke-linecap="round" stroke-width=".432" class="other" stroke="#000" d="M180 172.373l-2.88-1.08M177.12 171.293l5.76-1.8M182.88 169.493l-5.76-1.8M177.12 167.693l5.76-1.8M182.88 165.893l-5.76-1.8M177.12 164.093l5.76-1.8M182.88 162.293l-5.76-1.8M177.12 160.493l5.76-1.8M182.88 158.693l-2.88-.72"/><path stroke-linecap="round" stroke-width=".7" class="pin" stroke="#787878" d="M180 150.773v7.2"/><text x="25.55" text-anchor="middle" y="2.046" stroke-width="0" class="text" font-family="'Droid Sans'" font-size="2.5" fill="#8c8c8c" transform="rotate(-90 178.413 1.51)">2</text><path stroke-linecap="round" stroke-width=".7" class="pin" stroke="#787878" d="M180 179.573v-7.2"/><text x="3.95" text-anchor="middle" y="2.046" stroke-width="0" class="text" font-family="'Droid Sans'" font-size="2.5" fill="#8c8c8c" transform="rotate(-90 178.413 1.51)">1</text></g><g><path stroke-linecap="round" stroke-width=".432" class="other" stroke="#000" d="M201.6 157.973l2.88 1.08M204.48 159.053l-5.76 1.8M198.72 160.853l5.76 1.8M204.48 162.653l-5.76 1.8M198.72 164.453l5.76 1.8M204.48 166.253l-5.76 1.8M198.72 168.053l5.76 1.8M204.48 169.853l-5.76 1.8M198.72 171.653l2.88.72"/><path stroke-linecap="round" stroke-width=".7" class="pin" stroke="#787878" d="M201.6 179.573v-7.2"/><text x="25.55" text-anchor="middle" y="2.046" stroke-width="0" class="text" font-family="'Droid Sans'" font-size="2.5" fill="#8c8c8c" transform="rotate(90 27.136 177.56)">2</text><path stroke-linecap="round" stroke-width=".7" class="pin" stroke="#787878" d="M201.6 150.773v7.2"/><text x="3.95" text-anchor="middle" y="2.046" stroke-width="0" class="text" font-family="'Droid Sans'" font-size="2.5" fill="#8c8c8c" transform="rotate(90 27.136 177.56)">1</text></g><g><path stroke-linecap="round" stroke-width=".432" class="other" stroke="#000" d="M187.2 172.373l-2.88-1.08M184.32 171.293l5.76-1.8M190.08 169.493l-5.76-1.8M184.32 167.693l5.76-1.8M190.08 165.893l-5.76-1.8M184.32 164.093l5.76-1.8M190.08 162.293l-5.76-1.8M184.32 160.493l5.76-1.8M190.08 158.693l-2.88-.72"/><path stroke-linecap="round" stroke-width=".7" class="pin" stroke="#787878" d="M187.2 150.773v7.2"/><text x="25.55" text-anchor="middle" y="2.046" stroke-width="0" class="text" font-family="'Droid Sans'" font-size="2.5" fill="#8c8c8c" transform="rotate(-90 182.014 -2.09)">2</text><path stroke-linecap="round" stroke-width=".7" class="pin" stroke="#787878" d="M187.2 179.573v-7.2"/><text x="3.95" text-anchor="middle" y="2.046" stroke-width="0" class="text" font-family="'Droid Sans'" font-size="2.5" fill="#8c8c8c" transform="rotate(-90 182.014 -2.09)">1</text></g><g><path stroke-linecap="round" stroke-width=".432" class="other" stroke="#000" d="M216 157.973l2.88 1.08M218.88 159.053l-5.76 1.8M213.12 160.853l5.76 1.8M218.88 162.653l-5.76 1.8M213.12 164.453l5.76 1.8M218.88 166.253l-5.76 1.8M213.12 168.053l5.76 1.8M218.88 169.853l-5.76 1.8M213.12 171.653l2.88.72"/><path stroke-linecap="round" stroke-width=".7" class="pin" stroke="#787878" d="M216 179.573v-7.2"/><text x="25.55" text-anchor="middle" y="2.046" stroke-width="0" class="text" font-family="'Droid Sans'" font-size="2.5" fill="#8c8c8c" transform="rotate(90 34.337 184.76)">2</text><path stroke-linecap="round" stroke-width=".7" class="pin" stroke="#787878" d="M216 150.773v7.2"/><text x="3.95" text-anchor="middle" y="2.046" stroke-width="0" class="text" font-family="'Droid Sans'" font-size="2.5" fill="#8c8c8c" transform="rotate(90 34.337 184.76)">1</text></g><g><path stroke-linecap="round" stroke-width=".75" stroke="#787878" stroke-miterlimit="10" fill="none" d="M216.018 28.38v7.2"/><path stroke-linecap="round" stroke-width=".9" stroke="#000" d="M209.268 28.164h13.5" fill="none"/><text font-family="'DroidSans'" font-size="4.499" transform="translate(210.317 26.588)">5V</text></g><g><path stroke-linecap="round" stroke-width=".75" stroke="#787878" stroke-miterlimit="10" fill="none" d="M172.818 28.38v7.2"/><path stroke-linecap="round" stroke-width=".9" stroke="#000" d="M166.068 28.164h13.5" fill="none"/><text font-family="'DroidSans'" font-size="4.499" transform="translate(167.117 26.588)">5V</text></g><g><path stroke-linecap="round" stroke-width=".432" class="other" stroke="#000" d="M208.8 157.973l2.88 1.08M211.68 159.053l-5.76 1.8M205.92 160.853l5.76 1.8M211.68 162.653l-5.76 1.8M205.92 164.453l5.76 1.8M211.68 166.253l-5.76 1.8M205.92 168.053l5.76 1.8M211.68 169.853l-5.76 1.8M205.92 171.653l2.88.72"/><path stroke-linecap="round" stroke-width=".7" class="pin" stroke="#787878" d="M208.8 179.573v-7.2"/><text x="25.55" text-anchor="middle" y="2.046" stroke-width="0" class="text" font-family="'Droid Sans'" font-size="2.5" fill="#8c8c8c" transform="rotate(90 30.736 181.16)">2</text><path stroke-linecap="round" stroke-width=".7" class="pin" stroke="#787878" d="M208.8 150.773v7.2"/><text x="3.95" text-anchor="middle" y="2.046" stroke-width="0" class="text" font-family="'Droid Sans'" font-size="2.5" fill="#8c8c8c" transform="rotate(90 30.736 181.16)">1</text></g><g><path stroke-linecap="round" stroke-width=".432" class="other" stroke="#000" d="M194.4 157.972l2.88 1.08M197.28 159.052l-5.76 1.8M191.52 160.852l5.76 1.8M197.28 162.652l-5.76 1.8M191.52 164.452l5.76 1.8M197.28 166.252l-5.76 1.8M191.52 168.052l5.76 1.8M197.28 169.852l-5.76 1.8M191.52 171.652l2.88.72"/><path stroke-linecap="round" stroke-width=".7" class="pin" stroke="#787878" d="M194.4 179.572v-7.2"/><text x="25.55" text-anchor="middle" y="2.046" stroke-width="0" class="text" font-family="'Droid Sans'" font-size="2.5" fill="#8c8c8c" transform="rotate(90 23.537 173.959)">2</text><path stroke-linecap="round" stroke-width=".7" class="pin" stroke="#787878" d="M194.4 150.772v7.2"/><text x="3.95" text-anchor="middle" y="2.046" stroke-width="0" class="text" font-family="'Droid Sans'" font-size="2.5" fill="#8c8c8c" transform="rotate(90 23.537 173.959)">1</text></g><g><g fill="none"><path stroke-linecap="round" stroke-width=".75" stroke="#787878" d="M57.6 186.671v-7.2"/><path stroke-linecap="round" stroke-width=".9" stroke="#000" d="M50.9 186.807h13.4M53.132 189.552h8.935M59.83 192.271h-4.463"/></g></g><g><g fill="none"><path stroke-linecap="round" stroke-width=".75" stroke="#787878" d="M194.4 186.671v-7.2"/><path stroke-linecap="round" stroke-width=".9" stroke="#000" d="M187.699 186.807h13.4M189.931 189.552h8.935M196.63 192.271h-4.464"/></g></g><g><path stroke-linecap="round" stroke-width=".9" class="interior rect" stroke="#000" fill="#FFF" d="M166.05 121.523v-49.5h63.9v49.5z"/><path stroke-linecap="round" stroke-width=".7" class="pin" stroke="#787878" fill="none" d="M172.8 71.923v-14.4"/><text x="71.65" text-anchor="middle" y="6.15" stroke-width="0" class="text" font-family="'Droid Sans'" font-size="2.5" fill="#8c8c8c" transform="rotate(-90 150.986 -14.614)">16</text><text x="63.05" text-anchor="end" y="7.9" stroke-width="0" class="text" font-family="'Droid Sans'" font-size="3.5" fill="#8c8c8c" transform="rotate(-90 150.986 -14.614)">VCC</text><path stroke-linecap="round" stroke-width=".7" class="pin" stroke="#787878" fill="none" d="M180 71.923v-14.4"/><text x="71.65" text-anchor="middle" y="13.35" stroke-width="0" class="text" font-family="'Droid Sans'" font-size="2.5" fill="#8c8c8c" transform="rotate(-90 150.986 -14.614)">15</text><text x="63.05" text-anchor="end" y="15.1" stroke-width="0" class="text" font-family="'Droid Sans'" font-size="3.5" fill="#8c8c8c" transform="rotate(-90 150.986 -14.614)">Q0</text><path stroke-linecap="round" stroke-width=".7" class="pin" stroke="#787878" fill="none" d="M187.2 71.923v-14.4"/><text x="71.65" text-anchor="middle" y="20.55" stroke-width="0" class="text" font-family="'Droid Sans'" font-size="2.5" fill="#8c8c8c" transform="rotate(-90 150.986 -14.614)">14</text><text x="63.05" text-anchor="end" y="22.3" stroke-width="0" class="text" font-family="'Droid Sans'" font-size="3.5" fill="#8c8c8c" transform="rotate(-90 150.986 -14.614)">DS</text><path stroke-linecap="round" stroke-width=".7" class="pin" stroke="#787878" fill="none" d="M194.4 71.923v-14.4"/><text x="71.65" text-anchor="middle" y="27.75" stroke-width="0" class="text" font-family="'Droid Sans'" font-size="2.5" fill="#8c8c8c" transform="rotate(-90 150.986 -14.614)">13</text><text x="63.05" text-anchor="end" y="29.5" stroke-width="0" class="text" font-family="'Droid Sans'" font-size="3.5" fill="#8c8c8c" transform="rotate(-90 150.986 -14.614)">OE</text><path stroke-linecap="round" stroke-width=".7" class="pin" stroke="#787878" fill="none" d="M201.6 71.923v-14.4"/><text x="71.65" text-anchor="middle" y="34.95" stroke-width="0" class="text" font-family="'Droid Sans'" font-size="2.5" fill="#8c8c8c" transform="rotate(-90 150.986 -14.614)">12</text><text x="63.05" text-anchor="end" y="36.7" stroke-width="0" class="text" font-family="'Droid Sans'" font-size="3.5" fill="#8c8c8c" transform="rotate(-90 150.986 -14.614)">ST_CP</text><path stroke-linecap="round" stroke-width=".7" class="pin" stroke="#787878" fill="none" d="M208.8 71.923v-14.4"/><text x="71.65" text-anchor="middle" y="42.15" stroke-width="0" class="text" font-family="'Droid Sans'" font-size="2.5" fill="#8c8c8c" transform="rotate(-90 150.986 -14.614)">11</text><text x="63.05" text-anchor="end" y="43.9" stroke-width="0" class="text" font-family="'Droid Sans'" font-size="3.5" fill="#8c8c8c" transform="rotate(-90 150.986 -14.614)">SH_CP</text><path stroke-linecap="round" stroke-width=".7" class="pin" stroke="#787878" fill="none" d="M216 71.923v-14.4"/><text x="71.65" text-anchor="middle" y="49.35" stroke-width="0" class="text" font-family="'Droid Sans'" font-size="2.5" fill="#8c8c8c" transform="rotate(-90 150.986 -14.614)">10</text><text x="63.05" text-anchor="end" y="51.1" stroke-width="0" class="text" font-family="'Droid Sans'" font-size="3.5" fill="#8c8c8c" transform="rotate(-90 150.986 -14.614)">MR</text><path stroke-linecap="round" stroke-width=".7" class="pin" stroke="#787878" fill="none" d="M223.2 71.923v-14.4"/><text x="71.65" text-anchor="middle" y="56.55" stroke-width="0" class="text" font-family="'Droid Sans'" font-size="2.5" fill="#8c8c8c" transform="rotate(-90 150.986 -14.614)">9</text><text x="63.05" text-anchor="end" y="58.3" stroke-width="0" class="text" font-family="'Droid Sans'" font-size="3.5" fill="#8c8c8c" transform="rotate(-90 150.986 -14.614)">Q7&apos;</text><path stroke-linecap="round" stroke-width=".7" class="pin" stroke="#787878" fill="none" d="M172.8 136.023v-14.4"/><text x="7.55" text-anchor="middle" y="6.15" stroke-width="0" class="text" font-family="'Droid Sans'" font-size="2.5" fill="#8c8c8c" transform="rotate(-90 150.986 -14.614)">1</text><text x="16.15" y="7.9" stroke-width="0" class="text" font-family="'Droid Sans'" font-size="3.5" fill="#8c8c8c" transform="rotate(-90 150.986 -14.614)">Q1</text><path stroke-linecap="round" stroke-width=".7" class="pin" stroke="#787878" fill="none" d="M180 136.023v-14.4"/><text x="7.55" text-anchor="middle" y="13.35" stroke-width="0" class="text" font-family="'Droid Sans'" font-size="2.5" fill="#8c8c8c" transform="rotate(-90 150.986 -14.614)">2</text><text x="16.15" y="15.1" stroke-width="0" class="text" font-family="'Droid Sans'" font-size="3.5" fill="#8c8c8c" transform="rotate(-90 150.986 -14.614)">Q2</text><path stroke-linecap="round" stroke-width=".7" class="pin" stroke="#787878" fill="none" d="M187.2 136.023v-14.4"/><text x="7.55" text-anchor="middle" y="20.55" stroke-width="0" class="text" font-family="'Droid Sans'" font-size="2.5" fill="#8c8c8c" transform="rotate(-90 150.986 -14.614)">3</text><text x="16.15" y="22.3" stroke-width="0" class="text" font-family="'Droid Sans'" font-size="3.5" fill="#8c8c8c" transform="rotate(-90 150.986 -14.614)">Q3</text><path stroke-linecap="round" stroke-width=".7" class="pin" stroke="#787878" fill="none" d="M194.4 136.023v-14.4"/><text x="7.55" text-anchor="middle" y="27.75" stroke-width="0" class="text" font-family="'Droid Sans'" font-size="2.5" fill="#8c8c8c" transform="rotate(-90 150.986 -14.614)">4</text><text x="16.15" y="29.5" stroke-width="0" class="text" font-family="'Droid Sans'" font-size="3.5" fill="#8c8c8c" transform="rotate(-90 150.986 -14.614)">Q4</text><path stroke-linecap="round" stroke-width=".7" class="pin" stroke="#787878" fill="none" d="M201.6 136.023v-14.4"/><text x="7.55" text-anchor="middle" y="34.95" stroke-width="0" class="text" font-family="'Droid Sans'" font-size="2.5" fill="#8c8c8c" transform="rotate(-90 150.986 -14.614)">5</text><text x="16.15" y="36.7" stroke-width="0" class="text" font-family="'Droid Sans'" font-size="3.5" fill="#8c8c8c" transform="rotate(-90 150.986 -14.614)">Q5</text><path stroke-linecap="round" stroke-width=".7" class="pin" stroke="#787878" fill="none" d="M208.8 136.023v-14.4"/><text x="7.55" text-anchor="middle" y="42.15" stroke-width="0" class="text" font-family="'Droid Sans'" font-size="2.5" fill="#8c8c8c" transform="rotate(-90 150.986 -14.614)">6</text><text x="16.15" y="43.9" stroke-width="0" class="text" font-family="'Droid Sans'" font-size="3.5" fill="#8c8c8c" transform="rotate(-90 150.986 -14.614)">Q6</text><path stroke-linecap="round" stroke-width=".7" class="pin" stroke="#787878" fill="none" d="M216 136.023v-14.4"/><text x="7.55" text-anchor="middle" y="49.35" stroke-width="0" class="text" font-family="'Droid Sans'" font-size="2.5" fill="#8c8c8c" transform="rotate(-90 150.986 -14.614)">7</text><text x="16.15" y="51.1" stroke-width="0" class="text" font-family="'Droid Sans'" font-size="3.5" fill="#8c8c8c" transform="rotate(-90 150.986 -14.614)">Q7</text><path stroke-linecap="round" stroke-width=".7" class="pin" stroke="#787878" fill="none" d="M223.2 136.023v-14.4"/><text x="7.55" text-anchor="middle" y="56.55" stroke-width="0" class="text" font-family="'Droid Sans'" font-size="2.5" fill="#8c8c8c" transform="rotate(-90 150.986 -14.614)">8</text><text x="16.15" y="58.3" stroke-width="0" class="text" font-family="'Droid Sans'" font-size="3.5" fill="#8c8c8c" transform="rotate(-90 150.986 -14.614)">GND</text><text x="40.05" text-anchor="middle" y="30.583" stroke-width="0" class="text" font-family="'Droid Sans'" font-size="4.25" transform="rotate(-90 150.986 -14.614)">74HC595</text></g><g><path fill="none" d="M190.804 53.562v3.6h-7.2v-3.6z"/><path stroke-width=".24" stroke="#000" fill="#fff" d="M187.204 57.05l3.48-3.48V42.21h-6.96v11.36z"/></g><g><path fill="none" d="M111.611 53.57h-3.6v7.2h3.6z"/><path stroke-width=".24" stroke="#000" fill="#fff" d="M108.124 57.17l3.48-3.48h11.36v6.96h-11.36z"/></g><g><path fill="none" d="M111.611 67.97h-3.6v7.2h3.6z"/><path stroke-width=".24" stroke="#000" fill="#fff" d="M108.124 71.57l3.48-3.48h11.36v6.96h-11.36z"/></g><g><path fill="none" d="M111.611 60.77h-3.6v7.2h3.6z"/><path stroke-width=".24" stroke="#000" fill="#fff" d="M108.124 64.37l3.48-3.48h11.36v6.96h-11.36z"/></g><g><path fill="none" d="M205.204 53.562v3.6h-7.2v-3.6z"/><path stroke-width=".24" stroke="#000" fill="#fff" d="M201.604 57.05l3.48-3.48V42.21h-6.96v11.36z"/></g><g><path fill="none" d="M212.404 53.562v3.6h-7.2v-3.6z"/><path stroke-width=".24" stroke="#000" fill="#fff" d="M208.804 57.05l3.48-3.48V42.21h-6.96v11.36z"/></g><g><g fill="none"><path stroke-linecap="round" stroke-width=".75" stroke="#787878" d="M151.2 49.872v-7.2"/><path stroke-linecap="round" stroke-width=".9" stroke="#000" d="M144.499 50.008h13.4M146.731 52.752h8.935M153.43 55.472h-4.464"/></g></g><g><text x=".48" y="5.28" font-family="Droid Sans" font-size="4.8" transform="rotate(90 74.357 116.447)">pin 2</text></g><g><text x=".48" y="5.28" font-size="4.8" font-family="Droid Sans" transform="translate(110.925 53.672)">pin 2</text></g><g><text x=".48" y="5.28" font-size="4.8" font-family="Droid Sans" transform="translate(110.925 68.072)">pin 4</text></g><g><text x=".48" y="5.28" font-size="4.8" font-family="Droid Sans" transform="translate(110.925 60.872)">pin 3</text></g><g><text x=".48" y="5.28" font-family="Droid Sans" font-size="4.8" transform="rotate(90 81.557 123.647)">pin 4</text></g><g><text x=".48" y="5.28" font-family="Droid Sans" font-size="4.8" transform="rotate(90 85.157 127.247)">pin 3</text></g><g><path stroke-linecap="round" stroke="#404040" stroke-width=".7" d="M194.4 179.572v.001"/></g><circle cx="194.4" cy="179.572" r="1.44"/><g><path stroke-linecap="round" stroke="#404040" stroke-width=".7" d="M223.18 179.519l.019-43.146"/></g><g><path stroke-linecap="round" stroke="#404040" stroke-width=".7" d="M216 179.573l7.18-.054"/></g><circle cx="216" cy="179.573" r="1.44"/><g><path stroke-linecap="round" stroke="#404040" stroke-width=".7" d="M172.8 35.573v21.6"/></g><g><path stroke-linecap="round" stroke="#404040" stroke-width=".7" d="M216 35.573v21.6"/></g><g><path stroke-linecap="round" stroke="#404040" stroke-width=".7" d="M50.4 13.973"/></g><g><path stroke-linecap="round" stroke="#404040" stroke-width=".7" d="M57.6 179.573"/></g><g><path stroke-linecap="round" stroke="#404040" stroke-width=".7" d="M216 150.773l-.001-7.2"/></g><g><path stroke-linecap="round" stroke="#404040" stroke-width=".7" d="M201.599 143.573l.001 7.2"/></g><g><path stroke-linecap="round" stroke="#404040" stroke-width=".7" d="M194.399 157.973l.001-7.201"/></g><g><path stroke-linecap="round" stroke="#404040" stroke-width=".7" d="M187.199 143.573l.001 7.2"/></g><g><path stroke-linecap="round" stroke="#404040" stroke-width=".7" d="M179.999 157.973l.001-7.2"/></g><g><path stroke-linecap="round" stroke="#404040" stroke-width=".7" d="M172.8 143.573l.001 7.2"/></g><g><path stroke-linecap="round" stroke="#404040" stroke-width=".7" d="M165.599 157.973l.001-7.2"/></g><g><path stroke-linecap="round" stroke="#404040" stroke-width=".7" d="M208.8 157.973l.001-7.2"/></g><g><path stroke-linecap="round" stroke="#404040" stroke-width=".7" d="M158.379 129.209l7.22 7.163"/></g><g><path stroke-linecap="round" stroke="#404040" stroke-width=".7" d="M158.379 64.399v64.81"/></g><g><path stroke-linecap="round" stroke="#404040" stroke-width=".7" d="M165.535 57.249l-7.156 7.15"/></g><g><path stroke-linecap="round" stroke="#404040" stroke-width=".7" d="M180.081 57.249h-14.546"/></g><g><path stroke-linecap="round" stroke="#404040" stroke-width=".7" d="M180 57.173l.081.076"/></g><g><path stroke-linecap="round" stroke="#404040" stroke-width=".7" d="M172.8 136.373v-14.4"/></g><g><path stroke-linecap="round" stroke="#404040" stroke-width=".7" d="M180 136.373"/></g><g><path stroke-linecap="round" stroke="#404040" stroke-width=".7" d="M187.2 136.373v-14.4"/></g><g><path stroke-linecap="round" stroke="#404040" stroke-width=".7" d="M194.399 136.373"/></g><g><path stroke-linecap="round" stroke="#404040" stroke-width=".7" d="M201.599 136.373v-14.4"/></g><g><path stroke-linecap="round" stroke="#404040" stroke-width=".7" d="M208.799 136.373"/></g><g><path stroke-linecap="round" stroke="#404040" stroke-width=".7" d="M215.999 136.373v-14.4"/></g><g><path stroke-linecap="round" stroke="#404040" stroke-width=".7" d="M108 57.173"/></g><g><path stroke-linecap="round" stroke="#404040" stroke-width=".7" d="M187.2 57.173"/></g><g><path stroke-linecap="round" stroke="#404040" stroke-width=".7" d="M172.801 179.573h-7.2"/></g><circle cx="172.801" cy="179.573" r="1.44"/><g><path stroke-linecap="round" stroke="#404040" stroke-width=".7" d="M172.801 179.573h7.2"/></g><circle cx="172.801" cy="179.573" r="1.44"/><circle cx="180.001" cy="179.573" r="1.44"/><g><path stroke-linecap="round" stroke="#404040" stroke-width=".7" d="M180 179.573h7.2"/></g><circle cx="180" cy="179.573" r="1.44"/><circle cx="187.2" cy="179.573" r="1.44"/><g><path stroke-linecap="round" stroke="#404040" stroke-width=".7" d="M187.2 179.573h7.2"/></g><circle cx="187.2" cy="179.573" r="1.44"/><circle cx="194.4" cy="179.573" r="1.44"/><g><path stroke-linecap="round" stroke="#404040" stroke-width=".7" d="M194.4 179.572l7.2.001"/></g><circle cx="194.4" cy="179.572" r="1.44"/><circle cx="201.6" cy="179.573" r="1.44"/><g><path stroke-linecap="round" stroke="#404040" stroke-width=".7" d="M201.6 179.573h7.2"/></g><circle cx="201.6" cy="179.573" r="1.44"/><circle cx="208.8" cy="179.573" r="1.44"/><g><path stroke-linecap="round" stroke="#404040" stroke-width=".7" d="M208.8 179.573h7.2"/></g><circle cx="208.8" cy="179.573" r="1.44"/><circle cx="216" cy="179.573" r="1.44"/><g><path stroke-linecap="round" stroke="#404040" stroke-width=".7" d="M108 64.373"/></g><g><path stroke-linecap="round" stroke="#404040" stroke-width=".7" d="M108 71.573"/></g><g><path stroke-linecap="round" stroke="#404040" stroke-width=".7" d="M201.6 57.173"/></g><g><path stroke-linecap="round" stroke="#404040" stroke-width=".7" d="M208.8 57.173"/></g><g><path stroke-linecap="round" stroke="#404040" stroke-width=".7" d="M151.267 35.63l43.069-.039"/></g><g><path stroke-linecap="round" stroke="#404040" stroke-width=".7" d="M194.336 35.591l.064 21.582"/></g><g><path stroke-linecap="round" stroke="#404040" stroke-width=".7" d="M151.2 42.773l.067-7.143"/></g><g><text y="3.75" transform="translate(149.035 138.317)" font-size="5" font-family="'DroidSans'">LED<tspan font-size="4" x="-4.5" y="26">resistor</tspan> <tspan font-size="4" x="-8.5" y="30">(560ohm)</tspan></text></g><g><text y="3.75" transform="translate(175.906 183.143)" font-size="5" font-family="'DroidSans'">gnd<tspan font-size="4" x="-14" y="8.5">(ground) (-)</tspan></text></g></svg>