<svg xmlns="http://www.w3.org/2000/svg" version="1.2" baseProfile="tiny" width="270.534" height="248.395" viewBox="0 0 202.9 186.296"><g xmlns="http://www.w3.org/2000/svg"><path xmlns="http://www.w3.org/2000/svg" fill="none" d="M111.611 118.376h-3.6v-7.2h3.6z"/><path stroke-width=".24" xmlns="http://www.w3.org/2000/svg" stroke="#000" fill="#fff" d="M108.124 114.776l3.48 3.48h14.36v-6.96h-14.36z"/></g><g xmlns="http://www.w3.org/2000/svg"><path xmlns="http://www.w3.org/2000/svg" fill="none" d="M111.611 125.577h-3.6v-7.2h3.6z"/><path stroke-width=".24" xmlns="http://www.w3.org/2000/svg" stroke="#000" fill="#fff" d="M108.124 121.977l3.48 3.48h14.36v-6.96h-14.36z"/></g><g xmlns="http://www.w3.org/2000/svg"><path xmlns="http://www.w3.org/2000/svg" fill="none" d="M111.611 111.176h-3.6v-7.2h3.6z"/><path stroke-width=".24" xmlns="http://www.w3.org/2000/svg" stroke="#000" fill="#fff" d="M108.124 107.576l3.48 3.48h11.36v-6.96h-11.36z"/></g><g xmlns="http://www.w3.org/2000/svg"><path xmlns="http://www.w3.org/2000/svg" fill="none" d="M176.389 118.369h3.6v7.2h-3.6z"/><path stroke-width=".24" xmlns="http://www.w3.org/2000/svg" stroke="#000" fill="#fff" d="M179.876 121.969l-3.48-3.48h-14.36v6.96h14.36z"/></g><g xmlns="http://www.w3.org/2000/svg"><path xmlns="http://www.w3.org/2000/svg" fill="none" d="M161.989 111.169h3.6v7.2h-3.6z"/><path stroke-width=".24" xmlns="http://www.w3.org/2000/svg" stroke="#000" fill="#fff" d="M165.476 114.769l-3.48-3.48h-14.36v6.96h14.36z"/></g><g xmlns="http://www.w3.org/2000/svg"><path xmlns="http://www.w3.org/2000/svg" fill="none" d="M190.789 125.569h3.6v7.2h-3.6z"/><path stroke-width=".24" xmlns="http://www.w3.org/2000/svg" stroke="#000" fill="#fff" d="M194.276 129.169l-3.48-3.48h-11.36v6.96h11.36z"/></g><g xmlns="http://www.w3.org/2000/svg" fill="none"><path stroke-width=".75" xmlns="http://www.w3.org/2000/svg" d="M57.6 179.472v-7.2" stroke-linecap="round" stroke="#787878"/><path stroke-width=".9" xmlns="http://www.w3.org/2000/svg" d="M50.9 179.608h13.4M53.132 182.353h8.935M59.83 185.072h-4.463" stroke-linecap="round" stroke="#000"/></g><path d="M197.926 79.907h-3.603a.351.351 0 1 1 0-.703h3.603a.352.352 0 0 1 0 .704z"/><path d="M194.325 79.907h-3.598a.351.351 0 1 1 0-.702h3.598a.35.35 0 0 1 .35.353.35.35 0 0 1-.35.35z"/><path fill="#FFF" d="M194.325 79.559l-3.597-7.201h7.198z"/><path d="M194.325 80.34l-4.164-8.334h8.332l-4.168 8.334zm-3.031-7.633l3.031 6.068 3.036-6.068h-6.067z"/><path d="M194.325 79.782a.226.226 0 0 1-.225-.224v-7.2c0-.125.1-.227.225-.227.123 0 .225.103.225.227v7.2a.227.227 0 0 1-.225.224zM201.284 80.68a.227.227 0 0 1-.159-.063l-2.341-2.34a.225.225 0 1 1 .318-.318l2.34 2.34a.225.225 0 0 1 0 .318.223.223 0 0 1-.158.063zM200.924 83.922a.222.222 0 0 1-.157-.063l-2.341-2.34a.223.223 0 0 1 0-.319.223.223 0 0 1 .317 0l2.34 2.34a.225.225 0 0 1 0 .319.232.232 0 0 1-.159.063z"/><path d="M200.385 80.998l1.438-1.439 1.08 2.522-2.518-1.084zM200.027 84.236l1.438-1.44 1.08 2.522-2.518-1.082zM183.527 79.907h-3.6a.352.352 0 0 1 0-.703h3.6a.351.351 0 0 1 0 .704z"/><path d="M179.927 79.907h-3.601a.352.352 0 0 1 0-.703h3.601a.35.35 0 0 1 .35.354.35.35 0 0 1-.35.35z"/><path fill="#FFF" d="M179.927 79.559l-3.601-7.201H183.527z"/><path d="M179.927 80.34l-4.167-8.334h8.333l-4.166 8.334zm-3.035-7.633l3.035 6.068 3.033-6.068h-6.068z"/><path d="M179.927 79.782a.227.227 0 0 1-.225-.224v-7.2c0-.125.101-.227.225-.227s.225.103.225.227v7.2a.226.226 0 0 1-.225.224z"/><path d="M179.927 72.707a.35.35 0 0 1-.35-.35v-7.2a.35.35 0 0 1 .7 0v7.2a.35.35 0 0 1-.35.35z"/><path d="M176.328 65.157z" fill="none"/><path d="M186.885 80.68a.222.222 0 0 1-.157-.063l-2.343-2.34a.225.225 0 0 1 .317-.318l2.342 2.34a.223.223 0 0 1-.159.381zM186.525 83.922a.23.23 0 0 1-.16-.063l-2.34-2.34a.225.225 0 0 1 .317-.319l2.34 2.34a.223.223 0 0 1-.157.382z"/><path d="M185.984 80.998l1.438-1.439 1.08 2.522-2.518-1.084zM185.627 84.236l1.438-1.44 1.078 2.522-2.516-1.082zM169.127 79.907h-3.601a.352.352 0 0 1 0-.703h3.601a.35.35 0 0 1 .35.354.35.35 0 0 1-.35.35z"/><path d="M165.526 79.907h-3.599a.352.352 0 0 1 0-.703h3.599a.35.35 0 0 1 .35.354.35.35 0 0 1-.35.35z"/><path fill="#FFF" d="M165.526 79.559l-3.599-7.201h7.2z"/><path d="M165.526 80.34l-4.165-8.333h8.333l-4.168 8.333zm-3.032-7.633l3.033 6.068 3.034-6.068h-6.067z"/><path d="M165.526 79.782a.227.227 0 0 1-.225-.224v-7.2c0-.125.101-.227.225-.227s.225.103.225.227v7.2a.226.226 0 0 1-.225.224z"/><path d="M194.325 72.707a.35.35 0 0 1-.35-.35v-6.85h-28.1v6.852a.35.35 0 0 1-.7 0v-7.552h29.499v7.55c0 .194-.155.35-.349.35zM172.484 80.68a.229.229 0 0 1-.159-.063l-2.339-2.34a.225.225 0 1 1 .318-.318l2.339 2.34a.225.225 0 0 1 0 .318.23.23 0 0 1-.159.063zM172.125 83.922a.229.229 0 0 1-.159-.063l-2.341-2.34a.225.225 0 1 1 .318-.319l2.341 2.34a.225.225 0 0 1 0 .319.235.235 0 0 1-.159.063z"/><path d="M171.585 80.998l1.439-1.439 1.08 2.522-2.519-1.084zM171.227 84.236l1.438-1.44 1.08 2.522-2.518-1.082z"/><path d="M194.325 87.108a.35.35 0 0 1-.35-.352V79.56a.35.35 0 0 1 .7 0v7.198a.35.35 0 0 1-.35.35zM179.927 87.108a.35.35 0 0 1-.35-.352V79.56a.35.35 0 0 1 .7 0v7.198a.35.35 0 0 1-.35.35zM165.526 87.108a.35.35 0 0 1-.35-.352V79.56a.35.35 0 0 1 .7 0v7.198a.35.35 0 0 1-.35.35zM179.928 65.508a.35.35 0 0 1-.35-.35v-7.2a.35.35 0 0 1 .7 0v7.2a.35.35 0 0 1-.35.35z" fill="#787878"/><g><text font-size="4.231" font-family="'OCRAStd'" fill="#787878" transform="translate(181.387 70.451)">B</text></g><g><text font-size="4.231" font-family="'OCRAStd'" fill="#787878" transform="translate(166.553 70.451)">R</text></g><g><text font-size="4.231" font-family="'OCRAStd'" fill="#787878" transform="translate(195.553 70.451)">G</text></g><g><g xmlns="http://www.w3.org/2000/svg"><path stroke-width=".432" class="other" xmlns="http://www.w3.org/2000/svg" stroke-linecap="round" stroke="#000" d="M194.4 107.573l-2.88-1.08M191.52 106.493l5.76-1.8M197.28 104.693l-5.76-1.8M191.52 102.893l5.76-1.8M197.28 101.093l-5.76-1.8M191.52 99.293l5.76-1.8M197.28 97.493l-5.76-1.8M191.52 95.693l5.76-1.8M197.28 93.893l-2.88-.72"/><path stroke-width=".7" class="pin" xmlns="http://www.w3.org/2000/svg" stroke-linecap="round" stroke="#787878" d="M194.4 85.973v7.2"/><text stroke-width="0" class="text" text-anchor="middle" xmlns="http://www.w3.org/2000/svg" font-size="2.5" x="25.55" y="2.046" font-family="'Droid Sans'" fill="#8c8c8c" transform="rotate(-90 153.214 -38.09)">2</text><path stroke-width=".7" class="pin" xmlns="http://www.w3.org/2000/svg" stroke-linecap="round" stroke="#787878" d="M194.4 114.773v-7.2"/><text stroke-width="0" class="text" text-anchor="middle" xmlns="http://www.w3.org/2000/svg" font-size="2.5" x="3.95" y="2.046" font-family="'Droid Sans'" fill="#8c8c8c" transform="rotate(-90 153.214 -38.09)">1</text></g></g><g><g xmlns="http://www.w3.org/2000/svg"><path stroke-width=".432" class="other" xmlns="http://www.w3.org/2000/svg" stroke-linecap="round" stroke="#000" d="M180 107.573l-2.88-1.08M177.12 106.493l5.76-1.8M182.88 104.693l-5.76-1.8M177.12 102.893l5.76-1.8M182.88 101.093l-5.76-1.8M177.12 99.293l5.76-1.8M182.88 97.493l-5.76-1.8M177.12 95.693l5.76-1.8M182.88 93.893l-2.88-.72"/><path stroke-width=".7" class="pin" xmlns="http://www.w3.org/2000/svg" stroke-linecap="round" stroke="#787878" d="M180 85.973v7.2"/><text stroke-width="0" class="text" text-anchor="middle" xmlns="http://www.w3.org/2000/svg" font-size="2.5" x="25.55" y="2.046" font-family="'Droid Sans'" fill="#8c8c8c" transform="rotate(-90 146.013 -30.89)">2</text><path stroke-width=".7" class="pin" xmlns="http://www.w3.org/2000/svg" stroke-linecap="round" stroke="#787878" d="M180 114.773v-7.2"/><text stroke-width="0" class="text" text-anchor="middle" xmlns="http://www.w3.org/2000/svg" font-size="2.5" x="3.95" y="2.046" font-family="'Droid Sans'" fill="#8c8c8c" transform="rotate(-90 146.013 -30.89)">1</text></g></g><g><g xmlns="http://www.w3.org/2000/svg"><path stroke-width=".432" class="other" xmlns="http://www.w3.org/2000/svg" stroke-linecap="round" stroke="#000" d="M165.6 107.573l-2.88-1.08M162.72 106.493l5.76-1.8M168.48 104.693l-5.76-1.8M162.72 102.893l5.76-1.8M168.48 101.093l-5.76-1.8M162.72 99.293l5.76-1.8M168.48 97.493l-5.76-1.8M162.72 95.693l5.76-1.8M168.48 93.893l-2.88-.72"/><path stroke-width=".7" class="pin" xmlns="http://www.w3.org/2000/svg" stroke-linecap="round" stroke="#787878" d="M165.6 85.973v7.2"/><text stroke-width="0" class="text" text-anchor="middle" xmlns="http://www.w3.org/2000/svg" font-size="2.5" x="25.55" y="2.046" font-family="'Droid Sans'" fill="#8c8c8c" transform="rotate(-90 138.814 -23.69)">2</text><path stroke-width=".7" class="pin" xmlns="http://www.w3.org/2000/svg" stroke-linecap="round" stroke="#787878" d="M165.6 114.773v-7.2"/><text stroke-width="0" class="text" text-anchor="middle" xmlns="http://www.w3.org/2000/svg" font-size="2.5" x="3.95" y="2.046" font-family="'Droid Sans'" fill="#8c8c8c" transform="rotate(-90 138.814 -23.69)">1</text></g></g><g><path stroke-width=".9" class="interior rect" stroke-linecap="round" stroke="#000" fill="#FFF" d="M14.85 28.823h78.3v135.9h-78.3z"/><path stroke-width=".7" class="pin" stroke-linecap="round" stroke="#787878" fill="none" d="M93.25 42.773h14.4"/><text stroke-width="0" class="text" text-anchor="end" font-size="3.5" x="91.85" y="29.5" font-family="'Droid Sans'" fill="#8c8c8c" transform="translate(0 13.973)">D0/RX</text><path stroke-width=".7" class="pin" stroke-linecap="round" stroke="#787878" fill="none" d="M93.25 49.973h14.4"/><text stroke-width="0" class="text" text-anchor="end" font-size="3.5" x="91.85" y="36.7" font-family="'Droid Sans'" fill="#8c8c8c" transform="translate(0 13.973)">D1/TX</text><path stroke-width=".7" class="pin" stroke-linecap="round" stroke="#787878" fill="none" d="M93.25 57.173h14.4"/><text stroke-width="0" class="text" text-anchor="end" font-size="3.5" x="91.85" y="43.9" font-family="'Droid Sans'" fill="#8c8c8c" transform="translate(0 13.973)">D2</text><path stroke-width=".7" class="pin" stroke-linecap="round" stroke="#787878" fill="none" d="M93.25 64.373h14.4"/><text stroke-width="0" class="text" text-anchor="end" font-size="3.5" x="91.85" y="51.1" font-family="'Droid Sans'" fill="#8c8c8c" transform="translate(0 13.973)">D3 PWM</text><path stroke-width=".7" class="pin" stroke-linecap="round" stroke="#787878" fill="none" d="M93.25 71.573h14.4"/><text stroke-width="0" class="text" text-anchor="end" font-size="3.5" x="91.85" y="58.3" font-family="'Droid Sans'" fill="#8c8c8c" transform="translate(0 13.973)">D4</text><path stroke-width=".7" class="pin" stroke-linecap="round" stroke="#787878" fill="none" d="M93.25 78.773h14.4"/><text stroke-width="0" class="text" text-anchor="end" font-size="3.5" x="91.85" y="65.5" font-family="'Droid Sans'" fill="#8c8c8c" transform="translate(0 13.973)">D5 PWM</text><path stroke-width=".7" class="pin" stroke-linecap="round" stroke="#787878" fill="none" d="M93.25 85.973h14.4"/><text stroke-width="0" class="text" text-anchor="end" font-size="3.5" x="91.85" y="72.7" font-family="'Droid Sans'" fill="#8c8c8c" transform="translate(0 13.973)">D6 PWM</text><path stroke-width=".7" class="pin" stroke-linecap="round" stroke="#787878" fill="none" d="M93.25 93.173h14.4"/><text stroke-width="0" class="text" text-anchor="end" font-size="3.5" x="91.85" y="79.9" font-family="'Droid Sans'" fill="#8c8c8c" transform="translate(0 13.973)">D7</text><path stroke-width=".7" class="pin" stroke-linecap="round" stroke="#787878" fill="none" d="M93.25 100.373h14.4"/><text stroke-width="0" class="text" text-anchor="end" font-size="3.5" x="91.85" y="87.1" font-family="'Droid Sans'" fill="#8c8c8c" transform="translate(0 13.973)">D8</text><path stroke-width=".7" class="pin" stroke-linecap="round" stroke="#787878" fill="none" d="M93.25 107.573h14.4"/><text stroke-width="0" class="text" text-anchor="end" font-size="3.5" x="91.85" y="94.3" font-family="'Droid Sans'" fill="#8c8c8c" transform="translate(0 13.973)">D9 PWM</text><path stroke-width=".7" class="pin" stroke-linecap="round" stroke="#787878" fill="none" d="M93.25 114.773h14.4"/><text stroke-width="0" class="text" text-anchor="end" font-size="3.5" x="91.85" y="101.5" font-family="'Droid Sans'" fill="#8c8c8c" transform="translate(0 13.973)">D10 PWM/SS</text><path stroke-width=".7" class="pin" stroke-linecap="round" stroke="#787878" fill="none" d="M93.25 121.973h14.4"/><text stroke-width="0" class="text" text-anchor="end" font-size="3.5" x="91.85" y="108.7" font-family="'Droid Sans'" fill="#8c8c8c" transform="translate(0 13.973)">D11 PWM/MOSI</text><path stroke-width=".7" class="pin" stroke-linecap="round" stroke="#787878" fill="none" d="M93.25 129.173h14.4"/><text stroke-width="0" class="text" text-anchor="end" font-size="3.5" x="91.85" y="115.9" font-family="'Droid Sans'" fill="#8c8c8c" transform="translate(0 13.973)">D12/MISO</text><path class="pin" fill="none" d="M93.25 136.373h14.4"/><path class="terminal" fill="none" d="M107.65 136.023h.7v.7h-.7z"/><path stroke-width=".7" class="pin" stroke-linecap="round" stroke="#787878" fill="none" d="M93.25 136.373h14.4"/><text stroke-width="0" class="text" text-anchor="end" font-size="3.5" x="91.85" y="123.1" font-family="'Droid Sans'" fill="#8c8c8c" transform="translate(0 13.973)">D13/SCK</text><path class="pin" fill="none" d="M.35 42.773h14.4"/><path class="terminal" fill="none" d="M-.35 42.423h.7v.7h-.7z"/><path stroke-width=".7" class="pin" stroke-linecap="round" stroke="#787878" fill="none" d="M.35 42.773h14.4"/><text stroke-width="0" class="text" font-size="3.5" x="16.15" y="29.5" font-family="'Droid Sans'" fill="#8c8c8c" transform="translate(0 13.973)">RESET</text><path stroke-width=".7" class="pin" stroke-linecap="round" stroke="#787878" fill="none" d="M.35 49.973h14.4"/><text stroke-width="0" class="text" font-size="3.5" x="16.15" y="36.7" font-family="'Droid Sans'" fill="#8c8c8c" transform="translate(0 13.973)">RESET2</text><path class="terminal" fill="none" d="M-.35 49.623h.7v.7h-.7z"/><path stroke-width=".7" class="pin" stroke-linecap="round" stroke="#787878" fill="none" d="M.35 57.173h14.4"/><text stroke-width="0" class="text" font-size="3.5" x="16.15" y="43.9" font-family="'Droid Sans'" fill="#8c8c8c" transform="translate(0 13.973)">AREF</text><path stroke-width=".7" class="pin" stroke-linecap="round" stroke="#787878" fill="none" d="M.35 64.373h14.4"/><text stroke-width="0" class="text" font-size="3.5" x="16.15" y="51.1" font-family="'Droid Sans'" fill="#8c8c8c" transform="translate(0 13.973)">ioref</text><path stroke-width=".7" class="pin" stroke-linecap="round" stroke="#787878" fill="none" d="M.35 78.773h14.4"/><text stroke-width="0" class="text" font-size="3.5" x="16.15" y="65.5" font-family="'Droid Sans'" fill="#8c8c8c" transform="translate(0 13.973)">A0</text><path stroke-width=".7" class="pin" stroke-linecap="round" stroke="#787878" fill="none" d="M.35 85.973h14.4"/><text stroke-width="0" class="text" font-size="3.5" x="16.15" y="72.7" font-family="'Droid Sans'" fill="#8c8c8c" transform="translate(0 13.973)">A1</text><path stroke-width=".7" class="pin" stroke-linecap="round" stroke="#787878" fill="none" d="M.35 93.173h14.4"/><text stroke-width="0" class="text" font-size="3.5" x="16.15" y="79.9" font-family="'Droid Sans'" fill="#8c8c8c" transform="translate(0 13.973)">A2</text><path stroke-width=".7" class="pin" stroke-linecap="round" stroke="#787878" fill="none" d="M.35 100.373h14.4"/><text stroke-width="0" class="text" font-size="3.5" x="16.15" y="87.1" font-family="'Droid Sans'" fill="#8c8c8c" transform="translate(0 13.973)">A3</text><path class="pin" fill="none" d="M.35 107.573h14.4"/><path class="terminal" fill="none" d="M-.35 107.223h.7v.7h-.7z"/><path class="pin" fill="none" d="M.35 107.573h14.4"/><path class="terminal" fill="none" d="M-.35 107.223h.7v.7h-.7z"/><path class="pin" fill="none" d="M.35 107.573h14.4M.35 107.573h14.4"/><path class="terminal" fill="none" d="M-.35 107.223h.7v.7h-.7z"/><path class="pin" fill="none" d="M.35 107.573h14.4"/><path class="terminal" fill="none" d="M-.35 107.223h.7v.7h-.7z"/><path class="pin" fill="none" d="M.35 107.573h14.4"/><path class="terminal" fill="none" d="M-.35 107.223h.7v.7h-.7z"/><path stroke-width=".7" class="pin" stroke-linecap="round" stroke="#787878" fill="none" d="M.35 107.573h14.4"/><text stroke-width="0" class="text" font-size="3.5" x="16.15" y="94.3" font-family="'Droid Sans'" fill="#8c8c8c" transform="translate(0 13.973)">A4/SDA</text><path class="pin" fill="none" d="M.35 114.773h14.4"/><path stroke-width=".7" class="pin" stroke-linecap="round" stroke="#787878" fill="none" d="M.35 114.773h14.4"/><text stroke-width="0" class="text" font-size="3.5" x="16.15" y="101.5" font-family="'Droid Sans'" fill="#8c8c8c" transform="translate(0 13.973)">A5/SCL</text><path stroke-width=".7" class="pin" stroke-linecap="round" stroke="#787878" fill="none" d="M.35 150.773h14.4"/><text stroke-width="0" class="text" font-size="3.5" x="16.15" y="137.5" font-family="'Droid Sans'" fill="#8c8c8c" transform="translate(0 13.973)">N/C</text><path class="pin" fill="none" d="M57.6 164.823v14.4M57.6 164.823v14.4M57.6 164.823v14.4"/><path class="terminal" fill="none" d="M57.25 179.223h.7v.7h-.7z"/><path class="pin" fill="none" d="M57.6 164.823v14.4"/><path class="terminal" fill="none" d="M57.25 179.223h.7v.7h-.7z"/><path stroke-width=".7" class="pin" stroke-linecap="round" stroke="#787878" fill="none" d="M57.6 164.823v14.4"/><text stroke-width="0" class="text" font-size="3.5" font-family="'Droid Sans'" fill="#8c8c8c" transform="rotate(-90 110.861 52.562)">GND</text><path stroke-width=".7" class="pin" stroke-linecap="round" stroke="#787878" fill="none" d="M36 14.323v14.4"/><text stroke-width="0" class="text" text-anchor="end" font-size="3.5" font-family="'Droid Sans'" fill="#8c8c8c" transform="rotate(-90 33.411 -3.288)">3V3</text><path class="pin" fill="none" d="M50.4 14.323v14.4"/><path class="terminal" fill="none" d="M50.05 13.623h.7v.7h-.7z"/><path class="pin" fill="none" d="M50.4 14.323v14.4"/><path class="terminal" fill="none" d="M50.05 13.623h.7v.7h-.7z"/><path stroke-width=".7" class="pin" stroke-linecap="round" stroke="#787878" fill="none" d="M50.4 14.323v14.4"/><text stroke-width="0" class="text" text-anchor="end" font-size="3.5" font-family="'Droid Sans'" fill="#8c8c8c" transform="rotate(-90 40.611 -10.488)">5V</text><path stroke-width=".7" class="pin" stroke-linecap="round" stroke="#787878" fill="none" d="M64.8 14.323v14.4"/><text stroke-width="0" class="text" text-anchor="end" font-size="3.5" font-family="'Droid Sans'" fill="#8c8c8c" transform="rotate(-90 47.811 -17.688)">VIN</text><text stroke-width="0" class="text" text-anchor="middle" font-size="4.25" x="54.45" y="76.45" font-family="'Droid Sans'" transform="translate(0 13.973)">Arduino</text><text stroke-width="0" class="text" text-anchor="middle" font-size="4.25" x="54.45" y="80.983" font-family="'Droid Sans'" transform="translate(0 13.973)">Uno</text><text stroke-width="0" class="text" text-anchor="middle" font-size="4.25" x="54.45" y="85.517" font-family="'Droid Sans'" transform="translate(0 13.973)">(Rev3)</text></g><g><path stroke-width=".75" stroke-miterlimit="10" stroke-linecap="round" stroke="#787878" fill="none" d="M180.019 49.98v7.2"/><path stroke-width=".9" d="M173.269 49.764h13.5" stroke-linecap="round" stroke="#000" fill="none"/><text font-size="4.499" font-family="'DroidSans'" transform="translate(174.317 48.188)">5V</text></g><g><path stroke-width=".75" stroke-miterlimit="10" stroke-linecap="round" stroke="#787878" fill="none" d="M50.419 6.78v7.2"/><path stroke-width=".9" d="M43.669 6.564h13.5" stroke-linecap="round" stroke="#000" fill="none"/><text font-size="4.499" font-family="'DroidSans'" transform="translate(44.717 4.988)">5V</text></g><g><text xmlns="http://www.w3.org/2000/svg" x=".48" font-size="4.8" y="5.28" font-family="Droid Sans" transform="rotate(180 63.042 59.188)">Pin 10</text></g><g><text xmlns="http://www.w3.org/2000/svg" x=".48" font-size="4.8" y="5.28" font-family="Droid Sans" transform="rotate(180 63.042 62.788)">Pin 11</text></g><g><text xmlns="http://www.w3.org/2000/svg" x=".48" font-size="4.8" y="5.28" font-family="Droid Sans" transform="rotate(180 61.542 55.588)">Pin 9</text></g><g><text xmlns="http://www.w3.org/2000/svg" x=".48" font-size="4.8" y="5.28" font-family="Droid Sans" transform="translate(161.916 118.369)">Pin 10</text></g><g><text xmlns="http://www.w3.org/2000/svg" x=".48" font-size="4.8" y="5.28" font-family="Droid Sans" transform="translate(147.516 111.169)">Pin 11</text></g><g><text xmlns="http://www.w3.org/2000/svg" x=".48" font-size="4.8" y="5.28" font-family="Droid Sans" transform="translate(179.316 125.569)">Pin 9</text></g><g><path stroke-linecap="round" stroke="#404040" stroke-width=".7" d="M165.6 85.973h-.138"/></g><g><path stroke-linecap="round" stroke="#404040" stroke-width=".7" d="M165.6 114.773"/></g><g><path stroke-linecap="round" stroke="#404040" stroke-width=".7" d="M180 121.973v-7.2"/></g><g><path stroke-linecap="round" stroke="#404040" stroke-width=".7" d="M180 85.973h-.101"/></g><g><path stroke-linecap="round" stroke="#404040" stroke-width=".7" d="M194.4 85.973"/></g><g><path stroke-linecap="round" stroke="#404040" stroke-width=".7" d="M194.4 129.173v-14.4"/></g><g><path stroke-linecap="round" stroke="#404040" stroke-width=".7" d="M108 107.573"/></g><g><path stroke-linecap="round" stroke="#404040" stroke-width=".7" d="M108 114.773"/></g><g><path stroke-linecap="round" stroke="#404040" stroke-width=".7" d="M108 121.973"/></g><g><path stroke-linecap="round" stroke="#404040" stroke-width=".7" d="M57.6 179.573v-7.2"/></g><g><path stroke-linecap="round" stroke="#404040" stroke-width=".7" d="M50.4 13.973"/></g><g><path stroke-linecap="round" stroke="#404040" stroke-width=".7" d="M180 57.173l-.059 1.633"/></g><g><text y="3.75" transform="rotate(90 41.467 134.972)" font-size="5" font-family="'DroidSans'">560Ω</text></g><g><text y="3.75" transform="rotate(90 34.28 127.696)" font-size="5" font-family="'DroidSans'">560Ω</text></g><g><text y="3.75" transform="rotate(90 48.605 142.183)" font-size="5" font-family="'DroidSans'">560Ω</text></g><g><text y="3.75" transform="translate(139.317 77.377)" font-size="5" font-family="'DroidSans'">RGB LED</text></g></svg>