<svg xmlns="http://www.w3.org/2000/svg" version="1.2" baseProfile="tiny" width="377.334" height="258.656" viewBox="0 0 283.001 193.992"><path stroke="#000" stroke-linecap="round" stroke-width=".9" fill="#FFF" class="interior rect" d="M14.85 28.823h78.3v135.9h-78.3z"/><path stroke="#787878" stroke-linecap="round" stroke-width=".7" fill="none" class="pin" d="M93.25 42.773h14.4"/><text font-size="3.5" text-anchor="end" stroke-width="0" fill="#8c8c8c" x="91.85" font-family="'Droid Sans'" y="29.5" class="text" transform="translate(0 13.973)">D0/RX</text><path stroke="#787878" stroke-linecap="round" stroke-width=".7" fill="none" class="pin" d="M93.25 49.973h14.4"/><text font-size="3.5" text-anchor="end" stroke-width="0" fill="#8c8c8c" x="91.85" font-family="'Droid Sans'" y="36.7" class="text" transform="translate(0 13.973)">D1/TX</text><path stroke="#787878" stroke-linecap="round" stroke-width=".7" fill="none" class="pin" d="M93.25 57.173h14.4"/><text font-size="3.5" text-anchor="end" stroke-width="0" fill="#8c8c8c" x="91.85" font-family="'Droid Sans'" y="43.9" class="text" transform="translate(0 13.973)">D2</text><path stroke="#787878" stroke-linecap="round" stroke-width=".7" fill="none" class="pin" d="M93.25 64.373h14.4"/><text font-size="3.5" text-anchor="end" stroke-width="0" fill="#8c8c8c" x="91.85" font-family="'Droid Sans'" y="51.1" class="text" transform="translate(0 13.973)">D3 PWM</text><path stroke="#787878" stroke-linecap="round" stroke-width=".7" fill="none" class="pin" d="M93.25 71.573h14.4"/><text font-size="3.5" text-anchor="end" stroke-width="0" fill="#8c8c8c" x="91.85" font-family="'Droid Sans'" y="58.3" class="text" transform="translate(0 13.973)">D4</text><path stroke="#787878" stroke-linecap="round" stroke-width=".7" fill="none" class="pin" d="M93.25 78.773h14.4"/><text font-size="3.5" text-anchor="end" stroke-width="0" fill="#8c8c8c" x="91.85" font-family="'Droid Sans'" y="65.5" class="text" transform="translate(0 13.973)">D5 PWM</text><path stroke="#787878" stroke-linecap="round" stroke-width=".7" fill="none" class="pin" d="M93.25 85.973h14.4"/><text font-size="3.5" text-anchor="end" stroke-width="0" fill="#8c8c8c" x="91.85" font-family="'Droid Sans'" y="72.7" class="text" transform="translate(0 13.973)">D6 PWM</text><path stroke="#787878" stroke-linecap="round" stroke-width=".7" fill="none" class="pin" d="M93.25 93.173h14.4"/><text font-size="3.5" text-anchor="end" stroke-width="0" fill="#8c8c8c" x="91.85" font-family="'Droid Sans'" y="79.9" class="text" transform="translate(0 13.973)">D7</text><path stroke="#787878" stroke-linecap="round" stroke-width=".7" fill="none" class="pin" d="M93.25 100.373h14.4"/><text font-size="3.5" text-anchor="end" stroke-width="0" fill="#8c8c8c" x="91.85" font-family="'Droid Sans'" y="87.1" class="text" transform="translate(0 13.973)">D8</text><path stroke="#787878" stroke-linecap="round" stroke-width=".7" fill="none" class="pin" d="M93.25 107.573h14.4"/><text font-size="3.5" text-anchor="end" stroke-width="0" fill="#8c8c8c" x="91.85" font-family="'Droid Sans'" y="94.3" class="text" transform="translate(0 13.973)">D9 PWM</text><path stroke="#787878" stroke-linecap="round" stroke-width=".7" fill="none" class="pin" d="M93.25 114.773h14.4"/><text font-size="3.5" text-anchor="end" stroke-width="0" fill="#8c8c8c" x="91.85" font-family="'Droid Sans'" y="101.5" class="text" transform="translate(0 13.973)">D10 PWM/SS</text><path stroke="#787878" stroke-linecap="round" stroke-width=".7" fill="none" class="pin" d="M93.25 121.973h14.4"/><text font-size="3.5" text-anchor="end" stroke-width="0" fill="#8c8c8c" x="91.85" font-family="'Droid Sans'" y="108.7" class="text" transform="translate(0 13.973)">D11 PWM/MOSI</text><path stroke="#787878" stroke-linecap="round" stroke-width=".7" fill="none" class="pin" d="M93.25 129.173h14.4"/><text font-size="3.5" text-anchor="end" stroke-width="0" fill="#8c8c8c" x="91.85" font-family="'Droid Sans'" y="115.9" class="text" transform="translate(0 13.973)">D12/MISO</text><path fill="none" class="pin" d="M93.25 136.373h14.4"/><path fill="none" class="terminal" d="M107.65 136.023h.7v.7h-.7z"/><path stroke="#787878" stroke-linecap="round" stroke-width=".7" fill="none" class="pin" d="M93.25 136.373h14.4"/><text font-size="3.5" text-anchor="end" stroke-width="0" fill="#8c8c8c" x="91.85" font-family="'Droid Sans'" y="123.1" class="text" transform="translate(0 13.973)">D13/SCK</text><path fill="none" class="pin" d="M.35 42.773h14.4"/><path fill="none" class="terminal" d="M-.35 42.423h.7v.7h-.7z"/><path stroke="#787878" stroke-linecap="round" stroke-width=".7" fill="none" class="pin" d="M.35 42.773h14.4"/><text font-size="3.5" stroke-width="0" fill="#8c8c8c" x="16.15" font-family="'Droid Sans'" y="29.5" class="text" transform="translate(0 13.973)">RESET</text><path stroke="#787878" stroke-linecap="round" stroke-width=".7" fill="none" class="pin" d="M.35 49.973h14.4"/><text font-size="3.5" stroke-width="0" fill="#8c8c8c" x="16.15" font-family="'Droid Sans'" y="36.7" class="text" transform="translate(0 13.973)">RESET2</text><path fill="none" class="terminal" d="M-.35 49.623h.7v.7h-.7z"/><path stroke="#787878" stroke-linecap="round" stroke-width=".7" fill="none" class="pin" d="M.35 57.173h14.4"/><text font-size="3.5" stroke-width="0" fill="#8c8c8c" x="16.15" font-family="'Droid Sans'" y="43.9" class="text" transform="translate(0 13.973)">AREF</text><path stroke="#787878" stroke-linecap="round" stroke-width=".7" fill="none" class="pin" d="M.35 64.373h14.4"/><text font-size="3.5" stroke-width="0" fill="#8c8c8c" x="16.15" font-family="'Droid Sans'" y="51.1" class="text" transform="translate(0 13.973)">ioref</text><path stroke="#787878" stroke-linecap="round" stroke-width=".7" fill="none" class="pin" d="M.35 78.773h14.4"/><text font-size="3.5" stroke-width="0" fill="#8c8c8c" x="16.15" font-family="'Droid Sans'" y="65.5" class="text" transform="translate(0 13.973)">A0</text><path stroke="#787878" stroke-linecap="round" stroke-width=".7" fill="none" class="pin" d="M.35 85.973h14.4"/><text font-size="3.5" stroke-width="0" fill="#8c8c8c" x="16.15" font-family="'Droid Sans'" y="72.7" class="text" transform="translate(0 13.973)">A1</text><path stroke="#787878" stroke-linecap="round" stroke-width=".7" fill="none" class="pin" d="M.35 93.173h14.4"/><text font-size="3.5" stroke-width="0" fill="#8c8c8c" x="16.15" font-family="'Droid Sans'" y="79.9" class="text" transform="translate(0 13.973)">A2</text><path stroke="#787878" stroke-linecap="round" stroke-width=".7" fill="none" class="pin" d="M.35 100.373h14.4"/><text font-size="3.5" stroke-width="0" fill="#8c8c8c" x="16.15" font-family="'Droid Sans'" y="87.1" class="text" transform="translate(0 13.973)">A3</text><path fill="none" class="pin" d="M.35 107.573h14.4"/><path fill="none" class="terminal" d="M-.35 107.223h.7v.7h-.7z"/><path fill="none" class="pin" d="M.35 107.573h14.4"/><path fill="none" class="terminal" d="M-.35 107.223h.7v.7h-.7z"/><path fill="none" class="pin" d="M.35 107.573h14.4M.35 107.573h14.4"/><path fill="none" class="terminal" d="M-.35 107.223h.7v.7h-.7z"/><path fill="none" class="pin" d="M.35 107.573h14.4"/><path fill="none" class="terminal" d="M-.35 107.223h.7v.7h-.7z"/><path fill="none" class="pin" d="M.35 107.573h14.4"/><path fill="none" class="terminal" d="M-.35 107.223h.7v.7h-.7z"/><path stroke="#787878" stroke-linecap="round" stroke-width=".7" fill="none" class="pin" d="M.35 107.573h14.4"/><text font-size="3.5" stroke-width="0" fill="#8c8c8c" x="16.15" font-family="'Droid Sans'" y="94.3" class="text" transform="translate(0 13.973)">A4/SDA</text><path fill="none" class="pin" d="M.35 114.773h14.4"/><path stroke="#787878" stroke-linecap="round" stroke-width=".7" fill="none" class="pin" d="M.35 114.773h14.4"/><text font-size="3.5" stroke-width="0" fill="#8c8c8c" x="16.15" font-family="'Droid Sans'" y="101.5" class="text" transform="translate(0 13.973)">A5/SCL</text><path stroke="#787878" stroke-linecap="round" stroke-width=".7" fill="none" class="pin" d="M.35 150.773h14.4"/><text font-size="3.5" stroke-width="0" fill="#8c8c8c" x="16.15" font-family="'Droid Sans'" y="137.5" class="text" transform="translate(0 13.973)">N/C</text><path fill="none" class="pin" d="M57.6 164.823v14.4M57.6 164.823v14.4M57.6 164.823v14.4"/><path fill="none" class="terminal" d="M57.25 179.223h.7v.7h-.7z"/><path fill="none" class="pin" d="M57.6 164.823v14.4"/><path fill="none" class="terminal" d="M57.25 179.223h.7v.7h-.7z"/><path stroke="#787878" stroke-linecap="round" stroke-width=".7" fill="none" class="pin" d="M57.6 164.823v14.4"/><text font-size="3.5" stroke-width="0" fill="#8c8c8c" font-family="'Droid Sans'" class="text" transform="rotate(-90 110.861 52.562)">GND</text><path stroke="#787878" stroke-linecap="round" stroke-width=".7" fill="none" class="pin" d="M36 14.323v14.4"/><text font-size="3.5" text-anchor="end" stroke-width="0" fill="#8c8c8c" font-family="'Droid Sans'" class="text" transform="rotate(-90 33.411 -3.288)">3V3</text><path fill="none" class="pin" d="M50.4 14.323v14.4"/><path fill="none" class="terminal" d="M50.05 13.623h.7v.7h-.7z"/><path fill="none" class="pin" d="M50.4 14.323v14.4"/><path fill="none" class="terminal" d="M50.05 13.623h.7v.7h-.7z"/><path stroke="#787878" stroke-linecap="round" stroke-width=".7" fill="none" class="pin" d="M50.4 14.323v14.4"/><text font-size="3.5" text-anchor="end" stroke-width="0" fill="#8c8c8c" font-family="'Droid Sans'" class="text" transform="rotate(-90 40.611 -10.488)">5V</text><path stroke="#787878" stroke-linecap="round" stroke-width=".7" fill="none" class="pin" d="M64.8 14.323v14.4"/><text font-size="3.5" text-anchor="end" stroke-width="0" fill="#8c8c8c" font-family="'Droid Sans'" class="text" transform="rotate(-90 47.812 -17.688)">VIN</text><text font-size="4.25" text-anchor="middle" stroke-width="0" x="54.45" font-family="'Droid Sans'" y="76.45" class="text" transform="translate(0 13.973)">Arduino</text><text font-size="4.25" text-anchor="middle" stroke-width="0" x="54.45" font-family="'Droid Sans'" y="80.983" class="text" transform="translate(0 13.973)">Uno</text><text font-size="4.25" text-anchor="middle" stroke-width="0" x="54.45" font-family="'Droid Sans'" y="85.517" class="text" transform="translate(0 13.973)">(Rev3)</text><g><path stroke="#000" stroke-linecap="round" stroke-width=".7" fill="none" d="M169.199 172.373H165.6M165.6 172.373h-3.601"/><path stroke="#000" stroke-linecap="round" stroke-width=".7" fill="#FFF" d="M165.6 172.373l-3.601-7.2h7.2z"/><path stroke="#000" stroke-linecap="round" stroke-width=".45" fill="none" d="M165.6 165.173v7.2"/><path stroke="#787878" stroke-linecap="round" stroke-width=".7" fill="none" d="M165.6 179.572v-7.199"/><text font-size="2" fill="#787878" font-family="'Droid Sans'" transform="rotate(-90 170.74 6.073)">2</text><path stroke="#787878" stroke-linecap="round" stroke-width=".7" fill="none" d="M165.6 157.972v7.201"/><text font-size="2" fill="#787878" font-family="'Droid Sans'" transform="rotate(-90 163.54 -1.128)">1</text></g><g><g xmlns="http://www.w3.org/2000/svg"><path xmlns="http://www.w3.org/2000/svg" stroke="#000" stroke-linecap="round" stroke-width=".432" class="other" d="M194.4 129.173l-2.88-1.08M191.52 128.093l5.76-1.8M197.28 126.293l-5.76-1.8M191.52 124.493l5.76-1.8M197.28 122.693l-5.76-1.8M191.52 120.893l5.76-1.8M197.28 119.093l-5.76-1.8M191.52 117.293l5.76-1.8M197.28 115.493l-2.88-.72"/><path xmlns="http://www.w3.org/2000/svg" stroke="#787878" stroke-linecap="round" stroke-width=".7" class="pin" d="M194.4 107.573v7.2"/><text font-size="2.5" xmlns="http://www.w3.org/2000/svg" text-anchor="middle" stroke-width="0" fill="#8c8c8c" x="25.55" font-family="'Droid Sans'" y="2.046" class="text" transform="rotate(-90 164.014 -27.29)">2</text><path xmlns="http://www.w3.org/2000/svg" stroke="#787878" stroke-linecap="round" stroke-width=".7" class="pin" d="M194.4 136.373v-7.2"/><text font-size="2.5" xmlns="http://www.w3.org/2000/svg" text-anchor="middle" stroke-width="0" fill="#8c8c8c" x="3.95" font-family="'Droid Sans'" y="2.046" class="text" transform="rotate(-90 164.014 -27.29)">1</text></g></g><g><g transform="rotate(180 93.052 93.66)"><path stroke="#000" stroke-width=".9" fill="#FFF" d="M11.88 14.75a5.753 5.753 0 0 0-2.973-5.04h.813V3.95h-7.2v5.76h.813a5.758 5.758 0 0 0 0 10.08H2.52v5.761h7.2V19.79h-.814a5.755 5.755 0 0 0 2.974-5.04z"/><text font-size="4.25" font-family="'DroidSans'" transform="translate(4.32 16.275)">M</text><path stroke="#000" stroke-linecap="round" stroke-width=".9" fill="none" d="M2.52 3.95v5.76M2.52 3.95h3.6M6.12 3.95h3.6M9.72 3.95v5.76M9.72 25.551V19.79M9.72 25.551h-3.6M6.12 25.551h-3.6M2.52 25.551V19.79"/><path stroke-miterlimit="10" stroke="#8C8C8C" stroke-linecap="round" stroke-width=".75" fill="none" d="M6.12.35v3.6M6.12 29.15v-3.599"/><circle stroke="#000" r="5.76" stroke-width=".9" fill="none" cx="6.12" cy="14.75"/><text font-size="2.5" fill="#8C8C8C" font-family="'DroidSans'" transform="translate(7.244 2.635)">1</text><text font-size="3.5" fill="#787878" font-family="'DroidSans'" transform="translate(5.152 7.39)">+</text><text font-size="2.5" fill="#8C8C8C" font-family="'DroidSans'" transform="translate(7.244 28.516)">2</text><text font-size="3.5" fill="#787878" font-family="'DroidSans'" transform="translate(5.432 24.125)">-</text></g></g><g><g xmlns="http://www.w3.org/2000/svg" fill="none"><path xmlns="http://www.w3.org/2000/svg" stroke="#787878" stroke-linecap="round" stroke-width=".75" d="M57.6 186.671v-7.2"/><path xmlns="http://www.w3.org/2000/svg" stroke="#000" stroke-linecap="round" stroke-width=".9" d="M50.9 186.807h13.4M53.132 189.552h8.935M59.83 192.271h-4.463"/></g></g><g><g xmlns="http://www.w3.org/2000/svg" fill="none"><path xmlns="http://www.w3.org/2000/svg" stroke="#787878" stroke-linecap="round" stroke-width=".75" d="M208.801 157.872v-7.2"/><path xmlns="http://www.w3.org/2000/svg" stroke="#000" stroke-linecap="round" stroke-width=".9" d="M202.1 158.008h13.4M204.332 160.753h8.935M211.031 163.472h-4.464"/></g></g><g><g xmlns="http://www.w3.org/2000/svg" fill="none"><path xmlns="http://www.w3.org/2000/svg" stroke="#787878" stroke-linecap="round" stroke-width=".75" d="M252 186.671v-7.2"/><path xmlns="http://www.w3.org/2000/svg" stroke="#000" stroke-linecap="round" stroke-width=".9" d="M245.299 186.807h13.4M247.531 189.552h8.935M254.23 192.271h-4.464"/></g></g><g><path stroke-miterlimit="10" stroke="#787878" stroke-linecap="round" stroke-width=".75" fill="none" d="M194.393 186.791h-7.2"/><path stroke="#000" stroke-linecap="round" stroke-width=".9" fill="none" d="M194.609 180.041v13.5"/><text font-size="4.499" font-family="'DroidSans'" transform="rotate(90 7.548 188.637)">5V</text></g><g><path stroke-miterlimit="10" stroke="#787878" stroke-linecap="round" stroke-width=".75" fill="none" d="M252.018 136.38v7.2"/><path stroke="#000" stroke-linecap="round" stroke-width=".9" fill="none" d="M245.268 136.164h13.5"/><text font-size="4.499" font-family="'DroidSans'" transform="translate(246.317 134.588)">5V</text></g><g><path stroke-miterlimit="10" stroke="#787878" stroke-linecap="round" stroke-width=".75" fill="none" d="M50.419 6.78v7.2"/><path stroke="#000" stroke-linecap="round" stroke-width=".9" fill="none" d="M43.669 6.564h13.5"/><text font-size="4.499" font-family="'DroidSans'" transform="translate(44.717 4.988)">5V</text></g><g><g xmlns="http://www.w3.org/2000/svg"><path xmlns="http://www.w3.org/2000/svg" fill="none" d="M183.624 103.938h3.6v7.2h-3.6z"/><path xmlns="http://www.w3.org/2000/svg" stroke="#000" stroke-width=".24" fill="#fff" d="M187.111 107.538l-3.48-3.48h-11.36v6.96h11.36z"/></g></g><g><g xmlns="http://www.w3.org/2000/svg"><path xmlns="http://www.w3.org/2000/svg" fill="none" d="M111.611 111.177h-3.6v-7.2h3.6z"/><path xmlns="http://www.w3.org/2000/svg" stroke="#000" stroke-width=".24" fill="#fff" d="M108.124 107.577l3.48 3.48h11.36v-6.96h-11.36z"/></g></g><g><path stroke="#000" stroke-linecap="round" stroke-width=".432" class="other" d="M187.235 150.741l2.88-5.76M198.755 148.581l2.88 2.16M201.635 150.741v-3.6M201.635 147.141l-2.88 1.44M200.218 147.906l-1.746-3.492"/><path stroke="#000" stroke-linecap="round" stroke-width=".72" class="other" d="M201.275 147.861v2.16M201.275 150.021l-1.8-1.44M199.475 148.581l1.44-.72M200.915 147.861v1.08M200.915 148.941l-.72-.36"/><path class="other" d="M187.235 142.821v2.16h14.4v-2.16z"/><path stroke="#787878" stroke-linecap="round" stroke-width=".7" class="pin" d="M194.435 136.341v7.2"/><text font-size="2.5" text-anchor="middle" stroke-width="0" fill="#8c8c8c" x="3.95" font-family="'Droid Sans'" y="13.7" class="text" transform="matrix(0 1 1 0 179.685 135.991)">1</text><path stroke="#787878" stroke-linecap="round" stroke-width=".7" class="pin" d="M208.835 150.741h-7.2"/><text font-size="2.5" text-anchor="middle" stroke-width="0" fill="#8c8c8c" font-family="'Droid Sans'" class="text" transform="matrix(-1 0 0 1 205.235 149.691)">2</text><path stroke="#787878" stroke-linecap="round" stroke-width=".7" class="pin" d="M180.035 150.741h7.2"/><text font-size="2.5" text-anchor="middle" stroke-width="0" fill="#8c8c8c" font-family="'Droid Sans'" class="text" transform="matrix(-1 0 0 1 183.635 149.691)">3</text></g><g><path stroke="#000" stroke-linecap="round" stroke-width=".72" class="other" d="M244.8 157.973h14.4"/><path stroke="#000" stroke-linecap="round" stroke-width=".432" class="other" d="M252 160.853v4.32"/><path stroke="#000" stroke-width=".72" fill="none" d="M252 160.808a11.492 11.492 0 0 1 7.056 2.421M245.007 163.218a11.52 11.52 0 0 1 6.993-2.365" class="other"/><path class="other" d="M245.614 155.719h2.52v.36h-2.52z"/><path class="other" d="M246.694 154.639h.36v2.52h-.36z"/><path stroke="#787878" stroke-linecap="round" stroke-width=".7" class="pin" d="M252 150.773v7.2"/><text font-size="2.5" text-anchor="middle" stroke-width="0" fill="#8c8c8c" font-family="'Droid Sans'" class="text" transform="rotate(-90 202.661 -48.288)">2</text><path stroke="#787878" stroke-linecap="round" stroke-width=".7" class="pin" d="M252 172.373v-7.2"/><text font-size="2.5" text-anchor="middle" stroke-width="0" fill="#8c8c8c" font-family="'Droid Sans'" class="text" transform="rotate(-90 209.861 -41.088)">1</text></g><g><text xmlns="http://www.w3.org/2000/svg" font-size="4.8" x=".48" y="5.28" font-family="Droid Sans" transform="translate(172.151 103.938)">pin 9</text></g><g><text xmlns="http://www.w3.org/2000/svg" font-size="4.8" font-family="Droid Sans" transform="translate(111.384 109.177)">pin 9</text></g><g><path stroke-linecap="round" stroke="#404040" stroke-width=".7" d="M108 107.573"/></g><g><path stroke-linecap="round" stroke="#404040" stroke-width=".7" d="M208.8 150.773l.035-.031"/></g><g><path stroke-linecap="round" stroke="#404040" stroke-width=".7" d="M57.6 179.573"/></g><g><path stroke-linecap="round" stroke="#404040" stroke-width=".7" d="M50.4 13.973"/></g><g><path stroke-linecap="round" stroke="#404040" stroke-width=".7" d="M194.4 136.373l.035-.031"/></g><g><path stroke-linecap="round" stroke="#404040" stroke-width=".7" d="M187.235 107.542l7.165.031"/></g><g><path stroke-linecap="round" stroke="#404040" stroke-width=".7" d="M180.035 150.742l-.051 7.57"/></g><circle cx="179.984" cy="158.312" r="1.44"/><g><path stroke-linecap="round" stroke="#404040" stroke-width=".7" d="M179.984 158.312l-14.384-.339"/></g><circle cx="179.984" cy="158.312" r="1.44"/><g><path stroke-linecap="round" stroke="#404040" stroke-width=".7" d="M165.472 186.645l.128-7.072"/></g><g><path stroke-linecap="round" stroke="#404040" stroke-width=".7" d="M180 186.773l-14.528-.128"/></g><circle cx="180" cy="186.773" r="1.44"/><g><path stroke-linecap="round" stroke="#404040" stroke-width=".7" d="M180 186.773h7.2"/></g><circle cx="180" cy="186.773" r="1.44"/><g><path stroke-linecap="round" stroke="#404040" stroke-width=".7" d="M252 179.573v-7.2"/></g><g><path stroke-linecap="round" stroke="#404040" stroke-width=".7" d="M252 143.573v7.2"/></g><g><g font-size="5" font-family="'DroidSans'"><text y="3.75" transform="translate(170.836 117.015)">resistor<tspan font-size="5.5" x="2" y="-14">Arduino</tspan></text><text y="8.75" transform="translate(170.836 117.015)">2.2kΩ</text></g></g><g><text y="3.75" transform="translate(158.304 152.835)" font-size="5" font-family="'DroidSans'">Diode</text></g><g><text y="3.75" transform="translate(183.949 157.99)" font-size="5" font-family="'DroidSans'">Motor<tspan font-size="3.9" x="-16" y="-8.2">Collector</tspan><tspan font-size="3.9" x="12" y="-16.1">Base</tspan><tspan font-size="3.9" x="19" y="-8.2">Emitter</tspan></text></g><g><text y="3.75" transform="translate(199.565 165.018)" font-size="5" font-family="'DroidSans'">gnd<tspan font-size="4" x="0" y="9.25">(ground) (-)</tspan></text></g><g><g font-size="5" font-family="'DroidSans'"><text y="3.75" transform="translate(157.164 131.87)">Transistor</text><text y="8.75" transform="translate(157.164 131.87)">P2N2222AG</text></g></g><g><g font-size="5" font-family="'DroidSans'"><text y="3.75" transform="translate(260.601 153.533)">C1</text><text y="8.75" transform="translate(260.601 153.533)">0.22mF</text><text y="13.75" transform="translate(260.601 153.533)">16V</text></g></g></svg>