<svg xmlns="http://www.w3.org/2000/svg" version="1.2" width="308.713" height="258.052" viewBox="0 0 231.535 193.539"><path stroke-linecap="round" stroke-width=".432" class="other" stroke="#000" d="M223.2 121.973l-1.08 2.88M222.12 124.853l-1.8-5.76M220.32 119.093l-1.8 5.76M218.52 124.853l-1.8-5.76M216.72 119.093l-1.8 5.76M214.92 124.853l-1.8-5.76M213.12 119.093l-1.8 5.76M211.32 124.853l-1.8-5.76M209.52 119.093l-.72 2.88"/><path stroke-linecap="round" stroke-width=".7" class="pin" stroke="#787878" d="M201.6 121.973h7.2"/><text x="25.55" text-anchor="middle" y="2.046" stroke-width="0" class="text" font-family="'Droid Sans'" font-size="2.5" fill="#8c8c8c" transform="rotate(180 115.375 62.535)">2</text><path stroke-linecap="round" stroke-width=".7" class="pin" stroke="#787878" d="M230.4 121.973h-7.2"/><text x="3.95" text-anchor="middle" y="2.046" stroke-width="0" class="text" font-family="'Droid Sans'" font-size="2.5" fill="#8c8c8c" transform="rotate(180 115.375 62.535)">1</text><path stroke-linecap="round" stroke-width=".432" class="other" stroke="#000" d="M180 121.973l1.08-2.88M181.08 119.093l1.8 5.76M182.88 124.853l1.8-5.76M184.68 119.093l1.8 5.76M186.48 124.853l1.8-5.76M188.28 119.093l1.8 5.76M190.08 124.853l1.8-5.76M191.88 119.093l1.8 5.76M193.68 124.853l.72-2.88"/><path stroke-linecap="round" stroke-width=".7" class="pin" stroke="#787878" d="M201.6 121.973h-7.2"/><text x="25.55" text-anchor="middle" y="2.046" stroke-width="0" class="text" font-family="'Droid Sans'" font-size="2.5" fill="#8c8c8c" transform="translate(172.45 118.877)">2</text><path stroke-linecap="round" stroke-width=".7" class="pin" stroke="#787878" d="M172.8 121.973h7.2"/><text x="3.95" text-anchor="middle" y="2.046" stroke-width="0" class="text" font-family="'Droid Sans'" font-size="2.5" fill="#8c8c8c" transform="translate(172.45 118.877)">1</text><path stroke-linecap="round" stroke-width=".9" class="interior rect" stroke="#000" fill="#FFF" d="M14.85 28.823h78.3v135.9h-78.3z"/><path stroke-linecap="round" stroke-width=".7" class="pin" stroke="#787878" fill="none" d="M93.25 42.773h14.4"/><text x="91.85" text-anchor="end" y="29.5" stroke-width="0" class="text" font-family="'Droid Sans'" font-size="3.5" fill="#8c8c8c" transform="translate(0 13.973)">D0/RX</text><path stroke-linecap="round" stroke-width=".7" class="pin" stroke="#787878" fill="none" d="M93.25 49.973h14.4"/><text x="91.85" text-anchor="end" y="36.7" stroke-width="0" class="text" font-family="'Droid Sans'" font-size="3.5" fill="#8c8c8c" transform="translate(0 13.973)">D1/TX</text><path stroke-linecap="round" stroke-width=".7" class="pin" stroke="#787878" fill="none" d="M93.25 57.173h14.4"/><text x="91.85" text-anchor="end" y="43.9" stroke-width="0" class="text" font-family="'Droid Sans'" font-size="3.5" fill="#8c8c8c" transform="translate(0 13.973)">D2</text><path stroke-linecap="round" stroke-width=".7" class="pin" stroke="#787878" fill="none" d="M93.25 64.373h14.4"/><text x="91.85" text-anchor="end" y="51.1" stroke-width="0" class="text" font-family="'Droid Sans'" font-size="3.5" fill="#8c8c8c" transform="translate(0 13.973)">D3 PWM</text><path stroke-linecap="round" stroke-width=".7" class="pin" stroke="#787878" fill="none" d="M93.25 71.573h14.4"/><text x="91.85" text-anchor="end" y="58.3" stroke-width="0" class="text" font-family="'Droid Sans'" font-size="3.5" fill="#8c8c8c" transform="translate(0 13.973)">D4</text><path stroke-linecap="round" stroke-width=".7" class="pin" stroke="#787878" fill="none" d="M93.25 78.773h14.4"/><text x="91.85" text-anchor="end" y="65.5" stroke-width="0" class="text" font-family="'Droid Sans'" font-size="3.5" fill="#8c8c8c" transform="translate(0 13.973)">D5 PWM</text><path stroke-linecap="round" stroke-width=".7" class="pin" stroke="#787878" fill="none" d="M93.25 85.973h14.4"/><text x="91.85" text-anchor="end" y="72.7" stroke-width="0" class="text" font-family="'Droid Sans'" font-size="3.5" fill="#8c8c8c" transform="translate(0 13.973)">D6 PWM</text><path stroke-linecap="round" stroke-width=".7" class="pin" stroke="#787878" fill="none" d="M93.25 93.173h14.4"/><text x="91.85" text-anchor="end" y="79.9" stroke-width="0" class="text" font-family="'Droid Sans'" font-size="3.5" fill="#8c8c8c" transform="translate(0 13.973)">D7</text><path stroke-linecap="round" stroke-width=".7" class="pin" stroke="#787878" fill="none" d="M93.25 100.373h14.4"/><text x="91.85" text-anchor="end" y="87.1" stroke-width="0" class="text" font-family="'Droid Sans'" font-size="3.5" fill="#8c8c8c" transform="translate(0 13.973)">D8</text><path stroke-linecap="round" stroke-width=".7" class="pin" stroke="#787878" fill="none" d="M93.25 107.573h14.4"/><text x="91.85" text-anchor="end" y="94.3" stroke-width="0" class="text" font-family="'Droid Sans'" font-size="3.5" fill="#8c8c8c" transform="translate(0 13.973)">D9 PWM</text><path stroke-linecap="round" stroke-width=".7" class="pin" stroke="#787878" fill="none" d="M93.25 114.773h14.4"/><text x="91.85" text-anchor="end" y="101.5" stroke-width="0" class="text" font-family="'Droid Sans'" font-size="3.5" fill="#8c8c8c" transform="translate(0 13.973)">D10 PWM/SS</text><path stroke-linecap="round" stroke-width=".7" class="pin" stroke="#787878" fill="none" d="M93.25 121.973h14.4"/><text x="91.85" text-anchor="end" y="108.7" stroke-width="0" class="text" font-family="'Droid Sans'" font-size="3.5" fill="#8c8c8c" transform="translate(0 13.973)">D11 PWM/MOSI</text><path stroke-linecap="round" stroke-width=".7" class="pin" stroke="#787878" fill="none" d="M93.25 129.173h14.4"/><text x="91.85" text-anchor="end" y="115.9" stroke-width="0" class="text" font-family="'Droid Sans'" font-size="3.5" fill="#8c8c8c" transform="translate(0 13.973)">D12/MISO</text><path class="pin" fill="none" d="M93.25 136.373h14.4"/><path class="terminal" fill="none" d="M107.65 136.023h.7v.7h-.7z"/><path stroke-linecap="round" stroke-width=".7" class="pin" stroke="#787878" fill="none" d="M93.25 136.373h14.4"/><text x="91.85" text-anchor="end" y="123.1" stroke-width="0" class="text" font-family="'Droid Sans'" font-size="3.5" fill="#8c8c8c" transform="translate(0 13.973)">D13/SCK</text><path class="pin" fill="none" d="M.35 42.773h14.4"/><path class="terminal" fill="none" d="M-.35 42.423h.7v.7h-.7z"/><path stroke-linecap="round" stroke-width=".7" class="pin" stroke="#787878" fill="none" d="M.35 42.773h14.4"/><text x="16.15" y="29.5" stroke-width="0" class="text" font-family="'Droid Sans'" font-size="3.5" fill="#8c8c8c" transform="translate(0 13.973)">RESET</text><path stroke-linecap="round" stroke-width=".7" class="pin" stroke="#787878" fill="none" d="M.35 49.973h14.4"/><text x="16.15" y="36.7" stroke-width="0" class="text" font-family="'Droid Sans'" font-size="3.5" fill="#8c8c8c" transform="translate(0 13.973)">RESET2</text><path class="terminal" fill="none" d="M-.35 49.623h.7v.7h-.7z"/><path stroke-linecap="round" stroke-width=".7" class="pin" stroke="#787878" fill="none" d="M.35 57.173h14.4"/><text x="16.15" y="43.9" stroke-width="0" class="text" font-family="'Droid Sans'" font-size="3.5" fill="#8c8c8c" transform="translate(0 13.973)">AREF</text><path stroke-linecap="round" stroke-width=".7" class="pin" stroke="#787878" fill="none" d="M.35 64.373h14.4"/><text x="16.15" y="51.1" stroke-width="0" class="text" font-family="'Droid Sans'" font-size="3.5" fill="#8c8c8c" transform="translate(0 13.973)">ioref</text><path stroke-linecap="round" stroke-width=".7" class="pin" stroke="#787878" fill="none" d="M.35 78.773h14.4"/><text x="16.15" y="65.5" stroke-width="0" class="text" font-family="'Droid Sans'" font-size="3.5" fill="#8c8c8c" transform="translate(0 13.973)">A0</text><path stroke-linecap="round" stroke-width=".7" class="pin" stroke="#787878" fill="none" d="M.35 85.973h14.4"/><text x="16.15" y="72.7" stroke-width="0" class="text" font-family="'Droid Sans'" font-size="3.5" fill="#8c8c8c" transform="translate(0 13.973)">A1</text><path stroke-linecap="round" stroke-width=".7" class="pin" stroke="#787878" fill="none" d="M.35 93.173h14.4"/><text x="16.15" y="79.9" stroke-width="0" class="text" font-family="'Droid Sans'" font-size="3.5" fill="#8c8c8c" transform="translate(0 13.973)">A2</text><path stroke-linecap="round" stroke-width=".7" class="pin" stroke="#787878" fill="none" d="M.35 100.373h14.4"/><text x="16.15" y="87.1" stroke-width="0" class="text" font-family="'Droid Sans'" font-size="3.5" fill="#8c8c8c" transform="translate(0 13.973)">A3</text><path class="pin" fill="none" d="M.35 107.573h14.4"/><path class="terminal" fill="none" d="M-.35 107.223h.7v.7h-.7z"/><path class="pin" fill="none" d="M.35 107.573h14.4"/><path class="terminal" fill="none" d="M-.35 107.223h.7v.7h-.7z"/><path class="pin" fill="none" d="M.35 107.573h14.4M.35 107.573h14.4"/><path class="terminal" fill="none" d="M-.35 107.223h.7v.7h-.7z"/><path class="pin" fill="none" d="M.35 107.573h14.4"/><path class="terminal" fill="none" d="M-.35 107.223h.7v.7h-.7z"/><path class="pin" fill="none" d="M.35 107.573h14.4"/><path class="terminal" fill="none" d="M-.35 107.223h.7v.7h-.7z"/><path stroke-linecap="round" stroke-width=".7" class="pin" stroke="#787878" fill="none" d="M.35 107.573h14.4"/><text x="16.15" y="94.3" stroke-width="0" class="text" font-family="'Droid Sans'" font-size="3.5" fill="#8c8c8c" transform="translate(0 13.973)">A4/SDA</text><path class="pin" fill="none" d="M.35 114.773h14.4"/><path stroke-linecap="round" stroke-width=".7" class="pin" stroke="#787878" fill="none" d="M.35 114.773h14.4"/><text x="16.15" y="101.5" stroke-width="0" class="text" font-family="'Droid Sans'" font-size="3.5" fill="#8c8c8c" transform="translate(0 13.973)">A5/SCL</text><path stroke-linecap="round" stroke-width=".7" class="pin" stroke="#787878" fill="none" d="M.35 150.773h14.4"/><text x="16.15" y="137.5" stroke-width="0" class="text" font-family="'Droid Sans'" font-size="3.5" fill="#8c8c8c" transform="translate(0 13.973)">N/C</text><path class="pin" fill="none" d="M57.6 164.823v14.4M57.6 164.823v14.4M57.6 164.823v14.4"/><path class="terminal" fill="none" d="M57.25 179.223h.7v.7h-.7z"/><path class="pin" fill="none" d="M57.6 164.823v14.4"/><path class="terminal" fill="none" d="M57.25 179.223h.7v.7h-.7z"/><path stroke-linecap="round" stroke-width=".7" class="pin" stroke="#787878" fill="none" d="M57.6 164.823v14.4"/><text stroke-width="0" class="text" font-family="'Droid Sans'" font-size="3.5" fill="#8c8c8c" transform="rotate(-90 110.861 52.562)">GND</text><path stroke-linecap="round" stroke-width=".7" class="pin" stroke="#787878" fill="none" d="M36 14.323v14.4"/><text text-anchor="end" stroke-width="0" class="text" font-family="'Droid Sans'" font-size="3.5" fill="#8c8c8c" transform="rotate(-90 33.411 -3.288)">3V3</text><path class="pin" fill="none" d="M50.4 14.323v14.4"/><path class="terminal" fill="none" d="M50.05 13.623h.7v.7h-.7z"/><path class="pin" fill="none" d="M50.4 14.323v14.4"/><path class="terminal" fill="none" d="M50.05 13.623h.7v.7h-.7z"/><path stroke-linecap="round" stroke-width=".7" class="pin" stroke="#787878" fill="none" d="M50.4 14.323v14.4"/><text text-anchor="end" stroke-width="0" class="text" font-family="'Droid Sans'" font-size="3.5" fill="#8c8c8c" transform="rotate(-90 40.611 -10.488)">5V</text><path stroke-linecap="round" stroke-width=".7" class="pin" stroke="#787878" fill="none" d="M64.8 14.323v14.4"/><text text-anchor="end" stroke-width="0" class="text" font-family="'Droid Sans'" font-size="3.5" fill="#8c8c8c" transform="rotate(-90 47.811 -17.688)">VIN</text><text x="54.45" text-anchor="middle" y="76.45" stroke-width="0" class="text" font-family="'Droid Sans'" font-size="4.25" transform="translate(0 13.973)">Arduino</text><text x="54.45" text-anchor="middle" y="80.983" stroke-width="0" class="text" font-family="'Droid Sans'" font-size="4.25" transform="translate(0 13.973)">Uno</text><text x="54.45" text-anchor="middle" y="85.517" stroke-width="0" class="text" font-family="'Droid Sans'" font-size="4.25" transform="translate(0 13.973)">(Rev3)</text><g><path d="M140.401 129.522h3.6a.35.35 0 1 0 0-.7h-3.6a.35.35 0 1 0 0 .7z"/><path d="M144.001 129.522h3.6a.35.35 0 1 0 0-.7h-3.6a.35.35 0 1 0 0 .7z"/><path fill="#FFF" d="M144.001 129.172l3.6-7.2h-7.2z"/><path d="M144.001 129.954l4.166-8.332h-8.333l4.167 8.332zm3.034-7.632l-3.034 6.068-3.034-6.068h6.068z"/><path d="M144.001 129.397a.225.225 0 0 0 .225-.225v-7.2a.225.225 0 0 0-.45 0v7.2a.226.226 0 0 0 .225.225zM152.101 126.697a.225.225 0 0 0 .159-.383l-2.34-2.341a.225.225 0 1 0-.318.318l2.34 2.341a.222.222 0 0 0 .159.065zM151.741 129.937a.225.225 0 0 0 .159-.383l-2.34-2.34a.225.225 0 1 0-.318.318l2.34 2.34a.225.225 0 0 0 .159.065z"/><path d="M144.001 136.722a.35.35 0 0 0 .35-.35v-7.2a.35.35 0 1 0-.7 0v7.2a.35.35 0 0 0 .35.35z" fill="#787878"/><path fill="none" d="M144.001 136.372H144v.001h.001z"/><path d="M144.932 132.63v.89h.152l.372-.342c.053-.049.101-.093.145-.13s.086-.072.128-.1a.69.69 0 0 1 .125-.062.412.412 0 0 1 .24-.004c.03.012.054.027.075.047.02.021.035.045.046.073s.016.06.016.094a.363.363 0 0 1-.038.167.629.629 0 0 1-.096.143l.116.1a.671.671 0 0 0 .155-.29.59.59 0 0 0-.013-.29.359.359 0 0 0-.076-.129.325.325 0 0 0-.119-.082.485.485 0 0 0-.318-.002.765.765 0 0 0-.148.07 1.227 1.227 0 0 0-.146.11c-.049.04-.1.086-.152.135l-.294.274h-.008v-.673h-.162zM144.001 122.322a.35.35 0 0 0 .35-.35v-7.2a.35.35 0 1 0-.7 0v7.2c.001.193.157.35.35.35z" fill="#787878"/><path fill="none" d="M144.001 114.772H144z"/><path d="M144.932 118.518v.172h.982c.032 0 .063 0 .095-.002.032 0 .063-.002.092-.003l.076-.002-.03.03c-.009.008-.017.016-.024.025l-.025.028-.03.035-.118.145.12.094.292-.374v-.146h-1.43z" fill="#787878"/><path d="M153.721 128.092l-1.08-2.521-1.44 1.438 2.52 1.083z"/><g><path d="M153.361 131.332l-1.08-2.521-1.438 1.438 2.518 1.083z"/></g></g><g><path stroke-linecap="round" stroke-width=".432" class="other" stroke="#000" d="M144 150.773l2.88 1.08M146.88 151.853l-5.76 1.8M141.12 153.653l5.76 1.8M146.88 155.453l-5.76 1.8M141.12 157.253l5.76 1.8M146.88 159.053l-5.76 1.8M141.12 160.853l5.76 1.8M146.88 162.653l-5.76 1.8M141.12 164.453l2.88.72"/><path stroke-linecap="round" stroke-width=".7" class="pin" stroke="#787878" d="M144 172.373v-7.2"/><text x="25.55" text-anchor="middle" y="2.046" stroke-width="0" class="text" font-family="'Droid Sans'" font-size="2.5" fill="#8c8c8c" transform="rotate(90 1.936 145.16)">2</text><path stroke-linecap="round" stroke-width=".7" class="pin" stroke="#787878" d="M144 143.573v7.2"/><text x="3.95" text-anchor="middle" y="2.046" stroke-width="0" class="text" font-family="'Droid Sans'" font-size="2.5" fill="#8c8c8c" transform="rotate(90 1.936 145.16)">1</text></g><g><g transform="rotate(-90 170.335 1.494)"><path stroke-linecap="round" stroke-width=".7" stroke="#000" fill="none" d="M19.8 11.159h1.8M7.2 11.159l12.6-3.6"/><circle cx="7.2" cy="11.159" stroke-width=".7" stroke="#000" r=".36" fill="none"/><circle cx="21.6" cy="11.159" stroke-width=".7" stroke="#000" r=".36" fill="none"/><text font-family="'DroidSans'" font-size="2" fill="#787878" transform="translate(2.761 2.718)">1</text><text font-family="'DroidSans'" font-size="2" fill="#787878" transform="translate(24.604 2.718)">2</text><text font-family="'DroidSans'" font-size="2" fill="#787878" transform="translate(2.761 16.843)">1</text><text font-family="'DroidSans'" font-size="2" fill="#787878" transform="translate(24.604 16.843)">2</text><path stroke-linecap="round" stroke-width=".7" stroke="#000" fill="none" d="M21.6 3.96v14.399M7.2 3.96v14.399"/><path stroke-linecap="round" stroke-width=".7" stroke="#555" fill="none" d="M.322 18.359H7.2M.322 3.96H7.2M28.451 18.359H21.6M28.451 3.96H21.6"/></g></g><g><g transform="rotate(-90 191.935 -20.106)"><path stroke-linecap="round" stroke-width=".7" stroke="#000" fill="none" d="M19.8 11.159h1.8M7.2 11.159l12.6-3.6"/><circle cx="7.2" cy="11.159" stroke-width=".7" stroke="#000" r=".36" fill="none"/><circle cx="21.6" cy="11.159" stroke-width=".7" stroke="#000" r=".36" fill="none"/><text font-family="'DroidSans'" font-size="2" fill="#787878" transform="translate(2.761 2.718)">1</text><text font-family="'DroidSans'" font-size="2" fill="#787878" transform="translate(24.604 2.718)">2</text><text font-family="'DroidSans'" font-size="2" fill="#787878" transform="translate(2.761 16.843)">1</text><text font-family="'DroidSans'" font-size="2" fill="#787878" transform="translate(24.604 16.843)">2</text><path stroke-linecap="round" stroke-width=".7" stroke="#000" fill="none" d="M21.6 3.96v14.399M7.2 3.96v14.399"/><path stroke-linecap="round" stroke-width=".7" stroke="#555" fill="none" d="M.322 18.359H7.2M.322 3.96H7.2M28.451 18.359H21.6M28.451 3.96H21.6"/></g></g><g><g fill="none"><path stroke-linecap="round" stroke-width=".75" stroke="#787878" d="M57.6 186.671v-7.2"/><path stroke-linecap="round" stroke-width=".9" stroke="#000" d="M50.9 186.807h13.4M53.132 189.552h8.935M59.83 192.271h-4.463"/></g></g><g><g fill="none"><path stroke-linecap="round" stroke-width=".75" stroke="#787878" d="M144 186.671v-7.2"/><path stroke-linecap="round" stroke-width=".9" stroke="#000" d="M137.299 186.807h13.4M139.531 189.552h8.935M146.23 192.271h-4.464"/></g></g><g><path stroke-linecap="round" stroke-width=".75" stroke="#787878" stroke-miterlimit="10" fill="none" d="M201.618 114.78v7.2"/><path stroke-linecap="round" stroke-width=".9" stroke="#000" d="M194.868 114.564h13.5" fill="none"/><text font-family="'DroidSans'" font-size="4.499" transform="translate(195.917 112.988)">5V</text></g><g><path stroke-linecap="round" stroke-width=".75" stroke="#787878" stroke-miterlimit="10" fill="none" d="M50.419 6.78v7.2"/><path stroke-linecap="round" stroke-width=".9" stroke="#000" d="M43.669 6.564h13.5" fill="none"/><text font-family="'DroidSans'" font-size="4.499" transform="translate(44.717 4.988)">5V</text></g><g><path fill="none" d="M176.41 96.77h-3.6v7.2h3.6z"/><path stroke-width=".24" stroke="#000" fill="#fff" d="M172.923 100.37l3.48-3.48h11.36v6.96h-11.36z"/></g><g><path fill="none" d="M111.61 53.57h-3.6v7.2h3.6z"/><path stroke-width=".24" stroke="#000" fill="#fff" d="M108.123 57.17l3.48-3.48h11.36v6.96h-11.36z"/></g><g><path fill="none" d="M111.61 132.769h-3.6v7.2h3.6z"/><path stroke-width=".24" stroke="#000" fill="#fff" d="M108.123 136.369l3.48-3.48h14.36v6.96h-14.36z"/></g><g><path fill="none" d="M147.611 103.97h-3.6v7.2h3.6z"/><path stroke-width=".24" stroke="#000" fill="#fff" d="M144.124 107.57l3.48-3.48h14.36v6.96h-14.36z"/></g><g><path fill="none" d="M111.611 60.77h-3.6v7.2h3.6z"/><path stroke-width=".24" stroke="#000" fill="#fff" d="M108.124 64.37l3.48-3.48h11.36v6.96h-11.36z"/></g><g><path fill="none" d="M226.79 96.77h3.6v7.2h-3.6z"/><path stroke-width=".24" stroke="#000" fill="#fff" d="M230.277 100.37l-3.48-3.48h-11.36v6.96h11.36z"/></g><g><text x=".48" y="5.28" font-size="4.8" font-family="Droid Sans" transform="translate(175.673 96.667)">pin 2</text></g><g><text x=".48" y="5.28" font-size="4.8" font-family="Droid Sans" transform="translate(110.873 53.467)">pin 2</text></g><g><text x=".48" y="5.28" font-size="4.8" font-family="Droid Sans" transform="translate(110.873 132.666)">pin 13</text></g><g><text x=".48" y="5.28" font-size="4.8" font-family="Droid Sans" transform="translate(146.874 103.867)">pin 13</text></g><g><text x=".48" y="5.28" font-size="4.8" font-family="Droid Sans" transform="translate(110.874 60.667)">pin 3</text></g><g><text x=".48" y="5.28" font-size="4.8" font-family="Droid Sans" transform="translate(215.317 96.77)">pin 3</text></g><g><path stroke-linecap="round" stroke="#404040" stroke-width=".7" d="M230.4 121.973v-21.6"/></g><circle cx="230.4" cy="121.973" r="1.44"/><g><path stroke-linecap="round" stroke="#404040" stroke-width=".7" d="M108 64.373"/></g><g><path stroke-linecap="round" stroke="#404040" stroke-width=".7" d="M50.4 13.973"/></g><g><path stroke-linecap="round" stroke="#404040" stroke-width=".7" d="M57.6 179.573"/></g><g><path stroke-linecap="round" stroke="#404040" stroke-width=".7" d="M108 136.373"/></g><g><path stroke-linecap="round" stroke="#404040" stroke-width=".7" d="M108 57.173"/></g><g><path stroke-linecap="round" stroke="#404040" stroke-width=".7" d="M144 136.373v7.2"/></g><g><path stroke-linecap="round" stroke="#404040" stroke-width=".7" d="M144.001 107.573v7.199"/></g><g><path stroke-linecap="round" stroke="#404040" stroke-width=".7" d="M201.463 122.063l.137-.09"/></g><circle cx="201.463" cy="122.063" r="1.44"/><g><path stroke-linecap="round" stroke="#404040" stroke-width=".7" d="M201.6 121.973l-.136.09"/></g><g><path stroke-linecap="round" stroke="#404040" stroke-width=".7" d="M201.463 122.063l.137-.09"/></g><g><path stroke-linecap="round" stroke="#404040" stroke-width=".7" d="M172.8 121.973v-21.6"/></g><circle cx="172.8" cy="121.973" r="1.44"/><g><path stroke-linecap="round" stroke="#404040" stroke-width=".7" d="M144.18 179.396l-.18-7.022"/></g><circle cx="144.18" cy="179.396" r="1.44"/><g><path stroke-linecap="round" stroke="#404040" stroke-width=".7" d="M144 179.573l.18-.177"/></g><g><path stroke-linecap="round" stroke="#404040" stroke-width=".7" d="M172.806 179.678h57.674"/></g><circle cx="172.806" cy="179.678" r="1.44"/><g><path stroke-linecap="round" stroke="#404040" stroke-width=".7" d="M230.48 179.678l-.066-8.267"/></g><g><path stroke-linecap="round" stroke="#404040" stroke-width=".7" d="M144.18 179.396l28.626.282"/></g><g><path stroke-linecap="round" stroke="#404040" stroke-width=".7" d="M230.4 121.973l-.018 21.553"/></g><circle cx="230.4" cy="121.973" r="1.44"/><g><path stroke-linecap="round" stroke="#404040" stroke-width=".7" d="M172.806 179.678l-.005-8.267"/></g><g><path stroke-linecap="round" stroke="#404040" stroke-width=".7" d="M172.8 121.973v21.6"/></g><circle cx="172.8" cy="121.973" r="1.44"/><g><g font-size="5" font-family="'DroidSans'"><text y="3.75" transform="translate(182.025 126.74)">R2</text><text y="8.75" transform="translate(182.025 126.74)">10kΩ</text></g></g><g><g font-size="5" font-family="'DroidSans'"><text y="3.75" transform="translate(209.692 126.457)">R3</text><text y="8.75" transform="translate(209.692 126.457)">10kΩ</text></g></g><g><g font-size="5" font-family="'DroidSans'"><text y="3.75" transform="translate(149.398 154.249)">R1</text><text y="8.75" transform="translate(149.398 154.249)">560Ω</text></g></g><g><text y="3.75" transform="translate(154.666 121.319)" font-size="5" font-family="'DroidSans'">LED<tspan font-size="6" x="-12.8" y="-18.4">Arduino</tspan> <tspan font-size="6" x="35" y="-25">Arduino</tspan></text></g><g><text y="3.75" transform="translate(187.191 173.268)" font-size="5" font-family="'DroidSans'">Pushbutton</text></g><g><text y="3.75" transform="translate(152.49 183.605)" font-size="5" font-family="'DroidSans'">gnd<tspan font-size="4" x="0" y="8.9">(ground) (-)</tspan></text></g></svg>