<?xml version='1.0' encoding='UTF-8' standalone='no'?>
<!-- Created with Fritzing (http://www.fritzing.org/) -->
<svg xmlns:svg='http://www.w3.org/2000/svg' xmlns='http://www.w3.org/2000/svg' version='1.2' baseProfile='tiny' x='0in' y='0in' width='2.51769in' height='2.31459in' viewBox='0 0 181.273 166.651' >
<g partID='81850'><g transform='translate(1.70851,119.301)' ><g transform='matrix(0,-1,1,0,0,0)'  ><g id="schematic" xmlns="http://www.w3.org/2000/svg">
<path xmlns="http://www.w3.org/2000/svg" d="M18.565,15.1c-0.193,0,-0.35,-0.157,-0.35,-0.35l0,-7.2c0,-0.193,0.157,-0.35,0.35,-0.35s0.35,0.157,0.35,0.35l0,7.2C18.916,14.943,18.758,15.1,18.565,15.1z"/>
<path xmlns="http://www.w3.org/2000/svg" fill="none" d="M18.565,7.55L18.565,7.55L18.565,7.55z"/>
<path xmlns="http://www.w3.org/2000/svg" d="M32.963,15.1c-0.192,0,-0.351,-0.157,-0.351,-0.35L32.612,7.9L4.515,7.9l0,6.85c0,0.193,-0.157,0.35,-0.35,0.35s-0.35,-0.157,-0.35,-0.35L3.815,7.2l29.499,0l0,7.55C33.313,14.943,33.155,15.1,32.963,15.1z"/>
<path xmlns="http://www.w3.org/2000/svg" d="M36.563,15.1l-3.603,0c-0.192,0,-0.351,-0.157,-0.351,-0.35s0.156,-0.35,0.351,-0.35l3.603,0c0.192,0,0.352,0.157,0.352,0.35S36.758,15.1,36.563,15.1z"/>
<path xmlns="http://www.w3.org/2000/svg" d="M32.963,15.1l-3.598,0c-0.193,0,-0.351,-0.157,-0.351,-0.35s0.154,-0.35,0.351,-0.35l3.598,0c0.192,0,0.351,0.157,0.351,0.35S33.155,15.1,32.963,15.1z"/>
<polygon points="36.563,21.951,32.963,21.951,29.365,21.951,32.963,14.75" xmlns="http://www.w3.org/2000/svg" fill="#FFFFFF"/>
<path xmlns="http://www.w3.org/2000/svg" d="M37.131,22.3l-8.332,0l4.164,-8.333L37.131,22.3zM29.933,21.599l6.065,0l-3.035,-6.066L29.933,21.599z"/>
<path xmlns="http://www.w3.org/2000/svg" d="M32.963,22.175c-0.124,0,-0.226,-0.103,-0.226,-0.225L32.737,14.75c0,-0.124,0.102,-0.225,0.226,-0.225s0.226,0.101,0.226,0.225l0,7.201C33.188,22.074,33.087,22.175,32.963,22.175z"/>
<path xmlns="http://www.w3.org/2000/svg" d="M37.582,16.414c-0.06,0,-0.115,-0.021,-0.159,-0.063c-0.088,-0.088,-0.088,-0.229,0,-0.316l2.34,-2.341c0.088,-0.088,0.229,-0.088,0.318,0c0.088,0.088,0.088,0.23,0,0.318L37.74,16.35C37.696,16.392,37.64,16.414,37.582,16.414z"/>
<path xmlns="http://www.w3.org/2000/svg" d="M37.224,13.176c-0.059,0,-0.115,-0.022,-0.158,-0.066c-0.09,-0.088,-0.09,-0.23,0,-0.318l2.341,-2.34c0.088,-0.088,0.229,-0.088,0.315,0c0.088,0.088,0.088,0.23,0,0.318l-2.34,2.34C37.338,13.154,37.278,13.176,37.224,13.176z"/>
<path xmlns="http://www.w3.org/2000/svg" d="M41.542,12.231l-1.08,2.52l-1.438,-1.439L41.542,12.231z"/>
<path xmlns="http://www.w3.org/2000/svg" d="M41.183,8.991l-1.078,2.52l-1.438,-1.438L41.183,8.991z"/>
<path xmlns="http://www.w3.org/2000/svg" d="M22.165,15.1l-3.599,0c-0.193,0,-0.35,-0.157,-0.35,-0.35s0.157,-0.35,0.35,-0.35l3.599,0c0.193,0,0.35,0.157,0.35,0.35S22.358,15.1,22.165,15.1z"/>
<path xmlns="http://www.w3.org/2000/svg" d="M18.565,15.1l-3.601,0c-0.193,0,-0.35,-0.157,-0.35,-0.35s0.157,-0.35,0.35,-0.35l3.601,0c0.193,0,0.35,0.157,0.35,0.35S18.758,15.1,18.565,15.1z"/>
<polygon points="22.165,21.951,18.565,21.951,14.964,21.951,18.565,14.75" xmlns="http://www.w3.org/2000/svg" fill="#FFFFFF"/>
<path xmlns="http://www.w3.org/2000/svg" d="M22.731,22.3l-8.333,0l4.167,-8.333L22.731,22.3zM15.53,21.599l6.067,0l-3.033,-6.066L15.53,21.599z"/>
<path xmlns="http://www.w3.org/2000/svg" d="M18.565,22.175c-0.124,0,-0.225,-0.103,-0.225,-0.225L18.34,14.75c0,-0.124,0.101,-0.225,0.225,-0.225s0.225,0.101,0.225,0.225l0,7.201C18.791,22.074,18.689,22.175,18.565,22.175z"/>
<path xmlns="http://www.w3.org/2000/svg" d="M23.183,16.414c-0.058,0,-0.113,-0.021,-0.158,-0.063c-0.088,-0.088,-0.088,-0.229,0,-0.316l2.343,-2.341c0.088,-0.088,0.229,-0.088,0.315,0c0.09,0.088,0.09,0.23,0,0.318l-2.341,2.339C23.298,16.392,23.24,16.414,23.183,16.414z"/>
<path xmlns="http://www.w3.org/2000/svg" d="M22.821,13.176c-0.057,0,-0.114,-0.022,-0.159,-0.066c-0.088,-0.088,-0.088,-0.23,0,-0.318l2.34,-2.34c0.088,-0.088,0.229,-0.088,0.317,0c0.088,0.088,0.088,0.23,0,0.318l-2.34,2.34C22.938,13.154,22.88,13.176,22.821,13.176z"/>
<path xmlns="http://www.w3.org/2000/svg" d="M27.144,12.231l-1.08,2.52l-1.438,-1.439L27.144,12.231z"/>
<path xmlns="http://www.w3.org/2000/svg" d="M26.783,8.991l-1.08,2.52l-1.438,-1.438L26.783,8.991z"/>
<path xmlns="http://www.w3.org/2000/svg" d="M7.766,15.1L4.165,15.1c-0.193,0,-0.35,-0.157,-0.35,-0.35s0.157,-0.35,0.35,-0.35l3.601,0c0.193,0,0.35,0.157,0.35,0.35S7.959,15.1,7.766,15.1z"/>
<path xmlns="http://www.w3.org/2000/svg" d="M4.165,15.1L0.566,15.1c-0.193,0,-0.35,-0.157,-0.35,-0.35s0.157,-0.35,0.35,-0.35l3.599,0c0.193,0,0.35,0.157,0.35,0.35S4.359,15.1,4.165,15.1z"/>
<polygon points="7.766,21.951,4.165,21.951,0.566,21.951,4.165,14.75" xmlns="http://www.w3.org/2000/svg" fill="#FFFFFF"/>
<path xmlns="http://www.w3.org/2000/svg" d="M8.332,22.3L0,22.3l4.166,-8.333L8.332,22.3zM1.133,21.599L7.2,21.599l-3.034,-6.066L1.133,21.599z"/>
<path xmlns="http://www.w3.org/2000/svg" d="M4.165,22.175c-0.124,0,-0.225,-0.103,-0.225,-0.225L3.94,14.75c0,-0.124,0.101,-0.225,0.225,-0.225S4.39,14.626,4.39,14.75l0,7.201C4.39,22.074,4.289,22.175,4.165,22.175z"/>
<path xmlns="http://www.w3.org/2000/svg" d="M8.783,16.414c-0.058,0,-0.115,-0.021,-0.159,-0.063c-0.088,-0.088,-0.088,-0.229,0,-0.316l2.339,-2.341c0.088,-0.088,0.23,-0.088,0.318,0c0.088,0.088,0.088,0.23,0,0.318L8.942,16.35C8.898,16.392,8.841,16.414,8.783,16.414z"/>
<path xmlns="http://www.w3.org/2000/svg" d="M8.422,13.176c-0.058,0,-0.115,-0.022,-0.159,-0.066c-0.087,-0.088,-0.087,-0.23,0,-0.318l2.341,-2.34c0.088,-0.088,0.23,-0.088,0.318,0c0.088,0.088,0.088,0.23,0,0.318l-2.341,2.34C8.537,13.154,8.48,13.176,8.422,13.176z"/>
<path xmlns="http://www.w3.org/2000/svg" d="M12.743,12.231l-1.08,2.52l-1.439,-1.439L12.743,12.231z"/>
<path xmlns="http://www.w3.org/2000/svg" d="M12.382,8.991l-1.08,2.52l-1.438,-1.438L12.382,8.991z"/>
<g xmlns="http://www.w3.org/2000/svg">
<path id="connector2pin" xmlns="http://www.w3.org/2000/svg" fill="#787878" d="M32.964,29.5c-0.193,0,-0.35,-0.155,-0.35,-0.35l0,-7.199c0,-0.193,0.156,-0.352,0.35,-0.352c0.194,0,0.35,0.156,0.35,0.352l0,7.199C33.313,29.343,33.157,29.5,32.964,29.5z"/>
<g x="32.663" id="connector2terminal" y="27.167" width="0.75" height="2.396" xmlns="http://www.w3.org/2000/svg" fill="none"/>
<path id="connector1pin" xmlns="http://www.w3.org/2000/svg" fill="#787878" d="M18.567,7.9c-0.193,0,-0.35,-0.157,-0.35,-0.35l0,-7.2c0,-0.193,0.157,-0.35,0.35,-0.35s0.35,0.157,0.35,0.35l0,7.2C18.917,7.744,18.76,7.9,18.567,7.9z"/>
<g x="18.205" id="connector1terminal" width="0.75" height="2.399" xmlns="http://www.w3.org/2000/svg" fill="none"/>
<path id="connector3pin" xmlns="http://www.w3.org/2000/svg" fill="#787878" d="M18.566,29.5c-0.193,0,-0.35,-0.155,-0.35,-0.35l0,-7.199c0,-0.193,0.157,-0.352,0.35,-0.352s0.35,0.156,0.35,0.352l0,7.199C18.916,29.343,18.759,29.5,18.566,29.5z"/>
<g x="18.163" id="connector3terminal" y="27.167" width="0.75" height="2.396" xmlns="http://www.w3.org/2000/svg" fill="none"/>
<path id="connector0pin" xmlns="http://www.w3.org/2000/svg" fill="#787878" d="M4.165,29.5c-0.193,0,-0.35,-0.155,-0.35,-0.35l0,-7.199c0,-0.193,0.157,-0.352,0.35,-0.352s0.35,0.156,0.35,0.352l0,7.199C4.515,29.343,4.359,29.5,4.165,29.5z"/>
<g x="3.726" id="connector0terminal" y="27.167" width="0.75" height="2.396" xmlns="http://www.w3.org/2000/svg" fill="none"/>
</g>
</g>
</g></g></g><g partID='62690'><g transform='translate(29.7233,83.3038)' ><g transform='matrix(1,0,0,1,0,0)'  ><g id="schematic" xmlns="http://www.w3.org/2000/svg">
<line stroke-linecap="round" stroke="#000000" class="other" y1="3.096" stroke-width="0.432002" y2="0.216" xmlns="http://www.w3.org/2000/svg" x1="7.55002" x2="8.63003"/>
<line stroke-linecap="round" stroke="#000000" class="other" y1="0.216" stroke-width="0.432002" y2="5.976" xmlns="http://www.w3.org/2000/svg" x1="8.63003" x2="10.43"/>
<line stroke-linecap="round" stroke="#000000" class="other" y1="5.976" stroke-width="0.432002" y2="0.216" xmlns="http://www.w3.org/2000/svg" x1="10.43" x2="12.23"/>
<line stroke-linecap="round" stroke="#000000" class="other" y1="0.216" stroke-width="0.432002" y2="5.976" xmlns="http://www.w3.org/2000/svg" x1="12.23" x2="14.03"/>
<line stroke-linecap="round" stroke="#000000" class="other" y1="5.976" stroke-width="0.432002" y2="0.216" xmlns="http://www.w3.org/2000/svg" x1="14.03" x2="15.8301"/>
<line stroke-linecap="round" stroke="#000000" class="other" y1="0.216" stroke-width="0.432002" y2="5.976" xmlns="http://www.w3.org/2000/svg" x1="15.8301" x2="17.6301"/>
<line stroke-linecap="round" stroke="#000000" class="other" y1="5.976" stroke-width="0.432002" y2="0.216" xmlns="http://www.w3.org/2000/svg" x1="17.6301" x2="19.4301"/>
<line stroke-linecap="round" stroke="#000000" class="other" y1="0.216" stroke-width="0.432002" y2="5.976" xmlns="http://www.w3.org/2000/svg" x1="19.4301" x2="21.2301"/>
<line stroke-linecap="round" stroke="#000000" class="other" y1="5.976" stroke-width="0.432002" y2="3.096" xmlns="http://www.w3.org/2000/svg" x1="21.2301" x2="21.9501"/>
<line stroke-linecap="round" id="connector1pin" stroke="#787878" class="pin" y1="3.096" stroke-width="0.700001" y2="3.096" connectorname="2" xmlns="http://www.w3.org/2000/svg" x1="29.1502" x2="21.9501"/>
<g x="29.1502" id="connector1terminal" y="3.096" width="0.000283466" stroke="none" class="terminal" stroke-width="0" height="0.000283465" xmlns="http://www.w3.org/2000/svg" fill="none"/>
<text text-anchor="middle" x="25.5501" stroke="none" y="2.046" class="text" stroke-width="0" xmlns="http://www.w3.org/2000/svg" font-family="'Droid Sans'" fill="#8c8c8c" font-size="2.50001">2</text>
<line stroke-linecap="round" id="connector0pin" stroke="#787878" class="pin" y1="3.096" stroke-width="0.700001" y2="3.096" connectorname="1" xmlns="http://www.w3.org/2000/svg" x1="0.350001" x2="7.55002"/>
<g x="0.350001" id="connector0terminal" y="3.096" width="0.000283466" stroke="none" class="terminal" stroke-width="0" height="0.000283465" xmlns="http://www.w3.org/2000/svg" fill="none"/>
<text text-anchor="middle" x="3.95001" stroke="none" y="2.046" class="text" stroke-width="0" xmlns="http://www.w3.org/2000/svg" font-family="'Droid Sans'" fill="#8c8c8c" font-size="2.50001">1</text>
</g>
</g></g></g><g partID='62670'><g transform='translate(29.7233,97.7038)' ><g transform='matrix(1,0,0,1,0,0)'  ><g id="schematic" xmlns="http://www.w3.org/2000/svg">
<line stroke-linecap="round" stroke="#000000" class="other" y1="3.096" stroke-width="0.432002" y2="0.216" xmlns="http://www.w3.org/2000/svg" x1="7.55002" x2="8.63003"/>
<line stroke-linecap="round" stroke="#000000" class="other" y1="0.216" stroke-width="0.432002" y2="5.976" xmlns="http://www.w3.org/2000/svg" x1="8.63003" x2="10.43"/>
<line stroke-linecap="round" stroke="#000000" class="other" y1="5.976" stroke-width="0.432002" y2="0.216" xmlns="http://www.w3.org/2000/svg" x1="10.43" x2="12.23"/>
<line stroke-linecap="round" stroke="#000000" class="other" y1="0.216" stroke-width="0.432002" y2="5.976" xmlns="http://www.w3.org/2000/svg" x1="12.23" x2="14.03"/>
<line stroke-linecap="round" stroke="#000000" class="other" y1="5.976" stroke-width="0.432002" y2="0.216" xmlns="http://www.w3.org/2000/svg" x1="14.03" x2="15.8301"/>
<line stroke-linecap="round" stroke="#000000" class="other" y1="0.216" stroke-width="0.432002" y2="5.976" xmlns="http://www.w3.org/2000/svg" x1="15.8301" x2="17.6301"/>
<line stroke-linecap="round" stroke="#000000" class="other" y1="5.976" stroke-width="0.432002" y2="0.216" xmlns="http://www.w3.org/2000/svg" x1="17.6301" x2="19.4301"/>
<line stroke-linecap="round" stroke="#000000" class="other" y1="0.216" stroke-width="0.432002" y2="5.976" xmlns="http://www.w3.org/2000/svg" x1="19.4301" x2="21.2301"/>
<line stroke-linecap="round" stroke="#000000" class="other" y1="5.976" stroke-width="0.432002" y2="3.096" xmlns="http://www.w3.org/2000/svg" x1="21.2301" x2="21.9501"/>
<line stroke-linecap="round" id="connector1pin" stroke="#787878" class="pin" y1="3.096" stroke-width="0.700001" y2="3.096" connectorname="2" xmlns="http://www.w3.org/2000/svg" x1="29.1502" x2="21.9501"/>
<g x="29.1502" id="connector1terminal" y="3.096" width="0.000283466" stroke="none" class="terminal" stroke-width="0" height="0.000283465" xmlns="http://www.w3.org/2000/svg" fill="none"/>
<text text-anchor="middle" x="25.5501" stroke="none" y="2.046" class="text" stroke-width="0" xmlns="http://www.w3.org/2000/svg" font-family="'Droid Sans'" fill="#8c8c8c" font-size="2.50001">2</text>
<line stroke-linecap="round" id="connector0pin" stroke="#787878" class="pin" y1="3.096" stroke-width="0.700001" y2="3.096" connectorname="1" xmlns="http://www.w3.org/2000/svg" x1="0.350001" x2="7.55002"/>
<g x="0.350001" id="connector0terminal" y="3.096" width="0.000283466" stroke="none" class="terminal" stroke-width="0" height="0.000283465" xmlns="http://www.w3.org/2000/svg" fill="none"/>
<text text-anchor="middle" x="3.95001" stroke="none" y="2.046" class="text" stroke-width="0" xmlns="http://www.w3.org/2000/svg" font-family="'Droid Sans'" fill="#8c8c8c" font-size="2.50001">1</text>
</g>
</g></g></g><g partID='62650'><g transform='translate(29.7233,112.104)' ><g transform='matrix(1,0,0,1,0,0)'  ><g id="schematic" xmlns="http://www.w3.org/2000/svg">
<line stroke-linecap="round" stroke="#000000" class="other" y1="3.096" stroke-width="0.432002" y2="0.216" xmlns="http://www.w3.org/2000/svg" x1="7.55002" x2="8.63003"/>
<line stroke-linecap="round" stroke="#000000" class="other" y1="0.216" stroke-width="0.432002" y2="5.976" xmlns="http://www.w3.org/2000/svg" x1="8.63003" x2="10.43"/>
<line stroke-linecap="round" stroke="#000000" class="other" y1="5.976" stroke-width="0.432002" y2="0.216" xmlns="http://www.w3.org/2000/svg" x1="10.43" x2="12.23"/>
<line stroke-linecap="round" stroke="#000000" class="other" y1="0.216" stroke-width="0.432002" y2="5.976" xmlns="http://www.w3.org/2000/svg" x1="12.23" x2="14.03"/>
<line stroke-linecap="round" stroke="#000000" class="other" y1="5.976" stroke-width="0.432002" y2="0.216" xmlns="http://www.w3.org/2000/svg" x1="14.03" x2="15.8301"/>
<line stroke-linecap="round" stroke="#000000" class="other" y1="0.216" stroke-width="0.432002" y2="5.976" xmlns="http://www.w3.org/2000/svg" x1="15.8301" x2="17.6301"/>
<line stroke-linecap="round" stroke="#000000" class="other" y1="5.976" stroke-width="0.432002" y2="0.216" xmlns="http://www.w3.org/2000/svg" x1="17.6301" x2="19.4301"/>
<line stroke-linecap="round" stroke="#000000" class="other" y1="0.216" stroke-width="0.432002" y2="5.976" xmlns="http://www.w3.org/2000/svg" x1="19.4301" x2="21.2301"/>
<line stroke-linecap="round" stroke="#000000" class="other" y1="5.976" stroke-width="0.432002" y2="3.096" xmlns="http://www.w3.org/2000/svg" x1="21.2301" x2="21.9501"/>
<line stroke-linecap="round" id="connector1pin" stroke="#787878" class="pin" y1="3.096" stroke-width="0.700001" y2="3.096" connectorname="2" xmlns="http://www.w3.org/2000/svg" x1="29.1502" x2="21.9501"/>
<g x="29.1502" id="connector1terminal" y="3.096" width="0.000283466" stroke="none" class="terminal" stroke-width="0" height="0.000283465" xmlns="http://www.w3.org/2000/svg" fill="none"/>
<text text-anchor="middle" x="25.5501" stroke="none" y="2.046" class="text" stroke-width="0" xmlns="http://www.w3.org/2000/svg" font-family="'Droid Sans'" fill="#8c8c8c" font-size="2.50001">2</text>
<line stroke-linecap="round" id="connector0pin" stroke="#787878" class="pin" y1="3.096" stroke-width="0.700001" y2="3.096" connectorname="1" xmlns="http://www.w3.org/2000/svg" x1="0.350001" x2="7.55002"/>
<g x="0.350001" id="connector0terminal" y="3.096" width="0.000283466" stroke="none" class="terminal" stroke-width="0" height="0.000283465" xmlns="http://www.w3.org/2000/svg" fill="none"/>
<text text-anchor="middle" x="3.95001" stroke="none" y="2.046" class="text" stroke-width="0" xmlns="http://www.w3.org/2000/svg" font-family="'Droid Sans'" fill="#8c8c8c" font-size="2.50001">1</text>
</g>
</g></g></g><g partID='88370'><g transform='translate(181.273,0)' ><g transform='matrix(-1,0,0,1,0,0)'  ><g id="schematic">
<rect x="14.85" stroke-linecap="round" y="14.85" width="78.3" stroke="#000000" class="interior rect" stroke-width="0.9" height="135.9" fill="#FFFFFF"/>
<line stroke-linecap="round" stroke="#787878" id="connector61pin" class="pin" y1="28.8" stroke-width="0.699999" y2="28.8" x1="93.2499" x2="107.65" fill="none"/>
<text text-anchor="end" x="91.8499" stroke="none" y="29.4999" class="text" stroke-width="0" font-family="'Droid Sans'" fill="#8c8c8c" font-size="3.49999">D0/RX</text>
<g x="107.65" y="28.4499" width="0.699999" stroke="none" id="connector61terminal" class="terminal" stroke-width="0" height="0.699999" fill="none"/>
<line stroke-linecap="round" stroke="#787878" id="connector62pin" class="pin" y1="36" stroke-width="0.699999" y2="36" x1="93.2499" x2="107.65" fill="none"/>
<text text-anchor="end" x="91.8499" stroke="none" y="36.6999" class="text" stroke-width="0" font-family="'Droid Sans'" fill="#8c8c8c" font-size="3.49999">D1/TX</text>
<g x="107.65" y="35.6499" width="0.699999" stroke="none" id="connector62terminal" class="terminal" stroke-width="0" height="0.699999" fill="none"/>
<line stroke-linecap="round" stroke="#787878" id="connector63pin" class="pin" y1="43.2" stroke-width="0.699999" y2="43.2" x1="93.2499" x2="107.65" fill="none"/>
<text text-anchor="end" x="91.8499" stroke="none" y="43.8999" class="text" stroke-width="0" font-family="'Droid Sans'" fill="#8c8c8c" font-size="3.49999">D2</text>
<g x="107.65" y="42.8499" width="0.699999" stroke="none" id="connector63terminal" class="terminal" stroke-width="0" height="0.699999" fill="none"/>
<line stroke-linecap="round" stroke="#787878" id="connector64pin" class="pin" y1="50.4" stroke-width="0.699999" y2="50.4" x1="93.2499" x2="107.65" fill="none"/>
<text text-anchor="end" x="91.8499" stroke="none" y="51.0999" class="text" stroke-width="0" font-family="'Droid Sans'" fill="#8c8c8c" font-size="3.49999">D3 PWM</text>
<g x="107.65" y="50.0499" width="0.699999" stroke="none" id="connector64terminal" class="terminal" stroke-width="0" height="0.699999" fill="none"/>
<line stroke-linecap="round" stroke="#787878" id="connector65pin" class="pin" y1="57.6" stroke-width="0.699999" y2="57.6" x1="93.2499" x2="107.65" fill="none"/>
<text text-anchor="end" x="91.8499" stroke="none" y="58.2999" class="text" stroke-width="0" font-family="'Droid Sans'" fill="#8c8c8c" font-size="3.49999">D4</text>
<g x="107.65" y="57.2499" width="0.699999" stroke="none" id="connector65terminal" class="terminal" stroke-width="0" height="0.699999" fill="none"/>
<line stroke-linecap="round" stroke="#787878" id="connector66pin" class="pin" y1="64.8" stroke-width="0.699999" y2="64.8" x1="93.2499" x2="107.65" fill="none"/>
<text text-anchor="end" x="91.8499" stroke="none" y="65.4999" class="text" stroke-width="0" font-family="'Droid Sans'" fill="#8c8c8c" font-size="3.49999">D5 PWM</text>
<g x="107.65" y="64.4499" width="0.699999" stroke="none" id="connector66terminal" class="terminal" stroke-width="0" height="0.699999" fill="none"/>
<line stroke-linecap="round" stroke="#787878" id="connector67pin" class="pin" y1="72" stroke-width="0.699999" y2="72" x1="93.2499" x2="107.65" fill="none"/>
<text text-anchor="end" x="91.8499" stroke="none" y="72.6999" class="text" stroke-width="0" font-family="'Droid Sans'" fill="#8c8c8c" font-size="3.49999">D6 PWM</text>
<g x="107.65" y="71.6499" width="0.699999" stroke="none" id="connector67terminal" class="terminal" stroke-width="0" height="0.699999" fill="none"/>
<line stroke-linecap="round" stroke="#787878" id="connector68pin" class="pin" y1="79.2" stroke-width="0.699999" y2="79.2" x1="93.2499" x2="107.65" fill="none"/>
<text text-anchor="end" x="91.8499" stroke="none" y="79.8999" class="text" stroke-width="0" font-family="'Droid Sans'" fill="#8c8c8c" font-size="3.49999">D7</text>
<g x="107.65" y="78.8499" width="0.699999" stroke="none" id="connector68terminal" class="terminal" stroke-width="0" height="0.699999" fill="none"/>
<line stroke-linecap="round" stroke="#787878" id="connector51pin" class="pin" y1="86.4" stroke-width="0.699999" y2="86.4" x1="93.2499" x2="107.65" fill="none"/>
<text text-anchor="end" x="91.8499" stroke="none" y="87.0999" class="text" stroke-width="0" font-family="'Droid Sans'" fill="#8c8c8c" font-size="3.49999">D8</text>
<g x="107.65" y="86.0499" width="0.699999" stroke="none" id="connector51terminal" class="terminal" stroke-width="0" height="0.699999" fill="none"/>
<line stroke-linecap="round" stroke="#787878" id="connector52pin" class="pin" y1="93.6" stroke-width="0.699999" y2="93.6" x1="93.2499" x2="107.65" fill="none"/>
<text text-anchor="end" x="91.8499" stroke="none" y="94.2999" class="text" stroke-width="0" font-family="'Droid Sans'" fill="#8c8c8c" font-size="3.49999">D9 PWM</text>
<g x="107.65" y="93.2499" width="0.699999" stroke="none" id="connector52terminal" class="terminal" stroke-width="0" height="0.699999" fill="none"/>
<line stroke-linecap="round" stroke="#787878" id="connector53pin" class="pin" y1="100.8" stroke-width="0.699999" y2="100.8" x1="93.2499" x2="107.65" fill="none"/>
<text text-anchor="end" x="91.8499" stroke="none" y="101.5" class="text" stroke-width="0" font-family="'Droid Sans'" fill="#8c8c8c" font-size="3.49999">D10 PWM/SS</text>
<g x="107.65" y="100.45" width="0.699999" stroke="none" id="connector53terminal" class="terminal" stroke-width="0" height="0.699999" fill="none"/>
<line stroke-linecap="round" stroke="#787878" id="connector54pin" class="pin" y1="108" stroke-width="0.699999" y2="108" x1="93.2499" x2="107.65" fill="none"/>
<text text-anchor="end" x="91.8499" stroke="none" y="108.7" class="text" stroke-width="0" font-family="'Droid Sans'" fill="#8c8c8c" font-size="3.49999">D11 PWM/MOSI</text>
<g x="107.65" y="107.65" width="0.699999" stroke="none" id="connector54terminal" class="terminal" stroke-width="0" height="0.699999" fill="none"/>
<line stroke-linecap="round" stroke="#787878" id="connector55pin" class="pin" y1="115.2" stroke-width="0.699999" y2="115.2" x1="93.2499" x2="107.65" fill="none"/>
<text text-anchor="end" x="91.8499" stroke="none" y="115.9" class="text" stroke-width="0" font-family="'Droid Sans'" fill="#8c8c8c" font-size="3.49999">D12/MISO</text>
<g x="107.65" y="114.85" width="0.699999" stroke="none" id="connector55terminal" class="terminal" stroke-width="0" height="0.699999" fill="none"/>
<line stroke-linecap="round" stroke="none" id="connector41pin" class="pin" y1="122.4" stroke-width="0" y2="122.4" x1="93.2499" x2="107.65" fill="none"/>
<rect x="107.65" y="122.05" width="0.699999" stroke="none" id="connector41terminal" class="terminal" stroke-width="0" height="0.699999" fill="none"/>
<line stroke-linecap="round" stroke="#787878" id="connector56pin" class="pin" y1="122.4" stroke-width="0.699999" y2="122.4" x1="93.2499" x2="107.65" fill="none"/>
<text text-anchor="end" x="91.8499" stroke="none" y="123.1" class="text" stroke-width="0" font-family="'Droid Sans'" fill="#8c8c8c" font-size="3.49999">D13/SCK</text>
<g x="107.65" y="122.05" width="0.699999" stroke="none" id="connector56terminal" class="terminal" stroke-width="0" height="0.699999" fill="none"/>
<line stroke-linecap="round" stroke="none" id="connector43pin" class="pin" y1="28.8" stroke-width="0" y2="28.8" x1="0.349999" x2="14.75" fill="none"/>
<rect x="-0.349999" y="28.4499" width="0.699999" stroke="none" id="connector43terminal" class="terminal" stroke-width="0" height="0.699999" fill="none"/>
<line stroke-linecap="round" stroke="#787878" id="connector85pin" class="pin" y1="28.8" stroke-width="0.699999" y2="28.8" x1="0.349999" x2="14.75" fill="none"/>
<text text-anchor="start" x="16.15" stroke="none" y="29.4999" class="text" stroke-width="0" font-family="'Droid Sans'" fill="#8c8c8c" font-size="3.49999">RESET</text>
<g x="-0.349999" y="28.4499" width="0.699999" stroke="none" id="connector85terminal" class="terminal" stroke-width="0" height="0.699999" fill="none"/>
<line stroke-linecap="round" stroke="#787878" id="connector49pin" class="pin" y1="36" stroke-width="0.699999" y2="36" x1="0.349999" x2="14.75" fill="none"/>
<text text-anchor="start" x="16.15" stroke="none" y="36.6999" class="text" stroke-width="0" font-family="'Droid Sans'" fill="#8c8c8c" font-size="3.49999">RESET2</text>
<rect x="-0.349999" y="35.6499" width="0.699999" stroke="none" id="connector49terminal" class="terminal" stroke-width="0" height="0.699999" fill="none"/>
<line stroke-linecap="round" stroke="#787878" id="connector58pin" class="pin" y1="43.2" stroke-width="0.699999" y2="43.2" x1="0.349999" x2="14.75" fill="none"/>
<text text-anchor="start" x="16.15" stroke="none" y="43.8999" class="text" stroke-width="0" font-family="'Droid Sans'" fill="#8c8c8c" font-size="3.49999">AREF</text>
<g x="-0.349999" y="42.8499" width="0.699999" stroke="none" id="connector58terminal" class="terminal" stroke-width="0" height="0.699999" fill="none"/>
<line stroke-linecap="round" stroke="#787878" id="connector84pin" class="pin" y1="50.4" stroke-width="0.699999" y2="50.4" x1="0.349999" x2="14.75" fill="none"/>
<text text-anchor="start" x="16.15" stroke="none" y="51.0999" class="text" stroke-width="0" font-family="'Droid Sans'" fill="#8c8c8c" font-size="3.49999">ioref</text>
<g x="-0.349999" y="50.0499" width="0.699999" stroke="none" id="connector84terminal" class="terminal" stroke-width="0" height="0.699999" fill="none"/>
<line stroke-linecap="round" stroke="#787878" id="connector0pin" class="pin" y1="64.8" stroke-width="0.699999" y2="64.8" x1="0.349999" x2="14.75" fill="none"/>
<text text-anchor="start" x="16.15" stroke="none" y="65.4999" class="text" stroke-width="0" font-family="'Droid Sans'" fill="#8c8c8c" font-size="3.49999">A0</text>
<g x="-0.349999" y="64.4499" width="0.699999" stroke="none" id="connector0terminal" class="terminal" stroke-width="0" height="0.699999" fill="none"/>
<line stroke-linecap="round" stroke="#787878" id="connector1pin" class="pin" y1="72" stroke-width="0.699999" y2="72" x1="0.349999" x2="14.75" fill="none"/>
<text text-anchor="start" x="16.15" stroke="none" y="72.6999" class="text" stroke-width="0" font-family="'Droid Sans'" fill="#8c8c8c" font-size="3.49999">A1</text>
<g x="-0.349999" y="71.6499" width="0.699999" stroke="none" id="connector1terminal" class="terminal" stroke-width="0" height="0.699999" fill="none"/>
<line stroke-linecap="round" stroke="#787878" id="connector2pin" class="pin" y1="79.2" stroke-width="0.699999" y2="79.2" x1="0.349999" x2="14.75" fill="none"/>
<text text-anchor="start" x="16.15" stroke="none" y="79.8999" class="text" stroke-width="0" font-family="'Droid Sans'" fill="#8c8c8c" font-size="3.49999">A2</text>
<g x="-0.349999" y="78.8499" width="0.699999" stroke="none" id="connector2terminal" class="terminal" stroke-width="0" height="0.699999" fill="none"/>
<line stroke-linecap="round" stroke="#787878" id="connector3pin" class="pin" y1="86.4" stroke-width="0.699999" y2="86.4" x1="0.349999" x2="14.75" fill="none"/>
<text text-anchor="start" x="16.15" stroke="none" y="87.0999" class="text" stroke-width="0" font-family="'Droid Sans'" fill="#8c8c8c" font-size="3.49999">A3</text>
<g x="-0.349999" y="86.0499" width="0.699999" stroke="none" id="connector3terminal" class="terminal" stroke-width="0" height="0.699999" fill="none"/>
<line stroke-linecap="round" stroke="none" id="connector48pin" class="pin" y1="93.6" stroke-width="0" y2="93.6" x1="0.349999" x2="14.75" fill="none"/>
<rect x="-0.349999" y="93.2499" width="0.699999" stroke="none" id="connector48terminal" class="terminal" stroke-width="0" height="0.699999" fill="none"/>
<line stroke-linecap="round" stroke="none" id="connector45pin" class="pin" y1="93.6" stroke-width="0" y2="93.6" x1="0.349999" x2="14.75" fill="none"/>
<rect x="-0.349999" y="93.2499" width="0.699999" stroke="none" id="connector45terminal" class="terminal" stroke-width="0" height="0.699999" fill="none"/>
<line stroke-linecap="round" stroke="none" id="connector4pin" class="pin" y1="93.6" stroke-width="0" y2="93.6" x1="0.349999" x2="14.75" fill="none"/>
<g x="-0.349999" y="93.2499" width="0.699999" stroke="none" id="connector4terminal" class="terminal" stroke-width="0" height="0.699999" fill="none"/>
<line stroke-linecap="round" stroke="none" id="connector39pin" class="pin" y1="93.6" stroke-width="0" y2="93.6" x1="0.349999" x2="14.75" fill="none"/>
<rect x="-0.349999" y="93.2499" width="0.699999" stroke="none" id="connector39terminal" class="terminal" stroke-width="0" height="0.699999" fill="none"/>
<line stroke-linecap="round" stroke="none" id="connector47pin" class="pin" y1="93.6" stroke-width="0" y2="93.6" x1="0.349999" x2="14.75" fill="none"/>
<rect x="-0.349999" y="93.2499" width="0.699999" stroke="none" id="connector47terminal" class="terminal" stroke-width="0" height="0.699999" fill="none"/>
<line stroke-linecap="round" stroke="none" id="connector42pin" class="pin" y1="93.6" stroke-width="0" y2="93.6" x1="0.349999" x2="14.75" fill="none"/>
<rect x="-0.349999" y="93.2499" width="0.699999" stroke="none" id="connector42terminal" class="terminal" stroke-width="0" height="0.699999" fill="none"/>
<line stroke-linecap="round" stroke="#787878" id="connector59pin" class="pin" y1="93.6" stroke-width="0.699999" y2="93.6" x1="0.349999" x2="14.75" fill="none"/>
<text text-anchor="start" x="16.15" stroke="none" y="94.2999" class="text" stroke-width="0" font-family="'Droid Sans'" fill="#8c8c8c" font-size="3.49999">A4/SDA</text>
<g x="-0.349999" y="93.2499" width="0.699999" stroke="none" id="connector59terminal" class="terminal" stroke-width="0" height="0.699999" fill="none"/>
<line stroke-linecap="round" stroke="none" id="connector5pin" class="pin" y1="100.8" stroke-width="0" y2="100.8" x1="0.349999" x2="14.75" fill="none"/>
<g x="-0.349999" y="100.45" width="0.699999" stroke="none" id="connector5terminal" class="terminal" stroke-width="0" height="0.699999" fill="none"/>
<line stroke-linecap="round" stroke="#787878" id="connector60pin" class="pin" y1="100.8" stroke-width="0.699999" y2="100.8" x1="0.349999" x2="14.75" fill="none"/>
<text text-anchor="start" x="16.15" stroke="none" y="101.5" class="text" stroke-width="0" font-family="'Droid Sans'" fill="#8c8c8c" font-size="3.49999">A5/SCL</text>
<g x="-0.349999" y="100.45" width="0.699999" stroke="none" id="connector60terminal" class="terminal" stroke-width="0" height="0.699999" fill="none"/>
<line stroke-linecap="round" stroke="#787878" id="connector91pin" class="pin" y1="136.8" stroke-width="0.699999" y2="136.8" x1="0.349999" x2="14.75" fill="none"/>
<text text-anchor="start" x="16.15" stroke="none" y="137.5" class="text" stroke-width="0" font-family="'Droid Sans'" fill="#8c8c8c" font-size="3.49999">N/C</text>
<g x="-0.349999" y="136.45" width="0.699999" stroke="none" id="connector91terminal" class="terminal" stroke-width="0" height="0.699999" fill="none"/>
<line stroke-linecap="round" stroke="none" id="connector88pin" class="pin" y1="150.85" stroke-width="0" y2="165.25" x1="57.6" x2="57.6" fill="none"/>
<g x="57.2499" y="165.25" width="0.699999" stroke="none" id="connector88terminal" class="terminal" stroke-width="0" height="0.699999" fill="none"/>
<line stroke-linecap="round" stroke="none" id="connector57pin" class="pin" y1="150.85" stroke-width="0" y2="165.25" x1="57.6" x2="57.6" fill="none"/>
<g x="57.2499" y="165.25" width="0.699999" stroke="none" id="connector57terminal" class="terminal" stroke-width="0" height="0.699999" fill="none"/>
<line stroke-linecap="round" stroke="none" id="connector44pin" class="pin" y1="150.85" stroke-width="0" y2="165.25" x1="57.6" x2="57.6" fill="none"/>
<rect x="57.2499" y="165.25" width="0.699999" stroke="none" id="connector44terminal" class="terminal" stroke-width="0" height="0.699999" fill="none"/>
<line stroke-linecap="round" stroke="none" id="connector50pin" class="pin" y1="150.85" stroke-width="0" y2="165.25" x1="57.6" x2="57.6" fill="none"/>
<rect x="57.2499" y="165.25" width="0.699999" stroke="none" id="connector50terminal" class="terminal" stroke-width="0" height="0.699999" fill="none"/>
<line stroke-linecap="round" stroke="#787878" id="connector89pin" class="pin" y1="150.85" stroke-width="0.699999" y2="165.25" x1="57.6" x2="57.6" fill="none"/>
<g transform="matrix(1, 0, 0, 1, 58.2999, 149.45)">
<g>
<g transform="rotate(270)">
<g>
<text text-anchor="start" x="0" stroke="none" y="0" class="text" stroke-width="0" font-family="'Droid Sans'" fill="#8c8c8c" font-size="3.49999">GND</text>
</g>
</g>
</g>
</g>
<g x="57.2499" y="165.25" width="0.699999" stroke="none" id="connector89terminal" class="terminal" stroke-width="0" height="0.699999" fill="none"/>
<line stroke-linecap="round" stroke="#787878" id="connector86pin" class="pin" y1="0.349999" stroke-width="0.699999" y2="14.75" x1="36" x2="36" fill="none"/>
<g transform="matrix(1, 0, 0, 1, 36.6999, 16.15)">
<g>
<g transform="rotate(270)">
<g>
<text text-anchor="end" x="0" stroke="none" y="0" class="text" stroke-width="0" font-family="'Droid Sans'" fill="#8c8c8c" font-size="3.49999">3V3</text>
</g>
</g>
</g>
</g>
<g x="35.6499" y="-0.349999" width="0.699999" stroke="none" id="connector86terminal" class="terminal" stroke-width="0" height="0.699999" fill="none"/>
<line stroke-linecap="round" stroke="none" id="connector40pin" class="pin" y1="0.349999" stroke-width="0" y2="14.75" x1="50.4" x2="50.4" fill="none"/>
<rect x="50.0499" y="-0.349999" width="0.699999" stroke="none" id="connector40terminal" class="terminal" stroke-width="0" height="0.699999" fill="none"/>
<line stroke-linecap="round" stroke="none" id="connector46pin" class="pin" y1="0.349999" stroke-width="0" y2="14.75" x1="50.4" x2="50.4" fill="none"/>
<rect x="50.0499" y="-0.349999" width="0.699999" stroke="none" id="connector46terminal" class="terminal" stroke-width="0" height="0.699999" fill="none"/>
<line stroke-linecap="round" stroke="#787878" id="connector87pin" class="pin" y1="0.349999" stroke-width="0.699999" y2="14.75" x1="50.4" x2="50.4" fill="none"/>
<g transform="matrix(1, 0, 0, 1, 51.0999, 16.15)">
<g>
<g transform="rotate(270)">
<g>
<text text-anchor="end" x="0" stroke="none" y="0" class="text" stroke-width="0" font-family="'Droid Sans'" fill="#8c8c8c" font-size="3.49999">5V</text>
</g>
</g>
</g>
</g>
<g x="50.0499" y="-0.349999" width="0.699999" stroke="none" id="connector87terminal" class="terminal" stroke-width="0" height="0.699999" fill="none"/>
<line stroke-linecap="round" stroke="#787878" id="connector90pin" class="pin" y1="0.349999" stroke-width="0.699999" y2="14.75" x1="64.8" x2="64.8" fill="none"/>
<g transform="matrix(1, 0, 0, 1, 65.4999, 16.15)">
<g>
<g transform="rotate(270)">
<g>
<text text-anchor="end" x="0" stroke="none" y="0" class="text" stroke-width="0" font-family="'Droid Sans'" fill="#8c8c8c" font-size="3.49999">VIN</text>
</g>
</g>
</g>
</g>
<g x="64.4499" y="-0.349999" width="0.699999" stroke="none" id="connector90terminal" class="terminal" stroke-width="0" height="0.699999" fill="none"/>
<text text-anchor="middle" x="54.4501" id="label" stroke="none" y="76.4498" class="text" stroke-width="0" font-family="'Droid Sans'" fill="#000000" font-size="4.25001">Arduino</text>
<text text-anchor="middle" x="54.4501" id="label" stroke="none" y="80.9833" class="text" stroke-width="0" font-family="'Droid Sans'" fill="#000000" font-size="4.25001">Uno</text>
<text text-anchor="middle" x="54.4501" id="label" stroke="none" y="85.5167" class="text" stroke-width="0" font-family="'Droid Sans'" fill="#000000" font-size="4.25001">(Rev3)</text>
</g>
</g></g></g><g partID='83110'><line stroke-linecap='round' stroke='#404040' x1='30.0735' y1='115.2' x2='30.0735' y2='115.2' stroke-width='0.699998' /></g><g partID='83180'><line stroke-linecap='round' stroke='#404040' x1='30.0735' y1='100.763' x2='30.0735' y2='100.8' stroke-width='0.699998' /></g><g partID='83250'><line stroke-linecap='round' stroke='#404040' x1='30.0735' y1='86.2629' x2='30.0735' y2='86.3999' stroke-width='0.699998' /></g><g partID='86470'><line stroke-linecap='round' stroke='#404040' x1='73.2735' y1='108' x2='58.8737' y2='115.2' stroke-width='0.699998' /></g><g partID='86530'><line stroke-linecap='round' stroke='#404040' x1='73.2735' y1='93.5999' x2='58.8737' y2='86.3999' stroke-width='0.699998' /></g><g partID='86690'><line stroke-linecap='round' stroke='#404040' x1='58.8737' y1='100.8' x2='73.2735' y2='100.8' stroke-width='0.699998' /></g><g partID='88490'><line stroke-linecap='round' stroke='#404040' x1='1.09588' y1='100.877' x2='2.90801' y2='100.721' stroke-width='0.699998' /></g><g partID='78950'><line stroke-linecap='round' stroke='#404040' x1='1.09588' y1='165.446' x2='1.09588' y2='100.877' stroke-width='0.699998' /></g><g partID='78800'><line stroke-linecap='round' stroke='#404040' x1='123.673' y1='165.6' x2='1.09588' y2='165.446' stroke-width='0.699998' /></g><g partID='62650' id='partLabel'><g transform='translate(44.8537,106.465)' ><g font-size='5' font-style='normal' font-weight='normal' fill='#000000' font-family="'DroidSans'" id='schematicLabel' fill-opacity='1' stroke='none' ><text x='0' y='3.75'>560&#x3a9;</text></g></g></g><g partID='62670' id='partLabel'><g transform='translate(44.7537,92.0647)' ><g font-size='5' font-style='normal' font-weight='normal' fill='#000000' font-family="'DroidSans'" id='schematicLabel' fill-opacity='1' stroke='none' ><text x='0' y='3.75'>560&#x3a9;</text></g></g></g><g partID='62690' id='partLabel'><g transform='translate(44.7537,77.6647)' ><g font-size='5' font-style='normal' font-weight='normal' fill='#000000' font-family="'DroidSans'" id='schematicLabel' fill-opacity='1' stroke='none' ><text x='0' y='3.75'>560&#x3a9;</text></g></g></g><g partID='81850' id='partLabel'><g transform='translate(5.64555,71.2783)' ><g font-size='5' font-style='normal' font-weight='normal' fill='#000000' font-family="'DroidSans'" id='schematicLabel' fill-opacity='1' stroke='none' ><text x='0' y='3.75'>RGB LED</text></g></g></g></svg>