<svg xmlns="http://www.w3.org/2000/svg" version="1.2" width="343.497" height="257.995" viewBox="0 0 257.622 193.496"><path stroke="#000" stroke-linecap="round" class="other" stroke-width=".432" d="M237.6 172.373l-2.88-1.08M234.72 171.293l5.76-1.8M240.48 169.493l-5.76-1.8M234.72 167.693l5.76-1.8M240.48 165.893l-5.76-1.8M234.72 164.093l5.76-1.8M240.48 162.293l-5.76-1.8M234.72 160.493l5.76-1.8M240.48 158.693l-2.88-.72"/><path stroke="#787878" stroke-linecap="round" class="pin" stroke-width=".7" d="M237.6 150.773v7.2"/><text text-anchor="middle" x="25.55" y="2.046" class="text" font-family="'Droid Sans'" stroke-width="0" font-size="2.5" fill="#8c8c8c" transform="rotate(-90 207.214 -27.29)">2</text><path stroke="#787878" stroke-linecap="round" class="pin" stroke-width=".7" d="M237.6 179.573v-7.2"/><text text-anchor="middle" x="3.95" y="2.046" class="text" font-family="'Droid Sans'" stroke-width="0" font-size="2.5" fill="#8c8c8c" transform="rotate(-90 207.214 -27.29)">1</text><path stroke="#000" stroke-linecap="round" class="other" stroke-width=".432" d="M180 100.373l-2.88-1.08M177.12 99.293l5.76-1.8M182.88 97.493l-5.76-1.8M177.12 95.693l5.76-1.8M182.88 93.893l-5.76-1.8M177.12 92.093l5.76-1.8M182.88 90.293l-5.76-1.8M177.12 88.493l5.76-1.8M182.88 86.693l-2.88-.72"/><path stroke="#787878" stroke-linecap="round" class="pin" stroke-width=".7" d="M180 78.773v7.2"/><text text-anchor="middle" x="25.55" y="2.046" class="text" font-family="'Droid Sans'" stroke-width="0" font-size="2.5" fill="#8c8c8c" transform="rotate(-90 142.413 -34.49)">2</text><path stroke="#787878" stroke-linecap="round" class="pin" stroke-width=".7" d="M180 107.573v-7.2"/><text text-anchor="middle" x="3.95" y="2.046" class="text" font-family="'Droid Sans'" stroke-width="0" font-size="2.5" fill="#8c8c8c" transform="rotate(-90 142.413 -34.49)">1</text><path stroke="#000" stroke-linecap="round" class="other" stroke-width=".432" d="M208.8 100.373l-2.88-1.08M205.92 99.293l5.76-1.8M211.68 97.493l-5.76-1.8M205.92 95.693l5.76-1.8M211.68 93.893l-5.76-1.8M205.92 92.093l5.76-1.8M211.68 90.293l-5.76-1.8M205.92 88.493l5.76-1.8M211.68 86.693l-2.88-.72"/><path stroke="#787878" stroke-linecap="round" class="pin" stroke-width=".7" d="M208.8 78.773v7.2"/><text text-anchor="middle" x="25.55" y="2.046" class="text" font-family="'Droid Sans'" stroke-width="0" font-size="2.5" fill="#8c8c8c" transform="rotate(-90 156.814 -48.89)">2</text><path stroke="#787878" stroke-linecap="round" class="pin" stroke-width=".7" d="M208.8 107.573v-7.2"/><text text-anchor="middle" x="3.95" y="2.046" class="text" font-family="'Droid Sans'" stroke-width="0" font-size="2.5" fill="#8c8c8c" transform="rotate(-90 156.814 -48.89)">1</text><path stroke="#000" stroke-linecap="round" class="other" stroke-width=".432" d="M237.6 100.373l-2.88-1.08M234.72 99.293l5.76-1.8M240.48 97.493l-5.76-1.8M234.72 95.693l5.76-1.8M240.48 93.893l-5.76-1.8M234.72 92.093l5.76-1.8M240.48 90.293l-5.76-1.8M234.72 88.493l5.76-1.8M240.48 86.693l-2.88-.72"/><path stroke="#787878" stroke-linecap="round" class="pin" stroke-width=".7" d="M237.6 78.773v7.2"/><text text-anchor="middle" x="25.55" y="2.046" class="text" font-family="'Droid Sans'" stroke-width="0" font-size="2.5" fill="#8c8c8c" transform="rotate(-90 171.214 -63.29)">2</text><path stroke="#787878" stroke-linecap="round" class="pin" stroke-width=".7" d="M237.6 107.573v-7.2"/><text text-anchor="middle" x="3.95" y="2.046" class="text" font-family="'Droid Sans'" stroke-width="0" font-size="2.5" fill="#8c8c8c" transform="rotate(-90 171.214 -63.29)">1</text><path stroke="#000" stroke-linecap="round" class="other" stroke-width=".432" d="M151.2 172.373l-2.88-1.08M148.32 171.293l5.76-1.8M154.08 169.493l-5.76-1.8M148.32 167.693l5.76-1.8M154.08 165.893l-5.76-1.8M148.32 164.093l5.76-1.8M154.08 162.293l-5.76-1.8M148.32 160.493l5.76-1.8M154.08 158.693l-2.88-.72"/><path stroke="#787878" stroke-linecap="round" class="pin" stroke-width=".7" d="M151.2 150.773v7.2"/><text text-anchor="middle" x="25.55" y="2.046" class="text" font-family="'Droid Sans'" stroke-width="0" font-size="2.5" fill="#8c8c8c" transform="rotate(-90 164.014 15.91)">2</text><path stroke="#787878" stroke-linecap="round" class="pin" stroke-width=".7" d="M151.2 179.573v-7.2"/><text text-anchor="middle" x="3.95" y="2.046" class="text" font-family="'Droid Sans'" stroke-width="0" font-size="2.5" fill="#8c8c8c" transform="rotate(-90 164.014 15.91)">1</text><path stroke="#000" stroke-linecap="round" class="other" stroke-width=".432" d="M180 172.373l-2.88-1.08M177.12 171.293l5.76-1.8M182.88 169.493l-5.76-1.8M177.12 167.693l5.76-1.8M182.88 165.893l-5.76-1.8M177.12 164.093l5.76-1.8M182.88 162.293l-5.76-1.8M177.12 160.493l5.76-1.8M182.88 158.693l-2.88-.72"/><path stroke="#787878" stroke-linecap="round" class="pin" stroke-width=".7" d="M180 150.773v7.2"/><text text-anchor="middle" x="25.55" y="2.046" class="text" font-family="'Droid Sans'" stroke-width="0" font-size="2.5" fill="#8c8c8c" transform="rotate(-90 178.413 1.51)">2</text><path stroke="#787878" stroke-linecap="round" class="pin" stroke-width=".7" d="M180 179.573v-7.2"/><text text-anchor="middle" x="3.95" y="2.046" class="text" font-family="'Droid Sans'" stroke-width="0" font-size="2.5" fill="#8c8c8c" transform="rotate(-90 178.413 1.51)">1</text><path stroke="#000" stroke-linecap="round" class="other" stroke-width=".432" d="M208.8 172.373l-2.88-1.08M205.92 171.293l5.76-1.8M211.68 169.493l-5.76-1.8M205.92 167.693l5.76-1.8M211.68 165.893l-5.76-1.8M205.92 164.093l5.76-1.8M211.68 162.293l-5.76-1.8M205.92 160.493l5.76-1.8M211.68 158.693l-2.88-.72"/><path stroke="#787878" stroke-linecap="round" class="pin" stroke-width=".7" d="M208.8 150.773v7.2"/><text text-anchor="middle" x="25.55" y="2.046" class="text" font-family="'Droid Sans'" stroke-width="0" font-size="2.5" fill="#8c8c8c" transform="rotate(-90 192.814 -12.89)">2</text><path stroke="#787878" stroke-linecap="round" class="pin" stroke-width=".7" d="M208.8 179.573v-7.2"/><text text-anchor="middle" x="3.95" y="2.046" class="text" font-family="'Droid Sans'" stroke-width="0" font-size="2.5" fill="#8c8c8c" transform="rotate(-90 192.814 -12.89)">1</text><g><path stroke="#000" stroke-linecap="round" class="other" stroke-width=".432" d="M151.2 100.373l-2.88-1.08M148.32 99.293l5.76-1.8M154.08 97.493l-5.76-1.8M148.32 95.693l5.76-1.8M154.08 93.893l-5.76-1.8M148.32 92.093l5.76-1.8M154.08 90.293l-5.76-1.8M148.32 88.493l5.76-1.8M154.08 86.693l-2.88-.72"/><path stroke="#787878" stroke-linecap="round" class="pin" stroke-width=".7" d="M151.2 78.773v7.2"/><text text-anchor="middle" x="25.55" y="2.046" class="text" font-family="'Droid Sans'" stroke-width="0" font-size="2.5" fill="#8c8c8c" transform="rotate(-90 128.014 -20.09)">2</text><path stroke="#787878" stroke-linecap="round" class="pin" stroke-width=".7" d="M151.2 107.573v-7.2"/><text text-anchor="middle" x="3.95" y="2.046" class="text" font-family="'Droid Sans'" stroke-width="0" font-size="2.5" fill="#8c8c8c" transform="rotate(-90 128.014 -20.09)">1</text></g><g><g fill="none"><path stroke="#787878" d="M194.4 186.671v-7.2" stroke-linecap="round" stroke-width=".75"/><path stroke="#000" d="M187.699 186.807h13.4M189.931 189.552h8.935M196.63 192.271h-4.464" stroke-linecap="round" stroke-width=".9"/></g></g><g><g fill="none"><path stroke="#787878" d="M57.6 186.671v-7.2" stroke-linecap="round" stroke-width=".75"/><path stroke="#000" d="M50.9 186.807h13.4M53.132 189.552h8.935M59.83 192.271h-4.463" stroke-linecap="round" stroke-width=".9"/></g></g><g><path d="M234.001 143.922h3.6a.35.35 0 1 0 0-.7h-3.6a.35.35 0 1 0 0 .7z"/><path d="M237.601 143.922h3.6a.35.35 0 1 0 0-.7h-3.6a.35.35 0 1 0 0 .7z"/><path fill="#FFF" d="M237.601 143.572l3.6-7.2h-7.2z"/><path d="M237.601 144.354l4.166-8.332h-8.333l4.167 8.332zm3.034-7.632l-3.034 6.068-3.034-6.068h6.068z"/><path d="M237.601 143.797a.225.225 0 0 0 .225-.225v-7.2a.225.225 0 0 0-.45 0v7.2a.226.226 0 0 0 .225.225zM245.701 141.097a.225.225 0 0 0 .159-.383l-2.34-2.341a.225.225 0 1 0-.318.318l2.34 2.341a.222.222 0 0 0 .159.065zM245.341 144.337a.225.225 0 0 0 .159-.383l-2.34-2.34a.225.225 0 1 0-.318.318l2.34 2.34a.225.225 0 0 0 .159.065z"/><path d="M237.601 151.122a.35.35 0 0 0 .35-.35v-7.2a.35.35 0 1 0-.7 0v7.2a.35.35 0 0 0 .35.35z" fill="#787878"/><path fill="none" d="M237.601 150.772h-.001v.001h.001z"/><path d="M238.532 147.03v.89h.152l.372-.342c.053-.049.101-.093.145-.13s.086-.072.128-.1a.69.69 0 0 1 .125-.062.412.412 0 0 1 .24-.004c.03.012.054.027.075.047.02.021.035.045.046.073s.016.06.016.094a.363.363 0 0 1-.038.167.629.629 0 0 1-.096.143l.116.1a.671.671 0 0 0 .155-.29.59.59 0 0 0-.013-.29.359.359 0 0 0-.076-.129.325.325 0 0 0-.119-.082.485.485 0 0 0-.318-.002.765.765 0 0 0-.148.07 1.227 1.227 0 0 0-.146.11c-.049.04-.1.086-.152.135l-.294.274h-.008v-.673h-.162zM237.601 136.722a.35.35 0 0 0 .35-.35v-7.2a.35.35 0 1 0-.7 0v7.2c.001.193.157.35.35.35z" fill="#787878"/><path fill="none" d="M237.601 129.172h-.001z"/><path d="M238.532 132.918v.172h.982c.032 0 .063 0 .095-.002.032 0 .063-.002.092-.003l.076-.002-.03.03c-.009.008-.017.016-.024.025l-.025.028-.03.035-.118.145.12.094.292-.374v-.146h-1.43z" fill="#787878"/><path d="M247.321 142.492l-1.08-2.521-1.44 1.438 2.52 1.083z"/><g><path d="M246.961 145.732l-1.08-2.521-1.438 1.438 2.518 1.083z"/></g></g><g><path d="M205.201 143.922h3.6a.35.35 0 1 0 0-.7h-3.6a.35.35 0 1 0 0 .7z"/><path d="M208.801 143.922h3.6a.35.35 0 1 0 0-.7h-3.6a.35.35 0 1 0 0 .7z"/><path fill="#FFF" d="M208.801 143.572l3.6-7.2h-7.2z"/><path d="M208.801 144.354l4.166-8.332h-8.333l4.167 8.332zm3.034-7.632l-3.034 6.068-3.034-6.068h6.068z"/><path d="M208.801 143.797a.225.225 0 0 0 .225-.225v-7.2a.225.225 0 0 0-.45 0v7.2a.226.226 0 0 0 .225.225zM216.901 141.097a.225.225 0 0 0 .159-.383l-2.34-2.341a.225.225 0 1 0-.318.318l2.34 2.341a.222.222 0 0 0 .159.065zM216.541 144.337a.225.225 0 0 0 .159-.383l-2.34-2.34a.225.225 0 1 0-.318.318l2.34 2.34a.225.225 0 0 0 .159.065z"/><path d="M208.801 151.122a.35.35 0 0 0 .35-.35v-7.2a.35.35 0 1 0-.7 0v7.2a.35.35 0 0 0 .35.35z" fill="#787878"/><path fill="none" d="M208.801 150.772h-.001v.001h.001z"/><path d="M209.732 147.03v.89h.152l.372-.342c.053-.049.101-.093.145-.13s.086-.072.128-.1a.69.69 0 0 1 .125-.062.412.412 0 0 1 .24-.004c.03.012.054.027.075.047.02.021.035.045.046.073s.016.06.016.094a.363.363 0 0 1-.038.167.629.629 0 0 1-.096.143l.116.1a.671.671 0 0 0 .155-.29.59.59 0 0 0-.013-.29.359.359 0 0 0-.076-.129.325.325 0 0 0-.119-.082.485.485 0 0 0-.318-.002.765.765 0 0 0-.148.07 1.227 1.227 0 0 0-.146.11c-.049.04-.1.086-.152.135l-.294.274h-.008v-.673h-.162zM208.801 136.722a.35.35 0 0 0 .35-.35v-7.2a.35.35 0 1 0-.7 0v7.2c.001.193.157.35.35.35z" fill="#787878"/><path fill="none" d="M208.801 129.172h-.001z"/><path d="M209.732 132.918v.172h.982c.032 0 .063 0 .095-.002.032 0 .063-.002.092-.003l.076-.002-.03.03c-.009.008-.017.016-.024.025l-.025.028-.03.035-.118.145.12.094.292-.374v-.146h-1.43z" fill="#787878"/><path d="M218.521 142.492l-1.08-2.521-1.44 1.438 2.52 1.083z"/><g><path d="M218.161 145.732l-1.08-2.521-1.438 1.438 2.518 1.083z"/></g></g><g><path d="M176.401 143.922h3.6a.35.35 0 1 0 0-.7h-3.6a.35.35 0 1 0 0 .7z"/><path d="M180.001 143.922h3.6a.35.35 0 1 0 0-.7h-3.6a.35.35 0 1 0 0 .7z"/><path fill="#FFF" d="M180.001 143.572l3.6-7.2h-7.2z"/><path d="M180.001 144.354l4.166-8.332h-8.333l4.167 8.332zm3.034-7.632l-3.034 6.068-3.034-6.068h6.068z"/><path d="M180.001 143.797a.225.225 0 0 0 .225-.225v-7.2a.225.225 0 0 0-.45 0v7.2a.226.226 0 0 0 .225.225zM188.101 141.097a.225.225 0 0 0 .159-.383l-2.34-2.341a.225.225 0 1 0-.318.318l2.34 2.341a.222.222 0 0 0 .159.065zM187.741 144.337a.225.225 0 0 0 .159-.383l-2.34-2.34a.225.225 0 1 0-.318.318l2.34 2.34a.225.225 0 0 0 .159.065z"/><path d="M180.001 151.122a.35.35 0 0 0 .35-.35v-7.2a.35.35 0 1 0-.7 0v7.2a.35.35 0 0 0 .35.35z" fill="#787878"/><path fill="none" d="M180.001 150.772H180v.001h.001z"/><path d="M180.932 147.03v.89h.152l.372-.342c.053-.049.101-.093.145-.13s.086-.072.128-.1a.69.69 0 0 1 .125-.062.412.412 0 0 1 .24-.004c.03.012.054.027.075.047.02.021.035.045.046.073s.016.06.016.094a.363.363 0 0 1-.038.167.629.629 0 0 1-.096.143l.116.1a.671.671 0 0 0 .155-.29.59.59 0 0 0-.013-.29.359.359 0 0 0-.076-.129.325.325 0 0 0-.119-.082.485.485 0 0 0-.318-.002.765.765 0 0 0-.148.07 1.227 1.227 0 0 0-.146.11c-.049.04-.1.086-.152.135l-.294.274h-.008v-.673h-.162zM180.001 136.722a.35.35 0 0 0 .35-.35v-7.2a.35.35 0 1 0-.7 0v7.2c.001.193.157.35.35.35z" fill="#787878"/><path fill="none" d="M180.001 129.172H180z"/><path d="M180.932 132.918v.172h.982c.032 0 .063 0 .095-.002.032 0 .063-.002.092-.003l.076-.002-.03.03c-.009.008-.017.016-.024.025l-.025.028-.03.035-.118.145.12.094.292-.374v-.146h-1.43z" fill="#787878"/><path d="M189.721 142.492l-1.08-2.521-1.44 1.438 2.52 1.083z"/><g><path d="M189.361 145.732l-1.08-2.521-1.438 1.438 2.518 1.083z"/></g></g><g><path d="M147.601 143.922h3.6a.35.35 0 1 0 0-.7h-3.6a.35.35 0 1 0 0 .7z"/><path d="M151.201 143.922h3.6a.35.35 0 1 0 0-.7h-3.6a.35.35 0 1 0 0 .7z"/><path fill="#FFF" d="M151.201 143.572l3.6-7.2h-7.2z"/><path d="M151.201 144.354l4.166-8.332h-8.333l4.167 8.332zm3.034-7.632l-3.034 6.068-3.034-6.068h6.068z"/><path d="M151.201 143.797a.225.225 0 0 0 .225-.225v-7.2a.225.225 0 0 0-.45 0v7.2a.226.226 0 0 0 .225.225zM159.301 141.097a.225.225 0 0 0 .159-.383l-2.34-2.341a.225.225 0 1 0-.318.318l2.34 2.341a.222.222 0 0 0 .159.065zM158.941 144.337a.225.225 0 0 0 .159-.383l-2.34-2.34a.225.225 0 1 0-.318.318l2.34 2.34a.225.225 0 0 0 .159.065z"/><path d="M151.201 151.122a.35.35 0 0 0 .35-.35v-7.2a.35.35 0 1 0-.7 0v7.2a.35.35 0 0 0 .35.35z" fill="#787878"/><path fill="none" d="M151.201 150.772h-.001v.001h.001z"/><path d="M152.132 147.03v.89h.152l.372-.342c.053-.049.101-.093.145-.13s.086-.072.128-.1a.69.69 0 0 1 .125-.062.412.412 0 0 1 .24-.004c.03.012.054.027.075.047.02.021.035.045.046.073s.016.06.016.094a.363.363 0 0 1-.038.167.629.629 0 0 1-.096.143l.116.1a.671.671 0 0 0 .155-.29.59.59 0 0 0-.013-.29.359.359 0 0 0-.076-.129.325.325 0 0 0-.119-.082.485.485 0 0 0-.318-.002.765.765 0 0 0-.148.07 1.227 1.227 0 0 0-.146.11c-.049.04-.1.086-.152.135l-.294.274h-.008v-.673h-.162zM151.201 136.722a.35.35 0 0 0 .35-.35v-7.2a.35.35 0 1 0-.7 0v7.2c.001.193.157.35.35.35z" fill="#787878"/><path fill="none" d="M151.201 129.172h-.001z"/><path d="M152.132 132.918v.172h.982c.032 0 .063 0 .095-.002.032 0 .063-.002.092-.003l.076-.002-.03.03c-.009.008-.017.016-.024.025l-.025.028-.03.035-.118.145.12.094.292-.374v-.146h-1.43z" fill="#787878"/><path d="M160.921 142.492l-1.08-2.521-1.44 1.438 2.52 1.083z"/><g><path d="M160.561 145.732l-1.08-2.521-1.438 1.438 2.518 1.083z"/></g></g><g><path d="M234.001 71.922h3.6a.35.35 0 1 0 0-.7h-3.6a.35.35 0 1 0 0 .7z"/><path d="M237.601 71.922h3.6a.35.35 0 1 0 0-.7h-3.6a.35.35 0 1 0 0 .7z"/><path fill="#FFF" d="M237.601 71.572l3.6-7.2h-7.2z"/><path d="M237.601 72.354l4.166-8.332h-8.333l4.167 8.332zm3.034-7.632l-3.034 6.068-3.034-6.068h6.068z"/><path d="M237.601 71.797a.225.225 0 0 0 .225-.225v-7.2a.225.225 0 0 0-.45 0v7.2a.226.226 0 0 0 .225.225zM245.701 69.097a.225.225 0 0 0 .159-.383l-2.34-2.34a.225.225 0 1 0-.318.317l2.34 2.341a.222.222 0 0 0 .159.065zM245.341 72.337a.225.225 0 0 0 .159-.383l-2.34-2.34a.225.225 0 1 0-.318.318l2.34 2.34a.225.225 0 0 0 .159.065z"/><path d="M237.601 79.122a.35.35 0 0 0 .35-.35v-7.2a.35.35 0 1 0-.7 0v7.2a.35.35 0 0 0 .35.35z" fill="#787878"/><path fill="none" d="M237.601 78.772h-.001v.001h.001z"/><path d="M238.532 75.03v.89h.152l.372-.341c.053-.05.101-.093.145-.131s.086-.071.128-.1a.69.69 0 0 1 .125-.061.412.412 0 0 1 .24-.005c.03.013.054.028.075.048.02.02.035.044.046.072s.016.06.016.094a.363.363 0 0 1-.038.167.629.629 0 0 1-.096.143l.116.1a.671.671 0 0 0 .155-.29.59.59 0 0 0-.013-.29.359.359 0 0 0-.076-.128.325.325 0 0 0-.119-.083.485.485 0 0 0-.318-.002.765.765 0 0 0-.148.07 1.227 1.227 0 0 0-.146.11c-.049.04-.1.086-.152.135l-.294.274h-.008v-.673h-.162zM237.601 64.722a.35.35 0 0 0 .35-.35v-7.2a.35.35 0 1 0-.7 0v7.2c.001.193.157.35.35.35z" fill="#787878"/><path fill="none" d="M237.601 57.172h-.001z"/><path d="M238.532 60.919v.172h.982c.032 0 .063-.002.095-.003.032 0 .063-.002.092-.003l.076-.002-.03.03c-.009.008-.017.016-.024.025l-.025.029c-.008.01-.019.02-.03.034l-.118.145.12.095.292-.375v-.146h-1.43z" fill="#787878"/><path d="M247.321 70.492l-1.08-2.52-1.44 1.437 2.52 1.083z"/><g><path d="M246.961 73.732l-1.08-2.52-1.438 1.437 2.518 1.083z"/></g></g><g><path d="M205.201 71.922h3.6a.35.35 0 1 0 0-.7h-3.6a.35.35 0 1 0 0 .7z"/><path d="M208.801 71.922h3.6a.35.35 0 1 0 0-.7h-3.6a.35.35 0 1 0 0 .7z"/><path fill="#FFF" d="M208.801 71.572l3.6-7.2h-7.2z"/><path d="M208.801 72.354l4.166-8.332h-8.333l4.167 8.332zm3.034-7.632l-3.034 6.068-3.034-6.068h6.068z"/><path d="M208.801 71.797a.225.225 0 0 0 .225-.225v-7.2a.225.225 0 0 0-.45 0v7.2a.226.226 0 0 0 .225.225zM216.901 69.097a.225.225 0 0 0 .159-.383l-2.34-2.34a.225.225 0 1 0-.318.317l2.34 2.341a.222.222 0 0 0 .159.065zM216.541 72.337a.225.225 0 0 0 .159-.383l-2.34-2.34a.225.225 0 1 0-.318.318l2.34 2.34a.225.225 0 0 0 .159.065z"/><path d="M208.801 79.122a.35.35 0 0 0 .35-.35v-7.2a.35.35 0 1 0-.7 0v7.2a.35.35 0 0 0 .35.35z" fill="#787878"/><path fill="none" d="M208.801 78.772h-.001v.001h.001z"/><path d="M209.732 75.03v.89h.152l.372-.341c.053-.05.101-.093.145-.131s.086-.071.128-.1a.69.69 0 0 1 .125-.061.412.412 0 0 1 .24-.005c.03.013.054.028.075.048.02.02.035.044.046.072s.016.06.016.094a.363.363 0 0 1-.038.167.629.629 0 0 1-.096.143l.116.1a.671.671 0 0 0 .155-.29.59.59 0 0 0-.013-.29.359.359 0 0 0-.076-.128.325.325 0 0 0-.119-.083.485.485 0 0 0-.318-.002.765.765 0 0 0-.148.07 1.227 1.227 0 0 0-.146.11c-.049.04-.1.086-.152.135l-.294.274h-.008v-.673h-.162zM208.801 64.722a.35.35 0 0 0 .35-.35v-7.2a.35.35 0 1 0-.7 0v7.2c.001.193.157.35.35.35z" fill="#787878"/><path fill="none" d="M208.801 57.172h-.001z"/><path d="M209.732 60.919v.172h.982c.032 0 .063-.002.095-.003.032 0 .063-.002.092-.003l.076-.002-.03.03c-.009.008-.017.016-.024.025l-.025.029c-.008.01-.019.02-.03.034l-.118.145.12.095.292-.375v-.146h-1.43z" fill="#787878"/><path d="M218.521 70.492l-1.08-2.52-1.44 1.437 2.52 1.083z"/><g><path d="M218.161 73.732l-1.08-2.52-1.438 1.437 2.518 1.083z"/></g></g><g><path d="M176.401 71.922h3.6a.35.35 0 1 0 0-.7h-3.6a.35.35 0 1 0 0 .7z"/><path d="M180.001 71.922h3.6a.35.35 0 1 0 0-.7h-3.6a.35.35 0 1 0 0 .7z"/><path fill="#FFF" d="M180.001 71.572l3.6-7.2h-7.2z"/><path d="M180.001 72.354l4.166-8.332h-8.333l4.167 8.332zm3.034-7.632l-3.034 6.068-3.034-6.068h6.068z"/><path d="M180.001 71.797a.225.225 0 0 0 .225-.225v-7.2a.225.225 0 0 0-.45 0v7.2a.226.226 0 0 0 .225.225zM188.101 69.097a.225.225 0 0 0 .159-.383l-2.34-2.34a.225.225 0 1 0-.318.317l2.34 2.341a.222.222 0 0 0 .159.065zM187.741 72.337a.225.225 0 0 0 .159-.383l-2.34-2.34a.225.225 0 1 0-.318.318l2.34 2.34a.225.225 0 0 0 .159.065z"/><path d="M180.001 79.122a.35.35 0 0 0 .35-.35v-7.2a.35.35 0 1 0-.7 0v7.2a.35.35 0 0 0 .35.35z" fill="#787878"/><path fill="none" d="M180.001 78.772H180v.001h.001z"/><path d="M180.932 75.03v.89h.152l.372-.341c.053-.05.101-.093.145-.131s.086-.071.128-.1a.69.69 0 0 1 .125-.061.412.412 0 0 1 .24-.005c.03.013.054.028.075.048.02.02.035.044.046.072s.016.06.016.094a.363.363 0 0 1-.038.167.629.629 0 0 1-.096.143l.116.1a.671.671 0 0 0 .155-.29.59.59 0 0 0-.013-.29.359.359 0 0 0-.076-.128.325.325 0 0 0-.119-.083.485.485 0 0 0-.318-.002.765.765 0 0 0-.148.07 1.227 1.227 0 0 0-.146.11c-.049.04-.1.086-.152.135l-.294.274h-.008v-.673h-.162zM180.001 64.722a.35.35 0 0 0 .35-.35v-7.2a.35.35 0 1 0-.7 0v7.2c.001.193.157.35.35.35z" fill="#787878"/><path fill="none" d="M180.001 57.172H180z"/><path d="M180.932 60.919v.172h.982c.032 0 .063-.002.095-.003.032 0 .063-.002.092-.003l.076-.002-.03.03c-.009.008-.017.016-.024.025l-.025.029c-.008.01-.019.02-.03.034l-.118.145.12.095.292-.375v-.146h-1.43z" fill="#787878"/><path d="M189.721 70.492l-1.08-2.52-1.44 1.437 2.52 1.083z"/><g><path d="M189.361 73.732l-1.08-2.52-1.438 1.437 2.518 1.083z"/></g></g><g><path d="M147.601 71.922h3.6a.35.35 0 1 0 0-.7h-3.6a.35.35 0 1 0 0 .7z"/><path d="M151.201 71.922h3.6a.35.35 0 1 0 0-.7h-3.6a.35.35 0 1 0 0 .7z"/><path fill="#FFF" d="M151.201 71.572l3.6-7.2h-7.2z"/><path d="M151.201 72.354l4.166-8.332h-8.333l4.167 8.332zm3.034-7.632l-3.034 6.068-3.034-6.068h6.068z"/><path d="M151.201 71.797a.225.225 0 0 0 .225-.225v-7.2a.225.225 0 0 0-.45 0v7.2a.226.226 0 0 0 .225.225zM159.301 69.097a.225.225 0 0 0 .159-.383l-2.34-2.34a.225.225 0 1 0-.318.317l2.34 2.341a.222.222 0 0 0 .159.065zM158.941 72.337a.225.225 0 0 0 .159-.383l-2.34-2.34a.225.225 0 1 0-.318.318l2.34 2.34a.225.225 0 0 0 .159.065z"/><path d="M151.201 79.122a.35.35 0 0 0 .35-.35v-7.2a.35.35 0 1 0-.7 0v7.2a.35.35 0 0 0 .35.35z" fill="#787878"/><path fill="none" d="M151.201 78.772h-.001v.001h.001z"/><path d="M152.132 75.03v.89h.152l.372-.341c.053-.05.101-.093.145-.131s.086-.071.128-.1a.69.69 0 0 1 .125-.061.412.412 0 0 1 .24-.005c.03.013.054.028.075.048.02.02.035.044.046.072s.016.06.016.094a.363.363 0 0 1-.038.167.629.629 0 0 1-.096.143l.116.1a.671.671 0 0 0 .155-.29.59.59 0 0 0-.013-.29.359.359 0 0 0-.076-.128.325.325 0 0 0-.119-.083.485.485 0 0 0-.318-.002.765.765 0 0 0-.148.07 1.227 1.227 0 0 0-.146.11c-.049.04-.1.086-.152.135l-.294.274h-.008v-.673h-.162zM151.201 64.722a.35.35 0 0 0 .35-.35v-7.2a.35.35 0 1 0-.7 0v7.2c.001.193.157.35.35.35z" fill="#787878"/><path fill="none" d="M151.201 57.172h-.001z"/><path d="M152.132 60.919v.172h.982c.032 0 .063-.002.095-.003.032 0 .063-.002.092-.003l.076-.002-.03.03c-.009.008-.017.016-.024.025l-.025.029c-.008.01-.019.02-.03.034l-.118.145.12.095.292-.375v-.146h-1.43z" fill="#787878"/><path d="M160.921 70.492l-1.08-2.52-1.44 1.437 2.52 1.083z"/><g><path d="M160.561 73.732l-1.08-2.52-1.438 1.437 2.518 1.083z"/></g></g><g><g fill="none"><path stroke="#787878" d="M194.4 114.671v-7.2" stroke-linecap="round" stroke-width=".75"/><path stroke="#000" d="M187.699 114.807h13.4M189.931 117.552h8.935M196.63 120.271h-4.464" stroke-linecap="round" stroke-width=".9"/></g></g><g><path fill="none" d="M111.61 111.176h-3.6v-7.2h3.6z"/><path stroke="#000" stroke-width=".24" fill="#fff" d="M108.123 107.576l3.48 3.48h11.36v-6.96h-11.36z"/></g><g><path fill="none" d="M241.21 132.776h-3.6v-7.2h3.6z"/><path stroke="#000" stroke-width=".24" fill="#fff" d="M237.723 129.176l3.48 3.48h11.36v-6.96h-11.36z"/></g><g><path fill="none" d="M111.61 103.976h-3.6v-7.2h3.6z"/><path stroke="#000" stroke-width=".24" fill="#fff" d="M108.123 100.376l3.48 3.48h11.36v-6.96h-11.36z"/></g><g><path fill="none" d="M212.41 132.776h-3.6v-7.2h3.6z"/><path stroke="#000" stroke-width=".24" fill="#fff" d="M208.923 129.176l3.48 3.48h11.36v-6.96h-11.36z"/></g><g><path fill="none" d="M111.61 96.776h-3.6v-7.2h3.6z"/><path stroke="#000" stroke-width=".24" fill="#fff" d="M108.123 93.176l3.48 3.48h11.36v-6.96h-11.36z"/></g><g><path fill="none" d="M183.61 132.776h-3.6v-7.2h3.6z"/><path stroke="#000" stroke-width=".24" fill="#fff" d="M180.123 129.176l3.48 3.48h11.36v-6.96h-11.36z"/></g><g><path fill="none" d="M111.61 89.576h-3.6v-7.2h3.6z"/><path stroke="#000" stroke-width=".24" fill="#fff" d="M108.123 85.976l3.48 3.48h11.36v-6.96h-11.36z"/></g><g><path fill="none" d="M154.81 132.776h-3.6v-7.2h3.6z"/><path stroke="#000" stroke-width=".24" fill="#fff" d="M151.323 129.176l3.48 3.48h11.36v-6.96h-11.36z"/></g><g><path fill="none" d="M111.61 82.376h-3.6v-7.2h3.6z"/><path stroke="#000" stroke-width=".24" fill="#fff" d="M108.123 78.776l3.48 3.48h11.36v-6.96h-11.36z"/></g><g><path fill="none" d="M241.21 60.776h-3.6v-7.2h3.6z"/><path stroke="#000" stroke-width=".24" fill="#fff" d="M237.723 57.176l3.48 3.48h11.36v-6.96h-11.36z"/></g><g><path fill="none" d="M111.61 75.176h-3.6v-7.2h3.6z"/><path stroke="#000" stroke-width=".24" fill="#fff" d="M108.123 71.576l3.48 3.48h11.36v-6.96h-11.36z"/></g><g><path fill="none" d="M212.41 60.776h-3.6v-7.2h3.6z"/><path stroke="#000" stroke-width=".24" fill="#fff" d="M208.923 57.176l3.48 3.48h11.36v-6.96h-11.36z"/></g><g><path fill="none" d="M111.61 67.976h-3.6v-7.2h3.6z"/><path stroke="#000" stroke-width=".24" fill="#fff" d="M108.123 64.376l3.48 3.48h11.36v-6.96h-11.36z"/></g><g><path fill="none" d="M183.61 60.776h-3.6v-7.2h3.6z"/><path stroke="#000" stroke-width=".24" fill="#fff" d="M180.123 57.176l3.48 3.48h11.36v-6.96h-11.36z"/></g><g><path fill="none" d="M111.61 60.776h-3.6v-7.2h3.6z"/><path stroke="#000" stroke-width=".24" fill="#fff" d="M108.123 57.176l3.48 3.48h11.36v-6.96h-11.36z"/></g><g><path fill="none" d="M154.81 60.776h-3.6v-7.2h3.6z"/><path stroke="#000" stroke-width=".24" fill="#fff" d="M151.323 57.176l3.48 3.48h11.36v-6.96h-11.36z"/></g><g><path stroke="#787878" stroke-miterlimit="10" stroke-linecap="round" stroke-width=".75" fill="none" d="M50.419 6.78v7.2"/><path stroke="#000" d="M43.669 6.564h13.5" stroke-linecap="round" stroke-width=".9" fill="none"/><text font-family="'DroidSans'" font-size="4.499" transform="translate(44.717 4.988)">5V</text></g><g><path stroke="#000" stroke-linecap="round" class="interior rect" stroke-width=".9" fill="#FFF" d="M14.85 28.823h78.3v135.9h-78.3z"/><path stroke="#787878" stroke-linecap="round" class="pin" stroke-width=".7" fill="none" d="M93.25 42.773h14.4"/><text text-anchor="end" x="91.85" y="29.5" class="text" font-family="'Droid Sans'" stroke-width="0" font-size="3.5" fill="#8c8c8c" transform="translate(0 13.973)">D0/RX</text><path stroke="#787878" stroke-linecap="round" class="pin" stroke-width=".7" fill="none" d="M93.25 49.973h14.4"/><text text-anchor="end" x="91.85" y="36.7" class="text" font-family="'Droid Sans'" stroke-width="0" font-size="3.5" fill="#8c8c8c" transform="translate(0 13.973)">D1/TX</text><path stroke="#787878" stroke-linecap="round" class="pin" stroke-width=".7" fill="none" d="M93.25 57.173h14.4"/><text text-anchor="end" x="91.85" y="43.9" class="text" font-family="'Droid Sans'" stroke-width="0" font-size="3.5" fill="#8c8c8c" transform="translate(0 13.973)">D2</text><path stroke="#787878" stroke-linecap="round" class="pin" stroke-width=".7" fill="none" d="M93.25 64.373h14.4"/><text text-anchor="end" x="91.85" y="51.1" class="text" font-family="'Droid Sans'" stroke-width="0" font-size="3.5" fill="#8c8c8c" transform="translate(0 13.973)">D3 PWM</text><path stroke="#787878" stroke-linecap="round" class="pin" stroke-width=".7" fill="none" d="M93.25 71.573h14.4"/><text text-anchor="end" x="91.85" y="58.3" class="text" font-family="'Droid Sans'" stroke-width="0" font-size="3.5" fill="#8c8c8c" transform="translate(0 13.973)">D4</text><path stroke="#787878" stroke-linecap="round" class="pin" stroke-width=".7" fill="none" d="M93.25 78.773h14.4"/><text text-anchor="end" x="91.85" y="65.5" class="text" font-family="'Droid Sans'" stroke-width="0" font-size="3.5" fill="#8c8c8c" transform="translate(0 13.973)">D5 PWM</text><path stroke="#787878" stroke-linecap="round" class="pin" stroke-width=".7" fill="none" d="M93.25 85.973h14.4"/><text text-anchor="end" x="91.85" y="72.7" class="text" font-family="'Droid Sans'" stroke-width="0" font-size="3.5" fill="#8c8c8c" transform="translate(0 13.973)">D6 PWM</text><path stroke="#787878" stroke-linecap="round" class="pin" stroke-width=".7" fill="none" d="M93.25 93.173h14.4"/><text text-anchor="end" x="91.85" y="79.9" class="text" font-family="'Droid Sans'" stroke-width="0" font-size="3.5" fill="#8c8c8c" transform="translate(0 13.973)">D7</text><path stroke="#787878" stroke-linecap="round" class="pin" stroke-width=".7" fill="none" d="M93.25 100.373h14.4"/><text text-anchor="end" x="91.85" y="87.1" class="text" font-family="'Droid Sans'" stroke-width="0" font-size="3.5" fill="#8c8c8c" transform="translate(0 13.973)">D8</text><path stroke="#787878" stroke-linecap="round" class="pin" stroke-width=".7" fill="none" d="M93.25 107.573h14.4"/><text text-anchor="end" x="91.85" y="94.3" class="text" font-family="'Droid Sans'" stroke-width="0" font-size="3.5" fill="#8c8c8c" transform="translate(0 13.973)">D9 PWM</text><path stroke="#787878" stroke-linecap="round" class="pin" stroke-width=".7" fill="none" d="M93.25 114.773h14.4"/><text text-anchor="end" x="91.85" y="101.5" class="text" font-family="'Droid Sans'" stroke-width="0" font-size="3.5" fill="#8c8c8c" transform="translate(0 13.973)">D10 PWM/SS</text><path stroke="#787878" stroke-linecap="round" class="pin" stroke-width=".7" fill="none" d="M93.25 121.973h14.4"/><text text-anchor="end" x="91.85" y="108.7" class="text" font-family="'Droid Sans'" stroke-width="0" font-size="3.5" fill="#8c8c8c" transform="translate(0 13.973)">D11 PWM/MOSI</text><path stroke="#787878" stroke-linecap="round" class="pin" stroke-width=".7" fill="none" d="M93.25 129.173h14.4"/><text text-anchor="end" x="91.85" y="115.9" class="text" font-family="'Droid Sans'" stroke-width="0" font-size="3.5" fill="#8c8c8c" transform="translate(0 13.973)">D12/MISO</text><path class="pin" fill="none" d="M93.25 136.373h14.4"/><path class="terminal" fill="none" d="M107.65 136.023h.7v.7h-.7z"/><path stroke="#787878" stroke-linecap="round" class="pin" stroke-width=".7" fill="none" d="M93.25 136.373h14.4"/><text text-anchor="end" x="91.85" y="123.1" class="text" font-family="'Droid Sans'" stroke-width="0" font-size="3.5" fill="#8c8c8c" transform="translate(0 13.973)">D13/SCK</text><path class="pin" fill="none" d="M.35 42.773h14.4"/><path class="terminal" fill="none" d="M-.35 42.423h.7v.7h-.7z"/><path stroke="#787878" stroke-linecap="round" class="pin" stroke-width=".7" fill="none" d="M.35 42.773h14.4"/><text x="16.15" y="29.5" class="text" font-family="'Droid Sans'" stroke-width="0" font-size="3.5" fill="#8c8c8c" transform="translate(0 13.973)">RESET</text><path stroke="#787878" stroke-linecap="round" class="pin" stroke-width=".7" fill="none" d="M.35 49.973h14.4"/><text x="16.15" y="36.7" class="text" font-family="'Droid Sans'" stroke-width="0" font-size="3.5" fill="#8c8c8c" transform="translate(0 13.973)">RESET2</text><path class="terminal" fill="none" d="M-.35 49.623h.7v.7h-.7z"/><path stroke="#787878" stroke-linecap="round" class="pin" stroke-width=".7" fill="none" d="M.35 57.173h14.4"/><text x="16.15" y="43.9" class="text" font-family="'Droid Sans'" stroke-width="0" font-size="3.5" fill="#8c8c8c" transform="translate(0 13.973)">AREF</text><path stroke="#787878" stroke-linecap="round" class="pin" stroke-width=".7" fill="none" d="M.35 64.373h14.4"/><text x="16.15" y="51.1" class="text" font-family="'Droid Sans'" stroke-width="0" font-size="3.5" fill="#8c8c8c" transform="translate(0 13.973)">ioref</text><path stroke="#787878" stroke-linecap="round" class="pin" stroke-width=".7" fill="none" d="M.35 78.773h14.4"/><text x="16.15" y="65.5" class="text" font-family="'Droid Sans'" stroke-width="0" font-size="3.5" fill="#8c8c8c" transform="translate(0 13.973)">A0</text><path stroke="#787878" stroke-linecap="round" class="pin" stroke-width=".7" fill="none" d="M.35 85.973h14.4"/><text x="16.15" y="72.7" class="text" font-family="'Droid Sans'" stroke-width="0" font-size="3.5" fill="#8c8c8c" transform="translate(0 13.973)">A1</text><path stroke="#787878" stroke-linecap="round" class="pin" stroke-width=".7" fill="none" d="M.35 93.173h14.4"/><text x="16.15" y="79.9" class="text" font-family="'Droid Sans'" stroke-width="0" font-size="3.5" fill="#8c8c8c" transform="translate(0 13.973)">A2</text><path stroke="#787878" stroke-linecap="round" class="pin" stroke-width=".7" fill="none" d="M.35 100.373h14.4"/><text x="16.15" y="87.1" class="text" font-family="'Droid Sans'" stroke-width="0" font-size="3.5" fill="#8c8c8c" transform="translate(0 13.973)">A3</text><path class="pin" fill="none" d="M.35 107.573h14.4"/><path class="terminal" fill="none" d="M-.35 107.223h.7v.7h-.7z"/><path class="pin" fill="none" d="M.35 107.573h14.4"/><path class="terminal" fill="none" d="M-.35 107.223h.7v.7h-.7z"/><path class="pin" fill="none" d="M.35 107.573h14.4M.35 107.573h14.4"/><path class="terminal" fill="none" d="M-.35 107.223h.7v.7h-.7z"/><path class="pin" fill="none" d="M.35 107.573h14.4"/><path class="terminal" fill="none" d="M-.35 107.223h.7v.7h-.7z"/><path class="pin" fill="none" d="M.35 107.573h14.4"/><path class="terminal" fill="none" d="M-.35 107.223h.7v.7h-.7z"/><path stroke="#787878" stroke-linecap="round" class="pin" stroke-width=".7" fill="none" d="M.35 107.573h14.4"/><text x="16.15" y="94.3" class="text" font-family="'Droid Sans'" stroke-width="0" font-size="3.5" fill="#8c8c8c" transform="translate(0 13.973)">A4/SDA</text><path class="pin" fill="none" d="M.35 114.773h14.4"/><path stroke="#787878" stroke-linecap="round" class="pin" stroke-width=".7" fill="none" d="M.35 114.773h14.4"/><text x="16.15" y="101.5" class="text" font-family="'Droid Sans'" stroke-width="0" font-size="3.5" fill="#8c8c8c" transform="translate(0 13.973)">A5/SCL</text><path stroke="#787878" stroke-linecap="round" class="pin" stroke-width=".7" fill="none" d="M.35 150.773h14.4"/><text x="16.15" y="137.5" class="text" font-family="'Droid Sans'" stroke-width="0" font-size="3.5" fill="#8c8c8c" transform="translate(0 13.973)">N/C</text><path class="pin" fill="none" d="M57.6 164.823v14.4M57.6 164.823v14.4M57.6 164.823v14.4"/><path class="terminal" fill="none" d="M57.25 179.223h.7v.7h-.7z"/><path class="pin" fill="none" d="M57.6 164.823v14.4"/><path class="terminal" fill="none" d="M57.25 179.223h.7v.7h-.7z"/><path stroke="#787878" stroke-linecap="round" class="pin" stroke-width=".7" fill="none" d="M57.6 164.823v14.4"/><text class="text" font-family="'Droid Sans'" stroke-width="0" font-size="3.5" fill="#8c8c8c" transform="rotate(-90 110.861 52.561)">GND</text><path stroke="#787878" stroke-linecap="round" class="pin" stroke-width=".7" fill="none" d="M36 14.323v14.4"/><text text-anchor="end" class="text" font-family="'Droid Sans'" stroke-width="0" font-size="3.5" fill="#8c8c8c" transform="rotate(-90 33.411 -3.289)">3V3</text><path class="pin" fill="none" d="M50.4 14.323v14.4"/><path class="terminal" fill="none" d="M50.05 13.623h.7v.7h-.7z"/><path class="pin" fill="none" d="M50.4 14.323v14.4"/><path class="terminal" fill="none" d="M50.05 13.623h.7v.7h-.7z"/><path stroke="#787878" stroke-linecap="round" class="pin" stroke-width=".7" fill="none" d="M50.4 14.323v14.4"/><text text-anchor="end" class="text" font-family="'Droid Sans'" stroke-width="0" font-size="3.5" fill="#8c8c8c" transform="rotate(-90 40.611 -10.489)">5V</text><path stroke="#787878" stroke-linecap="round" class="pin" stroke-width=".7" fill="none" d="M64.8 14.323v14.4"/><text text-anchor="end" class="text" font-family="'Droid Sans'" stroke-width="0" font-size="3.5" fill="#8c8c8c" transform="rotate(-90 47.811 -17.689)">VIN</text><text text-anchor="middle" x="54.45" y="76.45" class="text" font-family="'Droid Sans'" stroke-width="0" font-size="4.25" transform="translate(0 13.973)">Arduino</text><text text-anchor="middle" x="54.45" y="80.983" class="text" font-family="'Droid Sans'" stroke-width="0" font-size="4.25" transform="translate(0 13.973)">Uno</text><text text-anchor="middle" x="54.45" y="85.517" class="text" font-family="'Droid Sans'" stroke-width="0" font-size="4.25" transform="translate(0 13.973)">(Rev3)</text></g><g><text font-size="4.8" font-family="Droid Sans" transform="translate(111.427 109.333)">pin 9</text></g><g><text font-size="4.8" font-family="Droid Sans" transform="translate(241.027 130.933)">pin 9</text></g><g><text font-size="4.8" font-family="Droid Sans" transform="translate(111.427 102.133)">pin 8</text></g><g><text font-size="4.8" font-family="Droid Sans" transform="translate(212.227 130.933)">pin 8</text></g><g><text font-size="4.8" font-family="Droid Sans" transform="translate(111.427 94.933)">pin 7</text></g><g><text font-size="4.8" font-family="Droid Sans" transform="translate(183.427 130.933)">pin 7</text></g><g><text font-size="4.8" font-family="Droid Sans" transform="translate(111.427 87.733)">pin 6</text></g><g><text font-size="4.8" font-family="Droid Sans" transform="translate(154.627 130.933)">pin 6</text></g><g><text font-size="4.8" font-family="Droid Sans" transform="translate(111.427 80.533)">pin 5</text></g><g><text font-size="4.8" font-family="Droid Sans" transform="translate(241.027 58.933)">pin 5</text></g><g><text font-size="4.8" font-family="Droid Sans" transform="translate(111.427 73.333)">pin 4</text></g><g><text font-size="4.8" font-family="Droid Sans" transform="translate(212.227 58.933)">pin 4</text></g><g><text font-size="4.8" font-family="Droid Sans" transform="translate(111.427 66.133)">pin 3</text></g><g><text font-size="4.8" font-family="Droid Sans" transform="translate(183.427 58.933)">pin 3</text></g><g><text font-size="4.8" font-family="Droid Sans" transform="translate(111.427 58.933)">pin 2</text></g><g><text font-size="4.8" font-family="Droid Sans" transform="translate(154.627 58.933)">pin 2</text></g><g><path stroke-linecap="round" stroke="#404040" stroke-width=".7" d="M151.2 78.773"/></g><g><path stroke-linecap="round" stroke="#404040" stroke-width=".7" d="M151.2 57.173v-.001"/></g><g><path stroke-linecap="round" stroke="#404040" stroke-width=".7" d="M180 57.173v-.001"/></g><g><path stroke-linecap="round" stroke="#404040" stroke-width=".7" d="M180 78.773"/></g><g><path stroke-linecap="round" stroke="#404040" stroke-width=".7" d="M208.8 57.173v-.001"/></g><g><path stroke-linecap="round" stroke="#404040" stroke-width=".7" d="M208.8 78.773"/></g><g><path stroke-linecap="round" stroke="#404040" stroke-width=".7" d="M237.6 57.173v-.001"/></g><g><path stroke-linecap="round" stroke="#404040" stroke-width=".7" d="M237.6 78.773"/></g><g><path stroke-linecap="round" stroke="#404040" stroke-width=".7" d="M151.2 129.173v-.001"/></g><g><path stroke-linecap="round" stroke="#404040" stroke-width=".7" d="M151.2 150.773"/></g><g><path stroke-linecap="round" stroke="#404040" stroke-width=".7" d="M180 150.773"/></g><g><path stroke-linecap="round" stroke="#404040" stroke-width=".7" d="M180 129.173v-.001"/></g><g><path stroke-linecap="round" stroke="#404040" stroke-width=".7" d="M208.8 129.173v-.001"/></g><g><path stroke-linecap="round" stroke="#404040" stroke-width=".7" d="M208.8 150.773"/></g><g><path stroke-linecap="round" stroke="#404040" stroke-width=".7" d="M237.6 129.173v-.001"/></g><g><path stroke-linecap="round" stroke="#404040" stroke-width=".7" d="M237.6 150.773"/></g><g><path stroke-linecap="round" stroke="#404040" stroke-width=".7" d="M108 64.373"/></g><g><path stroke-linecap="round" stroke="#404040" stroke-width=".7" d="M108 71.573"/></g><g><path stroke-linecap="round" stroke="#404040" stroke-width=".7" d="M108 78.773"/></g><g><path stroke-linecap="round" stroke="#404040" stroke-width=".7" d="M108 85.973"/></g><g><path stroke-linecap="round" stroke="#404040" stroke-width=".7" d="M108 93.173"/></g><g><path stroke-linecap="round" stroke="#404040" stroke-width=".7" d="M108 100.373"/></g><g><path stroke-linecap="round" stroke="#404040" stroke-width=".7" d="M108 107.573"/></g><g><path stroke-linecap="round" stroke="#404040" stroke-width=".7" d="M180 179.573h-28.8"/></g><circle cx="180" cy="179.573" r="1.44"/><g><path stroke-linecap="round" stroke="#404040" stroke-width=".7" d="M180 179.573h14.4"/></g><circle cx="180" cy="179.573" r="1.44"/><circle cx="194.4" cy="179.573" r="1.44"/><g><path stroke-linecap="round" stroke="#404040" stroke-width=".7" d="M194.4 179.573h14.4"/></g><circle cx="194.4" cy="179.573" r="1.44"/><circle cx="208.8" cy="179.573" r="1.44"/><g><path stroke-linecap="round" stroke="#404040" stroke-width=".7" d="M208.8 179.573h28.8"/></g><circle cx="208.8" cy="179.573" r="1.44"/><g><path stroke-linecap="round" stroke="#404040" stroke-width=".7" d="M208.8 107.573h28.8"/></g><circle cx="208.8" cy="107.573" r="1.44"/><g><path stroke-linecap="round" stroke="#404040" stroke-width=".7" d="M208.8 107.573h-14.4"/></g><circle cx="208.8" cy="107.573" r="1.44"/><circle cx="194.4" cy="107.573" r="1.44"/><g><path stroke-linecap="round" stroke="#404040" stroke-width=".7" d="M194.4 107.573H180"/></g><circle cx="194.4" cy="107.573" r="1.44"/><circle cx="180" cy="107.573" r="1.44"/><g><path stroke-linecap="round" stroke="#404040" stroke-width=".7" d="M180 107.573h-28.8"/></g><circle cx="180" cy="107.573" r="1.44"/><g><path stroke-linecap="round" stroke="#404040" stroke-width=".7" d="M57.6 179.573"/></g><g><path stroke-linecap="round" stroke="#404040" stroke-width=".7" d="M50.4 13.973"/></g><g><path stroke-linecap="round" stroke="#404040" stroke-width=".7" d="M108 57.173"/></g><g><g font-size="5" font-family="'DroidSans'"><text y="3.75" transform="translate(243.222 87.505)">R4</text><text y="8.75" transform="translate(243.222 87.505)">560Ω</text></g></g><g><g font-size="5" font-family="'DroidSans'"><text y="3.75" transform="translate(242.858 158.471)">R8</text><text y="8.75" transform="translate(242.858 158.471)">560Ω</text></g></g></svg>