<svg xmlns="http://www.w3.org/2000/svg" version="1.2" width="424.542" height="267.595" viewBox="0 0 318.406 200.696"><defs><marker orient="auto" id="a" overflow="visible"><path d="M-5.231-2.42L1.324-.01-5.23 2.401c1.047-1.423 1.041-3.37 0-4.821z" fill-rule="evenodd" stroke-width=".375" stroke-linejoin="round" stroke="#000"/></marker></defs><path stroke-width=".432" stroke-linecap="round" stroke="#000" class="other" d="M234.451 157.973l2.88 1.08M237.331 159.053l-5.76 1.8M231.571 160.853l5.76 1.8M237.331 162.653l-5.76 1.8M231.571 164.453l5.76 1.8M237.331 166.253l-5.76 1.8M231.571 168.053l5.76 1.8M237.331 169.853l-5.76 1.8M231.571 171.653l2.88.72"/><path stroke-width=".7" stroke-linecap="round" stroke="#787878" class="pin" d="M234.451 179.573v-7.2"/><text font-family="'Droid Sans'" stroke-width="0" class="text" x="25.55" y="2.046" fill="#8c8c8c" text-anchor="middle" font-size="2.5" transform="rotate(90 43.562 193.985)">2</text><path stroke-width=".7" stroke-linecap="round" stroke="#787878" class="pin" d="M234.451 150.773v7.2"/><text font-family="'Droid Sans'" stroke-width="0" class="text" x="3.95" y="2.046" fill="#8c8c8c" text-anchor="middle" font-size="2.5" transform="rotate(90 43.562 193.985)">1</text><path stroke-width=".5" stroke-linecap="round" stroke="#000" fill="none" d="M230.851 143.572h3.6M234.451 143.572h3.6"/><path stroke-width=".9" stroke-linecap="round" stroke="#000" stroke-linejoin="round" fill="#FFF" d="M230.851 136.372l3.6 7.2 3.6-7.2h-3.6z"/><path stroke-width=".5" stroke-linecap="round" stroke="#000" fill="none" d="M240.211 138.532l2.849 2.848M239.851 141.773l2.893 2.892"/><path stroke-width=".75" stroke-linecap="round" stroke="#787878" fill="none" d="M234.451 150.773v-7.201"/><text font-family="'DroidSans'" fill="#8C8C8C" font-size="2.5" transform="matrix(0 -1 -1 0 235.501 147.86)">2</text><path stroke-width=".75" stroke-linecap="round" stroke="#787878" fill="none" d="M234.451 129.172v7.2"/><text font-family="'DroidSans'" fill="#8C8C8C" font-size="2.5" transform="matrix(0 -1 -1 0 235.501 133.461)">1</text><path stroke-width=".2" stroke-linecap="round" stroke="#000" d="M244.171 142.491l-1.08-2.52-1.44 1.439 2.52 1.081zM243.811 145.732l-1.08-2.52-1.439 1.439 2.519 1.081z" stroke-linejoin="round"/><g><path stroke-width=".9" stroke-linecap="round" stroke="#000" class="interior rect" fill="#FFF" d="M76.5 28.823h78.3v135.9H76.5z"/><path stroke-width=".7" stroke-linecap="round" stroke="#787878" class="pin" fill="none" d="M154.9 42.773h14.4"/><text font-family="'Droid Sans'" stroke-width="0" class="text" x="91.85" y="29.5" fill="#8c8c8c" text-anchor="end" font-size="3.5" transform="translate(61.65 13.973)">D0/RX</text><path stroke-width=".7" stroke-linecap="round" stroke="#787878" class="pin" fill="none" d="M154.9 49.973h14.4"/><text font-family="'Droid Sans'" stroke-width="0" class="text" x="91.85" y="36.7" fill="#8c8c8c" text-anchor="end" font-size="3.5" transform="translate(61.65 13.973)">D1/TX</text><path stroke-width=".7" stroke-linecap="round" stroke="#787878" class="pin" fill="none" d="M154.9 57.173h14.4"/><text font-family="'Droid Sans'" stroke-width="0" class="text" x="91.85" y="43.9" fill="#8c8c8c" text-anchor="end" font-size="3.5" transform="translate(61.65 13.973)">D2</text><path stroke-width=".7" stroke-linecap="round" stroke="#787878" class="pin" fill="none" d="M154.9 64.373h14.4"/><text font-family="'Droid Sans'" stroke-width="0" class="text" x="91.85" y="51.1" fill="#8c8c8c" text-anchor="end" font-size="3.5" transform="translate(61.65 13.973)">D3 PWM</text><path stroke-width=".7" stroke-linecap="round" stroke="#787878" class="pin" fill="none" d="M154.9 71.573h14.4"/><text font-family="'Droid Sans'" stroke-width="0" class="text" x="91.85" y="58.3" fill="#8c8c8c" text-anchor="end" font-size="3.5" transform="translate(61.65 13.973)">D4</text><path stroke-width=".7" stroke-linecap="round" stroke="#787878" class="pin" fill="none" d="M154.9 78.773h14.4"/><text font-family="'Droid Sans'" stroke-width="0" class="text" x="91.85" y="65.5" fill="#8c8c8c" text-anchor="end" font-size="3.5" transform="translate(61.65 13.973)">D5 PWM</text><path stroke-width=".7" stroke-linecap="round" stroke="#787878" class="pin" fill="none" d="M154.9 85.973h14.4"/><text font-family="'Droid Sans'" stroke-width="0" class="text" x="91.85" y="72.7" fill="#8c8c8c" text-anchor="end" font-size="3.5" transform="translate(61.65 13.973)">D6 PWM</text><path stroke-width=".7" stroke-linecap="round" stroke="#787878" class="pin" fill="none" d="M154.9 93.173h14.4"/><text font-family="'Droid Sans'" stroke-width="0" class="text" x="91.85" y="79.9" fill="#8c8c8c" text-anchor="end" font-size="3.5" transform="translate(61.65 13.973)">D7</text><path stroke-width=".7" stroke-linecap="round" stroke="#787878" class="pin" fill="none" d="M154.9 100.373h14.4"/><text font-family="'Droid Sans'" stroke-width="0" class="text" x="91.85" y="87.1" fill="#8c8c8c" text-anchor="end" font-size="3.5" transform="translate(61.65 13.973)">D8</text><path stroke-width=".7" stroke-linecap="round" stroke="#787878" class="pin" fill="none" d="M154.9 107.573h14.4"/><text font-family="'Droid Sans'" stroke-width="0" class="text" x="91.85" y="94.3" fill="#8c8c8c" text-anchor="end" font-size="3.5" transform="translate(61.65 13.973)">D9 PWM</text><path stroke-width=".7" stroke-linecap="round" stroke="#787878" class="pin" fill="none" d="M154.9 114.773h14.4"/><text font-family="'Droid Sans'" stroke-width="0" class="text" x="91.85" y="101.5" fill="#8c8c8c" text-anchor="end" font-size="3.5" transform="translate(61.65 13.973)">D10 PWM/SS</text><path stroke-width=".7" stroke-linecap="round" stroke="#787878" class="pin" fill="none" d="M154.9 121.973h14.4"/><text font-family="'Droid Sans'" stroke-width="0" class="text" x="91.85" y="108.7" fill="#8c8c8c" text-anchor="end" font-size="3.5" transform="translate(61.65 13.973)">D11 PWM/MOSI</text><path stroke-width=".7" stroke-linecap="round" stroke="#787878" class="pin" fill="none" d="M154.9 129.173h14.4"/><text font-family="'Droid Sans'" stroke-width="0" class="text" x="91.85" y="115.9" fill="#8c8c8c" text-anchor="end" font-size="3.5" transform="translate(61.65 13.973)">D12/MISO</text><path class="pin" fill="none" d="M154.9 136.373h14.4"/><path class="terminal" fill="none" d="M169.3 136.023h.7v.7h-.7z"/><path stroke-width=".7" stroke-linecap="round" stroke="#787878" class="pin" fill="none" d="M154.9 136.373h14.4"/><text font-family="'Droid Sans'" stroke-width="0" class="text" x="91.85" y="123.1" fill="#8c8c8c" text-anchor="end" font-size="3.5" transform="translate(61.65 13.973)">D13/SCK</text><path class="pin" fill="none" d="M62 42.773h14.4"/><path class="terminal" fill="none" d="M61.3 42.423h.7v.7h-.7z"/><path stroke-width=".7" stroke-linecap="round" stroke="#787878" class="pin" fill="none" d="M62 42.773h14.4"/><text font-family="'Droid Sans'" stroke-width="0" class="text" x="16.15" y="29.5" fill="#8c8c8c" font-size="3.5" transform="translate(61.65 13.973)">RESET</text><path stroke-width=".7" stroke-linecap="round" stroke="#787878" class="pin" fill="none" d="M62 49.973h14.4"/><text font-family="'Droid Sans'" stroke-width="0" class="text" x="16.15" y="36.7" fill="#8c8c8c" font-size="3.5" transform="translate(61.65 13.973)">RESET2</text><path class="terminal" fill="none" d="M61.3 49.623h.7v.7h-.7z"/><path stroke-width=".7" stroke-linecap="round" stroke="#787878" class="pin" fill="none" d="M62 57.173h14.4"/><text font-family="'Droid Sans'" stroke-width="0" class="text" x="16.15" y="43.9" fill="#8c8c8c" font-size="3.5" transform="translate(61.65 13.973)">AREF</text><path stroke-width=".7" stroke-linecap="round" stroke="#787878" class="pin" fill="none" d="M62 64.373h14.4"/><text font-family="'Droid Sans'" stroke-width="0" class="text" x="16.15" y="51.1" fill="#8c8c8c" font-size="3.5" transform="translate(61.65 13.973)">ioref</text><path stroke-width=".7" stroke-linecap="round" stroke="#787878" class="pin" fill="none" d="M62 78.773h14.4"/><text font-family="'Droid Sans'" stroke-width="0" class="text" x="16.15" y="65.5" fill="#8c8c8c" font-size="3.5" transform="translate(61.65 13.973)">A0</text><path stroke-width=".7" stroke-linecap="round" stroke="#787878" class="pin" fill="none" d="M62 85.973h14.4"/><text font-family="'Droid Sans'" stroke-width="0" class="text" x="16.15" y="72.7" fill="#8c8c8c" font-size="3.5" transform="translate(61.65 13.973)">A1</text><path stroke-width=".7" stroke-linecap="round" stroke="#787878" class="pin" fill="none" d="M62 93.173h14.4"/><text font-family="'Droid Sans'" stroke-width="0" class="text" x="16.15" y="79.9" fill="#8c8c8c" font-size="3.5" transform="translate(61.65 13.973)">A2</text><path stroke-width=".7" stroke-linecap="round" stroke="#787878" class="pin" fill="none" d="M62 100.373h14.4"/><text font-family="'Droid Sans'" stroke-width="0" class="text" x="16.15" y="87.1" fill="#8c8c8c" font-size="3.5" transform="translate(61.65 13.973)">A3</text><path class="pin" fill="none" d="M62 107.573h14.4"/><path class="terminal" fill="none" d="M61.3 107.223h.7v.7h-.7z"/><path class="pin" fill="none" d="M62 107.573h14.4"/><path class="terminal" fill="none" d="M61.3 107.223h.7v.7h-.7z"/><path class="pin" fill="none" d="M62 107.573h14.4M62 107.573h14.4"/><path class="terminal" fill="none" d="M61.3 107.223h.7v.7h-.7z"/><path class="pin" fill="none" d="M62 107.573h14.4"/><path class="terminal" fill="none" d="M61.3 107.223h.7v.7h-.7z"/><path class="pin" fill="none" d="M62 107.573h14.4"/><path class="terminal" fill="none" d="M61.3 107.223h.7v.7h-.7z"/><path stroke-width=".7" stroke-linecap="round" stroke="#787878" class="pin" fill="none" d="M62 107.573h14.4"/><text font-family="'Droid Sans'" stroke-width="0" class="text" x="16.15" y="94.3" fill="#8c8c8c" font-size="3.5" transform="translate(61.65 13.973)">A4/SDA</text><path class="pin" fill="none" d="M62 114.773h14.4"/><path stroke-width=".7" stroke-linecap="round" stroke="#787878" class="pin" fill="none" d="M62 114.773h14.4"/><text font-family="'Droid Sans'" stroke-width="0" class="text" x="16.15" y="101.5" fill="#8c8c8c" font-size="3.5" transform="translate(61.65 13.973)">A5/SCL</text><path stroke-width=".7" stroke-linecap="round" stroke="#787878" class="pin" fill="none" d="M62 150.773h14.4"/><text font-family="'Droid Sans'" stroke-width="0" class="text" x="16.15" y="137.5" fill="#8c8c8c" font-size="3.5" transform="translate(61.65 13.973)">N/C</text><path class="pin" fill="none" d="M119.25 164.823v14.4M119.25 164.823v14.4M119.25 164.823v14.4"/><path class="terminal" fill="none" d="M118.9 179.223h.7v.7h-.7z"/><path class="pin" fill="none" d="M119.25 164.823v14.4"/><path class="terminal" fill="none" d="M118.9 179.223h.7v.7h-.7z"/><path stroke-width=".7" stroke-linecap="round" stroke="#787878" class="pin" fill="none" d="M119.25 164.823v14.4"/><text font-family="'Droid Sans'" stroke-width="0" class="text" fill="#8c8c8c" font-size="3.5" transform="rotate(-90 141.687 21.736)">GND</text><path stroke-width=".7" stroke-linecap="round" stroke="#787878" class="pin" fill="none" d="M97.65 14.323v14.4"/><text font-family="'Droid Sans'" stroke-width="0" class="text" fill="#8c8c8c" text-anchor="end" font-size="3.5" transform="rotate(-90 64.237 -34.114)">3V3</text><path class="pin" fill="none" d="M112.05 14.323v14.4"/><path class="terminal" fill="none" d="M111.7 13.623h.7v.7h-.7z"/><path class="pin" fill="none" d="M112.05 14.323v14.4"/><path class="terminal" fill="none" d="M111.7 13.623h.7v.7h-.7z"/><path stroke-width=".7" stroke-linecap="round" stroke="#787878" class="pin" fill="none" d="M112.05 14.323v14.4"/><text font-family="'Droid Sans'" stroke-width="0" class="text" fill="#8c8c8c" text-anchor="end" font-size="3.5" transform="rotate(-90 71.437 -41.314)">5V</text><path stroke-width=".7" stroke-linecap="round" stroke="#787878" class="pin" fill="none" d="M126.45 14.323v14.4"/><text font-family="'Droid Sans'" stroke-width="0" class="text" fill="#8c8c8c" text-anchor="end" font-size="3.5" transform="rotate(-90 78.637 -48.514)">VIN</text><text font-family="'Droid Sans'" stroke-width="0" class="text" x="54.45" y="76.45" text-anchor="middle" font-size="4.25" transform="translate(61.65 13.973)">Arduino</text><text font-family="'Droid Sans'" stroke-width="0" class="text" x="54.45" y="80.983" text-anchor="middle" font-size="4.25" transform="translate(61.65 13.973)">Uno</text><text font-family="'Droid Sans'" stroke-width="0" class="text" x="54.45" y="85.517" text-anchor="middle" font-size="4.25" transform="translate(61.65 13.973)">(Rev3)</text></g><g><g fill="none"><path stroke-width=".75" stroke-linecap="round" stroke="#787878" d="M11.25 193.871v-7.2"/><path stroke-width=".9" stroke-linecap="round" stroke="#000" d="M4.55 194.007h13.4M6.782 196.752h8.935M13.48 199.471H9.018"/></g></g><g><g fill="none"><path stroke-width=".75" stroke-linecap="round" stroke="#787878" d="M119.251 186.671v-7.2"/><path stroke-width=".9" stroke-linecap="round" stroke="#000" d="M112.55 186.807h13.4M114.782 189.552h8.935M121.481 192.271h-4.464"/></g></g><g><g fill="none"><path stroke-width=".75" stroke-linecap="round" stroke="#787878" d="M234.451 186.671v-7.2"/><path stroke-width=".9" stroke-linecap="round" stroke="#000" d="M227.75 186.807h13.4M229.982 189.552h8.935M236.681 192.271h-4.464"/></g></g><g><path stroke-width=".9" stroke-linecap="round" stroke="#000" fill="none" d="M22.05 93.173H.45M14.851 96.773H7.65M22.05 100.373H.45M14.851 103.973H7.65"/><path stroke-width=".75" stroke-linecap="round" stroke="#000" fill="none" d="M11.25 89.573v3.6"/><path stroke-width=".75" stroke-linecap="round" stroke="#787878" fill="none" d="M11.25 111.173v-7.2"/><text font-family="'DroidSans'" fill="#8C8C8C" font-size="2.5" transform="translate(12.38 108.342)">1</text><path stroke-width=".75" stroke-linecap="round" stroke="#787878" fill="none" d="M11.25 82.373v7.2"/><text font-family="'DroidSans'" fill="#8C8C8C" font-size="2.5" transform="translate(12.38 86.743)">2</text><text font-family="'DroidSans'" fill="#F8141F" font-size="2.5" transform="translate(7.898 86.743)">+</text><text font-family="'DroidSans'" font-size="2.5" transform="translate(8.792 108.057)">-</text></g><g><path fill="none" d="M238.061 125.576h-3.6v-7.2h3.6z"/><path stroke-width=".24" stroke="#000" fill="#fff" d="M234.574 121.976l3.48 3.48h14.36v-6.96h-14.36z"/></g><g><path fill="none" d="M180.461 139.976h-3.6v-7.2h3.6z"/><path stroke-width=".24" stroke="#000" fill="#fff" d="M176.974 136.376l3.48 3.48h14.36v-6.96h-14.36z"/></g><g><path stroke-width=".75" stroke-linecap="round" stroke="#787878" stroke-miterlimit="10" fill="none" d="M11.269 6.78v7.2"/><path stroke-width=".9" stroke-linecap="round" stroke="#000" d="M4.519 6.564h13.5" fill="none"/><text font-family="'DroidSans'" font-size="4.499" transform="translate(5.567 4.988)">5V</text></g><g><path stroke-width=".75" stroke-linecap="round" stroke="#787878" stroke-miterlimit="10" fill="none" d="M112.069 6.78v7.2"/><path stroke-width=".9" stroke-linecap="round" stroke="#000" d="M105.319 6.564h13.5" fill="none"/><text font-family="'DroidSans'" font-size="4.499" transform="translate(106.368 4.988)">5V</text></g><g><text font-size="4.8" font-family="Droid Sans" transform="translate(238.605 123.627)">pin 13</text></g><g><text font-size="4.8" font-family="Droid Sans" transform="translate(180.862 138.027)">pin 13</text></g><g><path stroke-linecap="round" stroke="#404040" stroke-width=".7" d="M119.25 179.573"/></g><g><path stroke-linecap="round" stroke="#404040" stroke-width=".7" d="M234.45 179.573"/></g><g><path stroke-linecap="round" stroke="#404040" stroke-width=".7" d="M234.45 150.773"/></g><g><path stroke-linecap="round" stroke="#404040" stroke-width=".7" d="M176.85 136.373h-7.2"/></g><g><path stroke-linecap="round" stroke="#404040" stroke-width=".7" d="M234.45 121.973v7.199"/></g><g><path stroke-linecap="round" stroke="#404040" stroke-width=".7" d="M11.25 107.573v79.2"/></g><g><path stroke-linecap="round" stroke="#404040" stroke-width=".7" d="M112.05 13.973"/></g><g><path stroke-linecap="round" stroke="#404040" stroke-width=".7" d="M11.25 13.973v72"/></g><g><text y="3.75" transform="translate(247.23 135.765)" font-size="5" font-family="'DroidSans'">LED<tspan font-size="4" x="0" y="8.25">(light emitting diode)</tspan> <tspan font-size="4" x="7" y="-6">longer lead</tspan> <tspan font-size="6" x="-12" y="-19">Arduino</tspan></text></g><g><g font-size="5" font-family="'DroidSans'"><text y="3.75" transform="translate(247.709 156.26)">resistor<tspan font-size="4" x="0" y="13.25">(green-blue-brown)</tspan></text><text y="8.75" transform="translate(247.709 156.26)">560Ω</text></g></g><g><text y="3.75" transform="translate(245.71 180.762)" font-size="5" font-family="'DroidSans'">gnd<tspan font-size="4" x="0" y="9.25">(ground) (-)</tspan></text></g><path d="M253.148 128.341l-16.496 5.61" fill="none" stroke="#000" stroke-width=".32" marker-end="url(#a)"/></svg>