<svg xmlns="http://www.w3.org/2000/svg" version="1.2" baseProfile="tiny" width="326.425" height="257.995" viewBox="0 0 244.818 193.496"><g stroke-linecap="round" stroke-linejoin="round" stroke-width=".56" font-size="2.5" fill="none" font-family="'Droid Sans'"><g stroke="#000" fill="#000"><path stroke-linejoin="miter" d="M219.2 117.965v-1.28l-1.04.64zM212.8 117.965v-1.28l1.04.64z"/><path d="M212.8 117.965v3.202h-4v.8M219.2 117.965v3.202h4v.8M217.6 116.764l-1.6 3.202v2.002" fill="none"/><text stroke="#787878" stroke-width=".08" fill="#787878" transform="rotate(-90 172.133 -51.767)">N.C.</text><text stroke="#787878" stroke-width=".08" fill="#787878" transform="rotate(-90 164.933 -44.567)">N.O.</text><text stroke="#787878" stroke-width=".08" fill="#787878" transform="rotate(-90 167.893 -47.527)">C</text><path fill="none" stroke="none" d="M210.22 115.884v-.801h-.8v.8z"/></g><g text-anchor="middle" fill="#787878"><text transform="rotate(-90 173.835 -48.665)">11</text><text transform="rotate(-90 170.235 -45.065)">13</text><text x=".24" transform="rotate(-90 166.635 -41.465)">9</text><path fill="none" d="M224.58 125.17v-.8h-.8v.8z"/></g><g stroke="#787878"><path d="M223.2 129.173v-7.205M216 129.173v-7.205M208.8 129.173v-7.205"/></g></g><g stroke-linecap="round" stroke-linejoin="round" stroke-width=".56" font-size="2.5" fill="none" font-family="'Droid Sans'"><g stroke="#000" fill="#000"><path stroke-linejoin="miter" d="M226.4 161.98v1.281l-1.04-.64zM220 161.98v1.281l1.04-.64z"/><path d="M220 161.98v-3.202h-4v-.8M226.4 161.98v-3.202h4v-.8M224.8 163.181l-1.6-3.202v-2.001" fill="none"/><g text-anchor="end"><text stroke="#787878" stroke-width=".08" fill="#787878" transform="rotate(-90 195.34 -35.76)">N.C.</text><text stroke="#787878" stroke-width=".08" fill="#787878" transform="rotate(-90 188.14 -28.56)">N.O.</text><text stroke="#787878" stroke-width=".08" fill="#787878" transform="rotate(-90 191.1 -31.52)">C</text><path fill="none" stroke="none" d="M217.42 164.142v.8h-.8v-.8z"/></g></g><g text-anchor="middle" fill="#787878"><text transform="rotate(-90 192.238 -37.462)">6</text><text transform="rotate(-90 188.638 -33.862)">4</text><text transform="rotate(-90 185.038 -30.262)">8</text><path fill="none" d="M231.78 154.775v.801h-.8v-.8z"/></g><g stroke="#787878"><path d="M230.4 150.773v7.205M223.2 150.773v7.205M216 150.773v7.205"/></g></g><g stroke-linecap="round" stroke-linejoin="round" stroke-width=".56" font-size="2.5" fill="none" font-family="'Droid Sans'"><g stroke="#000"><path d="M158.395 143.593h-5.604v-4.4c-2.802 0-2.802-4 0-4-2.802 0-2.802-4 0-4-2.802 0-2.802-4 0-4-2.802 0-2.802-4 0-4-2.802 0-2.802-4 0-4v-4.4h5.604"/><text transform="rotate(-90 143.194 -14)" text-anchor="middle" stroke-width=".08" font-size="4.251" fill="#000">relay coil</text></g><g fill="#787878"><text transform="rotate(-90 152.596 -9.802)">1</text><text text-anchor="end" x="-1.601" transform="rotate(-90 138.196 -24.202)">16</text></g><g stroke="#787878"><path d="M165.6 143.593h-7.205M165.6 114.793h-7.205"/></g></g><path stroke-linecap="round" stroke="#000" class="other" stroke-width=".432" d="M165.6 150.773l-5.76 2.88M163.44 162.293l2.16 2.88M165.6 165.173H162M162 165.173l1.44-2.88M162.765 163.756l-3.492-1.746"/><path stroke-linecap="round" stroke="#000" class="other" stroke-width=".72" d="M162.72 164.813h2.16M164.88 164.813l-1.44-1.8M163.44 163.013l-.72 1.44M162.72 164.453h1.08M163.8 164.453l-.36-.72"/><path class="other" d="M157.68 150.773h2.16v14.4h-2.16z"/><path stroke-linecap="round" stroke="#787878" class="pin" stroke-width=".7" d="M151.2 157.973h7.2"/><text y="13.7" text-anchor="middle" class="text" stroke-width="0" font-size="2.5" font-family="'Droid Sans'" fill="#8c8c8c" x="3.95" transform="translate(150.85 143.223)">1</text><path stroke-linecap="round" stroke="#787878" class="pin" stroke-width=".7" d="M165.6 172.373v-7.2"/><text text-anchor="middle" class="text" stroke-width="0" font-size="2.5" font-family="'Droid Sans'" fill="#8c8c8c" transform="rotate(-90 166.662 2.112)">2</text><path stroke-linecap="round" stroke="#787878" class="pin" stroke-width=".7" d="M165.6 143.573v7.2"/><text text-anchor="middle" class="text" stroke-width="0" font-size="2.5" font-family="'Droid Sans'" fill="#8c8c8c" transform="rotate(-90 155.862 -8.688)">3</text><g xmlns="http://www.w3.org/2000/svg" stroke-linecap="round" fill="none"><path stroke="#787878" stroke-width=".75" xmlns="http://www.w3.org/2000/svg" d="M165.6 179.471v-7.2"/><path stroke="#000" stroke-width=".9" xmlns="http://www.w3.org/2000/svg" d="M158.899 179.607h13.4M161.131 182.352h8.935M167.83 185.071h-4.464"/></g><g xmlns="http://www.w3.org/2000/svg"><path stroke-linecap="round" stroke="#000" class="other" stroke-width=".432" xmlns="http://www.w3.org/2000/svg" d="M144 143.573l-2.88-1.08M141.12 142.493l5.76-1.8M146.88 140.693l-5.76-1.8M141.12 138.893l5.76-1.8M146.88 137.093l-5.76-1.8M141.12 135.293l5.76-1.8M146.88 133.493l-5.76-1.8M141.12 131.693l5.76-1.8M146.88 129.893l-2.88-.72"/><path stroke-linecap="round" stroke="#787878" class="pin" stroke-width=".7" xmlns="http://www.w3.org/2000/svg" d="M144 121.973v7.2"/><text y="2.046" text-anchor="middle" class="text" stroke-width="0" font-size="2.5" xmlns="http://www.w3.org/2000/svg" font-family="'Droid Sans'" fill="#8c8c8c" x="25.55" transform="rotate(-90 146.013 5.11)">2</text><path stroke-linecap="round" stroke="#787878" class="pin" stroke-width=".7" xmlns="http://www.w3.org/2000/svg" d="M144 150.773v-7.2"/><text y="2.046" text-anchor="middle" class="text" stroke-width="0" font-size="2.5" xmlns="http://www.w3.org/2000/svg" font-family="'Droid Sans'" fill="#8c8c8c" x="3.95" transform="rotate(-90 146.013 5.11)">1</text></g><path stroke-linecap="round" stroke="#000" class="interior rect" stroke-width=".9" fill="#FFF" d="M14.85 28.823h78.3v135.9h-78.3z"/><path stroke-linecap="round" stroke="#787878" class="pin" stroke-width=".7" fill="none" d="M93.25 42.773h14.4"/><text y="29.5" text-anchor="end" class="text" stroke-width="0" font-size="3.5" font-family="'Droid Sans'" fill="#8c8c8c" x="91.85" transform="translate(0 13.973)">D0/RX</text><path stroke-linecap="round" stroke="#787878" class="pin" stroke-width=".7" fill="none" d="M93.25 49.973h14.4"/><text y="36.7" text-anchor="end" class="text" stroke-width="0" font-size="3.5" font-family="'Droid Sans'" fill="#8c8c8c" x="91.85" transform="translate(0 13.973)">D1/TX</text><path stroke-linecap="round" stroke="#787878" class="pin" stroke-width=".7" fill="none" d="M93.25 57.173h14.4"/><text y="43.9" text-anchor="end" class="text" stroke-width="0" font-size="3.5" font-family="'Droid Sans'" fill="#8c8c8c" x="91.85" transform="translate(0 13.973)">D2</text><path stroke-linecap="round" stroke="#787878" class="pin" stroke-width=".7" fill="none" d="M93.25 64.373h14.4"/><text y="51.1" text-anchor="end" class="text" stroke-width="0" font-size="3.5" font-family="'Droid Sans'" fill="#8c8c8c" x="91.85" transform="translate(0 13.973)">D3 PWM</text><path stroke-linecap="round" stroke="#787878" class="pin" stroke-width=".7" fill="none" d="M93.25 71.573h14.4"/><text y="58.3" text-anchor="end" class="text" stroke-width="0" font-size="3.5" font-family="'Droid Sans'" fill="#8c8c8c" x="91.85" transform="translate(0 13.973)">D4</text><path stroke-linecap="round" stroke="#787878" class="pin" stroke-width=".7" fill="none" d="M93.25 78.773h14.4"/><text y="65.5" text-anchor="end" class="text" stroke-width="0" font-size="3.5" font-family="'Droid Sans'" fill="#8c8c8c" x="91.85" transform="translate(0 13.973)">D5 PWM</text><path stroke-linecap="round" stroke="#787878" class="pin" stroke-width=".7" fill="none" d="M93.25 85.973h14.4"/><text y="72.7" text-anchor="end" class="text" stroke-width="0" font-size="3.5" font-family="'Droid Sans'" fill="#8c8c8c" x="91.85" transform="translate(0 13.973)">D6 PWM</text><path stroke-linecap="round" stroke="#787878" class="pin" stroke-width=".7" fill="none" d="M93.25 93.173h14.4"/><text y="79.9" text-anchor="end" class="text" stroke-width="0" font-size="3.5" font-family="'Droid Sans'" fill="#8c8c8c" x="91.85" transform="translate(0 13.973)">D7</text><path stroke-linecap="round" stroke="#787878" class="pin" stroke-width=".7" fill="none" d="M93.25 100.373h14.4"/><text y="87.1" text-anchor="end" class="text" stroke-width="0" font-size="3.5" font-family="'Droid Sans'" fill="#8c8c8c" x="91.85" transform="translate(0 13.973)">D8</text><path stroke-linecap="round" stroke="#787878" class="pin" stroke-width=".7" fill="none" d="M93.25 107.573h14.4"/><text y="94.3" text-anchor="end" class="text" stroke-width="0" font-size="3.5" font-family="'Droid Sans'" fill="#8c8c8c" x="91.85" transform="translate(0 13.973)">D9 PWM</text><path stroke-linecap="round" stroke="#787878" class="pin" stroke-width=".7" fill="none" d="M93.25 114.773h14.4"/><text y="101.5" text-anchor="end" class="text" stroke-width="0" font-size="3.5" font-family="'Droid Sans'" fill="#8c8c8c" x="91.85" transform="translate(0 13.973)">D10 PWM/SS</text><path stroke-linecap="round" stroke="#787878" class="pin" stroke-width=".7" fill="none" d="M93.25 121.973h14.4"/><text y="108.7" text-anchor="end" class="text" stroke-width="0" font-size="3.5" font-family="'Droid Sans'" fill="#8c8c8c" x="91.85" transform="translate(0 13.973)">D11 PWM/MOSI</text><path stroke-linecap="round" stroke="#787878" class="pin" stroke-width=".7" fill="none" d="M93.25 129.173h14.4"/><text y="115.9" text-anchor="end" class="text" stroke-width="0" font-size="3.5" font-family="'Droid Sans'" fill="#8c8c8c" x="91.85" transform="translate(0 13.973)">D12/MISO</text><path class="pin" fill="none" d="M93.25 136.373h14.4"/><path class="terminal" fill="none" d="M107.65 136.023h.7v.7h-.7z"/><path stroke-linecap="round" stroke="#787878" class="pin" stroke-width=".7" fill="none" d="M93.25 136.373h14.4"/><text y="123.1" text-anchor="end" class="text" stroke-width="0" font-size="3.5" font-family="'Droid Sans'" fill="#8c8c8c" x="91.85" transform="translate(0 13.973)">D13/SCK</text><path class="pin" fill="none" d="M.35 42.773h14.4"/><path class="terminal" fill="none" d="M-.35 42.423h.7v.7h-.7z"/><path stroke-linecap="round" stroke="#787878" class="pin" stroke-width=".7" fill="none" d="M.35 42.773h14.4"/><text y="29.5" class="text" stroke-width="0" font-size="3.5" font-family="'Droid Sans'" fill="#8c8c8c" x="16.15" transform="translate(0 13.973)">RESET</text><path stroke-linecap="round" stroke="#787878" class="pin" stroke-width=".7" fill="none" d="M.35 49.973h14.4"/><text y="36.7" class="text" stroke-width="0" font-size="3.5" font-family="'Droid Sans'" fill="#8c8c8c" x="16.15" transform="translate(0 13.973)">RESET2</text><path class="terminal" fill="none" d="M-.35 49.623h.7v.7h-.7z"/><path stroke-linecap="round" stroke="#787878" class="pin" stroke-width=".7" fill="none" d="M.35 57.173h14.4"/><text y="43.9" class="text" stroke-width="0" font-size="3.5" font-family="'Droid Sans'" fill="#8c8c8c" x="16.15" transform="translate(0 13.973)">AREF</text><path stroke-linecap="round" stroke="#787878" class="pin" stroke-width=".7" fill="none" d="M.35 64.373h14.4"/><text y="51.1" class="text" stroke-width="0" font-size="3.5" font-family="'Droid Sans'" fill="#8c8c8c" x="16.15" transform="translate(0 13.973)">ioref</text><path stroke-linecap="round" stroke="#787878" class="pin" stroke-width=".7" fill="none" d="M.35 78.773h14.4"/><text y="65.5" class="text" stroke-width="0" font-size="3.5" font-family="'Droid Sans'" fill="#8c8c8c" x="16.15" transform="translate(0 13.973)">A0</text><path stroke-linecap="round" stroke="#787878" class="pin" stroke-width=".7" fill="none" d="M.35 85.973h14.4"/><text y="72.7" class="text" stroke-width="0" font-size="3.5" font-family="'Droid Sans'" fill="#8c8c8c" x="16.15" transform="translate(0 13.973)">A1</text><path stroke-linecap="round" stroke="#787878" class="pin" stroke-width=".7" fill="none" d="M.35 93.173h14.4"/><text y="79.9" class="text" stroke-width="0" font-size="3.5" font-family="'Droid Sans'" fill="#8c8c8c" x="16.15" transform="translate(0 13.973)">A2</text><path stroke-linecap="round" stroke="#787878" class="pin" stroke-width=".7" fill="none" d="M.35 100.373h14.4"/><text y="87.1" class="text" stroke-width="0" font-size="3.5" font-family="'Droid Sans'" fill="#8c8c8c" x="16.15" transform="translate(0 13.973)">A3</text><path class="pin" fill="none" d="M.35 107.573h14.4"/><path class="terminal" fill="none" d="M-.35 107.223h.7v.7h-.7z"/><path class="pin" fill="none" d="M.35 107.573h14.4"/><path class="terminal" fill="none" d="M-.35 107.223h.7v.7h-.7z"/><path class="pin" fill="none" d="M.35 107.573h14.4M.35 107.573h14.4"/><path class="terminal" fill="none" d="M-.35 107.223h.7v.7h-.7z"/><path class="pin" fill="none" d="M.35 107.573h14.4"/><path class="terminal" fill="none" d="M-.35 107.223h.7v.7h-.7z"/><path class="pin" fill="none" d="M.35 107.573h14.4"/><path class="terminal" fill="none" d="M-.35 107.223h.7v.7h-.7z"/><path stroke-linecap="round" stroke="#787878" class="pin" stroke-width=".7" fill="none" d="M.35 107.573h14.4"/><text y="94.3" class="text" stroke-width="0" font-size="3.5" font-family="'Droid Sans'" fill="#8c8c8c" x="16.15" transform="translate(0 13.973)">A4/SDA</text><path class="pin" fill="none" d="M.35 114.773h14.4"/><path stroke-linecap="round" stroke="#787878" class="pin" stroke-width=".7" fill="none" d="M.35 114.773h14.4"/><text y="101.5" class="text" stroke-width="0" font-size="3.5" font-family="'Droid Sans'" fill="#8c8c8c" x="16.15" transform="translate(0 13.973)">A5/SCL</text><path stroke-linecap="round" stroke="#787878" class="pin" stroke-width=".7" fill="none" d="M.35 150.773h14.4"/><text y="137.5" class="text" stroke-width="0" font-size="3.5" font-family="'Droid Sans'" fill="#8c8c8c" x="16.15" transform="translate(0 13.973)">N/C</text><path class="pin" fill="none" d="M57.6 164.823v14.4M57.6 164.823v14.4M57.6 164.823v14.4"/><path class="terminal" fill="none" d="M57.25 179.223h.7v.7h-.7z"/><path class="pin" fill="none" d="M57.6 164.823v14.4"/><path class="terminal" fill="none" d="M57.25 179.223h.7v.7h-.7z"/><path stroke-linecap="round" stroke="#787878" class="pin" stroke-width=".7" fill="none" d="M57.6 164.823v14.4"/><text class="text" stroke-width="0" font-size="3.5" font-family="'Droid Sans'" fill="#8c8c8c" transform="rotate(-90 110.861 52.562)">GND</text><path stroke-linecap="round" stroke="#787878" class="pin" stroke-width=".7" fill="none" d="M36 14.323v14.4"/><text text-anchor="end" class="text" stroke-width="0" font-size="3.5" font-family="'Droid Sans'" fill="#8c8c8c" transform="rotate(-90 33.411 -3.288)">3V3</text><path class="pin" fill="none" d="M50.4 14.323v14.4"/><path class="terminal" fill="none" d="M50.05 13.623h.7v.7h-.7z"/><path class="pin" fill="none" d="M50.4 14.323v14.4"/><path class="terminal" fill="none" d="M50.05 13.623h.7v.7h-.7z"/><path stroke-linecap="round" stroke="#787878" class="pin" stroke-width=".7" fill="none" d="M50.4 14.323v14.4"/><text text-anchor="end" class="text" stroke-width="0" font-size="3.5" font-family="'Droid Sans'" fill="#8c8c8c" transform="rotate(-90 40.611 -10.488)">5V</text><path stroke-linecap="round" stroke="#787878" class="pin" stroke-width=".7" fill="none" d="M64.8 14.323v14.4"/><text text-anchor="end" class="text" stroke-width="0" font-size="3.5" font-family="'Droid Sans'" fill="#8c8c8c" transform="rotate(-90 47.812 -17.688)">VIN</text><text y="76.45" text-anchor="middle" class="text" stroke-width="0" font-size="4.25" font-family="'Droid Sans'" x="54.45" transform="translate(0 13.973)">Arduino</text><text y="80.983" text-anchor="middle" class="text" stroke-width="0" font-size="4.25" font-family="'Droid Sans'" x="54.45" transform="translate(0 13.973)">Uno</text><text y="85.517" text-anchor="middle" class="text" stroke-width="0" font-size="4.25" font-family="'Droid Sans'" x="54.45" transform="translate(0 13.973)">(Rev3)</text><g><path stroke-linecap="round" stroke="#000" stroke-width=".7" fill="none" d="M162.002 121.972h3.599M165.601 121.972h3.601"/><path stroke-linecap="round" stroke="#000" stroke-width=".7" fill="#FFF" d="M165.601 121.972l3.601 7.2h-7.2z"/><path stroke-linecap="round" stroke="#000" stroke-width=".45" fill="none" d="M165.601 129.172v-7.2"/><path stroke-linecap="round" stroke="#787878" stroke-width=".7" fill="none" d="M165.601 114.773v7.199"/><text font-size="2" fill="#787878" font-family="'Droid Sans'" transform="rotate(90 24.5 142.032)">2</text><path stroke-linecap="round" stroke="#787878" stroke-width=".7" fill="none" d="M165.601 136.373v-7.201"/><text font-size="2" fill="#787878" font-family="'Droid Sans'" transform="rotate(90 17.3 149.232)">1</text></g><g><g xmlns="http://www.w3.org/2000/svg" stroke-linecap="round" fill="none"><path stroke="#787878" stroke-width=".75" xmlns="http://www.w3.org/2000/svg" d="M57.6 186.671v-7.2"/><path stroke="#000" stroke-width=".9" xmlns="http://www.w3.org/2000/svg" d="M50.9 186.807h13.4M53.132 189.552h8.935M59.83 192.271h-4.463"/></g></g><g><path stroke-linecap="round" stroke="#787878" stroke-miterlimit="10" stroke-width=".75" fill="none" d="M50.419 6.78v7.2"/><path stroke-linecap="round" stroke="#000" stroke-width=".9" d="M43.669 6.564h13.5" fill="none"/><text font-size="4.499" font-family="'DroidSans'" transform="translate(44.717 4.988)">5V</text></g><g><path stroke-linecap="round" stroke="#787878" stroke-miterlimit="10" stroke-width=".75" fill="none" d="M237.618 121.98v7.2"/><path stroke-linecap="round" stroke="#000" stroke-width=".9" d="M230.868 121.764h13.5" fill="none"/><text font-size="4.499" font-family="'DroidSans'" transform="translate(231.917 120.188)">5V</text></g><g><path stroke-linecap="round" stroke="#787878" stroke-miterlimit="10" stroke-width=".75" fill="none" d="M165.618 107.58v7.2"/><path stroke-linecap="round" stroke="#000" stroke-width=".9" d="M158.868 107.364h13.5" fill="none"/><text font-size="4.499" font-family="'DroidSans'" transform="translate(159.917 105.788)">5V</text></g><g><g xmlns="http://www.w3.org/2000/svg" stroke-linecap="round" fill="none"><path stroke="#787878" stroke-width=".75" xmlns="http://www.w3.org/2000/svg" d="M237.6 165.072v-7.2"/><path stroke="#000" stroke-width=".9" xmlns="http://www.w3.org/2000/svg" d="M230.899 165.208h13.4M233.131 167.953h8.935M239.83 170.672h-4.464"/></g></g><g><g xmlns="http://www.w3.org/2000/svg"><path xmlns="http://www.w3.org/2000/svg" fill="none" d="M111.61 53.57h-3.6v7.2h3.6z"/><path stroke="#000" stroke-width=".24" xmlns="http://www.w3.org/2000/svg" fill="#fff" d="M108.123 57.17l3.48-3.48h11.36v6.96h-11.36z"/></g></g><g><g xmlns="http://www.w3.org/2000/svg"><path xmlns="http://www.w3.org/2000/svg" fill="none" d="M140.39 103.969h3.6v7.2h-3.6z"/><path stroke="#000" stroke-width=".24" xmlns="http://www.w3.org/2000/svg" fill="#fff" d="M143.877 107.569l-3.48-3.48h-11.36v6.96h11.36z"/></g></g><g><g transform="translate(195.496 135.826)"><path stroke="#000" stroke-width=".9" d="M11.88 14.75a5.753 5.753 0 0 0-2.973-5.04h.813V3.95h-7.2v5.76h.813a5.758 5.758 0 0 0 0 10.08H2.52v5.761h7.2V19.79h-.814a5.755 5.755 0 0 0 2.974-5.04z" fill="#FFF"/><text font-size="4.25" font-family="'DroidSans'" transform="translate(4.32 16.275)">M</text><path stroke-linecap="round" stroke="#000" stroke-width=".9" fill="none" d="M2.52 3.95v5.76M2.52 3.95h3.6M6.12 3.95h3.6M9.72 3.95v5.76M9.72 25.551V19.79M9.72 25.551h-3.6M6.12 25.551h-3.6M2.52 25.551V19.79"/><path stroke-linecap="round" stroke="#8C8C8C" stroke-miterlimit="10" stroke-width=".75" fill="none" d="M6.12.35v3.6M6.12 29.15v-3.599"/><circle stroke="#000" cx="6.12" cy="14.75" stroke-width=".9" r="5.76" fill="none"/><text font-size="2.5" fill="#8C8C8C" font-family="'DroidSans'" transform="translate(7.244 2.635)">1</text><text font-size="3.5" fill="#787878" font-family="'DroidSans'" transform="translate(5.152 7.39)">+</text><text font-size="2.5" fill="#8C8C8C" font-family="'DroidSans'" transform="translate(7.244 28.516)">2</text><text font-size="3.5" fill="#787878" font-family="'DroidSans'" transform="translate(5.432 24.125)">-</text></g></g><g><text xmlns="http://www.w3.org/2000/svg" y="5.28" font-size="4.8" font-family="Droid Sans" x="3.48" transform="translate(108.003 53.57)">pin 2</text></g><g><text xmlns="http://www.w3.org/2000/svg" y="5.28" font-size="4.8" font-family="Droid Sans" x=".48" transform="translate(128.917 103.969)">pin 2</text></g><g><path stroke-linecap="round" stroke="#404040" stroke-width=".7" d="M165.6 143.573v.02"/></g><circle cx="165.6" cy="143.573" r="1.44"/><g><path stroke-linecap="round" stroke="#404040" stroke-width=".7" d="M165.6 114.773"/></g><circle cx="165.6" cy="114.773" r="1.44"/><g><path stroke-linecap="round" stroke="#404040" stroke-width=".7" d="M165.6 114.773"/></g><circle cx="165.6" cy="114.773" r="1.44"/><g><path stroke-linecap="round" stroke="#404040" stroke-width=".7" d="M144.049 157.991l-.049-7.218"/></g><g><path stroke-linecap="round" stroke="#404040" stroke-width=".7" d="M151.2 157.973l-7.151.018"/></g><g><path stroke-linecap="round" stroke="#404040" stroke-width=".7" d="M165.6 172.373"/></g><g><path stroke-linecap="round" stroke="#404040" stroke-width=".7" d="M165.6 143.573v-7.2"/></g><circle cx="165.6" cy="143.573" r="1.44"/><g><path stroke-linecap="round" stroke="#404040" stroke-width=".7" d="M50.4 13.973"/></g><g><path stroke-linecap="round" stroke="#404040" stroke-width=".7" d="M57.6 179.573"/></g><g><path stroke-linecap="round" stroke="#404040" stroke-width=".7" d="M144 107.573v14.4"/></g><g><path stroke-linecap="round" stroke="#404040" stroke-width=".7" d="M108 57.173"/></g><g><path stroke-linecap="round" stroke="#404040" stroke-width=".7" d="M230.4 150.773l-21.6-21.6"/></g><circle cx="230.4" cy="150.773" r="1.44"/><g><path stroke-linecap="round" stroke="#404040" stroke-width=".7" d="M201.54 165.163h7.193"/></g><g><path stroke-linecap="round" stroke="#404040" stroke-width=".7" d="M208.733 165.163v-21.579"/></g><g><path stroke-linecap="round" stroke="#404040" stroke-width=".7" d="M208.733 143.584h7.34"/></g><g><path stroke-linecap="round" stroke="#404040" stroke-width=".7" d="M216.073 143.584l7.127 7.189"/></g><g><path stroke-linecap="round" stroke="#404040" stroke-width=".7" d="M201.615 164.834l-.075.329"/></g><g><path stroke-linecap="round" stroke="#404040" stroke-width=".7" d="M201.6 136.373l7.133.019"/></g><g><path stroke-linecap="round" stroke="#404040" stroke-width=".7" d="M208.733 136.392l7.267-7.219"/></g><g><path stroke-linecap="round" stroke="#404040" stroke-width=".7" d="M230.463 136.321l-7.263-7.148"/></g><circle cx="230.463" cy="136.321" r="1.44"/><g><path stroke-linecap="round" stroke="#404040" stroke-width=".7" d="M216 150.773l14.463-14.452"/></g><g><path stroke-linecap="round" stroke="#404040" stroke-width=".7" d="M230.463 136.321h7.158"/></g><g><path stroke-linecap="round" stroke="#404040" stroke-width=".7" d="M237.621 136.321l-.021-7.148"/></g><g><path stroke-linecap="round" stroke="#404040" stroke-width=".7" d="M237.6 157.973l.021-7.196"/></g><g><path stroke-linecap="round" stroke="#404040" stroke-width=".7" d="M237.621 150.777l-7.221-.004"/></g><circle cx="230.4" cy="150.773" r="1.44"/><g><g font-size="5" font-family="'DroidSans'"><text y="3.75" transform="rotate(-90 137.101 6.317)">R1</text><text y="8.75" transform="rotate(-90 137.101 6.317)">2.2kΩ</text></g></g><g><text y="3.75" transform="translate(221.187 167.961)" font-size="5" font-family="'DroidSans'">gnd</text></g><g><text y="3.75" transform="translate(171.351 121.015)" font-size="5" font-family="'DroidSans'">Diode<tspan font-size="4" x="0" y="8.9">(flyback)</tspan></text></g><g><g font-size="5" font-family="'DroidSans'"><text y="3.75" transform="translate(165.094 153.118)">Transistor<tspan font-size="3.9" x="2" y="-3">Collector</tspan><tspan font-size="3.9" x="-22" y="9">Base</tspan><tspan font-size="3.9" x="2" y="16">Emitter</tspan></text><text y="8.75" transform="translate(165.094 153.118)">2N2222AG</text></g></g><g><text y="3.75" transform="translate(172.623 181.694)" font-size="5" font-family="'DroidSans'">(ground) (-)</text></g><g><text y="3.75" transform="translate(195.581 166.365)" font-size="5" font-family="'DroidSans'">Motor</text></g></svg>