<svg xmlns="http://www.w3.org/2000/svg" version="1.2" baseProfile="tiny" width="334.973" height="257.995" viewBox="0 0 251.23 193.496"><path class="interior rect" fill="#FFF" stroke="#000" stroke-linecap="round" stroke-width=".9" d="M62.1 28.823h78.3v135.9H62.1z"/><path class="pin" fill="none" stroke="#787878" stroke-linecap="round" stroke-width=".7" d="M140.5 42.773h14.4"/><text class="text" font-family="'Droid Sans'" fill="#8c8c8c" x="91.85" text-anchor="end" font-size="3.5" y="29.5" stroke-width="0" transform="translate(47.25 13.973)">D0/RX</text><path class="pin" fill="none" stroke="#787878" stroke-linecap="round" stroke-width=".7" d="M140.5 49.973h14.4"/><text class="text" font-family="'Droid Sans'" fill="#8c8c8c" x="91.85" text-anchor="end" font-size="3.5" y="36.7" stroke-width="0" transform="translate(47.25 13.973)">D1/TX</text><path class="pin" fill="none" stroke="#787878" stroke-linecap="round" stroke-width=".7" d="M140.5 57.173h14.4"/><text class="text" font-family="'Droid Sans'" fill="#8c8c8c" x="91.85" text-anchor="end" font-size="3.5" y="43.9" stroke-width="0" transform="translate(47.25 13.973)">D2</text><path class="pin" fill="none" stroke="#787878" stroke-linecap="round" stroke-width=".7" d="M140.5 64.373h14.4"/><text class="text" font-family="'Droid Sans'" fill="#8c8c8c" x="91.85" text-anchor="end" font-size="3.5" y="51.1" stroke-width="0" transform="translate(47.25 13.973)">D3 PWM</text><path class="pin" fill="none" stroke="#787878" stroke-linecap="round" stroke-width=".7" d="M140.5 71.573h14.4"/><text class="text" font-family="'Droid Sans'" fill="#8c8c8c" x="91.85" text-anchor="end" font-size="3.5" y="58.3" stroke-width="0" transform="translate(47.25 13.973)">D4</text><path class="pin" fill="none" stroke="#787878" stroke-linecap="round" stroke-width=".7" d="M140.5 78.773h14.4"/><text class="text" font-family="'Droid Sans'" fill="#8c8c8c" x="91.85" text-anchor="end" font-size="3.5" y="65.5" stroke-width="0" transform="translate(47.25 13.973)">D5 PWM</text><path class="pin" fill="none" stroke="#787878" stroke-linecap="round" stroke-width=".7" d="M140.5 85.973h14.4"/><text class="text" font-family="'Droid Sans'" fill="#8c8c8c" x="91.85" text-anchor="end" font-size="3.5" y="72.7" stroke-width="0" transform="translate(47.25 13.973)">D6 PWM</text><path class="pin" fill="none" stroke="#787878" stroke-linecap="round" stroke-width=".7" d="M140.5 93.173h14.4"/><text class="text" font-family="'Droid Sans'" fill="#8c8c8c" x="91.85" text-anchor="end" font-size="3.5" y="79.9" stroke-width="0" transform="translate(47.25 13.973)">D7</text><path class="pin" fill="none" stroke="#787878" stroke-linecap="round" stroke-width=".7" d="M140.5 100.373h14.4"/><text class="text" font-family="'Droid Sans'" fill="#8c8c8c" x="91.85" text-anchor="end" font-size="3.5" y="87.1" stroke-width="0" transform="translate(47.25 13.973)">D8</text><path class="pin" fill="none" stroke="#787878" stroke-linecap="round" stroke-width=".7" d="M140.5 107.573h14.4"/><text class="text" font-family="'Droid Sans'" fill="#8c8c8c" x="91.85" text-anchor="end" font-size="3.5" y="94.3" stroke-width="0" transform="translate(47.25 13.973)">D9 PWM</text><path class="pin" fill="none" stroke="#787878" stroke-linecap="round" stroke-width=".7" d="M140.5 114.773h14.4"/><text class="text" font-family="'Droid Sans'" fill="#8c8c8c" x="91.85" text-anchor="end" font-size="3.5" y="101.5" stroke-width="0" transform="translate(47.25 13.973)">D10 PWM/SS</text><path class="pin" fill="none" stroke="#787878" stroke-linecap="round" stroke-width=".7" d="M140.5 121.973h14.4"/><text class="text" font-family="'Droid Sans'" fill="#8c8c8c" x="91.85" text-anchor="end" font-size="3.5" y="108.7" stroke-width="0" transform="translate(47.25 13.973)">D11 PWM/MOSI</text><path class="pin" fill="none" stroke="#787878" stroke-linecap="round" stroke-width=".7" d="M140.5 129.173h14.4"/><text class="text" font-family="'Droid Sans'" fill="#8c8c8c" x="91.85" text-anchor="end" font-size="3.5" y="115.9" stroke-width="0" transform="translate(47.25 13.973)">D12/MISO</text><path class="pin" fill="none" d="M140.5 136.373h14.4"/><path class="terminal" fill="none" d="M154.9 136.023h.7v.7h-.7z"/><path class="pin" fill="none" stroke="#787878" stroke-linecap="round" stroke-width=".7" d="M140.5 136.373h14.4"/><text class="text" font-family="'Droid Sans'" fill="#8c8c8c" x="91.85" text-anchor="end" font-size="3.5" y="123.1" stroke-width="0" transform="translate(47.25 13.973)">D13/SCK</text><path class="pin" fill="none" d="M47.6 42.773H62"/><path class="terminal" fill="none" d="M46.9 42.423h.7v.7h-.7z"/><path class="pin" fill="none" stroke="#787878" stroke-linecap="round" stroke-width=".7" d="M47.6 42.773H62"/><text class="text" font-family="'Droid Sans'" fill="#8c8c8c" x="16.15" font-size="3.5" y="29.5" stroke-width="0" transform="translate(47.25 13.973)">RESET</text><path class="pin" fill="none" stroke="#787878" stroke-linecap="round" stroke-width=".7" d="M47.6 49.973H62"/><text class="text" font-family="'Droid Sans'" fill="#8c8c8c" x="16.15" font-size="3.5" y="36.7" stroke-width="0" transform="translate(47.25 13.973)">RESET2</text><path class="terminal" fill="none" d="M46.9 49.623h.7v.7h-.7z"/><path class="pin" fill="none" stroke="#787878" stroke-linecap="round" stroke-width=".7" d="M47.6 57.173H62"/><text class="text" font-family="'Droid Sans'" fill="#8c8c8c" x="16.15" font-size="3.5" y="43.9" stroke-width="0" transform="translate(47.25 13.973)">AREF</text><path class="pin" fill="none" stroke="#787878" stroke-linecap="round" stroke-width=".7" d="M47.6 64.373H62"/><text class="text" font-family="'Droid Sans'" fill="#8c8c8c" x="16.15" font-size="3.5" y="51.1" stroke-width="0" transform="translate(47.25 13.973)">ioref</text><path class="pin" fill="none" stroke="#787878" stroke-linecap="round" stroke-width=".7" d="M47.6 78.773H62"/><text class="text" font-family="'Droid Sans'" fill="#8c8c8c" x="16.15" font-size="3.5" y="65.5" stroke-width="0" transform="translate(47.25 13.973)">A0</text><path class="pin" fill="none" stroke="#787878" stroke-linecap="round" stroke-width=".7" d="M47.6 85.973H62"/><text class="text" font-family="'Droid Sans'" fill="#8c8c8c" x="16.15" font-size="3.5" y="72.7" stroke-width="0" transform="translate(47.25 13.973)">A1</text><path class="pin" fill="none" stroke="#787878" stroke-linecap="round" stroke-width=".7" d="M47.6 93.173H62"/><text class="text" font-family="'Droid Sans'" fill="#8c8c8c" x="16.15" font-size="3.5" y="79.9" stroke-width="0" transform="translate(47.25 13.973)">A2</text><path class="pin" fill="none" stroke="#787878" stroke-linecap="round" stroke-width=".7" d="M47.6 100.373H62"/><text class="text" font-family="'Droid Sans'" fill="#8c8c8c" x="16.15" font-size="3.5" y="87.1" stroke-width="0" transform="translate(47.25 13.973)">A3</text><path class="pin" fill="none" d="M47.6 107.573H62"/><path class="terminal" fill="none" d="M46.9 107.223h.7v.7h-.7z"/><path class="pin" fill="none" d="M47.6 107.573H62"/><path class="terminal" fill="none" d="M46.9 107.223h.7v.7h-.7z"/><path class="pin" fill="none" d="M47.6 107.573H62M47.6 107.573H62"/><path class="terminal" fill="none" d="M46.9 107.223h.7v.7h-.7z"/><path class="pin" fill="none" d="M47.6 107.573H62"/><path class="terminal" fill="none" d="M46.9 107.223h.7v.7h-.7z"/><path class="pin" fill="none" d="M47.6 107.573H62"/><path class="terminal" fill="none" d="M46.9 107.223h.7v.7h-.7z"/><path class="pin" fill="none" stroke="#787878" stroke-linecap="round" stroke-width=".7" d="M47.6 107.573H62"/><text class="text" font-family="'Droid Sans'" fill="#8c8c8c" x="16.15" font-size="3.5" y="94.3" stroke-width="0" transform="translate(47.25 13.973)">A4/SDA</text><path class="pin" fill="none" d="M47.6 114.773H62"/><path class="pin" fill="none" stroke="#787878" stroke-linecap="round" stroke-width=".7" d="M47.6 114.773H62"/><text class="text" font-family="'Droid Sans'" fill="#8c8c8c" x="16.15" font-size="3.5" y="101.5" stroke-width="0" transform="translate(47.25 13.973)">A5/SCL</text><path class="pin" fill="none" stroke="#787878" stroke-linecap="round" stroke-width=".7" d="M47.6 150.773H62"/><text class="text" font-family="'Droid Sans'" fill="#8c8c8c" x="16.15" font-size="3.5" y="137.5" stroke-width="0" transform="translate(47.25 13.973)">N/C</text><path class="pin" fill="none" d="M104.85 164.823v14.4M104.85 164.823v14.4M104.85 164.823v14.4"/><path class="terminal" fill="none" d="M104.5 179.223h.7v.7h-.7z"/><path class="pin" fill="none" d="M104.85 164.823v14.4"/><path class="terminal" fill="none" d="M104.5 179.223h.7v.7h-.7z"/><path class="pin" fill="none" stroke="#787878" stroke-linecap="round" stroke-width=".7" d="M104.85 164.823v14.4"/><text class="text" font-family="'Droid Sans'" fill="#8c8c8c" font-size="3.5" stroke-width="0" transform="rotate(-90 134.487 28.936)">GND</text><path class="pin" fill="none" stroke="#787878" stroke-linecap="round" stroke-width=".7" d="M83.25 14.323v14.4"/><text class="text" font-family="'Droid Sans'" fill="#8c8c8c" text-anchor="end" font-size="3.5" stroke-width="0" transform="rotate(-90 57.037 -26.914)">3V3</text><path class="pin" fill="none" d="M97.65 14.323v14.4"/><path class="terminal" fill="none" d="M97.3 13.623h.7v.7h-.7z"/><path class="pin" fill="none" d="M97.65 14.323v14.4"/><path class="terminal" fill="none" d="M97.3 13.623h.7v.7h-.7z"/><path class="pin" fill="none" stroke="#787878" stroke-linecap="round" stroke-width=".7" d="M97.65 14.323v14.4"/><text class="text" font-family="'Droid Sans'" fill="#8c8c8c" text-anchor="end" font-size="3.5" stroke-width="0" transform="rotate(-90 64.237 -34.114)">5V</text><path class="pin" fill="none" stroke="#787878" stroke-linecap="round" stroke-width=".7" d="M112.05 14.323v14.4"/><text class="text" font-family="'Droid Sans'" fill="#8c8c8c" text-anchor="end" font-size="3.5" stroke-width="0" transform="rotate(-90 71.437 -41.314)">VIN</text><text class="text" font-family="'Droid Sans'" x="54.45" text-anchor="middle" font-size="4.25" y="76.45" stroke-width="0" transform="translate(47.25 13.973)">Arduino</text><text class="text" font-family="'Droid Sans'" x="54.45" text-anchor="middle" font-size="4.25" y="80.983" stroke-width="0" transform="translate(47.25 13.973)">Uno</text><text class="text" font-family="'Droid Sans'" x="54.45" text-anchor="middle" font-size="4.25" y="85.517" stroke-width="0" transform="translate(47.25 13.973)">(Rev3)</text><g><g xmlns="http://www.w3.org/2000/svg"><path class="other" xmlns="http://www.w3.org/2000/svg" stroke="#000" stroke-linecap="round" stroke-width=".432" d="M184.051 129.173l-1.08 2.88M182.971 132.053l-1.8-5.76M181.171 126.293l-1.8 5.76M179.371 132.053l-1.8-5.76M177.571 126.293l-1.8 5.76M175.771 132.053l-1.8-5.76M173.971 126.293l-1.8 5.76M172.171 132.053l-1.8-5.76M170.371 126.293l-.72 2.88"/><path class="pin" xmlns="http://www.w3.org/2000/svg" stroke="#787878" stroke-linecap="round" stroke-width=".7" d="M162.451 129.173h7.2"/><text class="text" xmlns="http://www.w3.org/2000/svg" font-family="'Droid Sans'" fill="#8c8c8c" x="25.55" text-anchor="middle" font-size="2.5" y="2.046" stroke-width="0" transform="rotate(180 95.8 66.135)">2</text><path class="pin" xmlns="http://www.w3.org/2000/svg" stroke="#787878" stroke-linecap="round" stroke-width=".7" d="M191.251 129.173h-7.2"/><text class="text" xmlns="http://www.w3.org/2000/svg" font-family="'Droid Sans'" fill="#8c8c8c" x="3.95" text-anchor="middle" font-size="2.5" y="2.046" stroke-width="0" transform="rotate(180 95.8 66.135)">1</text></g></g><g><g xmlns="http://www.w3.org/2000/svg"><path class="other" xmlns="http://www.w3.org/2000/svg" stroke="#000" stroke-linecap="round" stroke-width=".432" d="M227.251 93.173l-1.08 2.88M226.171 96.053l-1.8-5.76M224.371 90.293l-1.8 5.76M222.571 96.053l-1.8-5.76M220.771 90.293l-1.8 5.76M218.971 96.053l-1.8-5.76M217.171 90.293l-1.8 5.76M215.371 96.053l-1.8-5.76M213.571 90.293l-.72 2.88"/><path class="pin" xmlns="http://www.w3.org/2000/svg" stroke="#787878" stroke-linecap="round" stroke-width=".7" d="M205.651 93.173h7.2"/><text class="text" xmlns="http://www.w3.org/2000/svg" font-family="'Droid Sans'" fill="#8c8c8c" x="25.55" text-anchor="middle" font-size="2.5" y="2.046" stroke-width="0" transform="rotate(180 117.4 48.134)">2</text><path class="pin" xmlns="http://www.w3.org/2000/svg" stroke="#787878" stroke-linecap="round" stroke-width=".7" d="M234.451 93.173h-7.2"/><text class="text" xmlns="http://www.w3.org/2000/svg" font-family="'Droid Sans'" fill="#8c8c8c" x="3.95" text-anchor="middle" font-size="2.5" y="2.046" stroke-width="0" transform="rotate(180 117.4 48.134)">1</text></g></g><g><g xmlns="http://www.w3.org/2000/svg"><path class="other" xmlns="http://www.w3.org/2000/svg" stroke="#000" stroke-linecap="round" stroke-width=".432" d="M227.251 78.773l-1.08 2.88M226.171 81.653l-1.8-5.76M224.371 75.893l-1.8 5.76M222.571 81.653l-1.8-5.76M220.771 75.893l-1.8 5.76M218.971 81.653l-1.8-5.76M217.171 75.893l-1.8 5.76M215.371 81.653l-1.8-5.76M213.571 75.893l-.72 2.88"/><path class="pin" xmlns="http://www.w3.org/2000/svg" stroke="#787878" stroke-linecap="round" stroke-width=".7" d="M205.651 78.773h7.2"/><text class="text" xmlns="http://www.w3.org/2000/svg" font-family="'Droid Sans'" fill="#8c8c8c" x="25.55" text-anchor="middle" font-size="2.5" y="2.046" stroke-width="0" transform="rotate(180 117.4 40.934)">2</text><path class="pin" xmlns="http://www.w3.org/2000/svg" stroke="#787878" stroke-linecap="round" stroke-width=".7" d="M234.451 78.773h-7.2"/><text class="text" xmlns="http://www.w3.org/2000/svg" font-family="'Droid Sans'" fill="#8c8c8c" x="3.95" text-anchor="middle" font-size="2.5" y="2.046" stroke-width="0" transform="rotate(180 117.4 40.934)">1</text></g></g><g><g xmlns="http://www.w3.org/2000/svg"><path class="other" xmlns="http://www.w3.org/2000/svg" stroke="#000" stroke-linecap="round" stroke-width=".432" d="M227.251 64.373l-1.08 2.88M226.171 67.253l-1.8-5.76M224.371 61.493l-1.8 5.76M222.571 67.253l-1.8-5.76M220.771 61.493l-1.8 5.76M218.971 67.253l-1.8-5.76M217.171 61.493l-1.8 5.76M215.371 67.253l-1.8-5.76M213.571 61.493l-.72 2.88"/><path class="pin" xmlns="http://www.w3.org/2000/svg" stroke="#787878" stroke-linecap="round" stroke-width=".7" d="M205.651 64.373h7.2"/><text class="text" xmlns="http://www.w3.org/2000/svg" font-family="'Droid Sans'" fill="#8c8c8c" x="25.55" text-anchor="middle" font-size="2.5" y="2.046" stroke-width="0" transform="rotate(180 117.4 33.734)">2</text><path class="pin" xmlns="http://www.w3.org/2000/svg" stroke="#787878" stroke-linecap="round" stroke-width=".7" d="M234.451 64.373h-7.2"/><text class="text" xmlns="http://www.w3.org/2000/svg" font-family="'Droid Sans'" fill="#8c8c8c" x="3.95" text-anchor="middle" font-size="2.5" y="2.046" stroke-width="0" transform="rotate(180 117.4 33.734)">1</text></g></g><g><g xmlns="http://www.w3.org/2000/svg"><path class="other" xmlns="http://www.w3.org/2000/svg" stroke="#000" stroke-linecap="round" stroke-width=".432" d="M227.251 49.973l-1.08 2.88M226.171 52.853l-1.8-5.76M224.371 47.093l-1.8 5.76M222.571 52.853l-1.8-5.76M220.771 47.093l-1.8 5.76M218.971 52.853l-1.8-5.76M217.171 47.093l-1.8 5.76M215.371 52.853l-1.8-5.76M213.571 47.093l-.72 2.88"/><path class="pin" xmlns="http://www.w3.org/2000/svg" stroke="#787878" stroke-linecap="round" stroke-width=".7" d="M205.651 49.973h7.2"/><text class="text" xmlns="http://www.w3.org/2000/svg" font-family="'Droid Sans'" fill="#8c8c8c" x="25.55" text-anchor="middle" font-size="2.5" y="2.046" stroke-width="0" transform="rotate(180 117.4 26.534)">2</text><path class="pin" xmlns="http://www.w3.org/2000/svg" stroke="#787878" stroke-linecap="round" stroke-width=".7" d="M234.451 49.973h-7.2"/><text class="text" xmlns="http://www.w3.org/2000/svg" font-family="'Droid Sans'" fill="#8c8c8c" x="3.95" text-anchor="middle" font-size="2.5" y="2.046" stroke-width="0" transform="rotate(180 117.4 26.534)">1</text></g></g><g><g xmlns="http://www.w3.org/2000/svg"><path class="other" xmlns="http://www.w3.org/2000/svg" stroke="#000" stroke-linecap="round" stroke-width=".432" d="M227.251 35.573l-1.08 2.88M226.171 38.453l-1.8-5.76M224.371 32.693l-1.8 5.76M222.571 38.453l-1.8-5.76M220.771 32.693l-1.8 5.76M218.971 38.453l-1.8-5.76M217.171 32.693l-1.8 5.76M215.371 38.453l-1.8-5.76M213.571 32.693l-.72 2.88"/><path class="pin" xmlns="http://www.w3.org/2000/svg" stroke="#787878" stroke-linecap="round" stroke-width=".7" d="M205.651 35.573h7.2"/><text class="text" xmlns="http://www.w3.org/2000/svg" font-family="'Droid Sans'" fill="#8c8c8c" x="25.55" text-anchor="middle" font-size="2.5" y="2.046" stroke-width="0" transform="rotate(180 117.4 19.334)">2</text><path class="pin" xmlns="http://www.w3.org/2000/svg" stroke="#787878" stroke-linecap="round" stroke-width=".7" d="M234.451 35.573h-7.2"/><text class="text" xmlns="http://www.w3.org/2000/svg" font-family="'Droid Sans'" fill="#8c8c8c" x="3.95" text-anchor="middle" font-size="2.5" y="2.046" stroke-width="0" transform="rotate(180 117.4 19.334)">1</text></g></g><g><g xmlns="http://www.w3.org/2000/svg"><path class="other" xmlns="http://www.w3.org/2000/svg" stroke="#000" stroke-linecap="round" stroke-width=".432" d="M227.251 107.573l-1.08 2.88M226.171 110.453l-1.8-5.76M224.371 104.693l-1.8 5.76M222.571 110.453l-1.8-5.76M220.771 104.693l-1.8 5.76M218.971 110.453l-1.8-5.76M217.171 104.693l-1.8 5.76M215.371 110.453l-1.8-5.76M213.571 104.693l-.72 2.88"/><path class="pin" xmlns="http://www.w3.org/2000/svg" stroke="#787878" stroke-linecap="round" stroke-width=".7" d="M205.651 107.573h7.2"/><text class="text" xmlns="http://www.w3.org/2000/svg" font-family="'Droid Sans'" fill="#8c8c8c" x="25.55" text-anchor="middle" font-size="2.5" y="2.046" stroke-width="0" transform="rotate(180 117.4 55.334)">2</text><path class="pin" xmlns="http://www.w3.org/2000/svg" stroke="#787878" stroke-linecap="round" stroke-width=".7" d="M234.451 107.573h-7.2"/><text class="text" xmlns="http://www.w3.org/2000/svg" font-family="'Droid Sans'" fill="#8c8c8c" x="3.95" text-anchor="middle" font-size="2.5" y="2.046" stroke-width="0" transform="rotate(180 117.4 55.334)">1</text></g></g><g><g xmlns="http://www.w3.org/2000/svg" transform="translate(198.1 116.213)"><path class="other" xmlns="http://www.w3.org/2000/svg" stroke="#000" stroke-linecap="round" stroke-width=".72" d="M20.15 12.96h1.8M20.15.36v3.6M9.35.36v3.6M20.15.36h-5.4M14.75.36h-5.4"/><path class="other" xmlns="http://www.w3.org/2000/svg" stroke="#000" stroke-linecap="round" stroke-width=".432" d="M14.75 5.76v1.8M14.75 9.36v1.8M14.75.36v3.6M21.95 20.16v-7.2M7.55 20.16v-7.2"/><path class="other" xmlns="http://www.w3.org/2000/svg" stroke="#000" stroke-linecap="round" stroke-width=".72" d="M7.55 12.96l12.6-3.6"/><circle class="other" cx="7.55" cy="12.96" xmlns="http://www.w3.org/2000/svg" r=".36" fill="none" stroke="#000" stroke-width="1.152"/><circle class="other" cx="21.95" cy="12.96" xmlns="http://www.w3.org/2000/svg" r=".36" fill="none" stroke="#000" stroke-width="1.152"/><path class="pin" xmlns="http://www.w3.org/2000/svg" stroke="#787878" stroke-linecap="round" stroke-width=".7" d="M.35 12.96h7.2"/><text class="text" xmlns="http://www.w3.org/2000/svg" font-family="'Droid Sans'" fill="#8c8c8c" x="3.95" text-anchor="middle" font-size="2.5" y="11.91" stroke-width="0">1</text><path class="pin" xmlns="http://www.w3.org/2000/svg" stroke="#787878" stroke-linecap="round" stroke-width=".7" d="M29.15 12.96h-7.2"/><text class="text" xmlns="http://www.w3.org/2000/svg" font-family="'Droid Sans'" fill="#8c8c8c" x="25.55" text-anchor="middle" font-size="2.5" y="11.91" stroke-width="0">3</text><path class="pin" xmlns="http://www.w3.org/2000/svg" stroke="#787878" stroke-linecap="round" stroke-width=".7" d="M29.15 20.16h-7.2"/><text class="text" xmlns="http://www.w3.org/2000/svg" font-family="'Droid Sans'" fill="#8c8c8c" x="25.55" text-anchor="middle" font-size="2.5" y="19.11" stroke-width="0">4</text><path class="pin" xmlns="http://www.w3.org/2000/svg" stroke="#787878" stroke-linecap="round" stroke-width=".7" d="M.35 20.16h7.2"/><text class="text" xmlns="http://www.w3.org/2000/svg" font-family="'Droid Sans'" fill="#8c8c8c" x="3.95" text-anchor="middle" font-size="2.5" y="19.11" stroke-width="0">2</text></g></g><g><g xmlns="http://www.w3.org/2000/svg" fill="none"><path xmlns="http://www.w3.org/2000/svg" d="M104.85 186.671v-7.2" stroke="#787878" stroke-linecap="round" stroke-width=".75"/><path xmlns="http://www.w3.org/2000/svg" d="M98.15 186.807h13.4M100.382 189.552h8.935M107.08 192.271h-4.463" stroke="#000" stroke-linecap="round" stroke-width=".9"/></g></g><g><g xmlns="http://www.w3.org/2000/svg" fill="none"><path xmlns="http://www.w3.org/2000/svg" d="M234.451 150.671v-7.2" stroke="#787878" stroke-linecap="round" stroke-width=".75"/><path xmlns="http://www.w3.org/2000/svg" d="M227.75 150.807h13.4M229.982 153.552h8.935M236.681 156.271h-4.464" stroke="#000" stroke-linecap="round" stroke-width=".9"/></g></g><g><path stroke-miterlimit="10" fill="none" stroke="#787878" stroke-linecap="round" stroke-width=".75" d="M97.669 6.78v7.2"/><path fill="none" d="M90.919 6.564h13.5" stroke="#000" stroke-linecap="round" stroke-width=".9"/><text font-family="'DroidSans'" font-size="4.499" transform="translate(91.967 4.988)">5V</text></g><g><path fill="none" stroke="#000" stroke-linecap="round" stroke-width=".9" d="M22.05 57.499H.45M14.851 61.099H7.65M22.05 64.699H.45M14.851 68.299H7.65"/><path fill="none" stroke="#000" stroke-linecap="round" stroke-width=".75" d="M11.25 53.899v3.6"/><path fill="none" stroke="#787878" stroke-linecap="round" stroke-width=".75" d="M11.25 75.499v-7.2"/><text font-family="'DroidSans'" fill="#8C8C8C" font-size="2.5" transform="translate(12.38 72.668)">1</text><path fill="none" stroke="#787878" stroke-linecap="round" stroke-width=".75" d="M11.25 46.699v7.2"/><text font-family="'DroidSans'" fill="#8C8C8C" font-size="2.5" transform="translate(12.38 51.069)">2</text><text font-family="'DroidSans'" fill="#F8141F" font-size="2.5" transform="translate(7.898 51.069)">+</text><text font-family="'DroidSans'" font-size="2.5" transform="translate(8.792 72.383)">-</text></g><g><g xmlns="http://www.w3.org/2000/svg" fill="none"><path xmlns="http://www.w3.org/2000/svg" d="M11.25 186.671v-7.2" stroke="#787878" stroke-linecap="round" stroke-width=".75"/><path xmlns="http://www.w3.org/2000/svg" d="M4.55 186.807h13.4M6.782 189.552h8.935M13.48 192.271H9.018" stroke="#000" stroke-linecap="round" stroke-width=".9"/></g></g><g><path stroke-miterlimit="10" fill="none" stroke="#787878" stroke-linecap="round" stroke-width=".75" d="M11.269 6.78v7.2"/><path fill="none" d="M4.519 6.564h13.5" stroke="#000" stroke-linecap="round" stroke-width=".9"/><text font-family="'DroidSans'" font-size="4.499" transform="translate(5.567 4.988)">5V</text></g><g><path d="M190.901 39.172v-3.6a.35.35 0 1 1 .7 0v3.6a.35.35 0 1 1-.7 0z"/><path d="M190.901 35.572v-3.6a.35.35 0 1 1 .7 0v3.6a.35.35 0 1 1-.7 0z"/><path fill="#FFF" d="M191.251 35.572l7.2-3.6v7.2z"/><path d="M190.469 35.572l8.332-4.166v8.333l-8.332-4.167zm7.632-3.034l-6.068 3.034 6.068 3.034v-6.068z"/><path d="M191.026 35.572c0-.124.101-.225.225-.225h7.2a.225.225 0 0 1 0 .45h-7.2a.226.226 0 0 1-.225-.225zM193.726 27.472a.225.225 0 0 1 .383-.159l2.341 2.34a.225.225 0 1 1-.318.318l-2.341-2.34a.222.222 0 0 1-.065-.159zM190.486 27.832a.225.225 0 0 1 .383-.159l2.34 2.34a.225.225 0 1 1-.318.318l-2.34-2.34a.225.225 0 0 1-.065-.159z"/><path fill="#787878" d="M183.701 35.572a.35.35 0 0 1 .35-.35h7.2a.35.35 0 1 1 0 .7h-7.2a.35.35 0 0 1-.35-.35z"/><path fill="none" d="M184.051 35.572v.001h-.001z"/><path fill="#787878" d="M187.794 34.641h-.891v-.152l.342-.372c.049-.053.093-.1.13-.145s.072-.086.1-.128a.69.69 0 0 0 .062-.125.412.412 0 0 0 .004-.24.228.228 0 0 0-.047-.075c-.021-.02-.045-.035-.073-.046s-.06-.016-.094-.016a.363.363 0 0 0-.167.038.629.629 0 0 0-.143.096l-.1-.116a.671.671 0 0 1 .29-.155.59.59 0 0 1 .29.013.359.359 0 0 1 .129.076.325.325 0 0 1 .082.12.485.485 0 0 1 .002.318.765.765 0 0 1-.07.147 1.227 1.227 0 0 1-.11.146c-.04.05-.086.1-.135.152l-.274.294v.008h.673v.162zM198.101 35.572a.35.35 0 0 1 .35-.35h7.2a.35.35 0 1 1 0 .7h-7.2a.351.351 0 0 1-.35-.35z"/><path fill="none" d="M205.651 35.572v.001z"/><path fill="#787878" d="M201.905 34.641h-.172v-.892-.09c0-.032 0-.063.002-.095 0-.032.002-.063.003-.092l.002-.076-.03.03c-.008.01-.016.017-.025.024l-.028.025c-.01.008-.021.02-.035.03l-.145.118-.094-.12.374-.292h.146v1.43z"/><path d="M192.331 25.852l2.521 1.08-1.438 1.44-1.083-2.52z"/><g><path d="M189.091 26.212l2.521 1.08-1.438 1.438-1.083-2.518z"/></g></g><g><path d="M190.901 53.572v-3.6a.35.35 0 1 1 .7 0v3.6a.35.35 0 1 1-.7 0z"/><path d="M190.901 49.972v-3.6a.35.35 0 1 1 .7 0v3.6a.35.35 0 1 1-.7 0z"/><path fill="#FFF" d="M191.251 49.972l7.2-3.6v7.2z"/><path d="M190.469 49.972l8.332-4.166v8.333l-8.332-4.167zm7.632-3.034l-6.068 3.034 6.068 3.034v-6.068z"/><path d="M191.026 49.972c0-.124.101-.225.225-.225h7.2a.225.225 0 0 1 0 .45h-7.2a.226.226 0 0 1-.225-.225zM193.726 41.872a.225.225 0 0 1 .383-.159l2.341 2.34a.225.225 0 1 1-.318.318l-2.341-2.34a.222.222 0 0 1-.065-.159zM190.486 42.232a.225.225 0 0 1 .383-.159l2.34 2.34a.225.225 0 1 1-.318.318l-2.34-2.34a.225.225 0 0 1-.065-.159z"/><path fill="#787878" d="M183.701 49.972a.35.35 0 0 1 .35-.35h7.2a.35.35 0 1 1 0 .7h-7.2a.35.35 0 0 1-.35-.35z"/><path fill="none" d="M184.051 49.972v.001h-.001z"/><path fill="#787878" d="M187.794 49.041h-.891v-.152l.342-.372c.049-.053.093-.1.13-.145s.072-.086.1-.128a.69.69 0 0 0 .062-.125.412.412 0 0 0 .004-.24.228.228 0 0 0-.047-.075c-.021-.02-.045-.035-.073-.046s-.06-.016-.094-.016a.363.363 0 0 0-.167.038.629.629 0 0 0-.143.096l-.1-.116a.671.671 0 0 1 .29-.155.59.59 0 0 1 .29.013.359.359 0 0 1 .129.076.325.325 0 0 1 .082.12.485.485 0 0 1 .002.318.765.765 0 0 1-.07.147 1.227 1.227 0 0 1-.11.146c-.04.05-.086.1-.135.152l-.274.294v.008h.673v.162zM198.101 49.972a.35.35 0 0 1 .35-.35h7.2a.35.35 0 1 1 0 .7h-7.2a.351.351 0 0 1-.35-.35z"/><path fill="none" d="M205.651 49.972v.001z"/><path fill="#787878" d="M201.905 49.041h-.172v-.892-.09c0-.032 0-.063.002-.095 0-.032.002-.063.003-.092l.002-.076-.03.03c-.008.01-.016.017-.025.024l-.028.025c-.01.008-.021.02-.035.03l-.145.118-.094-.12.374-.292h.146v1.43z"/><path d="M192.331 40.252l2.521 1.08-1.438 1.44-1.083-2.52z"/><g><path d="M189.091 40.612l2.521 1.08-1.438 1.438-1.083-2.518z"/></g></g><g><path d="M190.901 67.972v-3.6a.35.35 0 1 1 .7 0v3.6a.35.35 0 1 1-.7 0z"/><path d="M190.901 64.372v-3.6a.35.35 0 1 1 .7 0v3.6a.35.35 0 1 1-.7 0z"/><path fill="#FFF" d="M191.251 64.372l7.2-3.6v7.2z"/><path d="M190.469 64.372l8.332-4.166v8.333l-8.332-4.167zm7.632-3.034l-6.068 3.034 6.068 3.034v-6.068z"/><path d="M191.026 64.372c0-.124.101-.225.225-.225h7.2a.225.225 0 0 1 0 .45h-7.2a.226.226 0 0 1-.225-.225zM193.726 56.272a.225.225 0 0 1 .383-.159l2.341 2.34a.225.225 0 1 1-.318.318l-2.341-2.34a.222.222 0 0 1-.065-.159zM190.486 56.632a.225.225 0 0 1 .383-.159l2.34 2.34a.225.225 0 1 1-.318.318l-2.34-2.34a.225.225 0 0 1-.065-.159z"/><path fill="#787878" d="M183.701 64.372a.35.35 0 0 1 .35-.35h7.2a.35.35 0 1 1 0 .7h-7.2a.35.35 0 0 1-.35-.35z"/><path fill="none" d="M184.051 64.372v.001h-.001z"/><path fill="#787878" d="M187.794 63.441h-.891v-.152l.342-.372c.049-.053.093-.1.13-.145s.072-.086.1-.128a.69.69 0 0 0 .062-.125.412.412 0 0 0 .004-.24.228.228 0 0 0-.047-.075c-.021-.02-.045-.035-.073-.046s-.06-.016-.094-.016a.363.363 0 0 0-.167.038.629.629 0 0 0-.143.096l-.1-.116a.671.671 0 0 1 .29-.155.59.59 0 0 1 .29.013.359.359 0 0 1 .129.076.325.325 0 0 1 .082.12.485.485 0 0 1 .002.318.765.765 0 0 1-.07.147 1.227 1.227 0 0 1-.11.146c-.04.05-.086.1-.135.152l-.274.294v.008h.673v.162zM198.101 64.372a.35.35 0 0 1 .35-.35h7.2a.35.35 0 1 1 0 .7h-7.2a.351.351 0 0 1-.35-.35z"/><path fill="none" d="M205.651 64.372v.001z"/><path fill="#787878" d="M201.905 63.441h-.172v-.892-.09c0-.032 0-.063.002-.095 0-.032.002-.063.003-.092l.002-.076-.03.03c-.008.01-.016.017-.025.024l-.028.025c-.01.008-.021.02-.035.03l-.145.118-.094-.12.374-.292h.146v1.43z"/><path d="M192.331 54.652l2.521 1.08-1.438 1.44-1.083-2.52z"/><g><path d="M189.091 55.012l2.521 1.08-1.438 1.438-1.083-2.518z"/></g></g><g><path d="M190.901 96.772v-3.6a.35.35 0 1 1 .7 0v3.6a.35.35 0 1 1-.7 0z"/><path d="M190.901 93.172v-3.6a.35.35 0 1 1 .7 0v3.6a.35.35 0 1 1-.7 0z"/><path fill="#FFF" d="M191.251 93.172l7.2-3.6v7.2z"/><path d="M190.469 93.172l8.332-4.166v8.333l-8.332-4.167zm7.632-3.034l-6.068 3.034 6.068 3.034v-6.068z"/><path d="M191.026 93.172c0-.124.101-.225.225-.225h7.2a.225.225 0 0 1 0 .45h-7.2a.226.226 0 0 1-.225-.225zM193.726 85.072a.225.225 0 0 1 .383-.159l2.341 2.34a.225.225 0 1 1-.318.318l-2.341-2.34a.222.222 0 0 1-.065-.159zM190.486 85.432a.225.225 0 0 1 .383-.159l2.34 2.34a.225.225 0 1 1-.318.318l-2.34-2.34a.225.225 0 0 1-.065-.159z"/><path fill="#787878" d="M183.701 93.172a.35.35 0 0 1 .35-.35h7.2a.35.35 0 1 1 0 .7h-7.2a.35.35 0 0 1-.35-.35z"/><path fill="none" d="M184.051 93.172v.001h-.001z"/><path fill="#787878" d="M187.794 92.241h-.891v-.152l.342-.372c.049-.053.093-.1.13-.145s.072-.086.1-.128a.69.69 0 0 0 .062-.125.412.412 0 0 0 .004-.24.228.228 0 0 0-.047-.075c-.021-.02-.045-.035-.073-.046s-.06-.016-.094-.016a.363.363 0 0 0-.167.038.629.629 0 0 0-.143.096l-.1-.116a.671.671 0 0 1 .29-.155.59.59 0 0 1 .29.013.359.359 0 0 1 .129.076.325.325 0 0 1 .082.12.485.485 0 0 1 .002.318.765.765 0 0 1-.07.147 1.227 1.227 0 0 1-.11.146c-.04.05-.086.1-.135.152l-.274.294v.008h.673v.162zM198.101 93.172a.35.35 0 0 1 .35-.35h7.2a.35.35 0 1 1 0 .7h-7.2a.351.351 0 0 1-.35-.35z"/><path fill="none" d="M205.651 93.172v.001z"/><path fill="#787878" d="M201.905 92.241h-.172v-.892-.09c0-.032 0-.063.002-.095 0-.032.002-.063.003-.092l.002-.076-.03.03c-.008.01-.016.017-.025.024l-.028.025c-.01.008-.021.02-.035.03l-.145.118-.094-.12.374-.292h.146v1.43z"/><path d="M192.331 83.452l2.521 1.08-1.438 1.44-1.083-2.52z"/><g><path d="M189.091 83.812l2.521 1.08-1.438 1.438-1.083-2.518z"/></g></g><g><path d="M190.901 111.172v-3.6a.35.35 0 1 1 .7 0v3.6a.35.35 0 1 1-.7 0z"/><path d="M190.901 107.572v-3.6a.35.35 0 1 1 .7 0v3.6a.35.35 0 1 1-.7 0z"/><path fill="#FFF" d="M191.251 107.572l7.2-3.6v7.2z"/><path d="M190.469 107.572l8.332-4.166v8.333l-8.332-4.167zm7.632-3.034l-6.068 3.034 6.068 3.034v-6.068z"/><path d="M191.026 107.572c0-.124.101-.225.225-.225h7.2a.225.225 0 0 1 0 .45h-7.2a.226.226 0 0 1-.225-.225zM193.726 99.472a.225.225 0 0 1 .383-.159l2.341 2.34a.225.225 0 1 1-.318.318l-2.341-2.34a.222.222 0 0 1-.065-.159zM190.486 99.832a.225.225 0 0 1 .383-.159l2.34 2.34a.225.225 0 1 1-.318.318l-2.34-2.34a.225.225 0 0 1-.065-.159z"/><path fill="#787878" d="M183.701 107.572a.35.35 0 0 1 .35-.35h7.2a.35.35 0 1 1 0 .7h-7.2a.35.35 0 0 1-.35-.35z"/><path fill="none" d="M184.051 107.572v.001h-.001z"/><path fill="#787878" d="M187.794 106.641h-.891v-.152l.342-.372c.049-.053.093-.1.13-.145s.072-.086.1-.128a.69.69 0 0 0 .062-.125.412.412 0 0 0 .004-.24.228.228 0 0 0-.047-.075c-.021-.02-.045-.035-.073-.046s-.06-.016-.094-.016a.363.363 0 0 0-.167.038.629.629 0 0 0-.143.096l-.1-.116a.671.671 0 0 1 .29-.155.59.59 0 0 1 .29.013.359.359 0 0 1 .129.076.325.325 0 0 1 .082.12.485.485 0 0 1 .002.318.765.765 0 0 1-.07.147 1.227 1.227 0 0 1-.11.146c-.04.05-.086.1-.135.152l-.274.294v.008h.673v.162zM198.101 107.572a.35.35 0 0 1 .35-.35h7.2a.35.35 0 1 1 0 .7h-7.2a.351.351 0 0 1-.35-.35z"/><path fill="none" d="M205.651 107.572v.001z"/><path fill="#787878" d="M201.905 106.641h-.172v-.892-.09c0-.032 0-.063.002-.095 0-.032.002-.063.003-.092l.002-.076-.03.03c-.008.01-.016.017-.025.024l-.028.025c-.01.008-.021.02-.035.03l-.145.118-.094-.12.374-.292h.146v1.43z"/><path d="M192.331 97.852l2.521 1.08-1.438 1.44-1.083-2.52z"/><g><path d="M189.091 98.212l2.521 1.08-1.438 1.438-1.083-2.518z"/></g></g><g><path d="M190.901 82.372v-3.6a.35.35 0 1 1 .7 0v3.6a.35.35 0 1 1-.7 0z"/><path d="M190.901 78.772v-3.6a.35.35 0 1 1 .7 0v3.6a.35.35 0 1 1-.7 0z"/><path fill="#FFF" d="M191.251 78.772l7.2-3.6v7.2z"/><path d="M190.469 78.772l8.332-4.166v8.333l-8.332-4.167zm7.632-3.034l-6.068 3.034 6.068 3.034v-6.068z"/><path d="M191.026 78.772c0-.124.101-.225.225-.225h7.2a.225.225 0 0 1 0 .45h-7.2a.226.226 0 0 1-.225-.225zM193.726 70.672a.225.225 0 0 1 .383-.159l2.341 2.34a.225.225 0 1 1-.318.318l-2.341-2.34a.222.222 0 0 1-.065-.159zM190.486 71.032a.225.225 0 0 1 .383-.159l2.34 2.34a.225.225 0 1 1-.318.318l-2.34-2.34a.225.225 0 0 1-.065-.159z"/><path fill="#787878" d="M183.701 78.772a.35.35 0 0 1 .35-.35h7.2a.35.35 0 1 1 0 .7h-7.2a.35.35 0 0 1-.35-.35z"/><path fill="none" d="M184.051 78.772v.001h-.001z"/><path fill="#787878" d="M187.794 77.841h-.891v-.152l.342-.372c.049-.053.093-.1.13-.145s.072-.086.1-.128a.69.69 0 0 0 .062-.125.412.412 0 0 0 .004-.24.228.228 0 0 0-.047-.075c-.021-.02-.045-.035-.073-.046s-.06-.016-.094-.016a.363.363 0 0 0-.167.038.629.629 0 0 0-.143.096l-.1-.116a.671.671 0 0 1 .29-.155.59.59 0 0 1 .29.013.359.359 0 0 1 .129.076.325.325 0 0 1 .082.12.485.485 0 0 1 .002.318.765.765 0 0 1-.07.147 1.227 1.227 0 0 1-.11.146c-.04.05-.086.1-.135.152l-.274.294v.008h.673v.162zM198.101 78.772a.35.35 0 0 1 .35-.35h7.2a.35.35 0 1 1 0 .7h-7.2a.351.351 0 0 1-.35-.35z"/><path fill="none" d="M205.651 78.772v.001z"/><path fill="#787878" d="M201.905 77.841h-.172v-.892-.09c0-.032 0-.063.002-.095 0-.032.002-.063.003-.092l.002-.076-.03.03c-.008.01-.016.017-.025.024l-.028.025c-.01.008-.021.02-.035.03l-.145.118-.094-.12.374-.292h.146v1.43z"/><path d="M192.331 69.052l2.521 1.08-1.438 1.44-1.083-2.52z"/><g><path d="M189.091 69.412l2.521 1.08-1.438 1.438-1.083-2.518z"/></g></g><g><path stroke-linecap="round" stroke="#404040" stroke-width=".7" d="M155.25 129.173h7.2"/></g><g><path stroke-linecap="round" stroke="#404040" stroke-width=".7" d="M191.25 129.173h7.2"/></g><g><path stroke-linecap="round" stroke="#404040" stroke-width=".7" d="M205.651 107.573h-.001"/></g><g><path stroke-linecap="round" stroke="#404040" stroke-width=".7" d="M205.651 93.173h-.001"/></g><g><path stroke-linecap="round" stroke="#404040" stroke-width=".7" d="M205.651 78.773h-.001"/></g><g><path stroke-linecap="round" stroke="#404040" stroke-width=".7" d="M205.651 64.373h-.001"/></g><g><path stroke-linecap="round" stroke="#404040" stroke-width=".7" d="M205.651 49.973h-.001"/></g><g><path stroke-linecap="round" stroke="#404040" stroke-width=".7" d="M205.65 35.573h.001"/></g><g><path stroke-linecap="round" stroke="#404040" stroke-width=".7" d="M234.494 129.269l-.044 14.304"/></g><circle cx="234.494" cy="129.269" r="1.44"/><g><path stroke-linecap="round" stroke="#404040" stroke-width=".7" d="M227.251 129.173l7.243.096"/></g><g><path stroke-linecap="round" stroke="#404040" stroke-width=".7" d="M234.494 129.269l-.044-21.696"/></g><circle cx="234.45" cy="107.573" r="1.44"/><g><path stroke-linecap="round" stroke="#404040" stroke-width=".7" d="M234.45 107.573v-14.4"/></g><circle cx="234.45" cy="107.573" r="1.44"/><circle cx="234.45" cy="93.173" r="1.44"/><g><path stroke-linecap="round" stroke="#404040" stroke-width=".7" d="M234.45 93.173v-14.4"/></g><circle cx="234.45" cy="93.173" r="1.44"/><circle cx="234.45" cy="78.773" r="1.44"/><g><path stroke-linecap="round" stroke="#404040" stroke-width=".7" d="M234.45 78.773v-14.4"/></g><circle cx="234.45" cy="78.773" r="1.44"/><circle cx="234.45" cy="64.373" r="1.44"/><g><path stroke-linecap="round" stroke="#404040" stroke-width=".7" d="M234.45 64.373v-14.4"/></g><circle cx="234.45" cy="64.373" r="1.44"/><circle cx="234.45" cy="49.973" r="1.44"/><g><path stroke-linecap="round" stroke="#404040" stroke-width=".7" d="M234.45 49.973v-14.4"/></g><circle cx="234.45" cy="49.973" r="1.44"/><g><path stroke-linecap="round" stroke="#404040" stroke-width=".7" d="M104.85 179.573"/></g><g><path stroke-linecap="round" stroke="#404040" stroke-width=".7" d="M169.717 93.239v14.334"/></g><g><path stroke-linecap="round" stroke="#404040" stroke-width=".7" d="M169.717 107.573h14.333"/></g><g><path stroke-linecap="round" stroke="#404040" stroke-width=".7" d="M155.25 93.173l14.467.066"/></g><g><path stroke-linecap="round" stroke="#404040" stroke-width=".7" d="M169.65 49.973h14.4"/></g><g><path stroke-linecap="round" stroke="#404040" stroke-width=".7" d="M169.65 64.373v-14.4"/></g><g><path stroke-linecap="round" stroke="#404040" stroke-width=".7" d="M155.25 64.373h14.4"/></g><g><path stroke-linecap="round" stroke="#404040" stroke-width=".7" d="M97.65 13.973"/></g><g><path stroke-linecap="round" stroke="#404040" stroke-width=".7" d="M11.25 13.973v36.326"/></g><g><path stroke-linecap="round" stroke="#404040" stroke-width=".7" d="M11.25 71.899l.001 107.674"/></g><g><path stroke-linecap="round" stroke="#404040" stroke-width=".7" d="M162.45 35.573h21.6"/></g><g><path stroke-linecap="round" stroke="#404040" stroke-width=".7" d="M162.45 57.173v-21.6"/></g><g><path stroke-linecap="round" stroke="#404040" stroke-width=".7" d="M155.25 57.173h7.2"/></g><g><path stroke-linecap="round" stroke="#404040" stroke-width=".7" d="M176.85 64.373h7.2"/></g><g><path stroke-linecap="round" stroke="#404040" stroke-width=".7" d="M176.85 71.573v-7.2"/></g><g><path stroke-linecap="round" stroke="#404040" stroke-width=".7" d="M155.25 71.573h21.6"/></g><g><path stroke-linecap="round" stroke="#404040" stroke-width=".7" d="M155.25 78.773h28.8"/></g><g><path stroke-linecap="round" stroke="#404040" stroke-width=".7" d="M176.85 85.973v7.2"/></g><g><path stroke-linecap="round" stroke="#404040" stroke-width=".7" d="M176.85 93.173h7.2"/></g><g><path stroke-linecap="round" stroke="#404040" stroke-width=".7" d="M155.25 85.973h21.6"/></g><g><path stroke-linecap="round" stroke="#000" stroke-width=".4" d="M227.251 136.373v-7.2"/></g><g><path stroke-linecap="round" stroke="#fa50e6" stroke-width=".4" d="M198.45 136.373v-7.2"/></g><g><text y="3.75" transform="translate(188.019 111.995)" font-size="5" font-family="'DroidSans'">LED6</text></g><g><text y="3.75" transform="translate(187.849 20.93)" font-size="5" font-family="'DroidSans'">LED1</text></g><g><g font-size="5" font-family="'DroidSans'"><text y="3.75" transform="translate(22.5 35.111)">V1</text><text y="8.75" transform="translate(22.5 35.111)">5</text></g></g><g><g font-size="5" font-family="'DroidSans'"><text y="3.75" transform="translate(236.803 74.39)">R4</text><text y="8.75" transform="translate(236.803 74.39)">560Ω</text></g></g><g><g font-size="5" font-family="'DroidSans'"><text y="3.75" transform="translate(236.688 88.663)">R5</text><text y="8.75" transform="translate(236.688 88.663)">560Ω</text></g></g><g><g font-size="5" font-family="'DroidSans'"><text y="3.75" transform="translate(236.745 103.163)">R6</text><text y="8.75" transform="translate(236.745 103.163)">560Ω</text></g></g><g><g font-size="5" font-family="'DroidSans'"><text y="3.75" transform="translate(236.557 45.55)">R2</text><text y="8.75" transform="translate(236.557 45.55)">560Ω</text></g></g><g><g font-size="5" font-family="'DroidSans'"><text y="3.75" transform="translate(236.83 59.951)">R3</text><text y="8.75" transform="translate(236.83 59.951)">560Ω</text></g></g><g><text y="3.75" transform="translate(209.417 131.705)" font-size="5" font-family="'DroidSans'">S1</text></g><g><g font-size="5" font-family="'DroidSans'"><text y="3.75" transform="translate(236.801 30.777)">R1</text><text y="8.75" transform="translate(236.801 30.777)">560Ω</text></g></g><g><g font-size="5" font-family="'DroidSans'"><text y="3.75" transform="translate(169.073 133.704)">R7</text><text y="8.75" transform="translate(169.073 133.704)">2.2kΩ</text></g></g></svg>