<?xml version="1.0" encoding="UTF-8" standalone="no"?>
<!-- Created with Fritzing (http://www.fritzing.org/) -->

<svg
   xmlns:dc="http://purl.org/dc/elements/1.1/"
   xmlns:cc="http://creativecommons.org/ns#"
   xmlns:rdf="http://www.w3.org/1999/02/22-rdf-syntax-ns#"
   xmlns:svg="http://www.w3.org/2000/svg"
   xmlns="http://www.w3.org/2000/svg"
   xmlns:sodipodi="http://sodipodi.sourceforge.net/DTD/sodipodi-0.dtd"
   xmlns:inkscape="http://www.inkscape.org/namespaces/inkscape"
   version="1.2"
   x="0in"
   y="0in"
   width="2.59999in"
   height="2.89338in"
   viewBox="0 0 187.199 208.323"
   id="svg3336"
   inkscape:version="0.91 r13725"
   sodipodi:docname="CIRC12b-schem.svg">
  <metadata
     id="metadata3881">
    <rdf:RDF>
      <cc:Work
         rdf:about="">
        <dc:format>image/svg+xml</dc:format>
        <dc:type
           rdf:resource="http://purl.org/dc/dcmitype/StillImage" />
        <dc:title></dc:title>
      </cc:Work>
    </rdf:RDF>
  </metadata>
  <defs
     id="defs3879" />
  <sodipodi:namedview
     pagecolor="#ffffff"
     bordercolor="#666666"
     borderopacity="1"
     objecttolerance="10"
     gridtolerance="10"
     guidetolerance="10"
     inkscape:pageopacity="0"
     inkscape:pageshadow="2"
     inkscape:window-width="1280"
     inkscape:window-height="736"
     id="namedview3877"
     showgrid="false"
     inkscape:zoom="3.4777277"
     inkscape:cx="46.88211"
     inkscape:cy="51.23774"
     inkscape:window-x="0"
     inkscape:window-y="285"
     inkscape:window-maximized="1"
     inkscape:current-layer="svg3336" />
  <g
     partID="854428220"
     id="g3338"
     transform="translate(-61.502257,0.7749751)">
    <g
       transform="translate(64.8184,130.027)"
       id="g3340">
      <g
         id="schematic">
        <line
           y1="6.7800002"
           y2="13.98"
           x1="7.1999998"
           x2="7.1999998"
           stroke-miterlimit="10"
           id="connector0pin"
           style="fill:none;stroke:#787878;stroke-width:0.75;stroke-linecap:round;stroke-miterlimit:10" />
        <g
           points="6.817,13.567,7.546,13.546,7.546,14.4,6.859,14.359"
           id="connector0terminal"
           style="fill:none" />
        <path
           d="m 0.45,6.564 13.5,0"
           id="path3345"
           inkscape:connector-curvature="0"
           style="fill:none;stroke:#000000;stroke-width:0.89999998;stroke-linecap:round" />
        <g
           transform="translate(1.4985,4.9878)"
           id="g3347">
          <text
             font-size="4.4991"
             id="label"
             x="0.526007"
             y="-0.22543156"
             style="font-size:4.49910021px;font-family:DroidSans">pin 9</text>
        </g>
      </g>
    </g>
  </g>
  <g
     partID="854428250"
     id="g3350"
     transform="translate(-61.502257,0.7749751)">
    <g
       transform="translate(93.6184,130.027)"
       id="g3352">
      <g
         id="g3354">
        <line
           y1="6.7800002"
           y2="13.98"
           x1="7.1999998"
           x2="7.1999998"
           stroke-miterlimit="10"
           id="line3356"
           style="fill:none;stroke:#787878;stroke-width:0.75;stroke-linecap:round;stroke-miterlimit:10" />
        <g
           points="6.817,13.567,7.546,13.546,7.546,14.4,6.859,14.359"
           id="g3358"
           style="fill:none" />
        <path
           d="m 0.45,6.564 13.5,0"
           id="path3360"
           inkscape:connector-curvature="0"
           style="fill:none;stroke:#000000;stroke-width:0.89999998;stroke-linecap:round" />
        <g
           transform="translate(1.4985,4.9878)"
           id="g3362">
          <text
             font-size="4.4991"
             id="text3364"
             x="-0.60115081"
             y="-0.30057541"
             style="font-size:4.49910021px;font-family:DroidSans">pin 10</text>
        </g>
      </g>
    </g>
  </g>
  <g
     partID="854428280"
     id="g3366"
     transform="translate(-61.502257,0.7749751)">
    <g
       transform="translate(122.418,130.027)"
       id="g3368">
      <g
         id="g3370">
        <line
           y1="6.7800002"
           y2="13.98"
           x1="7.1999998"
           x2="7.1999998"
           stroke-miterlimit="10"
           id="line3372"
           style="fill:none;stroke:#787878;stroke-width:0.75;stroke-linecap:round;stroke-miterlimit:10" />
        <g
           points="6.817,13.567,7.546,13.546,7.546,14.4,6.859,14.359"
           id="g3374"
           style="fill:none" />
        <path
           d="m 0.45,6.564 13.5,0"
           id="path3376"
           inkscape:connector-curvature="0"
           style="fill:none;stroke:#000000;stroke-width:0.89999998;stroke-linecap:round" />
        <g
           transform="translate(1.4985,4.9878)"
           id="g3378">
          <path
             d="m 2.619672,-3.6156031 c -0.065912,0 -0.1217918,0.019832 -0.1671918,0.059376 -0.043936,0.039544 -0.065624,0.1027519 -0.065624,0.1906238 0,0.086408 0.021688,0.1511837 0.065624,0.1921837 0.0454,0.041008 0.1012799,0.060944 0.1671918,0.060944 0.06444,0 0.1186558,-0.019936 0.1640558,-0.060944 0.046872,-0.042472 0.070312,-0.1072399 0.070312,-0.1921837 0,-0.043936 -0.00557,-0.080184 -0.018744,-0.1109359 -0.01172,-0.032224 -0.0296,-0.059184 -0.051568,-0.079688 -0.020504,-0.020504 -0.045704,-0.03496 -0.075,-0.043752 -0.027824,-0.010248 -0.05684,-0.015624 -0.089056,-0.015624 z m 5.639048,0.1031279 -0.8421828,0.656247 0.2109357,0.2703116 0.3265595,-0.2656236 c 0.03076,-0.02636 0.05616,-0.048152 0.078128,-0.067192 0.021968,-0.020504 0.043464,-0.040232 0.062496,-0.057808 0.020504,-0.017576 0.038776,-0.035648 0.057816,-0.054688 0.01904,-0.01904 0.042288,-0.042392 0.067192,-0.068752 -0.00147,0.049792 -0.00489,0.1075358 -0.00782,0.1734397 -0.00146,0.06444 -0.00332,0.1329198 -0.00625,0.2046877 -0.00146,0.070296 -0.00322,0.1422958 -0.00469,0.2140637 l 0,0.2015597 0,2.00624519 0.3874955,0 0,-3.21249139 -0.3296875,0 z m 2.478124,0 -0.8421904,0.656247 0.2109434,0.2703116 0.325,-0.2656236 c 0.03075,-0.02636 0.05772,-0.048152 0.07969,-0.067192 0.02197,-0.020504 0.0419,-0.040232 0.06094,-0.057808 0.0205,-0.017576 0.04034,-0.035648 0.05938,-0.054688 0.01904,-0.01904 0.04229,-0.042392 0.06718,-0.068752 -0.0015,0.049792 -0.0049,0.1075358 -0.0078,0.1734397 -0.0015,0.06444 -0.0033,0.1329198 -0.0063,0.2046877 -0.0015,0.070296 -0.0032,0.1422958 -0.0047,0.2140637 l 0,0.2015597 0,2.00624519 0.387503,0 0,-3.21249139 -0.329688,0 z m -9.86560951,0.7562469 c -0.0878719,0 -0.16719976,0.00918 -0.23750366,0.029688 -0.0702959,0.01904 -0.13350381,0.046 -0.19062373,0.079688 -0.0556479,0.032216 -0.10595985,0.071784 -0.14843979,0.1171839 -0.0424719,0.043936 -0.0803759,0.090928 -0.11405584,0.1421918 l -0.017192,0 -0.0578079,-0.3249996 -0.32499954,0 0,3.49217905 0.39999943,0 0,-1.02968654 c 0,-0.023432 -0.00176,-0.0557679 -0.004688,-0.0953119 -0.002928,-0.0410079 -0.004888,-0.0791119 -0.007816,-0.11718383 -0.004392,-0.0454079 -0.009664,-0.0939599 -0.014064,-0.1437518 l 0.026568,0 c 0.03368,0.0468639 0.0715839,0.0919039 0.11405584,0.13437581 0.0439439,0.0424719 0.0943519,0.0802799 0.14999978,0.11249584 0.0571199,0.03076 0.12032783,0.0543999 0.19063173,0.0734399 0.0702959,0.01904 0.14952779,0.0296879 0.23593567,0.0296879 0.13766382,0 0.26222362,-0.026968 0.37499952,-0.0796879 0.1127678,-0.0541919 0.2084157,-0.13361581 0.2874955,-0.23906366 0.080552,-0.10544785 0.1435678,-0.23538367 0.1875038,-0.39062345 0.043936,-0.15670372 0.065624,-0.33880752 0.065624,-0.54531122 0,-0.2050397 -0.021688,-0.3853834 -0.065624,-0.5406232 C 1.6772973,-2.2067891 1.6142814,-2.3366209 1.5337295,-2.4406048 1.4546497,-2.5460526 1.3590018,-2.6253805 1.246234,-2.6781004 1.1334581,-2.7308284 1.0088983,-2.7562283 0.87123449,-2.7562283 Z m 3.81249061,0 c -0.070296,0 -0.1388798,0.00723 -0.2062478,0.021872 -0.067368,0.014648 -0.1305758,0.036432 -0.1906237,0.067192 -0.060048,0.030752 -0.1159278,0.07032 -0.1671837,0.1171838 -0.0498,0.0454 -0.09308,0.099528 -0.1296879,0.1625038 l -0.02188,0 -0.056248,-0.3249996 -0.3265596,0 0,2.41249259 0.3999994,0 0,-1.24999819 c 0,-0.1405998 0.010744,-0.2650557 0.031248,-0.3734395 0.021968,-0.1083758 0.05792,-0.2003037 0.1062479,-0.2749996 0.049792,-0.074688 0.1147598,-0.1306718 0.1953117,-0.1687438 0.080552,-0.03808 0.1798077,-0.057816 0.2984395,-0.057816 0.1640318,0 0.2832156,0.046992 0.3593755,0.1421918 0.077616,0.095192 0.1171839,0.2392957 0.1171839,0.4296794 l 0,1.55312579 0.3999994,0 0,-1.57499779 c 0,-0.3075515 -0.06848,-0.5311752 -0.2046877,-0.670311 C 5.1536764,-2.6858924 4.9517407,-2.7562283 4.6837251,-2.7562283 Z m -2.2671808,0.043752 0,2.41249259 0.3999994,0 0,-2.41249259 -0.3999994,0 z m -1.6234377,0.2874956 c 0.20064771,0 0.3483595,0.075712 0.4406234,0.2265597 0.093736,0.1508558 0.1406238,0.3781915 0.1406238,0.682815 0,0.2987676 -0.046888,0.52786327 -0.1406238,0.68750304 -0.092264,0.15963177 -0.23822369,0.23905566 -0.43593541,0.23905566 -0.11862383,0 -0.21779169,-0.019832 -0.29687158,-0.0593759 -0.0790879,-0.0409999 -0.14229579,-0.0989359 -0.19062372,-0.17655975 -0.0468719,-0.0790879 -0.0810639,-0.17639175 -0.10156786,-0.29062365 -0.01904,-0.1156958 -0.02812,-0.2473916 -0.02812,-0.3953114 l 0,-0.090624 c 0.002928,-0.1391358 0.015528,-0.2599836 0.037496,-0.3625034 0.023432,-0.1025199 0.0593839,-0.1874158 0.10624785,-0.2562477 0.0483359,-0.068832 0.10978384,-0.1209998 0.18594373,-0.1546878 0.0776159,-0.03368 0.17150376,-0.05 0.2828076,-0.05 z"
             id="text3380"
             inkscape:connector-curvature="0" />
        </g>
      </g>
    </g>
  </g>
  <g
     partID="854405950"
     id="g3382"
     transform="translate(-61.502257,0.7749751)">
    <g
       transform="translate(93.5994,193.923)"
       id="g3384">
      <g
         id="g3386">
        <path
           d="m 7.201,7.575 0,-7.2"
           id="path3388"
           inkscape:connector-curvature="0"
           style="fill:none;stroke:#787878;stroke-width:0.75;stroke-linecap:round" />
        <g
           width="0.945"
           x="6.728"
           id="g3390"
           y="0"
           height="0.953"
           style="fill:none" />
        <path
           d="m 0.5,7.711 13.4,0"
           id="path4098"
           inkscape:connector-curvature="0"
           style="fill:none;stroke:#000000;stroke-width:0.89999998;stroke-linecap:round" />
        <path
           d="m 2.732,10.456 8.935,0"
           id="path4100"
           inkscape:connector-curvature="0"
           style="fill:none;stroke:#000000;stroke-width:0.89999998;stroke-linecap:round" />
        <path
           d="m 9.431,13.175 -4.464,0"
           id="path4102"
           inkscape:connector-curvature="0"
           style="fill:none;stroke:#000000;stroke-width:0.89999998;stroke-linecap:round" />
      </g>
    </g>
  </g>
  <g
     partID="81850"
     id="g3411"
     transform="translate(-61.502257,0.7749751)">
    <g
       transform="translate(119.301,201.165)"
       id="g3413">
      <g
         transform="scale(-1,-1)"
         id="g3415">
        <g
           id="g3417">
          <path
             d="m 18.565,15.1 c -0.193,0 -0.35,-0.157 -0.35,-0.35 l 0,-7.2 c 0,-0.193 0.157,-0.35 0.35,-0.35 0.193,0 0.35,0.157 0.35,0.35 l 0,7.2 c 0.001,0.193 -0.157,0.35 -0.35,0.35 z"
             id="path3419"
             inkscape:connector-curvature="0" />
          <path
             d="m 18.565,7.55 0,0 0,0 z"
             id="path3421"
             inkscape:connector-curvature="0"
             style="fill:none" />
          <path
             d="m 32.963,15.1 c -0.192,0 -0.351,-0.157 -0.351,-0.35 l 0,-6.85 -28.097,0 0,6.85 c 0,0.193 -0.157,0.35 -0.35,0.35 -0.193,0 -0.35,-0.157 -0.35,-0.35 l 0,-7.55 29.499,0 0,7.55 c -10e-4,0.193 -0.159,0.35 -0.351,0.35 z"
             id="path3423"
             inkscape:connector-curvature="0" />
          <path
             d="m 36.563,15.1 -3.603,0 c -0.192,0 -0.351,-0.157 -0.351,-0.35 0,-0.193 0.156,-0.35 0.351,-0.35 l 3.603,0 c 0.192,0 0.352,0.157 0.352,0.35 0,0.193 -0.157,0.35 -0.352,0.35 z"
             id="path3425"
             inkscape:connector-curvature="0" />
          <path
             d="m 32.963,15.1 -3.598,0 c -0.193,0 -0.351,-0.157 -0.351,-0.35 0,-0.193 0.154,-0.35 0.351,-0.35 l 3.598,0 c 0.192,0 0.351,0.157 0.351,0.35 0,0.193 -0.159,0.35 -0.351,0.35 z"
             id="path3427"
             inkscape:connector-curvature="0" />
          <polygon
             points="32.963,14.75 36.563,21.951 32.963,21.951 29.365,21.951 "
             id="polygon3429"
             style="fill:#ffffff" />
          <path
             d="m 37.131,22.3 -8.332,0 4.164,-8.333 4.168,8.333 z m -7.198,-0.701 6.065,0 -3.035,-6.066 -3.03,6.066 z"
             id="path3431"
             inkscape:connector-curvature="0" />
          <path
             d="m 32.963,22.175 c -0.124,0 -0.226,-0.103 -0.226,-0.225 l 0,-7.2 c 0,-0.124 0.102,-0.225 0.226,-0.225 0.124,0 0.226,0.101 0.226,0.225 l 0,7.201 c -10e-4,0.123 -0.102,0.224 -0.226,0.224 z"
             id="path3433"
             inkscape:connector-curvature="0" />
          <path
             d="m 37.582,16.414 c -0.06,0 -0.115,-0.021 -0.159,-0.063 -0.088,-0.088 -0.088,-0.229 0,-0.316 l 2.34,-2.341 c 0.088,-0.088 0.229,-0.088 0.318,0 0.088,0.088 0.088,0.23 0,0.318 L 37.74,16.35 c -0.044,0.042 -0.1,0.064 -0.158,0.064 z"
             id="path3435"
             inkscape:connector-curvature="0" />
          <path
             d="m 37.224,13.176 c -0.059,0 -0.115,-0.022 -0.158,-0.066 -0.09,-0.088 -0.09,-0.23 0,-0.318 l 2.341,-2.34 c 0.088,-0.088 0.229,-0.088 0.315,0 0.088,0.088 0.088,0.23 0,0.318 l -2.34,2.34 c -0.044,0.044 -0.104,0.066 -0.158,0.066 z"
             id="path3437"
             inkscape:connector-curvature="0" />
          <path
             d="m 41.542,12.231 -1.08,2.52 -1.438,-1.439 2.518,-1.081 z"
             id="path3439"
             inkscape:connector-curvature="0" />
          <path
             d="m 41.183,8.991 -1.078,2.52 -1.438,-1.438 2.516,-1.082 z"
             id="path3441"
             inkscape:connector-curvature="0" />
          <path
             d="m 22.165,15.1 -3.599,0 c -0.193,0 -0.35,-0.157 -0.35,-0.35 0,-0.193 0.157,-0.35 0.35,-0.35 l 3.599,0 c 0.193,0 0.35,0.157 0.35,0.35 0,0.193 -0.157,0.35 -0.35,0.35 z"
             id="path3443"
             inkscape:connector-curvature="0" />
          <path
             d="m 18.565,15.1 -3.601,0 c -0.193,0 -0.35,-0.157 -0.35,-0.35 0,-0.193 0.157,-0.35 0.35,-0.35 l 3.601,0 c 0.193,0 0.35,0.157 0.35,0.35 0,0.193 -0.157,0.35 -0.35,0.35 z"
             id="path3445"
             inkscape:connector-curvature="0" />
          <polygon
             points="18.565,14.75 22.165,21.951 18.565,21.951 14.964,21.951 "
             id="polygon3447"
             style="fill:#ffffff" />
          <path
             d="m 22.731,22.3 -8.333,0 4.167,-8.333 4.166,8.333 z m -7.201,-0.701 6.067,0 -3.033,-6.066 -3.034,6.066 z"
             id="path3449"
             inkscape:connector-curvature="0" />
          <path
             d="m 18.565,22.175 c -0.124,0 -0.225,-0.103 -0.225,-0.225 l 0,-7.2 c 0,-0.124 0.101,-0.225 0.225,-0.225 0.124,0 0.225,0.101 0.225,0.225 l 0,7.201 c 0.001,0.123 -0.101,0.224 -0.225,0.224 z"
             id="path3451"
             inkscape:connector-curvature="0" />
          <path
             d="m 23.183,16.414 c -0.058,0 -0.113,-0.021 -0.158,-0.063 -0.088,-0.088 -0.088,-0.229 0,-0.316 l 2.343,-2.341 c 0.088,-0.088 0.229,-0.088 0.315,0 0.09,0.088 0.09,0.23 0,0.318 l -2.341,2.339 c -0.044,0.041 -0.102,0.063 -0.159,0.063 z"
             id="path3453"
             inkscape:connector-curvature="0" />
          <path
             d="m 22.821,13.176 c -0.057,0 -0.114,-0.022 -0.159,-0.066 -0.088,-0.088 -0.088,-0.23 0,-0.318 l 2.34,-2.34 c 0.088,-0.088 0.229,-0.088 0.317,0 0.088,0.088 0.088,0.23 0,0.318 l -2.34,2.34 c -0.041,0.044 -0.099,0.066 -0.158,0.066 z"
             id="path3455"
             inkscape:connector-curvature="0" />
          <path
             d="m 27.144,12.231 -1.08,2.52 -1.438,-1.439 2.518,-1.081 z"
             id="path3457"
             inkscape:connector-curvature="0" />
          <path
             d="m 26.783,8.991 -1.08,2.52 -1.438,-1.438 2.518,-1.082 z"
             id="path3459"
             inkscape:connector-curvature="0" />
          <path
             d="m 7.766,15.1 -3.601,0 c -0.193,0 -0.35,-0.157 -0.35,-0.35 0,-0.193 0.157,-0.35 0.35,-0.35 l 3.601,0 c 0.193,0 0.35,0.157 0.35,0.35 0,0.193 -0.157,0.35 -0.35,0.35 z"
             id="path3461"
             inkscape:connector-curvature="0" />
          <path
             d="m 4.165,15.1 -3.599,0 c -0.193,0 -0.35,-0.157 -0.35,-0.35 0,-0.193 0.157,-0.35 0.35,-0.35 l 3.599,0 c 0.193,0 0.35,0.157 0.35,0.35 0,0.193 -0.156,0.35 -0.35,0.35 z"
             id="path3463"
             inkscape:connector-curvature="0" />
          <polygon
             points="4.165,14.75 7.766,21.951 4.165,21.951 0.566,21.951 "
             id="polygon3465"
             style="fill:#ffffff" />
          <path
             d="M 8.332,22.3 0,22.3 4.166,13.967 8.332,22.3 Z m -7.199,-0.701 6.067,0 -3.034,-6.066 -3.033,6.066 z"
             id="path3467"
             inkscape:connector-curvature="0" />
          <path
             d="M 4.165,22.175 C 4.041,22.175 3.94,22.072 3.94,21.95 l 0,-7.2 c 0,-0.124 0.101,-0.225 0.225,-0.225 0.124,0 0.225,0.101 0.225,0.225 l 0,7.201 c 0,0.123 -0.101,0.224 -0.225,0.224 z"
             id="path3469"
             inkscape:connector-curvature="0" />
          <path
             d="m 8.783,16.414 c -0.058,0 -0.115,-0.021 -0.159,-0.063 -0.088,-0.088 -0.088,-0.229 0,-0.316 l 2.339,-2.341 c 0.088,-0.088 0.23,-0.088 0.318,0 0.088,0.088 0.088,0.23 0,0.318 L 8.942,16.35 c -0.044,0.042 -0.101,0.064 -0.159,0.064 z"
             id="path3471"
             inkscape:connector-curvature="0" />
          <path
             d="m 8.422,13.176 c -0.058,0 -0.115,-0.022 -0.159,-0.066 -0.087,-0.088 -0.087,-0.23 0,-0.318 l 2.341,-2.34 c 0.088,-0.088 0.23,-0.088 0.318,0 0.088,0.088 0.088,0.23 0,0.318 L 8.581,13.11 C 8.537,13.154 8.48,13.176 8.422,13.176 Z"
             id="path3473"
             inkscape:connector-curvature="0" />
          <path
             d="m 12.743,12.231 -1.08,2.52 -1.439,-1.439 2.519,-1.081 z"
             id="path3475"
             inkscape:connector-curvature="0" />
          <path
             d="m 12.382,8.991 -1.08,2.52 -1.438,-1.438 2.518,-1.082 z"
             id="path3477"
             inkscape:connector-curvature="0" />
          <g
             id="g3479">
            <path
               d="m 32.964,29.5 c -0.193,0 -0.35,-0.155 -0.35,-0.35 l 0,-7.199 c 0,-0.193 0.156,-0.352 0.35,-0.352 0.194,0 0.35,0.156 0.35,0.352 l 0,7.199 c -10e-4,0.193 -0.157,0.35 -0.35,0.35 z"
               id="connector2pin"
               inkscape:connector-curvature="0"
               style="fill:#787878" />
            <g
               width="0.75"
               x="32.663"
               id="connector2terminal"
               y="27.167"
               height="2.396"
               style="fill:none" />
            <path
               d="m 18.567,7.9 c -0.193,0 -0.35,-0.157 -0.35,-0.35 l 0,-7.2 c 0,-0.193 0.157,-0.35 0.35,-0.35 0.193,0 0.35,0.157 0.35,0.35 l 0,7.2 c 0,0.194 -0.157,0.35 -0.35,0.35 z"
               id="connector1pin"
               inkscape:connector-curvature="0"
               style="fill:#787878" />
            <g
               width="0.75"
               x="18.205"
               id="connector1terminal"
               height="2.399"
               style="fill:none" />
            <path
               d="m 18.566,29.5 c -0.193,0 -0.35,-0.155 -0.35,-0.35 l 0,-7.199 c 0,-0.193 0.157,-0.352 0.35,-0.352 0.193,0 0.35,0.156 0.35,0.352 l 0,7.199 c 0,0.193 -0.157,0.35 -0.35,0.35 z"
               id="connector3pin"
               inkscape:connector-curvature="0"
               style="fill:#787878" />
            <g
               width="0.75"
               x="18.163"
               id="connector3terminal"
               y="27.167"
               height="2.396"
               style="fill:none" />
            <path
               d="m 4.165,29.5 c -0.193,0 -0.35,-0.155 -0.35,-0.35 l 0,-7.199 c 0,-0.193 0.157,-0.352 0.35,-0.352 0.193,0 0.35,0.156 0.35,0.352 l 0,7.199 c 0,0.193 -0.156,0.35 -0.35,0.35 z"
               id="path3487"
               inkscape:connector-curvature="0"
               style="fill:#787878" />
            <g
               width="0.75"
               x="3.726"
               id="g3489"
               y="27.167"
               height="2.396"
               style="fill:none" />
          </g>
        </g>
      </g>
    </g>
  </g>
  <g
     partID="62690"
     id="g3491"
     transform="translate(-61.502257,0.7749751)">
    <g
       transform="translate(68.9038,173.15)"
       id="g3493">
      <g
         transform="matrix(0,-1,1,0,0,0)"
         id="g3495">
        <g
           id="g3497">
          <line
             y1="3.096"
             y2="0.21600001"
             x1="7.5500202"
             x2="8.6300297"
             class="other"
             id="line3499"
             style="stroke:#000000;stroke-width:0.43200201;stroke-linecap:round" />
          <line
             y1="0.21600001"
             y2="5.9759998"
             x1="8.6300297"
             x2="10.43"
             class="other"
             id="line3501"
             style="stroke:#000000;stroke-width:0.43200201;stroke-linecap:round" />
          <line
             y1="5.9759998"
             y2="0.21600001"
             x1="10.43"
             x2="12.23"
             class="other"
             id="line3503"
             style="stroke:#000000;stroke-width:0.43200201;stroke-linecap:round" />
          <line
             y1="0.21600001"
             y2="5.9759998"
             x1="12.23"
             x2="14.03"
             class="other"
             id="line3505"
             style="stroke:#000000;stroke-width:0.43200201;stroke-linecap:round" />
          <line
             y1="5.9759998"
             y2="0.21600001"
             x1="14.03"
             x2="15.8301"
             class="other"
             id="line3507"
             style="stroke:#000000;stroke-width:0.43200201;stroke-linecap:round" />
          <line
             y1="0.21600001"
             y2="5.9759998"
             x1="15.8301"
             x2="17.6301"
             class="other"
             id="line3509"
             style="stroke:#000000;stroke-width:0.43200201;stroke-linecap:round" />
          <line
             y1="5.9759998"
             y2="0.21600001"
             x1="17.6301"
             x2="19.430099"
             class="other"
             id="line3511"
             style="stroke:#000000;stroke-width:0.43200201;stroke-linecap:round" />
          <line
             y1="0.21600001"
             y2="5.9759998"
             x1="19.430099"
             x2="21.230101"
             class="other"
             id="line3513"
             style="stroke:#000000;stroke-width:0.43200201;stroke-linecap:round" />
          <line
             y1="5.9759998"
             y2="3.096"
             x1="21.230101"
             x2="21.9501"
             class="other"
             id="line3515"
             style="stroke:#000000;stroke-width:0.43200201;stroke-linecap:round" />
          <line
             y1="3.096"
             y2="3.096"
             x1="29.1502"
             x2="21.9501"
             connectorname="2"
             class="pin"
             id="line3517"
             style="stroke:#787878;stroke-width:0.700001;stroke-linecap:round" />
          <g
             width="0.000283466"
             class="terminal"
             x="29.1502"
             id="g3519"
             y="3.096"
             height="0.000283465"
             style="fill:none;stroke:none;stroke-width:0" />
          <text
             class="text"
             font-size="2.50001"
             x="25.5501"
             y="2.046"
             id="text3521"
             style="font-size:2.50001001px;font-family:'Droid Sans';text-anchor:middle;fill:#8c8c8c;stroke:none;stroke-width:0">2</text>
          <line
             y1="3.096"
             y2="3.096"
             x1="0.35000101"
             x2="7.5500202"
             connectorname="1"
             class="pin"
             id="line3523"
             style="stroke:#787878;stroke-width:0.700001;stroke-linecap:round" />
          <g
             width="0.000283466"
             class="terminal"
             x="0.350001"
             id="g3525"
             y="3.096"
             height="0.000283465"
             style="fill:none;stroke:none;stroke-width:0" />
          <text
             class="text"
             font-size="2.50001"
             x="3.9500101"
             y="2.046"
             id="text3527"
             style="font-size:2.50001001px;font-family:'Droid Sans';text-anchor:middle;fill:#8c8c8c;stroke:none;stroke-width:0">1</text>
        </g>
      </g>
    </g>
  </g>
  <g
     partID="62670"
     id="g3529"
     transform="translate(-61.502257,0.7749751)">
    <g
       transform="translate(97.7038,173.15)"
       id="g3531">
      <g
         transform="matrix(0,-1,1,0,0,0)"
         id="g3533">
        <g
           id="g3535">
          <line
             y1="3.096"
             y2="0.21600001"
             x1="7.5500202"
             x2="8.6300297"
             class="other"
             id="line3537"
             style="stroke:#000000;stroke-width:0.43200201;stroke-linecap:round" />
          <line
             y1="0.21600001"
             y2="5.9759998"
             x1="8.6300297"
             x2="10.43"
             class="other"
             id="line3539"
             style="stroke:#000000;stroke-width:0.43200201;stroke-linecap:round" />
          <line
             y1="5.9759998"
             y2="0.21600001"
             x1="10.43"
             x2="12.23"
             class="other"
             id="line3541"
             style="stroke:#000000;stroke-width:0.43200201;stroke-linecap:round" />
          <line
             y1="0.21600001"
             y2="5.9759998"
             x1="12.23"
             x2="14.03"
             class="other"
             id="line3543"
             style="stroke:#000000;stroke-width:0.43200201;stroke-linecap:round" />
          <line
             y1="5.9759998"
             y2="0.21600001"
             x1="14.03"
             x2="15.8301"
             class="other"
             id="line3545"
             style="stroke:#000000;stroke-width:0.43200201;stroke-linecap:round" />
          <line
             y1="0.21600001"
             y2="5.9759998"
             x1="15.8301"
             x2="17.6301"
             class="other"
             id="line3547"
             style="stroke:#000000;stroke-width:0.43200201;stroke-linecap:round" />
          <line
             y1="5.9759998"
             y2="0.21600001"
             x1="17.6301"
             x2="19.430099"
             class="other"
             id="line3549"
             style="stroke:#000000;stroke-width:0.43200201;stroke-linecap:round" />
          <line
             y1="0.21600001"
             y2="5.9759998"
             x1="19.430099"
             x2="21.230101"
             class="other"
             id="line3551"
             style="stroke:#000000;stroke-width:0.43200201;stroke-linecap:round" />
          <line
             y1="5.9759998"
             y2="3.096"
             x1="21.230101"
             x2="21.9501"
             class="other"
             id="line3553"
             style="stroke:#000000;stroke-width:0.43200201;stroke-linecap:round" />
          <line
             y1="3.096"
             y2="3.096"
             x1="29.1502"
             x2="21.9501"
             connectorname="2"
             class="pin"
             id="line3555"
             style="stroke:#787878;stroke-width:0.700001;stroke-linecap:round" />
          <g
             width="0.000283466"
             class="terminal"
             x="29.1502"
             id="g3557"
             y="3.096"
             height="0.000283465"
             style="fill:none;stroke:none;stroke-width:0" />
          <text
             class="text"
             font-size="2.50001"
             x="25.5501"
             y="2.046"
             id="text3559"
             style="font-size:2.50001001px;font-family:'Droid Sans';text-anchor:middle;fill:#8c8c8c;stroke:none;stroke-width:0">2</text>
          <line
             y1="3.096"
             y2="3.096"
             x1="0.35000101"
             x2="7.5500202"
             connectorname="1"
             class="pin"
             id="line3561"
             style="stroke:#787878;stroke-width:0.700001;stroke-linecap:round" />
          <g
             width="0.000283466"
             class="terminal"
             x="0.350001"
             id="g3563"
             y="3.096"
             height="0.000283465"
             style="fill:none;stroke:none;stroke-width:0" />
          <text
             class="text"
             font-size="2.50001"
             x="3.9500101"
             y="2.046"
             id="text3565"
             style="font-size:2.50001001px;font-family:'Droid Sans';text-anchor:middle;fill:#8c8c8c;stroke:none;stroke-width:0">1</text>
        </g>
      </g>
    </g>
  </g>
  <g
     partID="62650"
     id="g3567"
     transform="translate(-61.502257,0.7749751)">
    <g
       transform="translate(126.504,173.15)"
       id="g3569">
      <g
         transform="matrix(0,-1,1,0,0,0)"
         id="g3571">
        <g
           id="g3573">
          <line
             y1="3.096"
             y2="0.21600001"
             x1="7.5500202"
             x2="8.6300297"
             class="other"
             id="line3575"
             style="stroke:#000000;stroke-width:0.43200201;stroke-linecap:round" />
          <line
             y1="0.21600001"
             y2="5.9759998"
             x1="8.6300297"
             x2="10.43"
             class="other"
             id="line3577"
             style="stroke:#000000;stroke-width:0.43200201;stroke-linecap:round" />
          <line
             y1="5.9759998"
             y2="0.21600001"
             x1="10.43"
             x2="12.23"
             class="other"
             id="line3579"
             style="stroke:#000000;stroke-width:0.43200201;stroke-linecap:round" />
          <line
             y1="0.21600001"
             y2="5.9759998"
             x1="12.23"
             x2="14.03"
             class="other"
             id="line3581"
             style="stroke:#000000;stroke-width:0.43200201;stroke-linecap:round" />
          <line
             y1="5.9759998"
             y2="0.21600001"
             x1="14.03"
             x2="15.8301"
             class="other"
             id="line3583"
             style="stroke:#000000;stroke-width:0.43200201;stroke-linecap:round" />
          <line
             y1="0.21600001"
             y2="5.9759998"
             x1="15.8301"
             x2="17.6301"
             class="other"
             id="line3585"
             style="stroke:#000000;stroke-width:0.43200201;stroke-linecap:round" />
          <line
             y1="5.9759998"
             y2="0.21600001"
             x1="17.6301"
             x2="19.430099"
             class="other"
             id="line3587"
             style="stroke:#000000;stroke-width:0.43200201;stroke-linecap:round" />
          <line
             y1="0.21600001"
             y2="5.9759998"
             x1="19.430099"
             x2="21.230101"
             class="other"
             id="line3589"
             style="stroke:#000000;stroke-width:0.43200201;stroke-linecap:round" />
          <line
             y1="5.9759998"
             y2="3.096"
             x1="21.230101"
             x2="21.9501"
             class="other"
             id="line3591"
             style="stroke:#000000;stroke-width:0.43200201;stroke-linecap:round" />
          <line
             y1="3.096"
             y2="3.096"
             x1="29.1502"
             x2="21.9501"
             connectorname="2"
             class="pin"
             id="line3593"
             style="stroke:#787878;stroke-width:0.700001;stroke-linecap:round" />
          <g
             width="0.000283466"
             class="terminal"
             x="29.1502"
             id="g3595"
             y="3.096"
             height="0.000283465"
             style="fill:none;stroke:none;stroke-width:0" />
          <text
             class="text"
             font-size="2.50001"
             x="25.5501"
             y="2.046"
             id="text3597"
             style="font-size:2.50001001px;font-family:'Droid Sans';text-anchor:middle;fill:#8c8c8c;stroke:none;stroke-width:0">2</text>
          <line
             y1="3.096"
             y2="3.096"
             x1="0.35000101"
             x2="7.5500202"
             connectorname="1"
             class="pin"
             id="line3599"
             style="stroke:#787878;stroke-width:0.700001;stroke-linecap:round" />
          <g
             width="0.000283466"
             class="terminal"
             x="0.350001"
             id="g3601"
             y="3.096"
             height="0.000283465"
             style="fill:none;stroke:none;stroke-width:0" />
          <text
             class="text"
             font-size="2.50001"
             x="3.9500101"
             y="2.046"
             id="text3603"
             style="font-size:2.50001001px;font-family:'Droid Sans';text-anchor:middle;fill:#8c8c8c;stroke:none;stroke-width:0">1</text>
        </g>
      </g>
    </g>
  </g>
  <g
     partID="854406230"
     id="g3825"
     transform="translate(-61.502257,0.7749751)">
    <line
       x1="100.8"
       y1="194.39999"
       x2="100.721"
       y2="199.965"
       id="line3827"
       style="stroke:#404040;stroke-width:0.69999802;stroke-linecap:round" />
  </g>
  <g
     partID="83110"
     id="g3829"
     transform="translate(-61.502257,0.7749751)">
    <line
       x1="115.2"
       y1="172.8"
       x2="129.60001"
       y2="172.8"
       id="line3831"
       style="stroke:#404040;stroke-width:0.69999802;stroke-linecap:round" />
  </g>
  <g
     partID="83180"
     id="g3833"
     transform="translate(-61.502257,0.7749751)">
    <line
       x1="100.763"
       y1="172.8"
       x2="100.8"
       y2="172.8"
       id="line3835"
       style="stroke:#404040;stroke-width:0.69999802;stroke-linecap:round" />
  </g>
  <g
     partID="83250"
     id="g3837"
     transform="translate(-61.502257,0.7749751)">
    <line
       x1="86.262901"
       y1="172.8"
       x2="71.999901"
       y2="172.8"
       id="line3839"
       style="stroke:#404040;stroke-width:0.69999802;stroke-linecap:round" />
  </g>
  <g
     partID="62650"
     id="partLabel"
     transform="translate(-61.502257,0.7749751)">
    <g
       transform="translate(120.865,163.909)"
       id="g3842">
      <g
         transform="matrix(0,-1,1,0,0,0)"
         id="g3844">
        <g
           font-size="5"
           font-style="normal"
           font-weight="normal"
           id="schematicLabel"
           style="font-style:normal;font-weight:normal;font-size:5px;font-family:DroidSans;fill:#000000;fill-opacity:1;stroke:none">
          <text
             x="0"
             y="3.75"
             id="text3847">560Ω</text>
        </g>
      </g>
    </g>
  </g>
  <g
     partID="62670"
     id="g3849"
     transform="translate(-61.502257,0.7749751)">
    <g
       transform="translate(92.0646,163.898)"
       id="g3851">
      <g
         transform="matrix(0,-1,1,0,0,0)"
         id="g3853">
        <g
           font-size="5"
           font-style="normal"
           font-weight="normal"
           id="g3855"
           style="font-style:normal;font-weight:normal;font-size:5px;font-family:DroidSans;fill:#000000;fill-opacity:1;stroke:none">
          <text
             x="0"
             y="3.75"
             id="text3857">560Ω</text>
        </g>
      </g>
    </g>
  </g>
  <g
     partID="62690"
     id="g3859"
     transform="translate(-61.502257,0.7749751)">
    <g
       transform="translate(63.2646,163.986)"
       id="g3861">
      <g
         transform="matrix(0,-1,1,0,0,0)"
         id="g3863">
        <g
           font-size="5"
           font-style="normal"
           font-weight="normal"
           id="g3865"
           style="font-style:normal;font-weight:normal;font-size:5px;font-family:DroidSans;fill:#000000;fill-opacity:1;stroke:none">
          <text
             x="0"
             y="3.75"
             id="text3867">560Ω</text>
        </g>
      </g>
    </g>
  </g>
  <g
     partID="81850"
     id="g3869"
     transform="translate(-61.502257,0.7749751)">
    <g
       transform="translate(120.052,183.761)"
       id="g3871">
      <g
         font-size="5"
         font-style="normal"
         font-weight="normal"
         id="g3873"
         style="font-style:normal;font-weight:normal;font-size:5px;font-family:DroidSans;fill:#000000;fill-opacity:1;stroke:none">
        <text
           x="0"
           y="3.75"
           id="text3875">RGB LED</text>
      </g>
    </g>
  </g>
  <text
     font-size="7"
     id="label-3"
     x="27.908739"
     y="134.75793"
     style="font-size:5.7874794px;font-family:DroidSans"
     transform="scale(1.0318028,0.96917745)">Arduino</text>
  <text
     font-size="7"
     id="label-3-6"
     x="2.220446e-16"
     y="134.75793"
     style="font-size:5.78747988px;font-family:DroidSans"
     transform="scale(1.0318028,0.96917745)">Arduino</text>
  <text
     font-size="7"
     id="label-3-7"
     x="55.792419"
     y="134.75793"
     style="font-size:5.78747988px;font-family:DroidSans"
     transform="scale(1.0318028,0.96917745)">Arduino</text>
</svg>
