<svg xmlns="http://www.w3.org/2000/svg" version="1.2" baseProfile="tiny" width="274.584" height="239.364" viewBox="0 0 205.938 179.524"><g xmlns="http://www.w3.org/2000/svg"><path xmlns="http://www.w3.org/2000/svg" fill="none" d="M111.611 104.403h-3.6v-7.2h3.6z"/><path stroke-width=".24" xmlns="http://www.w3.org/2000/svg" stroke="#000" fill="#fff" d="M108.124 100.803l3.48 3.48h14.36v-6.96h-14.36z"/></g><g xmlns="http://www.w3.org/2000/svg"><path xmlns="http://www.w3.org/2000/svg" fill="none" d="M111.611 111.604h-3.6v-7.2h3.6z"/><path stroke-width=".24" xmlns="http://www.w3.org/2000/svg" stroke="#000" fill="#fff" d="M108.124 108.004l3.48 3.48h14.36v-6.96h-14.36z"/></g><g xmlns="http://www.w3.org/2000/svg"><path xmlns="http://www.w3.org/2000/svg" fill="none" d="M111.611 97.203h-3.6v-7.2h3.6z"/><path stroke-width=".24" xmlns="http://www.w3.org/2000/svg" stroke="#000" fill="#fff" d="M108.124 93.603l3.48 3.48h11.36v-6.96h-11.36z"/></g><g xmlns="http://www.w3.org/2000/svg"><path xmlns="http://www.w3.org/2000/svg" fill="none" d="M183.604 97.19v3.6h-7.2v-3.6z"/><path stroke-width=".24" xmlns="http://www.w3.org/2000/svg" stroke="#000" fill="#fff" d="M180.004 100.677l3.48-3.48v-14.36h-6.96v14.36z"/></g><g xmlns="http://www.w3.org/2000/svg"><path xmlns="http://www.w3.org/2000/svg" fill="none" d="M169.204 97.189v3.6h-7.2v-3.6z"/><path stroke-width=".24" xmlns="http://www.w3.org/2000/svg" stroke="#000" fill="#fff" d="M165.604 100.676l3.48-3.48v-14.36h-6.96v14.36z"/></g><g xmlns="http://www.w3.org/2000/svg"><path xmlns="http://www.w3.org/2000/svg" fill="none" d="M198.004 97.19v3.6h-7.2v-3.6z"/><path stroke-width=".24" xmlns="http://www.w3.org/2000/svg" stroke="#000" fill="#fff" d="M194.404 100.677l3.48-3.48v-11.36h-6.96v11.36z"/></g><g xmlns="http://www.w3.org/2000/svg" fill="none"><path stroke-width=".75" xmlns="http://www.w3.org/2000/svg" d="M180.001 165.499v-7.2" stroke-linecap="round" stroke="#787878"/><path stroke-width=".9" xmlns="http://www.w3.org/2000/svg" d="M173.3 165.635h13.4M175.532 168.38h8.935M182.231 171.099h-4.464" stroke-linecap="round" stroke="#000"/></g><g xmlns="http://www.w3.org/2000/svg" fill="none"><path stroke-width=".75" xmlns="http://www.w3.org/2000/svg" d="M57.6 172.699v-7.2" stroke-linecap="round" stroke="#787878"/><path stroke-width=".9" xmlns="http://www.w3.org/2000/svg" d="M50.9 172.835h13.4M53.131 175.58h8.935M59.83 178.299h-4.464" stroke-linecap="round" stroke="#000"/></g><g xmlns="http://www.w3.org/2000/svg"><path xmlns="http://www.w3.org/2000/svg" d="M179.927 142.865a.35.35 0 0 0-.35.35v7.2a.35.35 0 0 0 .7 0v-7.2a.35.35 0 0 0-.35-.35z"/><path xmlns="http://www.w3.org/2000/svg" d="M179.927 150.415z" fill="none"/><path xmlns="http://www.w3.org/2000/svg" d="M194.325 142.865a.352.352 0 0 0-.351.35v6.85h-28.097v-6.85a.35.35 0 0 0-.7 0v7.55h29.499v-7.55a.353.353 0 0 0-.351-.35z"/><path xmlns="http://www.w3.org/2000/svg" d="M197.925 142.865h-3.603a.35.35 0 1 0 0 .7h3.603c.192 0 .352-.157.352-.35s-.157-.35-.352-.35z"/><path xmlns="http://www.w3.org/2000/svg" d="M194.325 142.865h-3.598c-.193 0-.351.157-.351.35s.154.35.351.35h3.598c.192 0 .351-.157.351-.35s-.159-.35-.351-.35z"/><path xmlns="http://www.w3.org/2000/svg" fill="#FFF" d="M197.925 136.014h-7.198l3.598 7.201z"/><path xmlns="http://www.w3.org/2000/svg" d="M198.493 135.665h-8.332l4.164 8.333 4.168-8.333zm-7.198.701h6.065l-3.035 6.066-3.03-6.066z"/><path xmlns="http://www.w3.org/2000/svg" d="M194.325 135.79a.228.228 0 0 0-.226.225v7.2a.226.226 0 0 0 .452 0v-7.201a.227.227 0 0 0-.226-.224zM198.944 141.551a.225.225 0 0 0-.159.063.222.222 0 0 0 0 .316l2.34 2.341a.225.225 0 1 0 .318-.318l-2.341-2.338a.227.227 0 0 0-.158-.064zM198.586 144.789a.218.218 0 0 0-.158.066.221.221 0 0 0 0 .318l2.341 2.34a.22.22 0 0 0 .315 0 .225.225 0 0 0 0-.318l-2.34-2.34a.228.228 0 0 0-.158-.066z"/><path xmlns="http://www.w3.org/2000/svg" d="M202.904 145.734l-1.08-2.52-1.438 1.439 2.518 1.081zM202.545 148.974l-1.078-2.52-1.438 1.438 2.516 1.082zM183.527 142.865h-3.599a.35.35 0 0 0 0 .7h3.599a.35.35 0 0 0 0-.7z"/><path xmlns="http://www.w3.org/2000/svg" d="M179.927 142.865h-3.601a.35.35 0 0 0 0 .7h3.601a.35.35 0 0 0 0-.7z"/><path xmlns="http://www.w3.org/2000/svg" fill="#FFF" d="M183.527 136.014H176.326l3.601 7.201z"/><path xmlns="http://www.w3.org/2000/svg" d="M184.093 135.665h-8.333l4.167 8.333 4.166-8.333zm-7.201.701h6.067l-3.033 6.066-3.034-6.066z"/><path xmlns="http://www.w3.org/2000/svg" d="M179.927 135.79a.227.227 0 0 0-.225.225v7.2a.225.225 0 0 0 .45 0v-7.201a.224.224 0 0 0-.225-.224zM184.545 141.551a.228.228 0 0 0-.158.063.222.222 0 0 0 0 .316l2.343 2.341a.22.22 0 0 0 .315 0 .221.221 0 0 0 0-.318l-2.341-2.339a.235.235 0 0 0-.159-.063zM184.183 144.789a.225.225 0 0 0-.159.384l2.34 2.34a.225.225 0 0 0 .317-.318l-2.34-2.34a.215.215 0 0 0-.158-.066z"/><path xmlns="http://www.w3.org/2000/svg" d="M188.506 145.734l-1.08-2.52-1.438 1.439 2.518 1.081zM188.145 148.974l-1.08-2.52-1.438 1.438 2.518 1.082zM169.128 142.865h-3.601a.35.35 0 0 0 0 .7h3.601a.35.35 0 0 0 0-.7z"/><path xmlns="http://www.w3.org/2000/svg" d="M165.527 142.865h-3.599a.35.35 0 0 0 0 .7h3.599a.35.35 0 0 0 0-.7z"/><path xmlns="http://www.w3.org/2000/svg" fill="#FFF" d="M169.128 136.014h-7.2l3.599 7.201z"/><path xmlns="http://www.w3.org/2000/svg" d="M169.694 135.665h-8.332l4.166 8.333 4.166-8.333zm-7.199.701h6.067l-3.034 6.066-3.033-6.066z"/><path xmlns="http://www.w3.org/2000/svg" d="M165.527 135.79a.227.227 0 0 0-.225.225v7.2a.225.225 0 0 0 .45 0v-7.201a.225.225 0 0 0-.225-.224zM170.145 141.551a.229.229 0 0 0-.159.063.222.222 0 0 0 0 .316l2.339 2.341a.225.225 0 1 0 .318-.318l-2.339-2.338a.23.23 0 0 0-.159-.064zM169.784 144.789a.223.223 0 0 0-.159.066.226.226 0 0 0 0 .318l2.341 2.34a.225.225 0 1 0 .318-.318l-2.341-2.34a.223.223 0 0 0-.159-.066z"/><path xmlns="http://www.w3.org/2000/svg" d="M174.105 145.734l-1.08-2.52-1.439 1.439 2.519 1.081zM173.744 148.974l-1.08-2.52-1.438 1.438 2.518 1.082z"/><g xmlns="http://www.w3.org/2000/svg"><path xmlns="http://www.w3.org/2000/svg" d="M194.326 128.465a.35.35 0 0 0-.35.35v7.199a.35.35 0 1 0 .7 0v-7.199a.351.351 0 0 0-.35-.35zM179.929 150.065a.35.35 0 0 0-.35.35v7.2a.35.35 0 0 0 .7 0v-7.2a.35.35 0 0 0-.35-.35zM179.928 128.465a.35.35 0 0 0-.35.35v7.199a.35.35 0 0 0 .7 0v-7.199a.35.35 0 0 0-.35-.35zM165.527 128.465a.35.35 0 0 0-.35.35v7.199a.35.35 0 0 0 .7 0v-7.199a.35.35 0 0 0-.35-.35z" fill="#787878"/></g></g><g xmlns="http://www.w3.org/2000/svg"><path stroke-width=".432" class="other" xmlns="http://www.w3.org/2000/svg" stroke-linecap="round" stroke="#000" d="M194.4 108l2.88 1.08M197.28 109.08l-5.76 1.8M191.52 110.88l5.76 1.8M197.28 112.68l-5.76 1.8M191.52 114.48l5.76 1.8M197.28 116.28l-5.76 1.8M191.52 118.08l5.76 1.8M197.28 119.88l-5.76 1.8M191.52 121.68l2.88.72"/><path stroke-width=".7" class="pin" xmlns="http://www.w3.org/2000/svg" stroke-linecap="round" stroke="#787878" d="M194.4 129.6v-7.2"/><text stroke-width="0" class="text" text-anchor="middle" xmlns="http://www.w3.org/2000/svg" font-size="2.5" x="25.55" y="2.046" font-family="'Droid Sans'" fill="#8c8c8c" transform="rotate(90 48.523 148.973)">2</text><path stroke-width=".7" class="pin" xmlns="http://www.w3.org/2000/svg" stroke-linecap="round" stroke="#787878" d="M194.4 100.8v7.2"/><text stroke-width="0" class="text" text-anchor="middle" xmlns="http://www.w3.org/2000/svg" font-size="2.5" x="3.95" y="2.046" font-family="'Droid Sans'" fill="#8c8c8c" transform="rotate(90 48.523 148.973)">1</text></g><g xmlns="http://www.w3.org/2000/svg"><path stroke-width=".432" class="other" xmlns="http://www.w3.org/2000/svg" stroke-linecap="round" stroke="#000" d="M180 108l2.88 1.08M182.88 109.08l-5.76 1.8M177.12 110.88l5.76 1.8M182.88 112.68l-5.76 1.8M177.12 114.48l5.76 1.8M182.88 116.28l-5.76 1.8M177.12 118.08l5.76 1.8M182.88 119.88l-5.76 1.8M177.12 121.68l2.88.72"/><path stroke-width=".7" class="pin" xmlns="http://www.w3.org/2000/svg" stroke-linecap="round" stroke="#787878" d="M180 129.6v-7.2"/><text stroke-width="0" class="text" text-anchor="middle" xmlns="http://www.w3.org/2000/svg" font-size="2.5" x="25.55" y="2.046" font-family="'Droid Sans'" fill="#8c8c8c" transform="rotate(90 41.323 141.773)">2</text><path stroke-width=".7" class="pin" xmlns="http://www.w3.org/2000/svg" stroke-linecap="round" stroke="#787878" d="M180 100.8v7.2"/><text stroke-width="0" class="text" text-anchor="middle" xmlns="http://www.w3.org/2000/svg" font-size="2.5" x="3.95" y="2.046" font-family="'Droid Sans'" fill="#8c8c8c" transform="rotate(90 41.323 141.773)">1</text></g><g xmlns="http://www.w3.org/2000/svg"><path stroke-width=".432" class="other" xmlns="http://www.w3.org/2000/svg" stroke-linecap="round" stroke="#000" d="M165.6 108l2.88 1.08M168.48 109.08l-5.76 1.8M162.72 110.88l5.76 1.8M168.48 112.68l-5.76 1.8M162.72 114.48l5.76 1.8M168.48 116.28l-5.76 1.8M162.72 118.08l5.76 1.8M168.48 119.88l-5.76 1.8M162.72 121.68l2.88.72"/><path stroke-width=".7" class="pin" xmlns="http://www.w3.org/2000/svg" stroke-linecap="round" stroke="#787878" d="M165.6 129.6v-7.2"/><text stroke-width="0" class="text" text-anchor="middle" xmlns="http://www.w3.org/2000/svg" font-size="2.5" x="25.55" y="2.046" font-family="'Droid Sans'" fill="#8c8c8c" transform="rotate(90 34.123 134.573)">2</text><path stroke-width=".7" class="pin" xmlns="http://www.w3.org/2000/svg" stroke-linecap="round" stroke="#787878" d="M165.6 100.8v7.2"/><text stroke-width="0" class="text" text-anchor="middle" xmlns="http://www.w3.org/2000/svg" font-size="2.5" x="3.95" y="2.046" font-family="'Droid Sans'" fill="#8c8c8c" transform="rotate(90 34.123 134.573)">1</text></g><path stroke-width=".9" class="interior rect" stroke-linecap="round" stroke="#000" fill="#FFF" d="M14.85 14.85h78.3v135.9h-78.3z"/><path stroke-width=".7" class="pin" stroke-linecap="round" stroke="#787878" fill="none" d="M93.25 28.8h14.4"/><text stroke-width="0" class="text" text-anchor="end" font-size="3.5" x="91.85" y="29.5" font-family="'Droid Sans'" fill="#8c8c8c">D0/RX</text><path stroke-width=".7" class="pin" stroke-linecap="round" stroke="#787878" fill="none" d="M93.25 36h14.4"/><text stroke-width="0" class="text" text-anchor="end" font-size="3.5" x="91.85" y="36.7" font-family="'Droid Sans'" fill="#8c8c8c">D1/TX</text><path stroke-width=".7" class="pin" stroke-linecap="round" stroke="#787878" fill="none" d="M93.25 43.2h14.4"/><text stroke-width="0" class="text" text-anchor="end" font-size="3.5" x="91.85" y="43.9" font-family="'Droid Sans'" fill="#8c8c8c">D2</text><path stroke-width=".7" class="pin" stroke-linecap="round" stroke="#787878" fill="none" d="M93.25 50.4h14.4"/><text stroke-width="0" class="text" text-anchor="end" font-size="3.5" x="91.85" y="51.1" font-family="'Droid Sans'" fill="#8c8c8c">D3 PWM</text><path stroke-width=".7" class="pin" stroke-linecap="round" stroke="#787878" fill="none" d="M93.25 57.6h14.4"/><text stroke-width="0" class="text" text-anchor="end" font-size="3.5" x="91.85" y="58.3" font-family="'Droid Sans'" fill="#8c8c8c">D4</text><path stroke-width=".7" class="pin" stroke-linecap="round" stroke="#787878" fill="none" d="M93.25 64.8h14.4"/><text stroke-width="0" class="text" text-anchor="end" font-size="3.5" x="91.85" y="65.5" font-family="'Droid Sans'" fill="#8c8c8c">D5 PWM</text><path stroke-width=".7" class="pin" stroke-linecap="round" stroke="#787878" fill="none" d="M93.25 72h14.4"/><text stroke-width="0" class="text" text-anchor="end" font-size="3.5" x="91.85" y="72.7" font-family="'Droid Sans'" fill="#8c8c8c">D6 PWM</text><path stroke-width=".7" class="pin" stroke-linecap="round" stroke="#787878" fill="none" d="M93.25 79.2h14.4"/><text stroke-width="0" class="text" text-anchor="end" font-size="3.5" x="91.85" y="79.9" font-family="'Droid Sans'" fill="#8c8c8c">D7</text><path stroke-width=".7" class="pin" stroke-linecap="round" stroke="#787878" fill="none" d="M93.25 86.4h14.4"/><text stroke-width="0" class="text" text-anchor="end" font-size="3.5" x="91.85" y="87.1" font-family="'Droid Sans'" fill="#8c8c8c">D8</text><path stroke-width=".7" class="pin" stroke-linecap="round" stroke="#787878" fill="none" d="M93.25 93.6h14.4"/><text stroke-width="0" class="text" text-anchor="end" font-size="3.5" x="91.85" y="94.3" font-family="'Droid Sans'" fill="#8c8c8c">D9 PWM</text><path stroke-width=".7" class="pin" stroke-linecap="round" stroke="#787878" fill="none" d="M93.25 100.8h14.4"/><text stroke-width="0" class="text" text-anchor="end" font-size="3.5" x="91.85" y="101.5" font-family="'Droid Sans'" fill="#8c8c8c">D10 PWM/SS</text><path stroke-width=".7" class="pin" stroke-linecap="round" stroke="#787878" fill="none" d="M93.25 108h14.4"/><text stroke-width="0" class="text" text-anchor="end" font-size="3.5" x="91.85" y="108.7" font-family="'Droid Sans'" fill="#8c8c8c">D11 PWM/MOSI</text><path stroke-width=".7" class="pin" stroke-linecap="round" stroke="#787878" fill="none" d="M93.25 115.2h14.4"/><text stroke-width="0" class="text" text-anchor="end" font-size="3.5" x="91.85" y="115.9" font-family="'Droid Sans'" fill="#8c8c8c">D12/MISO</text><path class="pin" fill="none" d="M93.25 122.4h14.4"/><path class="terminal" fill="none" d="M107.65 122.05h.7v.7h-.7z"/><path stroke-width=".7" class="pin" stroke-linecap="round" stroke="#787878" fill="none" d="M93.25 122.4h14.4"/><text stroke-width="0" class="text" text-anchor="end" font-size="3.5" x="91.85" y="123.1" font-family="'Droid Sans'" fill="#8c8c8c">D13/SCK</text><path class="pin" fill="none" d="M.35 28.8h14.4"/><path class="terminal" fill="none" d="M-.35 28.45h.7v.7h-.7z"/><path stroke-width=".7" class="pin" stroke-linecap="round" stroke="#787878" fill="none" d="M.35 28.8h14.4"/><text stroke-width="0" class="text" font-size="3.5" x="16.15" y="29.5" font-family="'Droid Sans'" fill="#8c8c8c">RESET</text><path stroke-width=".7" class="pin" stroke-linecap="round" stroke="#787878" fill="none" d="M.35 36h14.4"/><text stroke-width="0" class="text" font-size="3.5" x="16.15" y="36.7" font-family="'Droid Sans'" fill="#8c8c8c">RESET2</text><path class="terminal" fill="none" d="M-.35 35.65h.7v.7h-.7z"/><path stroke-width=".7" class="pin" stroke-linecap="round" stroke="#787878" fill="none" d="M.35 43.2h14.4"/><text stroke-width="0" class="text" font-size="3.5" x="16.15" y="43.9" font-family="'Droid Sans'" fill="#8c8c8c">AREF</text><path stroke-width=".7" class="pin" stroke-linecap="round" stroke="#787878" fill="none" d="M.35 50.4h14.4"/><text stroke-width="0" class="text" font-size="3.5" x="16.15" y="51.1" font-family="'Droid Sans'" fill="#8c8c8c">ioref</text><path stroke-width=".7" class="pin" stroke-linecap="round" stroke="#787878" fill="none" d="M.35 64.8h14.4"/><text stroke-width="0" class="text" font-size="3.5" x="16.15" y="65.5" font-family="'Droid Sans'" fill="#8c8c8c">A0</text><path stroke-width=".7" class="pin" stroke-linecap="round" stroke="#787878" fill="none" d="M.35 72h14.4"/><text stroke-width="0" class="text" font-size="3.5" x="16.15" y="72.7" font-family="'Droid Sans'" fill="#8c8c8c">A1</text><path stroke-width=".7" class="pin" stroke-linecap="round" stroke="#787878" fill="none" d="M.35 79.2h14.4"/><text stroke-width="0" class="text" font-size="3.5" x="16.15" y="79.9" font-family="'Droid Sans'" fill="#8c8c8c">A2</text><path stroke-width=".7" class="pin" stroke-linecap="round" stroke="#787878" fill="none" d="M.35 86.4h14.4"/><text stroke-width="0" class="text" font-size="3.5" x="16.15" y="87.1" font-family="'Droid Sans'" fill="#8c8c8c">A3</text><path class="pin" fill="none" d="M.35 93.6h14.4"/><path class="terminal" fill="none" d="M-.35 93.25h.7v.7h-.7z"/><path class="pin" fill="none" d="M.35 93.6h14.4"/><path class="terminal" fill="none" d="M-.35 93.25h.7v.7h-.7z"/><path class="pin" fill="none" d="M.35 93.6h14.4M.35 93.6h14.4"/><path class="terminal" fill="none" d="M-.35 93.25h.7v.7h-.7z"/><path class="pin" fill="none" d="M.35 93.6h14.4"/><path class="terminal" fill="none" d="M-.35 93.25h.7v.7h-.7z"/><path class="pin" fill="none" d="M.35 93.6h14.4"/><path class="terminal" fill="none" d="M-.35 93.25h.7v.7h-.7z"/><path stroke-width=".7" class="pin" stroke-linecap="round" stroke="#787878" fill="none" d="M.35 93.6h14.4"/><text stroke-width="0" class="text" font-size="3.5" x="16.15" y="94.3" font-family="'Droid Sans'" fill="#8c8c8c">A4/SDA</text><path class="pin" fill="none" d="M.35 100.8h14.4"/><path stroke-width=".7" class="pin" stroke-linecap="round" stroke="#787878" fill="none" d="M.35 100.8h14.4"/><text stroke-width="0" class="text" font-size="3.5" x="16.15" y="101.5" font-family="'Droid Sans'" fill="#8c8c8c">A5/SCL</text><path stroke-width=".7" class="pin" stroke-linecap="round" stroke="#787878" fill="none" d="M.35 136.8h14.4"/><text stroke-width="0" class="text" font-size="3.5" x="16.15" y="137.5" font-family="'Droid Sans'" fill="#8c8c8c">N/C</text><path class="pin" fill="none" d="M57.6 150.85v14.4M57.6 150.85v14.4M57.6 150.85v14.4"/><path class="terminal" fill="none" d="M57.25 165.25h.7v.7h-.7z"/><path class="pin" fill="none" d="M57.6 150.85v14.4"/><path class="terminal" fill="none" d="M57.25 165.25h.7v.7h-.7z"/><path stroke-width=".7" class="pin" stroke-linecap="round" stroke="#787878" fill="none" d="M57.6 150.85v14.4"/><text stroke-width="0" class="text" font-size="3.5" font-family="'Droid Sans'" fill="#8c8c8c" transform="rotate(-90 103.875 45.575)">GND</text><path stroke-width=".7" class="pin" stroke-linecap="round" stroke="#787878" fill="none" d="M36 .35v14.4"/><text stroke-width="0" class="text" text-anchor="end" font-size="3.5" font-family="'Droid Sans'" fill="#8c8c8c" transform="rotate(-90 26.425 -10.275)">3V3</text><path class="pin" fill="none" d="M50.4.35v14.4"/><path class="terminal" fill="none" d="M50.05-.35h.7v.7h-.7z"/><path class="pin" fill="none" d="M50.4.35v14.4"/><path class="terminal" fill="none" d="M50.05-.35h.7v.7h-.7z"/><path stroke-width=".7" class="pin" stroke-linecap="round" stroke="#787878" fill="none" d="M50.4.35v14.4"/><text stroke-width="0" class="text" text-anchor="end" font-size="3.5" font-family="'Droid Sans'" fill="#8c8c8c" transform="rotate(-90 33.625 -17.475)">5V</text><path stroke-width=".7" class="pin" stroke-linecap="round" stroke="#787878" fill="none" d="M64.8.35v14.4"/><text stroke-width="0" class="text" text-anchor="end" font-size="3.5" font-family="'Droid Sans'" fill="#8c8c8c" transform="rotate(-90 40.825 -24.675)">VIN</text><text stroke-width="0" class="text" text-anchor="middle" font-size="4.25" x="54.45" y="76.45" font-family="'Droid Sans'">Arduino</text><text stroke-width="0" class="text" text-anchor="middle" font-size="4.25" x="54.45" y="80.983" font-family="'Droid Sans'">Uno</text><text stroke-width="0" class="text" text-anchor="middle" font-size="4.25" x="54.45" y="85.517" font-family="'Droid Sans'">(Rev3)</text><g><text xmlns="http://www.w3.org/2000/svg" x=".48" font-size="4.8" y="5.28" font-family="Droid Sans" transform="rotate(180 63.042 52.202)">Pin 10</text></g><g><text xmlns="http://www.w3.org/2000/svg" x=".48" font-size="4.8" y="5.28" font-family="Droid Sans" transform="rotate(180 63.042 55.802)">Pin 11</text></g><g><text xmlns="http://www.w3.org/2000/svg" x=".48" font-size="4.8" y="5.28" font-family="Droid Sans" transform="rotate(180 61.542 48.602)">Pin 9</text></g><g><text xmlns="http://www.w3.org/2000/svg" x=".48" font-size="4.8" y="5.28" font-family="Droid Sans" transform="rotate(90 50.444 133.16)">Pin 10</text></g><g><text xmlns="http://www.w3.org/2000/svg" x=".48" font-size="4.8" y="5.28" font-family="Droid Sans" transform="rotate(90 43.244 125.96)">Pin 11</text></g><g><text xmlns="http://www.w3.org/2000/svg" x=".48" font-size="4.8" y="5.28" font-family="Droid Sans" transform="rotate(90 56.144 141.86)">Pin 9</text></g><g><path stroke-linecap="round" stroke="#404040" stroke-width=".7" d="M165.6 100.8"/></g><g><path stroke-linecap="round" stroke="#404040" stroke-width=".7" d="M180 100.8"/></g><g><path stroke-linecap="round" stroke="#404040" stroke-width=".7" d="M194.4 100.8"/></g><g><path stroke-linecap="round" stroke="#404040" stroke-width=".7" d="M108 93.6"/></g><g><path stroke-linecap="round" stroke="#404040" stroke-width=".7" d="M108 100.8"/></g><g><path stroke-linecap="round" stroke="#404040" stroke-width=".7" d="M108 108"/></g><g><path stroke-linecap="round" stroke="#404040" stroke-width=".7" d="M57.6 165.6"/></g><g><path stroke-linecap="round" stroke="#404040" stroke-width=".7" d="M165.6 129.6h-.137"/></g><g><path stroke-linecap="round" stroke="#404040" stroke-width=".7" d="M180 129.6h-.1"/></g><g><path stroke-linecap="round" stroke="#404040" stroke-width=".7" d="M194.4 129.6"/></g><g><path stroke-linecap="round" stroke="#404040" stroke-width=".7" d="M180 158.4l-.058-1.635"/></g><g><text y="3.75" transform="rotate(90 26.912 134.995)" font-size="5" font-family="'DroidSans'">560Ω</text></g><g><text y="3.75" transform="rotate(90 34.126 142.12)" font-size="5" font-family="'DroidSans'">560Ω</text></g><g><text y="3.75" transform="rotate(90 41.388 149.309)" font-size="5" font-family="'DroidSans'">560Ω</text></g><g><text y="3.75" transform="translate(139.457 145.065)" font-size="5" font-family="'DroidSans'">RGB LED</text></g></svg>