<svg xmlns="http://www.w3.org/2000/svg" version="1.2" width="284.844" height="277.195" viewBox="0 0 213.633 207.896"><path class="interior rect" fill="#fff" d="M151.883 85.973h28.8v28.8h-28.8z"/><text text-anchor="middle" x="21.95" y="12.493" class="text" font-family="'Droid Sans'" stroke-width="0" font-size="4.25" transform="translate(144.333 85.613)">TMP36<tspan font-size="4.5" x="53" y="5">Arduino</tspan> <tspan font-size="4" x="53" y="9.5">analog</tspan> <tspan font-size="4" x="23" y="-10.5">(precision</tspan> <tspan font-size="4" x="23" y="-6">temperature</tspan> <tspan font-size="4" x="23" y="-1.5">sensor)</tspan></text><path stroke="#000" stroke-linecap="round" class="other" stroke-width=".9" d="M151.883 85.973h28.8M180.683 85.973v28.8M180.683 114.773h-28.8M151.883 114.773v-28.8"/><path stroke="#787878" stroke-linecap="round" class="pin" stroke-width=".7" d="M144.683 93.173h7.2"/><text text-anchor="middle" x="3.95" y="6.51" class="text" font-family="'Droid Sans'" stroke-width="0" font-size="2.5" fill="#8c8c8c" transform="translate(144.333 85.613)">1</text><text x="9.65" y="8.26" class="text" font-family="'Droid Sans'" stroke-width="0" font-size="3.5" fill="#787878" transform="translate(144.333 85.613)">VCC</text><path stroke="#787878" stroke-linecap="round" class="pin" stroke-width=".7" d="M144.683 107.573h7.2"/><text text-anchor="middle" x="3.95" y="20.91" class="text" font-family="'Droid Sans'" stroke-width="0" font-size="2.5" fill="#8c8c8c" transform="translate(144.333 85.613)">3</text><text x="9.65" y="22.66" class="text" font-family="'Droid Sans'" stroke-width="0" font-size="3.5" fill="#787878" transform="translate(144.333 85.613)">GND</text><path stroke="#787878" stroke-linecap="round" class="pin" stroke-width=".7" d="M187.883 100.373h-7.2"/><text text-anchor="middle" x="39.95" y="13.71" class="text" font-family="'Droid Sans'" stroke-width="0" font-size="2.5" fill="#8c8c8c" transform="translate(144.333 85.613)">2</text><text text-anchor="end" x="34.25" y="15.46" class="text" font-family="'Droid Sans'" stroke-width="0" font-size="3.5" fill="#787878" transform="translate(144.333 85.613)">VOUT</text><path stroke="#000" stroke-linecap="round" class="interior rect" stroke-width=".9" fill="#FFF" d="M29.934 36.023h78.3v135.9h-78.3z"/><path stroke="#787878" stroke-linecap="round" class="pin" stroke-width=".7" fill="none" d="M108.334 49.973h14.4"/><text text-anchor="end" x="91.85" y="29.5" class="text" font-family="'Droid Sans'" stroke-width="0" font-size="3.5" fill="#8c8c8c" transform="translate(15.084 21.173)">D0/RX</text><path stroke="#787878" stroke-linecap="round" class="pin" stroke-width=".7" fill="none" d="M108.334 57.173h14.4"/><text text-anchor="end" x="91.85" y="36.7" class="text" font-family="'Droid Sans'" stroke-width="0" font-size="3.5" fill="#8c8c8c" transform="translate(15.084 21.173)">D1/TX</text><path stroke="#787878" stroke-linecap="round" class="pin" stroke-width=".7" fill="none" d="M108.334 64.373h14.4"/><text text-anchor="end" x="91.85" y="43.9" class="text" font-family="'Droid Sans'" stroke-width="0" font-size="3.5" fill="#8c8c8c" transform="translate(15.084 21.173)">D2</text><path stroke="#787878" stroke-linecap="round" class="pin" stroke-width=".7" fill="none" d="M108.334 71.573h14.4"/><text text-anchor="end" x="91.85" y="51.1" class="text" font-family="'Droid Sans'" stroke-width="0" font-size="3.5" fill="#8c8c8c" transform="translate(15.084 21.173)">D3 PWM</text><path stroke="#787878" stroke-linecap="round" class="pin" stroke-width=".7" fill="none" d="M108.334 78.773h14.4"/><text text-anchor="end" x="91.85" y="58.3" class="text" font-family="'Droid Sans'" stroke-width="0" font-size="3.5" fill="#8c8c8c" transform="translate(15.084 21.173)">D4</text><path stroke="#787878" stroke-linecap="round" class="pin" stroke-width=".7" fill="none" d="M108.334 85.973h14.4"/><text text-anchor="end" x="91.85" y="65.5" class="text" font-family="'Droid Sans'" stroke-width="0" font-size="3.5" fill="#8c8c8c" transform="translate(15.084 21.173)">D5 PWM</text><path stroke="#787878" stroke-linecap="round" class="pin" stroke-width=".7" fill="none" d="M108.334 93.173h14.4"/><text text-anchor="end" x="91.85" y="72.7" class="text" font-family="'Droid Sans'" stroke-width="0" font-size="3.5" fill="#8c8c8c" transform="translate(15.084 21.173)">D6 PWM</text><path stroke="#787878" stroke-linecap="round" class="pin" stroke-width=".7" fill="none" d="M108.334 100.373h14.4"/><text text-anchor="end" x="91.85" y="79.9" class="text" font-family="'Droid Sans'" stroke-width="0" font-size="3.5" fill="#8c8c8c" transform="translate(15.084 21.173)">D7</text><path stroke="#787878" stroke-linecap="round" class="pin" stroke-width=".7" fill="none" d="M108.334 107.573h14.4"/><text text-anchor="end" x="91.85" y="87.1" class="text" font-family="'Droid Sans'" stroke-width="0" font-size="3.5" fill="#8c8c8c" transform="translate(15.084 21.173)">D8</text><path stroke="#787878" stroke-linecap="round" class="pin" stroke-width=".7" fill="none" d="M108.334 114.773h14.4"/><text text-anchor="end" x="91.85" y="94.3" class="text" font-family="'Droid Sans'" stroke-width="0" font-size="3.5" fill="#8c8c8c" transform="translate(15.084 21.173)">D9 PWM</text><path stroke="#787878" stroke-linecap="round" class="pin" stroke-width=".7" fill="none" d="M108.334 121.973h14.4"/><text text-anchor="end" x="91.85" y="101.5" class="text" font-family="'Droid Sans'" stroke-width="0" font-size="3.5" fill="#8c8c8c" transform="translate(15.084 21.173)">D10 PWM/SS</text><path stroke="#787878" stroke-linecap="round" class="pin" stroke-width=".7" fill="none" d="M108.334 129.173h14.4"/><text text-anchor="end" x="91.85" y="108.7" class="text" font-family="'Droid Sans'" stroke-width="0" font-size="3.5" fill="#8c8c8c" transform="translate(15.084 21.173)">D11 PWM/MOSI</text><path stroke="#787878" stroke-linecap="round" class="pin" stroke-width=".7" fill="none" d="M108.334 136.373h14.4"/><text text-anchor="end" x="91.85" y="115.9" class="text" font-family="'Droid Sans'" stroke-width="0" font-size="3.5" fill="#8c8c8c" transform="translate(15.084 21.173)">D12/MISO</text><path class="pin" fill="none" d="M108.334 143.573h14.4"/><path class="terminal" fill="none" d="M122.734 143.223h.7v.7h-.7z"/><path stroke="#787878" stroke-linecap="round" class="pin" stroke-width=".7" fill="none" d="M108.334 143.573h14.4"/><text text-anchor="end" x="91.85" y="123.1" class="text" font-family="'Droid Sans'" stroke-width="0" font-size="3.5" fill="#8c8c8c" transform="translate(15.084 21.173)">D13/SCK</text><path class="pin" fill="none" d="M15.434 49.973h14.4"/><path class="terminal" fill="none" d="M14.734 49.623h.7v.7h-.7z"/><path stroke="#787878" stroke-linecap="round" class="pin" stroke-width=".7" fill="none" d="M15.434 49.973h14.4"/><text x="16.15" y="29.5" class="text" font-family="'Droid Sans'" stroke-width="0" font-size="3.5" fill="#8c8c8c" transform="translate(15.084 21.173)">RESET</text><path stroke="#787878" stroke-linecap="round" class="pin" stroke-width=".7" fill="none" d="M15.434 57.173h14.4"/><text x="16.15" y="36.7" class="text" font-family="'Droid Sans'" stroke-width="0" font-size="3.5" fill="#8c8c8c" transform="translate(15.084 21.173)">RESET2</text><path class="terminal" fill="none" d="M14.734 56.823h.7v.7h-.7z"/><path stroke="#787878" stroke-linecap="round" class="pin" stroke-width=".7" fill="none" d="M15.434 64.373h14.4"/><text x="16.15" y="43.9" class="text" font-family="'Droid Sans'" stroke-width="0" font-size="3.5" fill="#8c8c8c" transform="translate(15.084 21.173)">AREF</text><path stroke="#787878" stroke-linecap="round" class="pin" stroke-width=".7" fill="none" d="M15.434 71.573h14.4"/><text x="16.15" y="51.1" class="text" font-family="'Droid Sans'" stroke-width="0" font-size="3.5" fill="#8c8c8c" transform="translate(15.084 21.173)">ioref</text><path stroke="#787878" stroke-linecap="round" class="pin" stroke-width=".7" fill="none" d="M15.434 85.973h14.4"/><text x="16.15" y="65.5" class="text" font-family="'Droid Sans'" stroke-width="0" font-size="3.5" fill="#8c8c8c" transform="translate(15.084 21.173)">A0</text><path stroke="#787878" stroke-linecap="round" class="pin" stroke-width=".7" fill="none" d="M15.434 93.173h14.4"/><text x="16.15" y="72.7" class="text" font-family="'Droid Sans'" stroke-width="0" font-size="3.5" fill="#8c8c8c" transform="translate(15.084 21.173)">A1</text><path stroke="#787878" stroke-linecap="round" class="pin" stroke-width=".7" fill="none" d="M15.434 100.373h14.4"/><text x="16.15" y="79.9" class="text" font-family="'Droid Sans'" stroke-width="0" font-size="3.5" fill="#8c8c8c" transform="translate(15.084 21.173)">A2</text><path stroke="#787878" stroke-linecap="round" class="pin" stroke-width=".7" fill="none" d="M15.434 107.573h14.4"/><text x="16.15" y="87.1" class="text" font-family="'Droid Sans'" stroke-width="0" font-size="3.5" fill="#8c8c8c" transform="translate(15.084 21.173)">A3</text><path class="pin" fill="none" d="M15.434 114.773h14.4"/><path class="terminal" fill="none" d="M14.734 114.423h.7v.7h-.7z"/><path class="pin" fill="none" d="M15.434 114.773h14.4"/><path class="terminal" fill="none" d="M14.734 114.423h.7v.7h-.7z"/><path class="pin" fill="none" d="M15.434 114.773h14.4M15.434 114.773h14.4"/><path class="terminal" fill="none" d="M14.734 114.423h.7v.7h-.7z"/><path class="pin" fill="none" d="M15.434 114.773h14.4"/><path class="terminal" fill="none" d="M14.734 114.423h.7v.7h-.7z"/><path class="pin" fill="none" d="M15.434 114.773h14.4"/><path class="terminal" fill="none" d="M14.734 114.423h.7v.7h-.7z"/><path stroke="#787878" stroke-linecap="round" class="pin" stroke-width=".7" fill="none" d="M15.434 114.773h14.4"/><text x="16.15" y="94.3" class="text" font-family="'Droid Sans'" stroke-width="0" font-size="3.5" fill="#8c8c8c" transform="translate(15.084 21.173)">A4/SDA</text><path class="pin" fill="none" d="M15.434 121.973h14.4"/><path stroke="#787878" stroke-linecap="round" class="pin" stroke-width=".7" fill="none" d="M15.434 121.973h14.4"/><text x="16.15" y="101.5" class="text" font-family="'Droid Sans'" stroke-width="0" font-size="3.5" fill="#8c8c8c" transform="translate(15.084 21.173)">A5/SCL</text><path stroke="#787878" stroke-linecap="round" class="pin" stroke-width=".7" fill="none" d="M15.434 157.973h14.4"/><text x="16.15" y="137.5" class="text" font-family="'Droid Sans'" stroke-width="0" font-size="3.5" fill="#8c8c8c" transform="translate(15.084 21.173)">N/C</text><path class="pin" fill="none" d="M72.684 172.023v14.4M72.684 172.023v14.4M72.684 172.023v14.4"/><path class="terminal" fill="none" d="M72.334 186.423h.7v.7h-.7z"/><path class="pin" fill="none" d="M72.684 172.023v14.4"/><path class="terminal" fill="none" d="M72.334 186.423h.7v.7h-.7z"/><path stroke="#787878" stroke-linecap="round" class="pin" stroke-width=".7" fill="none" d="M72.684 172.023v14.4"/><text class="text" font-family="'Droid Sans'" stroke-width="0" font-size="3.5" fill="#8c8c8c" transform="rotate(-90 122.003 48.62)">GND</text><path stroke="#787878" stroke-linecap="round" class="pin" stroke-width=".7" fill="none" d="M51.084 21.523v14.4"/><text text-anchor="end" class="text" font-family="'Droid Sans'" stroke-width="0" font-size="3.5" fill="#8c8c8c" transform="rotate(-90 44.553 -7.23)">3V3</text><path class="pin" fill="none" d="M65.484 21.523v14.4"/><path class="terminal" fill="none" d="M65.134 20.823h.7v.7h-.7z"/><path class="pin" fill="none" d="M65.484 21.523v14.4"/><path class="terminal" fill="none" d="M65.134 20.823h.7v.7h-.7z"/><path stroke="#787878" stroke-linecap="round" class="pin" stroke-width=".7" fill="none" d="M65.484 21.523v14.4"/><text text-anchor="end" class="text" font-family="'Droid Sans'" stroke-width="0" font-size="3.5" fill="#8c8c8c" transform="rotate(-90 51.753 -14.43)">5V</text><path stroke="#787878" stroke-linecap="round" class="pin" stroke-width=".7" fill="none" d="M79.884 21.523v14.4"/><text text-anchor="end" class="text" font-family="'Droid Sans'" stroke-width="0" font-size="3.5" fill="#8c8c8c" transform="rotate(-90 58.953 -21.63)">VIN</text><text text-anchor="middle" x="54.45" y="76.45" class="text" font-family="'Droid Sans'" stroke-width="0" font-size="4.25" transform="translate(15.084 21.173)">Arduino</text><text text-anchor="middle" x="54.45" y="80.983" class="text" font-family="'Droid Sans'" stroke-width="0" font-size="4.25" transform="translate(15.084 21.173)">Uno</text><text text-anchor="middle" x="54.45" y="85.517" class="text" font-family="'Droid Sans'" stroke-width="0" font-size="4.25" transform="translate(15.084 21.173)">(Rev3)</text><g><g fill="none"><path stroke="#787878" d="M72.684 201.071v-7.2" stroke-linecap="round" stroke-width=".75"/><path stroke="#000" d="M65.983 201.207h13.4M68.215 203.952h8.935M74.914 206.671H70.45" stroke-linecap="round" stroke-width=".9"/></g></g><g><path stroke="#787878" stroke-miterlimit="10" stroke-linecap="round" stroke-width=".75" fill="none" d="M65.502 6.78v7.2"/><path stroke="#000" d="M58.752 6.564h13.5" stroke-linecap="round" stroke-width=".9" fill="none"/><text font-family="'DroidSans'" font-size="4.499" transform="translate(59.8 4.988)">5V</text></g><g><g fill="none"><path stroke="#787878" d="M144.684 121.871v-7.2" stroke-linecap="round" stroke-width=".75"/><path stroke="#000" d="M137.983 122.007h13.4M140.215 124.752h8.935M146.914 127.471h-4.464" stroke-linecap="round" stroke-width=".9"/></g></g><g><path stroke="#787878" stroke-miterlimit="10" stroke-linecap="round" stroke-width=".75" fill="none" d="M144.702 78.78v7.2"/><path stroke="#000" d="M137.952 78.564h13.5" stroke-linecap="round" stroke-width=".9" fill="none"/><text font-family="'DroidSans'" font-size="4.499" transform="translate(139 76.988)">5V</text></g><g><path fill="none" d="M191.495 96.77h-3.6v7.2h3.6z"/><path stroke-width=".24" stroke="#000" fill="#fff" d="M188.008 100.37l3.48-3.48h11.36v6.96h-11.36z"/></g><g><path fill="none" d="M11.473 82.37h3.6v7.2h-3.6z"/><path stroke="#000" stroke-width=".24" fill="#fff" d="M14.96 85.97l-3.48-3.48H.12v6.96h11.36z"/></g><g><text x=".48" y="5.28" font-size="4.8" font-family="Droid Sans" transform="translate(190.806 96.77)">pin 0</text></g><g><text x=".48" y="5.28" font-family="Droid Sans" font-size="4.8" transform="translate(0 82.37)">pin 0</text></g><g><path stroke-linecap="round" stroke="#404040" stroke-width=".7" d="M72.684 193.973v-7.2"/></g><g><path stroke-linecap="round" stroke="#404040" stroke-width=".7" d="M65.484 13.973v7.2"/></g><g><path stroke-linecap="round" stroke="#404040" stroke-width=".7" d="M144.684 107.573h-.001"/></g><g><path stroke-linecap="round" stroke="#404040" stroke-width=".7" d="M144.684 114.773v-7.2"/></g><g><path stroke-linecap="round" stroke="#404040" stroke-width=".7" d="M144.684 93.173v-7.2"/></g><g><path stroke-linecap="round" stroke="#404040" stroke-width=".7" d="M144.684 93.173"/></g><g><path stroke-linecap="round" stroke="#404040" stroke-width=".7" d="M187.884 100.373"/></g><g><path stroke-linecap="round" stroke="#404040" stroke-width=".7" d="M15.084 85.973"/></g><g><text y="3.75" transform="translate(154.974 119.569)" font-size="5" font-family="'DroidSans'">gnd<tspan font-size="4" x="0" y="8.9">(ground) (-)</tspan></text></g></svg>