<svg xmlns="http://www.w3.org/2000/svg" version="1.2" width="315.812" height="257.995" viewBox="0 0 236.859 193.496"><path d="M144.084 71.922h3.6a.35.35 0 1 0 0-.7h-3.6a.35.35 0 1 0 0 .7z"/><path d="M147.684 71.922h3.6a.35.35 0 1 0 0-.7h-3.6a.35.35 0 1 0 0 .7z"/><path fill="#FFF" d="M147.684 71.572l3.6-7.2h-7.2z"/><path d="M147.684 72.355l4.166-8.333h-8.333l4.167 8.333zm3.034-7.633l-3.034 6.069-3.034-6.069h6.068z"/><path d="M147.684 71.797a.225.225 0 0 0 .225-.224v-7.2a.225.225 0 0 0-.45 0v7.2a.226.226 0 0 0 .225.225zM155.784 69.097a.225.225 0 0 0 .159-.383l-2.34-2.34a.225.225 0 1 0-.318.318l2.34 2.34a.222.222 0 0 0 .159.066zM155.424 72.338a.225.225 0 0 0 .159-.383l-2.34-2.34a.225.225 0 1 0-.318.318l2.34 2.34a.225.225 0 0 0 .159.065z"/><path fill="#787878" d="M147.684 79.123a.35.35 0 0 0 .35-.35v-7.2a.35.35 0 1 0-.7 0v7.2a.35.35 0 0 0 .35.35z"/><path fill="none" d="M147.684 78.772h-.001v.001h.001z"/><path fill="#787878" d="M148.615 75.03v.89h.152l.372-.341c.053-.05.101-.093.145-.131s.086-.071.128-.1a.69.69 0 0 1 .125-.061.412.412 0 0 1 .24-.004c.03.012.054.027.075.047.02.02.035.045.046.073s.016.06.016.094a.363.363 0 0 1-.038.167.629.629 0 0 1-.096.143l.116.1a.671.671 0 0 0 .155-.29.59.59 0 0 0-.013-.29.359.359 0 0 0-.076-.13.325.325 0 0 0-.119-.081.485.485 0 0 0-.318-.002.765.765 0 0 0-.148.07 1.227 1.227 0 0 0-.146.109c-.049.04-.1.087-.152.136l-.294.274h-.008v-.673h-.162zM147.684 64.722a.35.35 0 0 0 .35-.35v-7.2a.35.35 0 1 0-.7 0v7.2c.001.194.157.35.35.35z"/><path fill="none" d="M147.684 57.172h-.001z"/><path fill="#787878" d="M148.615 60.919v.172h.982l.095-.002.092-.003.076-.002c-.012.01-.021.02-.03.029l-.024.026-.025.028c-.008.01-.019.02-.03.035l-.118.145.12.094.292-.374v-.146h-1.43z"/><path d="M157.404 70.492l-1.08-2.52-1.44 1.437 2.52 1.083zM157.044 73.733l-1.08-2.522-1.438 1.439 2.518 1.082z"/><path class="interior rect" fill="#FFF" stroke="#000" stroke-linecap="round" stroke-width=".9" d="M32.934 28.823h78.3v135.9h-78.3z"/><path class="pin" fill="none" stroke="#787878" stroke-linecap="round" stroke-width=".7" d="M111.334 42.773h14.4"/><text class="text" font-family="'Droid Sans'" fill="#8c8c8c" x="91.85" text-anchor="end" font-size="3.5" y="29.5" stroke-width="0" transform="translate(18.084 13.973)">D0/RX</text><path class="pin" fill="none" stroke="#787878" stroke-linecap="round" stroke-width=".7" d="M111.334 49.973h14.4"/><text class="text" font-family="'Droid Sans'" fill="#8c8c8c" x="91.85" text-anchor="end" font-size="3.5" y="36.7" stroke-width="0" transform="translate(18.084 13.973)">D1/TX</text><path class="pin" fill="none" stroke="#787878" stroke-linecap="round" stroke-width=".7" d="M111.334 57.173h14.4"/><text class="text" font-family="'Droid Sans'" fill="#8c8c8c" x="91.85" text-anchor="end" font-size="3.5" y="43.9" stroke-width="0" transform="translate(18.084 13.973)">D2</text><path class="pin" fill="none" stroke="#787878" stroke-linecap="round" stroke-width=".7" d="M111.334 64.373h14.4"/><text class="text" font-family="'Droid Sans'" fill="#8c8c8c" x="91.85" text-anchor="end" font-size="3.5" y="51.1" stroke-width="0" transform="translate(18.084 13.973)">D3 PWM</text><path class="pin" fill="none" stroke="#787878" stroke-linecap="round" stroke-width=".7" d="M111.334 71.573h14.4"/><text class="text" font-family="'Droid Sans'" fill="#8c8c8c" x="91.85" text-anchor="end" font-size="3.5" y="58.3" stroke-width="0" transform="translate(18.084 13.973)">D4</text><path class="pin" fill="none" stroke="#787878" stroke-linecap="round" stroke-width=".7" d="M111.334 78.773h14.4"/><text class="text" font-family="'Droid Sans'" fill="#8c8c8c" x="91.85" text-anchor="end" font-size="3.5" y="65.5" stroke-width="0" transform="translate(18.084 13.973)">D5 PWM</text><path class="pin" fill="none" stroke="#787878" stroke-linecap="round" stroke-width=".7" d="M111.334 85.973h14.4"/><text class="text" font-family="'Droid Sans'" fill="#8c8c8c" x="91.85" text-anchor="end" font-size="3.5" y="72.7" stroke-width="0" transform="translate(18.084 13.973)">D6 PWM</text><path class="pin" fill="none" stroke="#787878" stroke-linecap="round" stroke-width=".7" d="M111.334 93.173h14.4"/><text class="text" font-family="'Droid Sans'" fill="#8c8c8c" x="91.85" text-anchor="end" font-size="3.5" y="79.9" stroke-width="0" transform="translate(18.084 13.973)">D7</text><path class="pin" fill="none" stroke="#787878" stroke-linecap="round" stroke-width=".7" d="M111.334 100.373h14.4"/><text class="text" font-family="'Droid Sans'" fill="#8c8c8c" x="91.85" text-anchor="end" font-size="3.5" y="87.1" stroke-width="0" transform="translate(18.084 13.973)">D8</text><path class="pin" fill="none" stroke="#787878" stroke-linecap="round" stroke-width=".7" d="M111.334 107.573h14.4"/><text class="text" font-family="'Droid Sans'" fill="#8c8c8c" x="91.85" text-anchor="end" font-size="3.5" y="94.3" stroke-width="0" transform="translate(18.084 13.973)">D9 PWM</text><path class="pin" fill="none" stroke="#787878" stroke-linecap="round" stroke-width=".7" d="M111.334 114.773h14.4"/><text class="text" font-family="'Droid Sans'" fill="#8c8c8c" x="91.85" text-anchor="end" font-size="3.5" y="101.5" stroke-width="0" transform="translate(18.084 13.973)">D10 PWM/SS</text><path class="pin" fill="none" stroke="#787878" stroke-linecap="round" stroke-width=".7" d="M111.334 121.973h14.4"/><text class="text" font-family="'Droid Sans'" fill="#8c8c8c" x="91.85" text-anchor="end" font-size="3.5" y="108.7" stroke-width="0" transform="translate(18.084 13.973)">D11 PWM/MOSI</text><path class="pin" fill="none" stroke="#787878" stroke-linecap="round" stroke-width=".7" d="M111.334 129.173h14.4"/><text class="text" font-family="'Droid Sans'" fill="#8c8c8c" x="91.85" text-anchor="end" font-size="3.5" y="115.9" stroke-width="0" transform="translate(18.084 13.973)">D12/MISO</text><path class="pin" fill="none" d="M111.334 136.373h14.4"/><path class="terminal" fill="none" d="M125.734 136.023h.7v.7h-.7z"/><path class="pin" fill="none" stroke="#787878" stroke-linecap="round" stroke-width=".7" d="M111.334 136.373h14.4"/><text class="text" font-family="'Droid Sans'" fill="#8c8c8c" x="91.85" text-anchor="end" font-size="3.5" y="123.1" stroke-width="0" transform="translate(18.084 13.973)">D13/SCK</text><path class="pin" fill="none" d="M18.434 42.773h14.4"/><path class="terminal" fill="none" d="M17.733 42.423h.7v.7h-.7z"/><path class="pin" fill="none" stroke="#787878" stroke-linecap="round" stroke-width=".7" d="M18.434 42.773h14.4"/><text class="text" font-family="'Droid Sans'" fill="#8c8c8c" x="16.15" font-size="3.5" y="29.5" stroke-width="0" transform="translate(18.084 13.973)">RESET</text><path class="pin" fill="none" stroke="#787878" stroke-linecap="round" stroke-width=".7" d="M18.434 49.973h14.4"/><text class="text" font-family="'Droid Sans'" fill="#8c8c8c" x="16.15" font-size="3.5" y="36.7" stroke-width="0" transform="translate(18.084 13.973)">RESET2</text><path class="terminal" fill="none" d="M17.733 49.623h.7v.7h-.7z"/><path class="pin" fill="none" stroke="#787878" stroke-linecap="round" stroke-width=".7" d="M18.434 57.173h14.4"/><text class="text" font-family="'Droid Sans'" fill="#8c8c8c" x="16.15" font-size="3.5" y="43.9" stroke-width="0" transform="translate(18.084 13.973)">AREF</text><path class="pin" fill="none" stroke="#787878" stroke-linecap="round" stroke-width=".7" d="M18.434 64.373h14.4"/><text class="text" font-family="'Droid Sans'" fill="#8c8c8c" x="16.15" font-size="3.5" y="51.1" stroke-width="0" transform="translate(18.084 13.973)">ioref</text><path class="pin" fill="none" stroke="#787878" stroke-linecap="round" stroke-width=".7" d="M18.434 78.773h14.4"/><text class="text" font-family="'Droid Sans'" fill="#8c8c8c" x="16.15" font-size="3.5" y="65.5" stroke-width="0" transform="translate(18.084 13.973)">A0</text><path class="pin" fill="none" stroke="#787878" stroke-linecap="round" stroke-width=".7" d="M18.434 85.973h14.4"/><text class="text" font-family="'Droid Sans'" fill="#8c8c8c" x="16.15" font-size="3.5" y="72.7" stroke-width="0" transform="translate(18.084 13.973)">A1</text><path class="pin" fill="none" stroke="#787878" stroke-linecap="round" stroke-width=".7" d="M18.434 93.173h14.4"/><text class="text" font-family="'Droid Sans'" fill="#8c8c8c" x="16.15" font-size="3.5" y="79.9" stroke-width="0" transform="translate(18.084 13.973)">A2</text><path class="pin" fill="none" stroke="#787878" stroke-linecap="round" stroke-width=".7" d="M18.434 100.373h14.4"/><text class="text" font-family="'Droid Sans'" fill="#8c8c8c" x="16.15" font-size="3.5" y="87.1" stroke-width="0" transform="translate(18.084 13.973)">A3</text><path class="pin" fill="none" d="M18.434 107.573h14.4"/><path class="terminal" fill="none" d="M17.733 107.223h.7v.7h-.7z"/><path class="pin" fill="none" d="M18.434 107.573h14.4"/><path class="terminal" fill="none" d="M17.733 107.223h.7v.7h-.7z"/><path class="pin" fill="none" d="M18.434 107.573h14.4M18.434 107.573h14.4"/><path class="terminal" fill="none" d="M17.733 107.223h.7v.7h-.7z"/><path class="pin" fill="none" d="M18.434 107.573h14.4"/><path class="terminal" fill="none" d="M17.733 107.223h.7v.7h-.7z"/><path class="pin" fill="none" d="M18.434 107.573h14.4"/><path class="terminal" fill="none" d="M17.733 107.223h.7v.7h-.7z"/><path class="pin" fill="none" stroke="#787878" stroke-linecap="round" stroke-width=".7" d="M18.434 107.573h14.4"/><text class="text" font-family="'Droid Sans'" fill="#8c8c8c" x="16.15" font-size="3.5" y="94.3" stroke-width="0" transform="translate(18.084 13.973)">A4/SDA</text><path class="pin" fill="none" d="M18.434 114.773h14.4"/><path class="pin" fill="none" stroke="#787878" stroke-linecap="round" stroke-width=".7" d="M18.434 114.773h14.4"/><text class="text" font-family="'Droid Sans'" fill="#8c8c8c" x="16.15" font-size="3.5" y="101.5" stroke-width="0" transform="translate(18.084 13.973)">A5/SCL</text><path class="pin" fill="none" stroke="#787878" stroke-linecap="round" stroke-width=".7" d="M18.434 150.773h14.4"/><text class="text" font-family="'Droid Sans'" fill="#8c8c8c" x="16.15" font-size="3.5" y="137.5" stroke-width="0" transform="translate(18.084 13.973)">N/C</text><path class="pin" fill="none" d="M75.684 164.823v14.4M75.684 164.823v14.4M75.684 164.823v14.4"/><path class="terminal" fill="none" d="M75.334 179.223h.7v.7h-.7z"/><path class="pin" fill="none" d="M75.684 164.823v14.4"/><path class="terminal" fill="none" d="M75.334 179.223h.7v.7h-.7z"/><path class="pin" fill="none" stroke="#787878" stroke-linecap="round" stroke-width=".7" d="M75.684 164.823v14.4"/><text class="text" font-family="'Droid Sans'" fill="#8c8c8c" font-size="3.5" stroke-width="0" transform="rotate(-90 119.903 43.52)">GND</text><path class="pin" fill="none" stroke="#787878" stroke-linecap="round" stroke-width=".7" d="M54.084 14.323v14.4"/><text class="text" font-family="'Droid Sans'" fill="#8c8c8c" text-anchor="end" font-size="3.5" stroke-width="0" transform="rotate(-90 42.453 -12.33)">3V3</text><path class="pin" fill="none" d="M68.483 14.323v14.4"/><path class="terminal" fill="none" d="M68.133 13.623h.7v.7h-.7z"/><path class="pin" fill="none" d="M68.483 14.323v14.4"/><path class="terminal" fill="none" d="M68.133 13.623h.7v.7h-.7z"/><path class="pin" fill="none" stroke="#787878" stroke-linecap="round" stroke-width=".7" d="M68.483 14.323v14.4"/><text class="text" font-family="'Droid Sans'" fill="#8c8c8c" text-anchor="end" font-size="3.5" stroke-width="0" transform="rotate(-90 49.653 -19.53)">5V</text><path class="pin" fill="none" stroke="#787878" stroke-linecap="round" stroke-width=".7" d="M82.883 14.323v14.4"/><text class="text" font-family="'Droid Sans'" fill="#8c8c8c" text-anchor="end" font-size="3.5" stroke-width="0" transform="rotate(-90 56.853 -26.73)">VIN</text><text class="text" font-family="'Droid Sans'" x="54.45" text-anchor="middle" font-size="4.25" y="76.45" stroke-width="0" transform="translate(18.084 13.973)">Arduino</text><text class="text" font-family="'Droid Sans'" x="54.45" text-anchor="middle" font-size="4.25" y="80.983" stroke-width="0" transform="translate(18.084 13.973)">Uno</text><text class="text" font-family="'Droid Sans'" x="54.45" text-anchor="middle" font-size="4.25" y="85.517" stroke-width="0" transform="translate(18.084 13.973)">(Rev3)</text><g><path fill="none" stroke="#000" stroke-linecap="round" stroke-width=".7" d="M180.61 89.504l17.475-9.917V69.318"/><path d="M180.715 87.556l-4.252 4.317 5.841-1.612z"/><path fill="none" stroke="#000" stroke-linecap="round" stroke-width=".7" d="M190.886 71.061v1.441l-2.88 2.159 6.48 3.601-6.48 3.599 6.48 3.6-6.48 3.6 6.48 3.6-6.48 3.6 2.88 2.16v1.44"/><path fill="none" stroke="#787878" stroke-linecap="round" stroke-width=".7" d="M198.106 64.211v6.85M190.885 64.211v6.85"/><text font-family="'DroidSans'" fill="#787878" font-size="2" transform="matrix(1 0 0 -1 188.006 67.06)">1</text><text font-family="'DroidSans'" fill="#787878" font-size="2" transform="matrix(1 0 0 -1 195.61 67.06)">3</text><path fill="none" stroke="#787878" stroke-linecap="round" stroke-width=".7" d="M190.885 106.711v-7.2"/><text font-family="'DroidSans'" fill="#787878" font-size="2" transform="matrix(1 0 0 -1 188.006 102.086)">2</text></g><g><path class="other" stroke="#000" stroke-linecap="round" stroke-width=".432" d="M147.684 85.973l2.88 1.08M150.564 87.053l-5.76 1.8M144.804 88.853l5.76 1.8M150.564 90.653l-5.76 1.8M144.804 92.453l5.76 1.8M150.564 94.253l-5.76 1.8M144.804 96.053l5.76 1.8M150.564 97.853l-5.76 1.8M144.804 99.653l2.88.72"/><path class="pin" stroke="#787878" stroke-linecap="round" stroke-width=".7" d="M147.684 107.573v-7.2"/><text class="text" font-family="'Droid Sans'" fill="#8c8c8c" x="25.55" text-anchor="middle" font-size="2.5" y="2.046" stroke-width="0" transform="rotate(90 36.179 114.601)">2</text><path class="pin" stroke="#787878" stroke-linecap="round" stroke-width=".7" d="M147.684 78.773v7.2"/><text class="text" font-family="'Droid Sans'" fill="#8c8c8c" x="3.95" text-anchor="middle" font-size="2.5" y="2.046" stroke-width="0" transform="rotate(90 36.179 114.601)">1</text></g><g><path stroke-miterlimit="10" fill="none" stroke="#787878" stroke-linecap="round" stroke-width=".75" d="M190.902 49.98v7.2"/><path fill="none" d="M184.152 49.764h13.5" stroke="#000" stroke-linecap="round" stroke-width=".9"/><text font-family="'DroidSans'" font-size="4.499" transform="translate(185.2 48.188)">5V</text></g><g><path stroke-miterlimit="10" fill="none" stroke="#787878" stroke-linecap="round" stroke-width=".75" d="M68.502 6.78v7.2"/><path fill="none" d="M61.752 6.564h13.5" stroke="#000" stroke-linecap="round" stroke-width=".9"/><text font-family="'DroidSans'" font-size="4.499" transform="translate(62.8 4.988)">5V</text></g><g><g fill="none"><path d="M169.284 114.671v-7.2" stroke="#787878" stroke-linecap="round" stroke-width=".75"/><path d="M162.583 114.807h13.4M164.815 117.552h8.935M171.514 120.271h-4.464" stroke="#000" stroke-linecap="round" stroke-width=".9"/></g></g><g><g fill="none"><path d="M75.684 186.671v-7.2" stroke="#787878" stroke-linecap="round" stroke-width=".75"/><path d="M68.983 186.807h13.4M71.215 189.552h8.935M77.914 192.271H73.45" stroke="#000" stroke-linecap="round" stroke-width=".9"/></g></g><g><path fill="none" d="M129.694 132.769h-3.6v7.2h3.6z"/><path fill="#fff" stroke="#000" stroke-width=".24" d="M126.207 136.369l3.48-3.48h14.36v6.96h-14.36z"/></g><g><path fill="none" d="M151.294 46.37h-3.6v7.2h3.6z"/><path fill="#fff" stroke="#000" stroke-width=".24" d="M147.807 49.97l3.48-3.48h14.36v6.96h-14.36z"/></g><g><path fill="none" d="M208.894 60.77h-3.6v7.2h3.6z"/><path fill="#fff" stroke="#000" stroke-width=".24" d="M205.407 64.37l3.48-3.48h14.36v6.96h-14.36z"/></g><g><path fill="none" d="M14.473 75.17h3.6v7.2h-3.6z"/><path fill="#fff" stroke="#000" stroke-width=".24" d="M17.96 78.77l-3.48-3.48H.12v6.96h14.36z"/></g><g><text x=".48" y="5.28" font-size="4.8" font-family="Droid Sans" transform="translate(129.034 132.615)">pin 13</text></g><g><text x=".48" y="5.28" font-size="4.8" font-family="Droid Sans" transform="translate(150.634 46.216)">pin 13</text></g><g><text x=".48" y="5.28" font-size="4.8" font-family="Droid Sans" transform="translate(208.234 60.616)">pin A0</text></g><g><text font-family="Droid Sans" x=".48" y="5.28" font-size="4.8" transform="translate(0 75.17)">pin A0</text></g><g><path stroke-linecap="round" stroke="#404040" stroke-width=".7" d="M147.684 78.773h-.001"/></g><g><path stroke-linecap="round" stroke="#404040" stroke-width=".7" d="M147.684 49.973v7.199"/></g><g><path stroke-linecap="round" stroke="#404040" stroke-width=".7" d="M75.683 179.573h.001"/></g><g><path stroke-linecap="round" stroke="#404040" stroke-width=".7" d="M68.483 13.973h.001"/></g><g><path stroke-linecap="round" stroke="#404040" stroke-width=".7" d="M126.084 136.373"/></g><g><path stroke-linecap="round" stroke="#404040" stroke-width=".7" d="M190.884 57.173v7.2"/></g><g><path stroke-linecap="round" stroke="#404040" stroke-width=".7" d="M169.247 107.623l-21.563-.05"/></g><circle cx="169.247" cy="107.623" r="1.44"/><g><path stroke-linecap="round" stroke="#404040" stroke-width=".7" d="M190.885 107.061l-21.638.562"/></g><g><path stroke-linecap="round" stroke="#404040" stroke-width=".7" d="M169.247 107.623l.037-.05"/></g><g><path stroke-linecap="round" stroke="#404040" stroke-width=".7" d="M18.084 78.773"/></g><g><path stroke-linecap="round" stroke="#404040" stroke-width=".7" d="M205.284 64.373l-7.166.015"/></g><g><text y="3.75" transform="translate(158.114 62.436)" font-size="5" font-family="'DroidSans'">LED<tspan font-size="4" x="0" y="8.5">(light</tspan> <tspan font-size="4" x="0" y="13">emitting</tspan> <tspan font-size="4" x="0" y="17.5">diode)</tspan> <tspan font-size="6" x="-7.2" y="-17.8">Arduino</tspan> <tspan font-size="6" x="46.5" y="-7.3">Arduino</tspan> <tspan font-size="4" x="51.2" y="-3.2">analog</tspan></text></g><g><g font-size="5" font-family="'DroidSans'"><text y="3.75" transform="translate(152.903 84.966)">resistor<tspan font-size="4" x="0" y="13">(blue-green</tspan> <tspan font-size="4" x="0" y="17.5">-brown)</tspan></text><text y="8.75" transform="translate(152.903 84.966)">560Ω</text></g></g><g><text y="3.75" transform="rotate(-90 152.518 -46.853)" font-size="5" font-family="'DroidSans'">Potentiomenter</text></g><g><text y="3.75" transform="translate(178.181 113.087)" font-size="5" font-family="'DroidSans'">gnd<tspan font-size="4" x="0" y="8.9">(ground) (-)</tspan></text></g></svg>