<svg xmlns="http://www.w3.org/2000/svg" version="1.2" baseProfile="tiny" width="311.675" height="257.995" viewBox="0 0 233.756 193.496"><path class="other" stroke-width=".432" stroke-linecap="round" stroke="#000" d="M165.6 150.773l-5.76 2.88M163.44 162.293l2.16 2.88M165.6 165.173H162M162 165.173l1.44-2.88M162.765 163.756l-3.492-1.746"/><path class="other" stroke-width=".72" stroke-linecap="round" stroke="#000" d="M162.72 164.813h2.16M164.88 164.813l-1.44-1.8M163.44 163.013l-.72 1.44M162.72 164.453h1.08M163.8 164.453l-.36-.72"/><path class="other" d="M157.68 150.773h2.16v14.4h-2.16z"/><path class="pin" stroke-width=".7" stroke-linecap="round" stroke="#787878" d="M151.2 157.973h7.2"/><text class="text" stroke-width="0" x="3.95" y="13.7" font-family="'Droid Sans'" font-size="2.5" fill="#8c8c8c" text-anchor="middle" transform="translate(150.85 143.223)">1</text><path class="pin" stroke-width=".7" stroke-linecap="round" stroke="#787878" d="M165.6 172.373v-7.2"/><text class="text" stroke-width="0" font-family="'Droid Sans'" font-size="2.5" fill="#8c8c8c" text-anchor="middle" transform="rotate(-90 166.662 2.112)">2</text><path class="pin" stroke-width=".7" stroke-linecap="round" stroke="#787878" d="M165.6 143.573v7.2"/><text class="text" stroke-width="0" font-family="'Droid Sans'" font-size="2.5" fill="#8c8c8c" text-anchor="middle" transform="rotate(-90 155.862 -8.688)">3</text><g transform="translate(209.895 128.626)"><path d="M11.88 14.75a5.753 5.753 0 0 0-2.973-5.04h.813V3.95h-7.2v5.76h.813a5.758 5.758 0 0 0 0 10.08H2.52v5.761h7.2V19.79h-.814a5.755 5.755 0 0 0 2.974-5.04z" stroke-width=".9" fill="#FFF" stroke="#000"/><text font-family="'DroidSans'" font-size="4.25" transform="translate(4.32 16.275)">M</text><path stroke-width=".9" stroke-linecap="round" fill="none" stroke="#000" d="M2.52 3.95v5.76M2.52 3.95h3.6M6.12 3.95h3.6M9.72 3.95v5.76M9.72 25.551V19.79M9.72 25.551h-3.6M6.12 25.551h-3.6M2.52 25.551V19.79"/><path stroke-miterlimit="10" stroke-width=".75" stroke-linecap="round" fill="none" stroke="#8C8C8C" d="M6.12.35v3.6M6.12 29.15v-3.599"/><circle cx="6.12" stroke-width=".9" cy="14.75" fill="none" r="5.76" stroke="#000"/><text font-family="'DroidSans'" font-size="2.5" fill="#8C8C8C" transform="translate(7.244 2.635)">1</text><text font-family="'DroidSans'" font-size="3.5" fill="#787878" transform="translate(5.152 7.39)">+</text><text font-family="'DroidSans'" font-size="2.5" fill="#8C8C8C" transform="translate(7.244 28.516)">2</text><text font-family="'DroidSans'" font-size="3.5" fill="#787878" transform="translate(5.432 24.125)">-</text></g><g xmlns="http://www.w3.org/2000/svg" fill="none"><path d="M165.6 179.471v-7.2" stroke-width=".75" xmlns="http://www.w3.org/2000/svg" stroke-linecap="round" stroke="#787878"/><path d="M158.899 179.607h13.4M161.131 182.352h8.935M167.83 185.071h-4.464" stroke-width=".9" xmlns="http://www.w3.org/2000/svg" stroke-linecap="round" stroke="#000"/></g><g stroke-width=".56" stroke-linejoin="round" font-family="'Droid Sans'" font-size="1.601" stroke-linecap="round" fill="none"><g stroke="#000"><g transform="matrix(0 1 1 0 233.994 133.19)" stroke-width=".08" font-size="4.403" fill="#000" text-anchor="middle">relay coil</g></g><g fill="#787878"><g transform="matrix(0 1 1 0 239.198 119.59)">1</g><g text-anchor="end" transform="matrix(0 1 1 0 239.198 148.39)">16</g></g><g><g fill="#000" stroke="#000"><g stroke-width=".08" fill="#787878" stroke="#787878" transform="matrix(0 1 1 0 210.4 127.596)">N.C.</g><g stroke-width=".08" fill="#787878" stroke="#787878" transform="matrix(0 1 1 0 224 127.596)">N.O.</g><g stroke-width=".08" fill="#787878" stroke="#787878" transform="matrix(0 1 1 0 218.72 127.596)">C</g></g><g fill="#787878" text-anchor="middle"><g transform="matrix(0 1 1 0 208.8 122.793)">6</g><g transform="matrix(0 1 1 0 216 122.793)">4</g><g transform="matrix(0 1 1 0 223.2 122.793)">8</g></g></g><g><g fill="#000" stroke="#000"><path d="M212.8 117.965v-1.281l1.04.64zM219.2 117.965v-1.281l-1.04.64z" stroke-linejoin="miter"/><path d="M219.2 117.965v3.202h4v.8M212.8 117.965v3.202h-4v.8M214.4 116.764l1.6 3.202v2.002" fill="none"/><g text-anchor="end"><text stroke-width=".08" fill="#787878" stroke="#787878" transform="rotate(90 44.117 164.483)">N.C.</text><text stroke-width=".08" fill="#787878" stroke="#787878" transform="rotate(90 50.917 171.283)">N.O.</text><text stroke-width=".08" fill="#787878" stroke="#787878" transform="rotate(90 48.277 168.643)">C</text></g></g><g fill="#787878" text-anchor="middle"><text transform="rotate(90 40.915 166.085)">11</text><text transform="rotate(90 44.515 169.685)">13</text><text x=".4" transform="rotate(90 48.115 173.285)">9</text><path fill="none" d="M206.4 125.97v-.8h.8v.8z"/></g><g stroke="#787878"><path d="M208.8 129.173v-7.205M216 129.173v-7.205M223.2 129.173v-7.205"/></g></g></g><g stroke-width=".56" stroke-linejoin="round" font-family="'Droid Sans'" font-size="1.601" stroke-linecap="round" fill="none"><g stroke="#000"><g transform="matrix(0 1 1 0 233.994 181.174)" stroke-width=".08" font-size="4.403" fill="#000" text-anchor="middle">relay coil</g></g><g fill="#787878"><g transform="matrix(0 1 1 0 239.198 167.574)">1</g><g text-anchor="end" transform="matrix(0 1 1 0 239.198 196.374)">16</g></g><g><g fill="#000" stroke="#000"><path d="M212.8 176.38v1.282l1.04-.64zM219.2 176.38v1.282l-1.04-.64z" stroke-linejoin="miter"/><path d="M219.2 176.38v-3.202h4v-.8M212.8 176.38v-3.202h-4v-.8M214.4 177.581l1.6-3.202v-2.001" fill="none"/><text stroke-width=".08" fill="#787878" stroke="#787878" transform="rotate(90 17.31 191.29)">N.C.</text><text stroke-width=".08" fill="#787878" stroke="#787878" transform="rotate(90 24.11 198.09)">N.O.</text><text stroke-width=".08" fill="#787878" stroke="#787878" transform="rotate(90 21.47 195.45)">C</text></g><g fill="#787878" text-anchor="middle"><text transform="rotate(90 18.912 188.088)">6</text><text transform="rotate(90 22.512 191.688)">4</text><text transform="rotate(90 26.112 195.288)">8</text><path fill="none" d="M206.4 169.175v.801h.8v-.8z"/></g><g stroke="#787878"><path d="M208.8 165.173v7.205M216 165.173v7.205M223.2 165.173v7.205"/></g></g><g><g fill="#000" stroke="#000"><g text-anchor="end"><g stroke-width=".08" fill="#787878" stroke="#787878" transform="matrix(0 1 1 0 210.4 186.788)">N.C.</g><g stroke-width=".08" fill="#787878" stroke="#787878" transform="matrix(0 1 1 0 224 186.788)">N.O.</g><g stroke-width=".08" fill="#787878" stroke="#787878" transform="matrix(0 1 1 0 218.72 186.788)">C</g></g></g><g fill="#787878" text-anchor="middle"><g transform="matrix(0 1 1 0 208.8 191.591)">11</g><g transform="matrix(0 1 1 0 216 191.591)">13</g><g transform="matrix(0 1 1 0 223.2 191.591)">9</g></g></g></g><g stroke-width=".56" stroke-linejoin="round" font-family="'Droid Sans'" font-size="1.601" stroke-linecap="round" fill="none"><g stroke="#000"><path d="M158.395 143.573h-5.604v-4.4c-2.802 0-2.802-4 0-4-2.802 0-2.802-4 0-4-2.802 0-2.802-4 0-4-2.802 0-2.802-4 0-4-2.802 0-2.802-4 0-4v-4.4h5.604"/><text transform="rotate(-90 143.184 -14.01)" stroke-width=".08" font-size="4.403" fill="#000" text-anchor="middle">relay coil</text></g><g fill="#787878"><text transform="rotate(-90 152.586 -9.812)">1</text><text x="-1.601" text-anchor="end" transform="rotate(-90 138.186 -24.212)">16</text></g><g stroke="#787878"><path d="M165.6 143.573h-7.205M165.6 114.773h-7.205"/></g><g><g fill="#000" stroke="#000"><g stroke-width=".08" fill="#787878" stroke="#787878" transform="rotate(-90 143.793 -10.627)">N.C.</g><g stroke-width=".08" fill="#787878" stroke="#787878" transform="rotate(-90 150.593 -17.427)">N.O.</g><g stroke-width=".08" fill="#787878" stroke="#787878" transform="rotate(-90 147.953 -14.787)">C</g></g><g fill="#787878" text-anchor="middle"><g transform="rotate(-90 145.395 -7.425)">6</g><g transform="rotate(-90 148.995 -11.025)">4</g><g transform="rotate(-90 152.595 -14.625)">8</g></g></g><g><g fill="#000" stroke="#000"><g text-anchor="end"><g stroke-width=".08" fill="#787878" stroke="#787878" transform="rotate(-90 138.189 -16.231)">N.C.</g><g stroke-width=".08" fill="#787878" stroke="#787878" transform="rotate(-90 144.989 -23.031)">N.O.</g><g stroke-width=".08" fill="#787878" stroke="#787878" transform="rotate(-90 142.349 -20.391)">C</g></g></g><g fill="#787878" text-anchor="middle"><g transform="rotate(-90 134.987 -17.833)">11</g><g transform="rotate(-90 138.587 -21.433)">13</g><g transform="rotate(-90 142.187 -25.033)">9</g></g></g></g><g xmlns="http://www.w3.org/2000/svg"><path class="other" stroke-width=".432" xmlns="http://www.w3.org/2000/svg" stroke-linecap="round" stroke="#000" d="M144 143.573l-2.88-1.08M141.12 142.493l5.76-1.8M146.88 140.693l-5.76-1.8M141.12 138.893l5.76-1.8M146.88 137.093l-5.76-1.8M141.12 135.293l5.76-1.8M146.88 133.493l-5.76-1.8M141.12 131.693l5.76-1.8M146.88 129.893l-2.88-.72"/><path class="pin" stroke-width=".7" xmlns="http://www.w3.org/2000/svg" stroke-linecap="round" stroke="#787878" d="M144 121.973v7.2"/><text class="text" stroke-width="0" x="25.55" xmlns="http://www.w3.org/2000/svg" y="2.046" font-family="'Droid Sans'" font-size="2.5" fill="#8c8c8c" text-anchor="middle" transform="rotate(-90 146.013 5.11)">2</text><path class="pin" stroke-width=".7" xmlns="http://www.w3.org/2000/svg" stroke-linecap="round" stroke="#787878" d="M144 150.773v-7.2"/><text class="text" stroke-width="0" x="3.95" xmlns="http://www.w3.org/2000/svg" y="2.046" font-family="'Droid Sans'" font-size="2.5" fill="#8c8c8c" text-anchor="middle" transform="rotate(-90 146.013 5.11)">1</text></g><path class="interior rect" stroke-width=".9" stroke-linecap="round" fill="#FFF" stroke="#000" d="M14.85 28.823h78.3v135.9h-78.3z"/><path class="pin" stroke-width=".7" stroke-linecap="round" fill="none" stroke="#787878" d="M93.25 42.773h14.4"/><text class="text" stroke-width="0" x="91.85" y="29.5" font-family="'Droid Sans'" font-size="3.5" fill="#8c8c8c" text-anchor="end" transform="translate(0 13.973)">D0/RX</text><path class="pin" stroke-width=".7" stroke-linecap="round" fill="none" stroke="#787878" d="M93.25 49.973h14.4"/><text class="text" stroke-width="0" x="91.85" y="36.7" font-family="'Droid Sans'" font-size="3.5" fill="#8c8c8c" text-anchor="end" transform="translate(0 13.973)">D1/TX</text><path class="pin" stroke-width=".7" stroke-linecap="round" fill="none" stroke="#787878" d="M93.25 57.173h14.4"/><text class="text" stroke-width="0" x="91.85" y="43.9" font-family="'Droid Sans'" font-size="3.5" fill="#8c8c8c" text-anchor="end" transform="translate(0 13.973)">D2</text><path class="pin" stroke-width=".7" stroke-linecap="round" fill="none" stroke="#787878" d="M93.25 64.373h14.4"/><text class="text" stroke-width="0" x="91.85" y="51.1" font-family="'Droid Sans'" font-size="3.5" fill="#8c8c8c" text-anchor="end" transform="translate(0 13.973)">D3 PWM</text><path class="pin" stroke-width=".7" stroke-linecap="round" fill="none" stroke="#787878" d="M93.25 71.573h14.4"/><text class="text" stroke-width="0" x="91.85" y="58.3" font-family="'Droid Sans'" font-size="3.5" fill="#8c8c8c" text-anchor="end" transform="translate(0 13.973)">D4</text><path class="pin" stroke-width=".7" stroke-linecap="round" fill="none" stroke="#787878" d="M93.25 78.773h14.4"/><text class="text" stroke-width="0" x="91.85" y="65.5" font-family="'Droid Sans'" font-size="3.5" fill="#8c8c8c" text-anchor="end" transform="translate(0 13.973)">D5 PWM</text><path class="pin" stroke-width=".7" stroke-linecap="round" fill="none" stroke="#787878" d="M93.25 85.973h14.4"/><text class="text" stroke-width="0" x="91.85" y="72.7" font-family="'Droid Sans'" font-size="3.5" fill="#8c8c8c" text-anchor="end" transform="translate(0 13.973)">D6 PWM</text><path class="pin" stroke-width=".7" stroke-linecap="round" fill="none" stroke="#787878" d="M93.25 93.173h14.4"/><text class="text" stroke-width="0" x="91.85" y="79.9" font-family="'Droid Sans'" font-size="3.5" fill="#8c8c8c" text-anchor="end" transform="translate(0 13.973)">D7</text><path class="pin" stroke-width=".7" stroke-linecap="round" fill="none" stroke="#787878" d="M93.25 100.373h14.4"/><text class="text" stroke-width="0" x="91.85" y="87.1" font-family="'Droid Sans'" font-size="3.5" fill="#8c8c8c" text-anchor="end" transform="translate(0 13.973)">D8</text><path class="pin" stroke-width=".7" stroke-linecap="round" fill="none" stroke="#787878" d="M93.25 107.573h14.4"/><text class="text" stroke-width="0" x="91.85" y="94.3" font-family="'Droid Sans'" font-size="3.5" fill="#8c8c8c" text-anchor="end" transform="translate(0 13.973)">D9 PWM</text><path class="pin" stroke-width=".7" stroke-linecap="round" fill="none" stroke="#787878" d="M93.25 114.773h14.4"/><text class="text" stroke-width="0" x="91.85" y="101.5" font-family="'Droid Sans'" font-size="3.5" fill="#8c8c8c" text-anchor="end" transform="translate(0 13.973)">D10 PWM/SS</text><path class="pin" stroke-width=".7" stroke-linecap="round" fill="none" stroke="#787878" d="M93.25 121.973h14.4"/><text class="text" stroke-width="0" x="91.85" y="108.7" font-family="'Droid Sans'" font-size="3.5" fill="#8c8c8c" text-anchor="end" transform="translate(0 13.973)">D11 PWM/MOSI</text><path class="pin" stroke-width=".7" stroke-linecap="round" fill="none" stroke="#787878" d="M93.25 129.173h14.4"/><text class="text" stroke-width="0" x="91.85" y="115.9" font-family="'Droid Sans'" font-size="3.5" fill="#8c8c8c" text-anchor="end" transform="translate(0 13.973)">D12/MISO</text><path class="pin" fill="none" d="M93.25 136.373h14.4"/><path class="terminal" fill="none" d="M107.65 136.023h.7v.7h-.7z"/><path class="pin" stroke-width=".7" stroke-linecap="round" fill="none" stroke="#787878" d="M93.25 136.373h14.4"/><text class="text" stroke-width="0" x="91.85" y="123.1" font-family="'Droid Sans'" font-size="3.5" fill="#8c8c8c" text-anchor="end" transform="translate(0 13.973)">D13/SCK</text><path class="pin" fill="none" d="M.35 42.773h14.4"/><path class="terminal" fill="none" d="M-.35 42.423h.7v.7h-.7z"/><path class="pin" stroke-width=".7" stroke-linecap="round" fill="none" stroke="#787878" d="M.35 42.773h14.4"/><text class="text" stroke-width="0" x="16.15" y="29.5" font-family="'Droid Sans'" font-size="3.5" fill="#8c8c8c" transform="translate(0 13.973)">RESET</text><path class="pin" stroke-width=".7" stroke-linecap="round" fill="none" stroke="#787878" d="M.35 49.973h14.4"/><text class="text" stroke-width="0" x="16.15" y="36.7" font-family="'Droid Sans'" font-size="3.5" fill="#8c8c8c" transform="translate(0 13.973)">RESET2</text><path class="terminal" fill="none" d="M-.35 49.623h.7v.7h-.7z"/><path class="pin" stroke-width=".7" stroke-linecap="round" fill="none" stroke="#787878" d="M.35 57.173h14.4"/><text class="text" stroke-width="0" x="16.15" y="43.9" font-family="'Droid Sans'" font-size="3.5" fill="#8c8c8c" transform="translate(0 13.973)">AREF</text><path class="pin" stroke-width=".7" stroke-linecap="round" fill="none" stroke="#787878" d="M.35 64.373h14.4"/><text class="text" stroke-width="0" x="16.15" y="51.1" font-family="'Droid Sans'" font-size="3.5" fill="#8c8c8c" transform="translate(0 13.973)">ioref</text><path class="pin" stroke-width=".7" stroke-linecap="round" fill="none" stroke="#787878" d="M.35 78.773h14.4"/><text class="text" stroke-width="0" x="16.15" y="65.5" font-family="'Droid Sans'" font-size="3.5" fill="#8c8c8c" transform="translate(0 13.973)">A0</text><path class="pin" stroke-width=".7" stroke-linecap="round" fill="none" stroke="#787878" d="M.35 85.973h14.4"/><text class="text" stroke-width="0" x="16.15" y="72.7" font-family="'Droid Sans'" font-size="3.5" fill="#8c8c8c" transform="translate(0 13.973)">A1</text><path class="pin" stroke-width=".7" stroke-linecap="round" fill="none" stroke="#787878" d="M.35 93.173h14.4"/><text class="text" stroke-width="0" x="16.15" y="79.9" font-family="'Droid Sans'" font-size="3.5" fill="#8c8c8c" transform="translate(0 13.973)">A2</text><path class="pin" stroke-width=".7" stroke-linecap="round" fill="none" stroke="#787878" d="M.35 100.373h14.4"/><text class="text" stroke-width="0" x="16.15" y="87.1" font-family="'Droid Sans'" font-size="3.5" fill="#8c8c8c" transform="translate(0 13.973)">A3</text><path class="pin" fill="none" d="M.35 107.573h14.4"/><path class="terminal" fill="none" d="M-.35 107.223h.7v.7h-.7z"/><path class="pin" fill="none" d="M.35 107.573h14.4"/><path class="terminal" fill="none" d="M-.35 107.223h.7v.7h-.7z"/><path class="pin" fill="none" d="M.35 107.573h14.4M.35 107.573h14.4"/><path class="terminal" fill="none" d="M-.35 107.223h.7v.7h-.7z"/><path class="pin" fill="none" d="M.35 107.573h14.4"/><path class="terminal" fill="none" d="M-.35 107.223h.7v.7h-.7z"/><path class="pin" fill="none" d="M.35 107.573h14.4"/><path class="terminal" fill="none" d="M-.35 107.223h.7v.7h-.7z"/><path class="pin" stroke-width=".7" stroke-linecap="round" fill="none" stroke="#787878" d="M.35 107.573h14.4"/><text class="text" stroke-width="0" x="16.15" y="94.3" font-family="'Droid Sans'" font-size="3.5" fill="#8c8c8c" transform="translate(0 13.973)">A4/SDA</text><path class="pin" fill="none" d="M.35 114.773h14.4"/><path class="pin" stroke-width=".7" stroke-linecap="round" fill="none" stroke="#787878" d="M.35 114.773h14.4"/><text class="text" stroke-width="0" x="16.15" y="101.5" font-family="'Droid Sans'" font-size="3.5" fill="#8c8c8c" transform="translate(0 13.973)">A5/SCL</text><path class="pin" stroke-width=".7" stroke-linecap="round" fill="none" stroke="#787878" d="M.35 150.773h14.4"/><text class="text" stroke-width="0" x="16.15" y="137.5" font-family="'Droid Sans'" font-size="3.5" fill="#8c8c8c" transform="translate(0 13.973)">N/C</text><path class="pin" fill="none" d="M57.6 164.823v14.4M57.6 164.823v14.4M57.6 164.823v14.4"/><path class="terminal" fill="none" d="M57.25 179.223h.7v.7h-.7z"/><path class="pin" fill="none" d="M57.6 164.823v14.4"/><path class="terminal" fill="none" d="M57.25 179.223h.7v.7h-.7z"/><path class="pin" stroke-width=".7" stroke-linecap="round" fill="none" stroke="#787878" d="M57.6 164.823v14.4"/><text class="text" stroke-width="0" font-family="'Droid Sans'" font-size="3.5" fill="#8c8c8c" transform="rotate(-90 110.861 52.562)">GND</text><path class="pin" stroke-width=".7" stroke-linecap="round" fill="none" stroke="#787878" d="M36 14.323v14.4"/><text class="text" stroke-width="0" font-family="'Droid Sans'" font-size="3.5" fill="#8c8c8c" text-anchor="end" transform="rotate(-90 33.411 -3.288)">3V3</text><path class="pin" fill="none" d="M50.4 14.323v14.4"/><path class="terminal" fill="none" d="M50.05 13.623h.7v.7h-.7z"/><path class="pin" fill="none" d="M50.4 14.323v14.4"/><path class="terminal" fill="none" d="M50.05 13.623h.7v.7h-.7z"/><path class="pin" stroke-width=".7" stroke-linecap="round" fill="none" stroke="#787878" d="M50.4 14.323v14.4"/><text class="text" stroke-width="0" font-family="'Droid Sans'" font-size="3.5" fill="#8c8c8c" text-anchor="end" transform="rotate(-90 40.611 -10.488)">5V</text><path class="pin" stroke-width=".7" stroke-linecap="round" fill="none" stroke="#787878" d="M64.8 14.323v14.4"/><text class="text" stroke-width="0" font-family="'Droid Sans'" font-size="3.5" fill="#8c8c8c" text-anchor="end" transform="rotate(-90 47.812 -17.688)">VIN</text><text class="text" stroke-width="0" x="54.45" y="76.45" font-family="'Droid Sans'" font-size="4.25" text-anchor="middle" transform="translate(0 13.973)">Arduino</text><text class="text" stroke-width="0" x="54.45" y="80.983" font-family="'Droid Sans'" font-size="4.25" text-anchor="middle" transform="translate(0 13.973)">Uno</text><text class="text" stroke-width="0" x="54.45" y="85.517" font-family="'Droid Sans'" font-size="4.25" text-anchor="middle" transform="translate(0 13.973)">(Rev3)</text><g><path stroke-width=".7" stroke-linecap="round" fill="none" stroke="#000" d="M162.002 121.972h3.599M165.601 121.972h3.601"/><path stroke-width=".7" stroke-linecap="round" fill="#FFF" stroke="#000" d="M165.601 121.972l3.601 7.2h-7.2z"/><path stroke-width=".45" stroke-linecap="round" fill="none" stroke="#000" d="M165.601 129.172v-7.2"/><path stroke-width=".7" stroke-linecap="round" fill="none" stroke="#787878" d="M165.601 114.773v7.199"/><text font-family="'Droid Sans'" font-size="2" fill="#787878" transform="rotate(90 24.5 142.032)">2</text><path stroke-width=".7" stroke-linecap="round" fill="none" stroke="#787878" d="M165.601 136.373v-7.201"/><text font-family="'Droid Sans'" font-size="2" fill="#787878" transform="rotate(90 17.3 149.232)">1</text></g><g><g xmlns="http://www.w3.org/2000/svg" fill="none"><path d="M57.6 186.671v-7.2" stroke-width=".75" xmlns="http://www.w3.org/2000/svg" stroke-linecap="round" stroke="#787878"/><path d="M50.9 186.807h13.4M53.132 189.552h8.935M59.83 192.271h-4.463" stroke-width=".9" xmlns="http://www.w3.org/2000/svg" stroke-linecap="round" stroke="#000"/></g></g><g><path stroke-miterlimit="10" stroke-width=".75" stroke-linecap="round" fill="none" stroke="#787878" d="M50.419 6.78v7.2"/><path d="M43.669 6.564h13.5" stroke-width=".9" stroke-linecap="round" fill="none" stroke="#000"/><text font-family="'DroidSans'" font-size="4.499" transform="translate(44.717 4.988)">5V</text></g><g><path stroke-miterlimit="10" stroke-width=".75" stroke-linecap="round" fill="none" stroke="#787878" d="M201.618 114.78v7.2"/><path d="M194.868 114.564h13.5" stroke-width=".9" stroke-linecap="round" fill="none" stroke="#000"/><text font-family="'DroidSans'" font-size="4.499" transform="translate(195.917 112.988)">5V</text></g><g><path stroke-miterlimit="10" stroke-width=".75" stroke-linecap="round" fill="none" stroke="#787878" d="M165.618 107.58v7.2"/><path d="M158.868 107.364h13.5" stroke-width=".9" stroke-linecap="round" fill="none" stroke="#000"/><text font-family="'DroidSans'" font-size="4.499" transform="translate(159.917 105.788)">5V</text></g><g><g xmlns="http://www.w3.org/2000/svg" fill="none"><path d="M201.6 179.471v-7.2" stroke-width=".75" xmlns="http://www.w3.org/2000/svg" stroke-linecap="round" stroke="#787878"/><path d="M194.899 179.607h13.4M197.131 182.352h8.935M203.83 185.071h-4.464" stroke-width=".9" xmlns="http://www.w3.org/2000/svg" stroke-linecap="round" stroke="#000"/></g></g><g><g xmlns="http://www.w3.org/2000/svg"><path xmlns="http://www.w3.org/2000/svg" fill="none" d="M111.61 53.57h-3.6v7.2h3.6z"/><path stroke-width=".24" xmlns="http://www.w3.org/2000/svg" fill="#fff" stroke="#000" d="M108.123 57.17l3.48-3.48h11.36v6.96h-11.36z"/></g></g><g><g xmlns="http://www.w3.org/2000/svg"><path xmlns="http://www.w3.org/2000/svg" fill="none" d="M140.39 103.969h3.6v7.2h-3.6z"/><path stroke-width=".24" xmlns="http://www.w3.org/2000/svg" fill="#fff" stroke="#000" d="M143.877 107.569l-3.48-3.48h-11.36v6.96h11.36z"/></g></g><g><text xmlns="http://www.w3.org/2000/svg" x="3.48" y="5.28" font-family="Droid Sans" font-size="4.8" transform="translate(108.003 53.57)">pin 2</text></g><g><text xmlns="http://www.w3.org/2000/svg" x=".48" y="5.28" font-family="Droid Sans" font-size="4.8" transform="translate(128.917 103.969)">pin 2</text></g><g><path stroke-linecap="round" stroke="#404040" stroke-width=".7" d="M201.649 165.257l7.151-.084"/></g><circle cx="208.8" cy="165.173" r="1.44"/><g><path stroke-linecap="round" stroke="#404040" stroke-width=".7" d="M201.6 172.373l.049-7.116"/></g><g><path stroke-linecap="round" stroke="#404040" stroke-width=".7" d="M223.235 158.061l-14.435 7.112"/></g><circle cx="208.8" cy="165.173" r="1.44"/><g><path stroke-linecap="round" stroke="#404040" stroke-width=".7" d="M223.2 129.173l.036 28.888"/></g><g><path stroke-linecap="round" stroke="#404040" stroke-width=".7" d="M201.649 129.099l7.151.074"/></g><circle cx="208.8" cy="129.173" r="1.44"/><g><path stroke-linecap="round" stroke="#404040" stroke-width=".7" d="M201.6 121.973l.049 7.126"/></g><g><path stroke-linecap="round" stroke="#404040" stroke-width=".7" d="M208.844 158.061l-.044-28.888"/></g><circle cx="208.8" cy="129.173" r="1.44"/><g><path stroke-linecap="round" stroke="#404040" stroke-width=".7" d="M223.2 165.173l-14.356-7.112"/></g><g><path stroke-linecap="round" stroke="#404040" stroke-width=".7" d="M165.6 114.752v.021"/></g><circle cx="165.6" cy="114.752" r="1.44"/><g><path stroke-linecap="round" stroke="#404040" stroke-width=".7" d="M151.2 157.973l-7.2-7.2"/></g><circle cx="144" cy="150.773" r="1.44"/><g><path stroke-linecap="round" stroke="#404040" stroke-width=".7" d="M144 150.773"/></g><circle cx="144" cy="150.773" r="1.44"/><g><path stroke-linecap="round" stroke="#404040" stroke-width=".7" d="M165.6 172.373"/></g><g><path stroke-linecap="round" stroke="#404040" stroke-width=".7" d="M165.6 143.573"/></g><circle cx="165.6" cy="143.573" r="1.44"/><g><path stroke-linecap="round" stroke="#404040" stroke-width=".7" d="M165.6 143.573v-7.2"/></g><circle cx="165.6" cy="143.573" r="1.44"/><g><path stroke-linecap="round" stroke="#404040" stroke-width=".7" d="M216.015 157.634l-.015 7.539"/></g><g><path stroke-linecap="round" stroke="#404040" stroke-width=".7" d="M216 129.173"/></g><g><path stroke-linecap="round" stroke="#404040" stroke-width=".7" d="M165.6 114.752v.021"/></g><circle cx="165.6" cy="114.752" r="1.44"/><g><path stroke-linecap="round" stroke="#404040" stroke-width=".7" d="M50.4 13.973"/></g><g><path stroke-linecap="round" stroke="#404040" stroke-width=".7" d="M57.6 179.573"/></g><g><path stroke-linecap="round" stroke="#404040" stroke-width=".7" d="M144 107.573v14.4"/></g><g><path stroke-linecap="round" stroke="#404040" stroke-width=".7" d="M108 57.173"/></g><g><g font-size="5" font-family="'DroidSans'"><text y="3.75" transform="rotate(-90 137.101 6.317)">R1</text><text y="8.75" transform="rotate(-90 137.101 6.317)">2.2kΩ</text></g></g><g><text y="3.75" transform="translate(208.156 182.784)" font-size="5" font-family="'DroidSans'">gnd (-)</text></g><g><text y="3.75" transform="translate(171.351 121.015)" font-size="5" font-family="'DroidSans'">Diode<tspan font-size="4" x="0" y="8.9">(flyback)</tspan></text></g><g><text y="3.75" transform="translate(172.734 183.007)" font-size="5" font-family="'DroidSans'">(ground)</text></g><g><text y="3.75" transform="rotate(90 36.434 171.702)" font-size="5" font-family="'DroidSans'">Motor</text></g><g><g font-size="5" font-family="'DroidSans'"><text y="3.75" transform="translate(164.986 153.155)">Transistor<tspan font-size="3.9" x="2" y="-3">Collector</tspan><tspan font-size="3.9" x="-22" y="9">Base</tspan><tspan font-size="3.9" x="2" y="16">Emitter</tspan></text><text y="8.75" transform="translate(164.986 153.155)">2N2222AG</text></g></g></svg>